# Alias OBJ Model File
# Exported from SketchUp, (c) 2000-2012 Trimble Navigation Limited
# File units = meters

mtllib basic.mtl

g Mesh1 Model

usemtl FrontColor
v 21.5104 -3.9144 13.3437
vt 846.868 -39.2255
vn -6.82867e-18 -0.170161 0.985416
v -18.1507 -3.9144 13.3437
vt -714.596 -39.2255
v -18.2681 -4.73686 13.1653
vt -719.217 -72.3592
vn -1.23694e-17 -0.212016 0.977266
v -18.3024 -5.09172 13.0883
vt -720.568 -86.655
vn -3.48421e-18 -0.253485 0.967339
v 21.49 -5.09172 13.0883
vt 846.062 -86.655
f 1/1/1 2/2/1 3/3/2 4/4/3 5/5/3 

vt -714.596 -85.6003
vt 846.868 -85.6003
v 21.5228 -2.7196 13.4979
vt 847.354 -38.1708
vn -6.83827e-19 -0.0855998 0.99633
v -18.0493 -2.7196 13.4979
vt -710.602 -38.1708
f 2/6/1 1/7/1 6/8/4 7/9/4 

v 21.2941 -6.243 10.6444
vt -484.71 -245.787
vn 0.99865 5.58411e-16 -0.0519447
v 21.2941 7.05309 10.6444
vt -484.71 277.681
v 21.3313 6.42827 11.1089
vt -503.056 253.081
vn 0.996803 6.25758e-16 -0.0798935
v 21.3821 5.40372 11.7426
vt -528.086 212.745
v 21.4257 4.32892 12.2868
vt -549.579 170.43
v 21.4618 3.21167 12.7374
vt -567.377 126.444
v 21.4902 2.06009 13.0913
vt -581.352 81.1059
v 21.5106 0.882556 13.3457
vt -591.401 34.7463
v 21.5229 -0.312371 13.4989
vt -597.452 -12.2981
v 21.527 -1.51601 13.5498
vt -599.461 -59.6852
vt -597.413 -107.071
vt -591.322 -154.11
vt -581.234 -200.461
v 21.4615 -6.243 12.7335
vt -567.222 -245.787
f 8/10/5 9/11/5 10/12/6 11/13/6 12/14/6 13/15/6 14/16/6 15/17/6 16/18/6 17/19/6 6/20/6 1/21/6 5/22/6 18/23/6 

vt -439.034 277.681
vt -439.034 -245.787
v 21.1824 -6.243 5.98134
vt -255.396 -245.787
vn 0.999992 2.59778e-16 0.00405305
v 21.1824 7.72582 5.98134
vt -255.396 304.166
v 21.1883 7.71957 6.23164
vt -265.253 303.92
vn 0.999713 4.90625e-16 -0.0239552
v 21.2488 7.56064 8.75439
vt -364.602 297.663
v 21.288 7.3951 10.3902
vt -429.022 291.146
f 9/24/5 8/25/5 19/26/7 20/27/7 21/28/8 22/29/8 23/30/8 

v -20.0954 -6.243 -13.8821
vt 791.157 546.539
vn 1.66021e-18 -1 1.31613e-16
v 23.6975 -6.243 -13.8821
vt -932.973 546.539
v 23.3393 -6.243 -12.5144
vt -918.871 492.693
v 22.4121 -6.243 -7.94307
vt -882.365 312.719
v 21.7422 -6.243 -3.32701
vt -855.993 130.985
v 21.3319 -6.243 1.31932
vt -839.838 -51.9418
vt -833.951 -235.486
vt -838.35 -419.071
vt -844.942 -501.319
v -18.4606 -6.243 12.7335
vt 726.795 -501.319
v -20.4191 -6.243 8.34064
vt 803.9 -328.371
v -21.7612 -6.243 3.2316
vt 856.742 -127.228
v -22.2593 -6.243 -2.02726
vt 876.351 79.8134
v -21.9001 -6.243 -7.29743
vt 862.21 287.3
v -20.6932 -6.243 -12.4401
vt 814.692 489.767
f 24/31/9 25/32/9 26/33/9 27/34/9 28/35/9 29/36/9 19/37/9 8/38/9 18/39/9 30/40/9 31/41/9 32/42/9 33/43/9 34/44/9 35/45/9 

v -19.9026 -4.85048 -14.3472
vt 783.566 -2.18133
vn -1.02213e-16 -0.243898 -0.969801
v 23.8193 -4.85048 -14.3472
vt -937.769 -2.18133
vt -932.973 -59.9822
vn -6.79586e-17 -0.316803 -0.948491
vt 791.157 -59.9822
f 36/46/10 37/47/10 25/48/11 24/49/11 

v -19.7993 -3.4036 -14.5962
vt 779.502 -34.6059
vn -1.34659e-16 -0.0942963 -0.995544
v 23.8845 -3.4036 -14.5962
vt -940.336 -34.6059
vt -937.769 -92.4068
vt 783.566 -92.4068
f 38/50/12 39/51/12 37/52/10 36/53/10 

v -19.7881 -1.93571 -14.6233
vt 779.06 -65.567
vn -9.6999e-17 0.0574784 -0.998347
v 23.8916 -1.93571 -14.6233
vt -940.616 -65.567
vt -940.336 -123.368
vt 779.502 -123.368
f 40/54/13 41/55/13 39/56/12 38/57/12 

v -19.8691 -0.480628 -14.4279
vt 782.249 -94.3513
vn -5.17236e-17 0.207929 -0.978144
v 23.8405 -0.480628 -14.4279
vt -938.601 -94.3513
vt -940.616 -152.152
vt 779.06 -152.152
f 42/58/14 43/59/14 41/60/13 40/61/13 

v -20.0405 0.928114 -14.0145
vt 788.996 -120.295
vn -4.07359e-17 0.353588 -0.935401
v 23.7322 0.928114 -14.0145
vt -934.339 -120.295
vt -938.601 -178.096
vt 782.249 -178.096
f 44/62/15 45/63/15 43/64/14 42/65/14 

v -20.2983 2.25805 -13.3926
vt 799.145 -142.802
vn 8.00063e-18 0.491099 -0.871104
v 23.5693 2.25805 -13.3926
vt -927.927 -142.802
vt -934.339 -200.603
vt 788.996 -200.603
f 46/66/16 47/67/16 45/68/15 44/69/15 

v -20.6366 3.47855 -12.5767
vt 812.463 -161.351
vn 1.60958e-17 0.617293 -0.786733
v 23.3556 3.47855 -12.5767
vt -919.513 -161.351
vt -927.927 -219.152
vt 799.145 -219.152
f 48/70/17 49/71/17 47/72/16 46/73/16 

v -20.8938 4.56146 -11.5853
vt 822.59 -175.517
vn -2.42849e-17 0.729263 -0.684234
v 23.1509 4.56146 -11.5853
vt -911.451 -175.517
v 23.3393 3.54656 -12.5144
vt -918.871 -229.687
vn -2.27187e-17 0.675226 -0.737611
vt -919.513 -233.318
vt 812.463 -233.318
v -20.6932 3.62773 -12.4401
vt 814.692 -225.355
f 50/74/18 51/75/18 52/76/19 49/77/17 48/78/17 53/79/19 

v -21.1622 5.48186 -10.4415
vt 833.159 -184.972
vn 9.90823e-19 0.824428 -0.565967
v 22.9189 5.48186 -10.4415
vt -902.317 -184.972
vt -911.451 -242.773
vt 822.59 -242.773
f 54/80/20 55/81/20 51/82/18 50/83/18 

v -21.4603 6.21851 -9.17156
vt 844.893 -189.498
vn 3.91972e-17 0.900595 -0.434658
v 22.6613 6.21851 -9.17156
vt -892.175 -189.498
vt -902.317 -247.299
vt 833.159 -247.299
f 56/84/21 57/85/21 55/86/20 54/87/20 

v -21.7811 6.75445 -7.80473
vt 857.523 -188.992
vn 3.62111e-17 0.95601 -0.293334
v 22.392 6.75445 -7.80473
vt -881.574 -188.992
v 22.4121 6.70021 -7.94307
vt -882.365 -194.843
vn 5.04812e-17 0.930988 -0.365049
vt -892.175 -246.793
vt 844.893 -246.793
f 58/88/22 59/89/22 60/90/23 57/91/21 56/92/21 

vt -881.574 -241.266
vt 857.523 -241.266
v -21.9001 6.86882 -7.29743
vt 862.21 -220.793
vn 2.17322e-17 0.975517 -0.219926
v -21.9632 7.07734 -6.37253
vt 864.692 -183.465
v 22.1842 7.07734 -6.37253
vt -873.392 -183.465
f 59/93/22 58/94/22 61/95/24 62/96/24 63/97/24 

vt -290.666 142.824
vn -0.951795 -1.7919e-17 -0.306734
vt -290.666 -245.787
vt -82.6973 -245.787
vn -0.988878 -5.57848e-17 -0.148731
vt -82.6973 270.426
vt -103.213 265.923
vn -0.973547 -5.6196e-17 -0.228486
vt -158.487 244.823
vt -209.843 215.821
vt -256.099 179.585
f 53/98/25 35/99/25 34/100/26 61/101/26 58/102/27 56/103/27 54/104/27 50/105/27 

vt -140.436 -245.787
vt -140.436 142.824
vt -146.256 136.951
vn -0.923765 2.04763e-17 -0.382959
vt -181.033 88.8998
vt -207.536 36.5399
vt -225.154 -18.9224
vt -233.482 -76.2091
vt -232.326 -134
vt -221.715 -190.964
vt -201.893 -245.787
f 35/106/25 53/107/25 48/108/28 46/109/28 44/110/28 42/111/28 40/112/28 38/113/28 36/114/28 24/115/28 

vt -20.0413 -245.787
vn -0.999913 -6.98506e-17 0.0131898
v -22.2593 7.56071 -2.02726
vt -20.0413 297.666
v -22.1341 7.39698 -3.86508
vt -92.5644 291.22
vn -0.997686 -5.50056e-17 -0.0679949
vt -191.512 278.635
vt -228.01 270.426
vt -228.01 -245.787
f 33/116/29 64/117/29 65/118/30 62/119/30 61/120/26 34/121/26 

vt 45.8815 -245.787
vn -0.98461 -1.95506e-16 0.174763
v -21.7612 7.77656 3.2316
vt 45.8815 306.164
v -21.9558 7.74991 1.17716
vt -35.3641 305.115
vn -0.995545 -8.42349e-17 0.0942875
v -22.1949 7.62128 -1.34731
vt -135.197 300.05
vt -162.087 297.666
vt -162.087 -245.787
f 32/122/31 66/123/31 67/124/32 68/125/32 64/126/29 33/127/29 

vt 113.335 -245.787
vn -0.943373 -2.76311e-16 0.331734
v -20.4191 7.58671 8.34064
vt 113.335 298.689
v -20.9731 7.71957 6.23164
vt 27.4861 303.92
vn -0.967182 -3.05488e-16 0.254086
v -21.637 7.78269 3.70469
vt -75.3761 306.405
vt -94.6335 306.164
vt -94.6335 -245.787
f 31/128/33 69/129/33 70/130/34 71/131/34 66/132/31 32/133/31 

vt -27.4266 298.689
vt -27.4266 -245.787
vt 161.93 -245.787
vn -0.913342 -2.4531e-16 0.407193
vt 177.223 -200.461
vt 180.542 -186.49
vn -0.877287 -2.86225e-16 0.479966
v -18.2681 1.71757 13.1653
vt 180.542 67.6209
v -18.3011 2.06009 13.0913
vt 177.351 81.1059
v -18.4589 3.21167 12.7374
vt 162.1 126.444
v -18.6598 4.32892 12.2868
vt 142.675 170.43
v -18.9024 5.40372 11.7426
vt 119.218 212.745
v -19.1849 6.42827 11.1089
vt 91.9005 253.081
v -19.5053 7.3951 10.3902
vt 60.9197 291.146
v -20.2346 7.56064 8.75439
vt -9.59168 297.663
f 69/134/33 31/135/33 30/136/35 4/137/35 3/138/36 72/139/36 73/140/35 74/141/35 75/142/35 76/143/35 77/144/35 78/145/35 79/146/35 

vt 846.062 -39.8226
vt -720.568 -39.8226
vt -726.795 -87.2521
vn 5.40728e-18 -0.294494 0.955653
vt 844.942 -87.2521
f 5/147/3 4/148/3 30/149/37 18/150/37 

vt 37.7638 67.6209
vt 37.7638 -186.49
vt 46.1724 -154.11
vn -0.835446 -3.25252e-16 0.549573
vt 53.4389 -107.071
v -18.0152 -1.51601 13.5498
vt 55.8828 -59.6852
v -18.0486 -0.312371 13.4989
vt 53.4861 -12.2981
v -18.1494 0.882556 13.3457
vt 46.2664 34.7463
f 72/151/36 3/152/36 2/153/38 7/154/38 80/155/38 81/156/38 82/157/38 

vt -710.602 -84.0957
vt 847.354 -84.0957
vt 847.518 -36.6662
vn -4.38662e-19 -0.000416108 1
vt -709.259 -36.6662
f 7/158/4 6/159/4 17/160/39 80/161/39 

vt -709.259 -82.1522
vt 847.518 -82.1522
vt 847.357 -34.7227
vn -1.04527e-18 0.0847706 0.9964
vt -710.576 -34.7227
f 80/162/39 17/163/39 16/164/40 81/165/40 

vt -710.576 -79.7838
vt 847.357 -79.7838
vt 846.874 -32.3544
vn -8.2973e-18 0.169341 0.985558
vt -714.544 -32.3544
f 81/166/40 16/167/40 15/168/41 82/169/41 

vt -714.544 -77.0079
vt 846.874 -77.0079
vt 846.071 -29.5784
vn -1.29326e-17 0.25268 0.96755
vt -720.516 -29.5784
vt -719.217 -43.3745
vn -1.52765e-17 0.211203 0.977442
f 82/170/41 15/171/41 14/172/42 73/173/42 72/174/43 

vt -720.516 -73.8445
vt 846.071 -73.8445
vt 844.954 -26.415
vn -1.5499e-17 0.334183 0.942508
vt -726.726 -26.415
f 73/175/42 14/176/42 13/177/44 74/178/44 

vt -726.726 -70.3167
vt 844.954 -70.3167
vt 843.533 -22.8872
vn -2.25718e-17 0.413256 0.910615
vt -734.636 -22.8872
f 74/179/44 13/180/44 12/181/45 75/182/45 

vt -734.636 -66.4501
vt 843.533 -66.4501
vt 841.815 -19.0206
vn -1.22879e-17 0.489325 0.872102
vt -744.187 -19.0206
f 75/183/45 12/184/45 11/185/46 76/186/46 

vt -744.187 -62.2728
vt 841.815 -62.2728
vt 839.816 -14.8433
vn -1.26347e-17 0.561836 0.827249
vt -755.311 -14.8433
f 76/187/46 11/188/46 10/189/47 77/190/47 

vt -755.311 -57.8152
vt 839.816 -57.8152
vt 838.35 -27.1634
vn -2.53907e-17 0.596592 0.802545
vt 838.11 -10.3857
vt -767.926 -10.3857
f 77/191/47 10/192/47 9/193/48 23/194/48 78/195/48 

vt -767.926 -377.668
vn -1.04552e-16 0.994918 0.100687
vt 838.11 -377.668
vt 836.567 -312.938
vn -6.14513e-17 0.996649 0.0817956
vt -796.638 -312.938
f 78/196/49 23/197/49 22/198/50 79/199/50 

vt -796.638 -325.263
vt 836.567 -325.263
vt 834.187 -225.746
vn -1.48242e-17 0.999035 0.0439309
vt -825.713 -225.746
vt -803.9 -308.942
vn -1.83285e-17 0.998021 0.0628745
f 79/200/50 22/201/50 21/202/51 70/203/51 69/204/52 

vt -825.713 -237.674
vt 834.187 -237.674
vt 833.951 -227.817
vn -1.13145e-17 0.999688 0.0249714
v 21.2554 7.78269 3.70469
vt 836.826 -138.157
vn 9.59943e-18 0.999982 0.00600293
vt -851.849 -138.157
f 70/205/51 21/206/51 20/207/53 83/208/54 71/209/54 

vt -24.9914 -245.787
vn 0.998196 -6.48886e-17 0.0600381
v 21.3319 7.75176 1.31932
vt -24.9914 305.187
vt -118.952 306.405
vn 0.999486 2.87276e-17 0.0320582
vt -208.63 304.166
vt -208.63 -245.787
f 29/210/55 84/211/55 83/212/56 20/213/7 19/214/7 

vt 205.779 -245.787
vn 0.993268 1.79277e-16 0.115835
v 21.7422 7.44492 -3.32701
vt 205.779 293.107
v 21.5674 7.62128 -1.34731
vt 127.535 300.05
vn 0.996123 -1.58454e-16 0.087971
v 21.3444 7.74991 1.17716
vt 27.7598 305.115
vt 22.141 305.187
vt 22.141 -245.787
f 28/215/57 85/216/57 86/217/58 87/218/58 84/219/55 29/220/55 

vt 436.192 -245.787
vn 0.985224 2.25131e-16 0.171268
vt 436.192 263.788
vt 430.689 265.923
vn 0.989635 5.16868e-16 0.143608
vt 373.713 278.635
v 21.8203 7.39698 -3.86508
vt 273.96 291.22
vt 252.554 293.107
vt 252.554 -245.787
f 27/221/59 60/222/59 59/223/60 63/224/60 88/225/60 85/226/57 28/227/57 

vt 665.525 -245.787
vn 0.974089 -6.95487e-17 0.226164
vt 665.525 139.628
vt 628.203 179.585
vn 0.980041 -6.67826e-17 0.198794
vt 582.254 215.821
vt 531.237 244.823
vt 481.887 263.788
vt 481.887 -245.787
f 26/228/61 52/229/61 51/230/62 55/231/62 57/232/62 60/233/59 27/234/59 

vt 709.419 139.628
vt 709.419 -245.787
vt 765.082 -245.787
vn 0.967373 -7.22602e-17 0.253357
vt 784.011 -190.964
vt 794.144 -134
vt 795.247 -76.2091
vt 787.295 -18.9224
vt 770.471 36.5399
vt 745.163 88.8998
vt 711.953 136.951
f 52/235/61 26/236/61 25/237/63 37/238/63 39/239/63 41/240/63 43/241/63 45/242/63 47/243/63 49/244/63 

vt 871.42 -114.121
vn -1.87752e-17 0.994193 -0.107614
vt -859.067 -114.121
vt -873.392 -213.638
vn -2.42295e-17 0.991972 -0.126455
vt 864.692 -213.638
f 65/245/64 88/246/64 63/247/65 62/248/65 

vt -859.067 -125.727
vt 871.42 -125.727
vt 876.351 -53.0851
vn -1.33142e-17 0.996055 -0.0887353
vt 873.816 -26.2094
vn -7.06507e-18 0.997559 -0.0698243
vt -849.11 -26.2094
vt -855.993 -104.459
f 88/249/64 65/250/64 64/251/66 68/252/67 86/253/67 85/254/66 

vt 864.403 61.8114
vn 1.48509e-17 0.99949 -0.0319337
vt -840.332 61.8114
vt -849.11 -37.706
vt 873.816 -37.706
f 67/255/68 87/256/68 86/257/67 68/258/67 

vt 851.849 149.815
vt -836.826 149.815
vt -839.838 55.895
vn 3.05099e-17 0.999916 -0.0129677
vt -840.332 50.2975
vt 864.403 50.2975
vt 856.742 131.188
f 71/259/54 83/260/54 84/261/69 87/262/68 67/263/68 66/264/69 

