# Alias OBJ Model File
# Exported from SketchUp, (c) 2000-2012 Trimble Navigation Limited
# File units = meters

mtllib large_pentagon.mtl

g Mesh1 Model

usemtl FrontColor
v -21.8435 0 15.8702
vt 859.979 -624.811
vn 0 -1 -0
v -21.8435 0 -15.8702
vt 859.979 624.811
v 8.34346 0 -25.6785
vt -328.483 1010.97
v 27 0 -0
vt -1062.99 0
v 8.34346 0 25.6785
vt -328.483 -1010.97
f 1/1/1 2/2/1 3/3/1 4/4/1 5/5/1 

vt -624.811 0
vn -1 0 -9.0977e-17
vt 624.811 0
v -21.8435 27 15.8702
vt 624.811 1062.99
v -21.8435 27 -15.8702
vt -624.811 1062.99
f 2/6/2 1/7/2 6/8/2 7/9/2 

vn -0.309017 0 0.951057
v 8.34346 27 25.6785
f 1/6/3 5/7/3 8/8/3 6/9/3 

vn 0.809017 0 0.587785
v 27 27 -0
f 5/6/4 4/7/4 9/8/4 8/9/4 

vn 0.809017 0 -0.587785
v 8.34346 27 -25.6785
f 4/6/5 3/7/5 10/8/5 9/9/5 

vn -0.309017 0 -0.951057
f 3/6/6 2/7/6 7/8/6 10/9/6 

vt -859.979 624.811
vn 0 1 -0
vt -859.979 -624.811
vt 328.483 -1010.97
vt 1062.99 0
vt 328.483 1010.97
f 7/10/7 6/11/7 8/12/7 9/13/7 10/14/7 

