999
R:\model\room3.dxf
999
Converted by PolyTrans from Okino Computer Graphics, Inc.
999
Export options: Layer names derived from surface (material) names, Uses 3D FACE entity.
0
SECTION
2
HEADER
9
$ACADVER
1
AC1008
9
$UCSORG
10
0.0
20
0.0
30
0.0
9
$UCSXDIR
10
1
20
0.0
30
0.0
9
$TILEMODE
70
1
9
$UCSYDIR
10
0.0
20
0.0
30
1
9
$EXTMIN
10
-35
20
0.0
30
0.0
9
$EXTMAX
10
35
20
-150
30
40
0
ENDSEC
0
SECTION
2
TABLES
0
TABLE
2
LTYPE
70
1
0
LTYPE
2
SOLIDLINE
70
64
3
Solid line
72
65
73
0
40
0.0
0
ENDTAB
0
TABLE
2
LAYER
70
8
0
LAYER
2
default
70
0
62
252
6
SOLIDLINE
0
LAYER
2
chairs__2
70
0
62
14
6
SOLIDLINE
0
LAYER
2
etupaaty_flat__2
70
0
62
14
6
SOLIDLINE
0
LAYER
2
hull__2
70
0
62
14
6
SOLIDLINE
0
LAYER
2
katto_flat__2
70
0
62
14
6
SOLIDLINE
0
LAYER
2
oikea_flat__2
70
0
62
14
6
SOLIDLINE
0
LAYER
2
takapaaty_flat__2
70
0
62
14
6
SOLIDLINE
0
LAYER
2
vasen_flat__2
70
0
62
14
6
SOLIDLINE
0
ENDTAB
0
ENDSEC
0
SECTION
2
ENTITIES
0
3DFACE
8
hull__2
62
14
10
35
20
-150
30
40
11
30
21
-144
31
40
12
-30
22
-144
32
40
13
-35
23
-150
33
40
0
3DFACE
8
hull__2
62
14
10
-30
20
-144
30
40
11
-30
21
-6
31
40
12
-35
22
0.0
32
40
13
-35
23
-150
33
40
0
3DFACE
8
hull__2
62
14
10
35
20
-150
30
40
11
35
21
0.0
31
40
12
30
22
-6
32
40
13
30
23
-144
33
40
0
3DFACE
8
hull__2
62
14
10
30
20
-6
30
40
11
35
21
0.0
31
40
12
-35
22
0.0
32
40
13
-30
23
-6
33
40
0
3DFACE
8
hull__2
62
14
10
35
20
0.0
30
0.0
11
35
21
-150
31
0.0
12
-35
22
-150
32
0.0
13
-35
23
0.0
33
0.0
0
3DFACE
8
hull__2
62
14
10
35
20
0.0
30
0.0
11
35
21
-14.1605
31
4.62588
12
35
22
-69.3826
32
4.62588
13
35
23
-150
33
0.0
0
3DFACE
8
hull__2
62
14
10
35
20
0.0
30
0.0
11
35
21
0.0
31
40
12
35
22
-14.1605
32
36
13
35
23
-14.1605
33
4.62588
0
3DFACE
8
hull__2
62
14
10
35
20
-69.3826
30
4.62588
11
35
21
-69.3826
31
36
12
35
22
-150
32
40
13
35
23
-150
33
0.0
0
3DFACE
8
hull__2
62
14
10
35
20
-14.1605
30
36
11
35
21
0.0
31
40
12
35
22
-150
32
40
13
35
23
-69.3826
33
36
0
3DFACE
8
hull__2
62
14
10
-35
20
-150
30
0.0
11
-35
21
-69.3826
31
4.62588
12
-35
22
-14.1605
32
4.62588
13
-35
23
0.0
33
0.0
0
3DFACE
8
hull__2
62
14
10
-35
20
-14.1605
30
4.62588
11
-35
21
-14.1605
31
36
12
-35
22
0.0
32
40
13
-35
23
0.0
33
0.0
0
3DFACE
8
hull__2
62
14
10
-35
20
-150
30
0.0
11
-35
21
-150
31
40
12
-35
22
-69.3826
32
36
13
-35
23
-69.3826
33
4.62588
0
3DFACE
8
hull__2
62
14
10
-35
20
-69.3826
30
36
11
-35
21
-150
31
40
12
-35
22
0.0
32
40
13
-35
23
-14.1605
33
36
0
3DFACE
8
katto_flat__2
62
14
10
-30
20
-144
30
40
11
-30
21
-6
31
40
12
30
22
-6
32
40
13
30
23
-144
33
40
0
3DFACE
8
etupaaty_flat__2
62
14
10
-35
20
0.0
30
40
11
-35
21
0.0
31
0.0
12
35
22
0.0
32
0.0
13
35
23
0.0
33
40
0
3DFACE
8
oikea_flat__2
62
14
10
35
20
-69.3826
30
4.62588
11
35
21
-69.3826
31
36
12
35
22
-14.1605
32
36
13
35
23
-14.1605
33
4.62588
0
3DFACE
8
takapaaty_flat__2
62
14
10
-35
20
-150
30
40
11
35
21
-150
31
40
12
35
22
-150
32
0.0
13
-35
23
-150
33
0.0
0
3DFACE
8
vasen_flat__2
62
14
10
-35
20
-69.3826
30
4.62588
11
-35
21
-14.1605
31
4.62588
12
-35
22
-14.1605
32
36
13
-35
23
-69.3826
33
36
0
3DFACE
8
chairs__2
62
14
10
-13
20
-85.2744
30
0.0
11
-7
21
-85.2744
31
0.0
12
-7
22
-85.2744
32
6
13
-13
23
-85.2744
33
6
0
3DFACE
8
chairs__2
62
14
10
-13
20
-85.2744
30
13
11
-7
21
-85.2744
31
13
12
-7
22
-84.2744
32
13
13
-13
23
-84.2744
33
13
0
3DFACE
8
chairs__2
62
14
10
-13
20
-84.2744
30
6
11
-7
21
-84.2744
31
6
12
-7
22
-79.7744
32
6
13
-13
23
-79.7744
33
6
0
3DFACE
8
chairs__2
62
14
10
-13
20
-79.7744
30
6
11
-7
21
-79.7744
31
6
12
-7
22
-79.7744
32
0.0
13
-13
23
-79.7744
33
0.0
0
3DFACE
8
chairs__2
62
14
10
-13
20
-79.7744
30
0.0
11
-7
21
-79.7744
31
0.0
12
-7
22
-84.2744
32
0.0
13
-13
23
-84.2744
33
0.0
0
3DFACE
8
chairs__2
62
14
10
-13
20
-84.2744
30
0.0
11
-7
21
-84.2744
31
0.0
12
-7
22
-85.2744
32
0.0
13
-13
23
-85.2744
33
0.0
0
3DFACE
8
chairs__2
62
14
10
-7
20
-84.2744
30
0.0
11
-7
21
-79.7744
31
0.0
12
-7
22
-79.7744
32
6
13
-7
23
-84.2744
33
6
0
3DFACE
8
chairs__2
62
14
10
-7
20
-85.2744
30
0.0
11
-7
21
-84.2744
31
0.0
12
-7
22
-84.2744
32
6
13
-7
23
-85.2744
33
6
0
3DFACE
8
chairs__2
62
14
10
-13
20
-79.7744
30
0.0
11
-13
21
-84.2744
31
0.0
12
-13
22
-84.2744
32
6
13
-13
23
-79.7744
33
6
0
3DFACE
8
chairs__2
62
14
10
-13
20
-84.2744
30
0.0
11
-13
21
-85.2744
31
0.0
12
-13
22
-85.2744
32
6
13
-13
23
-84.2744
33
6
0
3DFACE
8
chairs__2
62
14
10
-13
20
-85.2744
30
6
11
-7
21
-85.2744
31
6
12
-7
22
-85.2744
32
13
13
-13
23
-85.2744
33
13
0
3DFACE
8
chairs__2
62
14
10
-7
20
-85.2744
30
6
11
-7
21
-84.2744
31
6
12
-7
22
-84.2744
32
13
13
-7
23
-85.2744
33
13
0
3DFACE
8
chairs__2
62
14
10
-7
20
-84.2744
30
6
11
-13
21
-84.2744
31
6
12
-13
22
-84.2744
32
13
13
-7
23
-84.2744
33
13
0
3DFACE
8
chairs__2
62
14
10
-13
20
-84.2744
30
6
11
-13
21
-85.2744
31
6
12
-13
22
-85.2744
32
13
13
-13
23
-84.2744
33
13
0
3DFACE
8
chairs__2
62
14
10
-3
20
-85.2744
30
0.0
11
3
21
-85.2744
31
0.0
12
3
22
-85.2744
32
6
13
-3
23
-85.2744
33
6
0
3DFACE
8
chairs__2
62
14
10
-3
20
-85.2744
30
13
11
3
21
-85.2744
31
13
12
3
22
-84.2744
32
13
13
-3
23
-84.2744
33
13
0
3DFACE
8
chairs__2
62
14
10
-3
20
-84.2744
30
6
11
3
21
-84.2744
31
6
12
3
22
-79.7744
32
6
13
-3
23
-79.7744
33
6
0
3DFACE
8
chairs__2
62
14
10
-3
20
-79.7744
30
6
11
3
21
-79.7744
31
6
12
3
22
-79.7744
32
0.0
13
-3
23
-79.7744
33
0.0
0
3DFACE
8
chairs__2
62
14
10
-3
20
-79.7744
30
0.0
11
3
21
-79.7744
31
0.0
12
3
22
-84.2744
32
0.0
13
-3
23
-84.2744
33
0.0
0
3DFACE
8
chairs__2
62
14
10
-3
20
-84.2744
30
0.0
11
3
21
-84.2744
31
0.0
12
3
22
-85.2744
32
0.0
13
-3
23
-85.2744
33
0.0
0
3DFACE
8
chairs__2
62
14
10
3
20
-84.2744
30
0.0
11
3
21
-79.7744
31
0.0
12
3
22
-79.7744
32
6
13
3
23
-84.2744
33
6
0
3DFACE
8
chairs__2
62
14
10
3
20
-85.2744
30
0.0
11
3
21
-84.2744
31
0.0
12
3
22
-84.2744
32
6
13
3
23
-85.2744
33
6
0
3DFACE
8
chairs__2
62
14
10
-3
20
-79.7744
30
0.0
11
-3
21
-84.2744
31
0.0
12
-3
22
-84.2744
32
6
13
-3
23
-79.7744
33
6
0
3DFACE
8
chairs__2
62
14
10
-3
20
-84.2744
30
0.0
11
-3
21
-85.2744
31
0.0
12
-3
22
-85.2744
32
6
13
-3
23
-84.2744
33
6
0
3DFACE
8
chairs__2
62
14
10
-3
20
-85.2744
30
6
11
3
21
-85.2744
31
6
12
3
22
-85.2744
32
13
13
-3
23
-85.2744
33
13
0
3DFACE
8
chairs__2
62
14
10
3
20
-85.2744
30
6
11
3
21
-84.2744
31
6
12
3
22
-84.2744
32
13
13
3
23
-85.2744
33
13
0
3DFACE
8
chairs__2
62
14
10
3
20
-84.2744
30
6
11
-3
21
-84.2744
31
6
12
-3
22
-84.2744
32
13
13
3
23
-84.2744
33
13
0
3DFACE
8
chairs__2
62
14
10
-3
20
-84.2744
30
6
11
-3
21
-85.2744
31
6
12
-3
22
-85.2744
32
13
13
-3
23
-84.2744
33
13
0
3DFACE
8
chairs__2
62
14
10
7
20
-85.2744
30
0.0
11
13
21
-85.2744
31
0.0
12
13
22
-85.2744
32
6
13
7
23
-85.2744
33
6
0
3DFACE
8
chairs__2
62
14
10
7
20
-85.2744
30
13
11
13
21
-85.2744
31
13
12
13
22
-84.2744
32
13
13
7
23
-84.2744
33
13
0
3DFACE
8
chairs__2
62
14
10
7
20
-84.2744
30
6
11
13
21
-84.2744
31
6
12
13
22
-79.7744
32
6
13
7
23
-79.7744
33
6
0
3DFACE
8
chairs__2
62
14
10
7
20
-79.7744
30
6
11
13
21
-79.7744
31
6
12
13
22
-79.7744
32
0.0
13
7
23
-79.7744
33
0.0
0
3DFACE
8
chairs__2
62
14
10
7
20
-79.7744
30
0.0
11
13
21
-79.7744
31
0.0
12
13
22
-84.2744
32
0.0
13
7
23
-84.2744
33
0.0
0
3DFACE
8
chairs__2
62
14
10
7
20
-84.2744
30
0.0
11
13
21
-84.2744
31
0.0
12
13
22
-85.2744
32
0.0
13
7
23
-85.2744
33
0.0
0
3DFACE
8
chairs__2
62
14
10
13
20
-84.2744
30
0.0
11
13
21
-79.7744
31
0.0
12
13
22
-79.7744
32
6
13
13
23
-84.2744
33
6
0
3DFACE
8
chairs__2
62
14
10
13
20
-85.2744
30
0.0
11
13
21
-84.2744
31
0.0
12
13
22
-84.2744
32
6
13
13
23
-85.2744
33
6
0
3DFACE
8
chairs__2
62
14
10
7
20
-79.7744
30
0.0
11
7
21
-84.2744
31
0.0
12
7
22
-84.2744
32
6
13
7
23
-79.7744
33
6
0
3DFACE
8
chairs__2
62
14
10
7
20
-84.2744
30
0.0
11
7
21
-85.2744
31
0.0
12
7
22
-85.2744
32
6
13
7
23
-84.2744
33
6
0
3DFACE
8
chairs__2
62
14
10
7
20
-85.2744
30
6
11
13
21
-85.2744
31
6
12
13
22
-85.2744
32
13
13
7
23
-85.2744
33
13
0
3DFACE
8
chairs__2
62
14
10
13
20
-85.2744
30
6
11
13
21
-84.2744
31
6
12
13
22
-84.2744
32
13
13
13
23
-85.2744
33
13
0
3DFACE
8
chairs__2
62
14
10
13
20
-84.2744
30
6
11
7
21
-84.2744
31
6
12
7
22
-84.2744
32
13
13
13
23
-84.2744
33
13
0
3DFACE
8
chairs__2
62
14
10
7
20
-84.2744
30
6
11
7
21
-85.2744
31
6
12
7
22
-85.2744
32
13
13
7
23
-84.2744
33
13
0
3DFACE
8
chairs__2
62
14
10
17
20
-85.2744
30
0.0
11
23
21
-85.2744
31
0.0
12
23
22
-85.2744
32
6
13
17
23
-85.2744
33
6
0
3DFACE
8
chairs__2
62
14
10
17
20
-85.2744
30
13
11
23
21
-85.2744
31
13
12
23
22
-84.2744
32
13
13
17
23
-84.2744
33
13
0
3DFACE
8
chairs__2
62
14
10
17
20
-84.2744
30
6
11
23
21
-84.2744
31
6
12
23
22
-79.7744
32
6
13
17
23
-79.7744
33
6
0
3DFACE
8
chairs__2
62
14
10
17
20
-79.7744
30
6
11
23
21
-79.7744
31
6
12
23
22
-79.7744
32
0.0
13
17
23
-79.7744
33
0.0
0
3DFACE
8
chairs__2
62
14
10
17
20
-79.7744
30
0.0
11
23
21
-79.7744
31
0.0
12
23
22
-84.2744
32
0.0
13
17
23
-84.2744
33
0.0
0
3DFACE
8
chairs__2
62
14
10
17
20
-84.2744
30
0.0
11
23
21
-84.2744
31
0.0
12
23
22
-85.2744
32
0.0
13
17
23
-85.2744
33
0.0
0
3DFACE
8
chairs__2
62
14
10
23
20
-84.2744
30
0.0
11
23
21
-79.7744
31
0.0
12
23
22
-79.7744
32
6
13
23
23
-84.2744
33
6
0
3DFACE
8
chairs__2
62
14
10
23
20
-85.2744
30
0.0
11
23
21
-84.2744
31
0.0
12
23
22
-84.2744
32
6
13
23
23
-85.2744
33
6
0
3DFACE
8
chairs__2
62
14
10
17
20
-79.7744
30
0.0
11
17
21
-84.2744
31
0.0
12
17
22
-84.2744
32
6
13
17
23
-79.7744
33
6
0
3DFACE
8
chairs__2
62
14
10
17
20
-84.2744
30
0.0
11
17
21
-85.2744
31
0.0
12
17
22
-85.2744
32
6
13
17
23
-84.2744
33
6
0
3DFACE
8
chairs__2
62
14
10
17
20
-85.2744
30
6
11
23
21
-85.2744
31
6
12
23
22
-85.2744
32
13
13
17
23
-85.2744
33
13
0
3DFACE
8
chairs__2
62
14
10
23
20
-85.2744
30
6
11
23
21
-84.2744
31
6
12
23
22
-84.2744
32
13
13
23
23
-85.2744
33
13
0
3DFACE
8
chairs__2
62
14
10
23
20
-84.2744
30
6
11
17
21
-84.2744
31
6
12
17
22
-84.2744
32
13
13
23
23
-84.2744
33
13
0
3DFACE
8
chairs__2
62
14
10
17
20
-84.2744
30
6
11
17
21
-85.2744
31
6
12
17
22
-85.2744
32
13
13
17
23
-84.2744
33
13
0
3DFACE
8
chairs__2
62
14
10
-23
20
-85.2744
30
0.0
11
-17
21
-85.2744
31
0.0
12
-17
22
-85.2744
32
6
13
-23
23
-85.2744
33
6
0
3DFACE
8
chairs__2
62
14
10
-23
20
-85.2744
30
13
11
-17
21
-85.2744
31
13
12
-17
22
-84.2744
32
13
13
-23
23
-84.2744
33
13
0
3DFACE
8
chairs__2
62
14
10
-23
20
-84.2744
30
6
11
-17
21
-84.2744
31
6
12
-17
22
-79.7744
32
6
13
-23
23
-79.7744
33
6
0
3DFACE
8
chairs__2
62
14
10
-23
20
-79.7744
30
6
11
-17
21
-79.7744
31
6
12
-17
22
-79.7744
32
0.0
13
-23
23
-79.7744
33
0.0
0
3DFACE
8
chairs__2
62
14
10
-23
20
-79.7744
30
0.0
11
-17
21
-79.7744
31
0.0
12
-17
22
-84.2744
32
0.0
13
-23
23
-84.2744
33
0.0
0
3DFACE
8
chairs__2
62
14
10
-23
20
-84.2744
30
0.0
11
-17
21
-84.2744
31
0.0
12
-17
22
-85.2744
32
0.0
13
-23
23
-85.2744
33
0.0
0
3DFACE
8
chairs__2
62
14
10
-17
20
-84.2744
30
0.0
11
-17
21
-79.7744
31
0.0
12
-17
22
-79.7744
32
6
13
-17
23
-84.2744
33
6
0
3DFACE
8
chairs__2
62
14
10
-17
20
-85.2744
30
0.0
11
-17
21
-84.2744
31
0.0
12
-17
22
-84.2744
32
6
13
-17
23
-85.2744
33
6
0
3DFACE
8
chairs__2
62
14
10
-23
20
-79.7744
30
0.0
11
-23
21
-84.2744
31
0.0
12
-23
22
-84.2744
32
6
13
-23
23
-79.7744
33
6
0
3DFACE
8
chairs__2
62
14
10
-23
20
-84.2744
30
0.0
11
-23
21
-85.2744
31
0.0
12
-23
22
-85.2744
32
6
13
-23
23
-84.2744
33
6
0
3DFACE
8
chairs__2
62
14
10
-23
20
-85.2744
30
6
11
-17
21
-85.2744
31
6
12
-17
22
-85.2744
32
13
13
-23
23
-85.2744
33
13
0
3DFACE
8
chairs__2
62
14
10
-17
20
-85.2744
30
6
11
-17
21
-84.2744
31
6
12
-17
22
-84.2744
32
13
13
-17
23
-85.2744
33
13
0
3DFACE
8
chairs__2
62
14
10
-17
20
-84.2744
30
6
11
-23
21
-84.2744
31
6
12
-23
22
-84.2744
32
13
13
-17
23
-84.2744
33
13
0
3DFACE
8
chairs__2
62
14
10
-23
20
-84.2744
30
6
11
-23
21
-85.2744
31
6
12
-23
22
-85.2744
32
13
13
-23
23
-84.2744
33
13
0
3DFACE
8
chairs__2
62
14
10
-23
20
-100.274
30
0.0
11
-17
21
-100.274
31
0.0
12
-17
22
-100.274
32
6
13
-23
23
-100.274
33
6
0
3DFACE
8
chairs__2
62
14
10
-23
20
-100.274
30
13
11
-17
21
-100.274
31
13
12
-17
22
-99.2744
32
13
13
-23
23
-99.2744
33
13
0
3DFACE
8
chairs__2
62
14
10
-23
20
-99.2744
30
6
11
-17
21
-99.2744
31
6
12
-17
22
-94.7744
32
6
13
-23
23
-94.7744
33
6
0
3DFACE
8
chairs__2
62
14
10
-23
20
-94.7744
30
6
11
-17
21
-94.7744
31
6
12
-17
22
-94.7744
32
0.0
13
-23
23
-94.7744
33
0.0
0
3DFACE
8
chairs__2
62
14
10
-23
20
-94.7744
30
0.0
11
-17
21
-94.7744
31
0.0
12
-17
22
-99.2744
32
0.0
13
-23
23
-99.2744
33
0.0
0
3DFACE
8
chairs__2
62
14
10
-23
20
-99.2744
30
0.0
11
-17
21
-99.2744
31
0.0
12
-17
22
-100.274
32
0.0
13
-23
23
-100.274
33
0.0
0
3DFACE
8
chairs__2
62
14
10
-17
20
-99.2744
30
0.0
11
-17
21
-94.7744
31
0.0
12
-17
22
-94.7744
32
6
13
-17
23
-99.2744
33
6
0
3DFACE
8
chairs__2
62
14
10
-17
20
-100.274
30
0.0
11
-17
21
-99.2744
31
0.0
12
-17
22
-99.2744
32
6
13
-17
23
-100.274
33
6
0
3DFACE
8
chairs__2
62
14
10
-23
20
-94.7744
30
0.0
11
-23
21
-99.2744
31
0.0
12
-23
22
-99.2744
32
6
13
-23
23
-94.7744
33
6
0
3DFACE
8
chairs__2
62
14
10
-23
20
-99.2744
30
0.0
11
-23
21
-100.274
31
0.0
12
-23
22
-100.274
32
6
13
-23
23
-99.2744
33
6
0
3DFACE
8
chairs__2
62
14
10
-23
20
-100.274
30
6
11
-17
21
-100.274
31
6
12
-17
22
-100.274
32
13
13
-23
23
-100.274
33
13
0
3DFACE
8
chairs__2
62
14
10
-17
20
-100.274
30
6
11
-17
21
-99.2744
31
6
12
-17
22
-99.2744
32
13
13
-17
23
-100.274
33
13
0
3DFACE
8
chairs__2
62
14
10
-17
20
-99.2744
30
6
11
-23
21
-99.2744
31
6
12
-23
22
-99.2744
32
13
13
-17
23
-99.2744
33
13
0
3DFACE
8
chairs__2
62
14
10
-23
20
-99.2744
30
6
11
-23
21
-100.274
31
6
12
-23
22
-100.274
32
13
13
-23
23
-99.2744
33
13
0
3DFACE
8
chairs__2
62
14
10
-13
20
-100.274
30
0.0
11
-7
21
-100.274
31
0.0
12
-7
22
-100.274
32
6
13
-13
23
-100.274
33
6
0
3DFACE
8
chairs__2
62
14
10
-13
20
-100.274
30
13
11
-7
21
-100.274
31
13
12
-7
22
-99.2744
32
13
13
-13
23
-99.2744
33
13
0
3DFACE
8
chairs__2
62
14
10
-13
20
-99.2744
30
6
11
-7
21
-99.2744
31
6
12
-7
22
-94.7744
32
6
13
-13
23
-94.7744
33
6
0
3DFACE
8
chairs__2
62
14
10
-13
20
-94.7744
30
6
11
-7
21
-94.7744
31
6
12
-7
22
-94.7744
32
0.0
13
-13
23
-94.7744
33
0.0
0
3DFACE
8
chairs__2
62
14
10
-13
20
-94.7744
30
0.0
11
-7
21
-94.7744
31
0.0
12
-7
22
-99.2744
32
0.0
13
-13
23
-99.2744
33
0.0
0
3DFACE
8
chairs__2
62
14
10
-13
20
-99.2744
30
0.0
11
-7
21
-99.2744
31
0.0
12
-7
22
-100.274
32
0.0
13
-13
23
-100.274
33
0.0
0
3DFACE
8
chairs__2
62
14
10
-7
20
-99.2744
30
0.0
11
-7
21
-94.7744
31
0.0
12
-7
22
-94.7744
32
6
13
-7
23
-99.2744
33
6
0
3DFACE
8
chairs__2
62
14
10
-7
20
-100.274
30
0.0
11
-7
21
-99.2744
31
0.0
12
-7
22
-99.2744
32
6
13
-7
23
-100.274
33
6
0
3DFACE
8
chairs__2
62
14
10
-13
20
-94.7744
30
0.0
11
-13
21
-99.2744
31
0.0
12
-13
22
-99.2744
32
6
13
-13
23
-94.7744
33
6
0
3DFACE
8
chairs__2
62
14
10
-13
20
-99.2744
30
0.0
11
-13
21
-100.274
31
0.0
12
-13
22
-100.274
32
6
13
-13
23
-99.2744
33
6
0
3DFACE
8
chairs__2
62
14
10
-13
20
-100.274
30
6
11
-7
21
-100.274
31
6
12
-7
22
-100.274
32
13
13
-13
23
-100.274
33
13
0
3DFACE
8
chairs__2
62
14
10
-7
20
-100.274
30
6
11
-7
21
-99.2744
31
6
12
-7
22
-99.2744
32
13
13
-7
23
-100.274
33
13
0
3DFACE
8
chairs__2
62
14
10
-7
20
-99.2744
30
6
11
-13
21
-99.2744
31
6
12
-13
22
-99.2744
32
13
13
-7
23
-99.2744
33
13
0
3DFACE
8
chairs__2
62
14
10
-13
20
-99.2744
30
6
11
-13
21
-100.274
31
6
12
-13
22
-100.274
32
13
13
-13
23
-99.2744
33
13
0
3DFACE
8
chairs__2
62
14
10
-3
20
-100.274
30
0.0
11
3
21
-100.274
31
0.0
12
3
22
-100.274
32
6
13
-3
23
-100.274
33
6
0
3DFACE
8
chairs__2
62
14
10
-3
20
-100.274
30
13
11
3
21
-100.274
31
13
12
3
22
-99.2744
32
13
13
-3
23
-99.2744
33
13
0
3DFACE
8
chairs__2
62
14
10
-3
20
-99.2744
30
6
11
3
21
-99.2744
31
6
12
3
22
-94.7744
32
6
13
-3
23
-94.7744
33
6
0
3DFACE
8
chairs__2
62
14
10
-3
20
-94.7744
30
6
11
3
21
-94.7744
31
6
12
3
22
-94.7744
32
0.0
13
-3
23
-94.7744
33
0.0
0
3DFACE
8
chairs__2
62
14
10
-3
20
-94.7744
30
0.0
11
3
21
-94.7744
31
0.0
12
3
22
-99.2744
32
0.0
13
-3
23
-99.2744
33
0.0
0
3DFACE
8
chairs__2
62
14
10
-3
20
-99.2744
30
0.0
11
3
21
-99.2744
31
0.0
12
3
22
-100.274
32
0.0
13
-3
23
-100.274
33
0.0
0
3DFACE
8
chairs__2
62
14
10
3
20
-99.2744
30
0.0
11
3
21
-94.7744
31
0.0
12
3
22
-94.7744
32
6
13
3
23
-99.2744
33
6
0
3DFACE
8
chairs__2
62
14
10
3
20
-100.274
30
0.0
11
3
21
-99.2744
31
0.0
12
3
22
-99.2744
32
6
13
3
23
-100.274
33
6
0
3DFACE
8
chairs__2
62
14
10
-3
20
-94.7744
30
0.0
11
-3
21
-99.2744
31
0.0
12
-3
22
-99.2744
32
6
13
-3
23
-94.7744
33
6
0
3DFACE
8
chairs__2
62
14
10
-3
20
-99.2744
30
0.0
11
-3
21
-100.274
31
0.0
12
-3
22
-100.274
32
6
13
-3
23
-99.2744
33
6
0
3DFACE
8
chairs__2
62
14
10
-3
20
-100.274
30
6
11
3
21
-100.274
31
6
12
3
22
-100.274
32
13
13
-3
23
-100.274
33
13
0
3DFACE
8
chairs__2
62
14
10
3
20
-100.274
30
6
11
3
21
-99.2744
31
6
12
3
22
-99.2744
32
13
13
3
23
-100.274
33
13
0
3DFACE
8
chairs__2
62
14
10
3
20
-99.2744
30
6
11
-3
21
-99.2744
31
6
12
-3
22
-99.2744
32
13
13
3
23
-99.2744
33
13
0
3DFACE
8
chairs__2
62
14
10
-3
20
-99.2744
30
6
11
-3
21
-100.274
31
6
12
-3
22
-100.274
32
13
13
-3
23
-99.2744
33
13
0
3DFACE
8
chairs__2
62
14
10
7
20
-100.274
30
0.0
11
13
21
-100.274
31
0.0
12
13
22
-100.274
32
6
13
7
23
-100.274
33
6
0
3DFACE
8
chairs__2
62
14
10
7
20
-100.274
30
13
11
13
21
-100.274
31
13
12
13
22
-99.2744
32
13
13
7
23
-99.2744
33
13
0
3DFACE
8
chairs__2
62
14
10
7
20
-99.2744
30
6
11
13
21
-99.2744
31
6
12
13
22
-94.7744
32
6
13
7
23
-94.7744
33
6
0
3DFACE
8
chairs__2
62
14
10
7
20
-94.7744
30
6
11
13
21
-94.7744
31
6
12
13
22
-94.7744
32
0.0
13
7
23
-94.7744
33
0.0
0
3DFACE
8
chairs__2
62
14
10
7
20
-94.7744
30
0.0
11
13
21
-94.7744
31
0.0
12
13
22
-99.2744
32
0.0
13
7
23
-99.2744
33
0.0
0
3DFACE
8
chairs__2
62
14
10
7
20
-99.2744
30
0.0
11
13
21
-99.2744
31
0.0
12
13
22
-100.274
32
0.0
13
7
23
-100.274
33
0.0
0
3DFACE
8
chairs__2
62
14
10
13
20
-99.2744
30
0.0
11
13
21
-94.7744
31
0.0
12
13
22
-94.7744
32
6
13
13
23
-99.2744
33
6
0
3DFACE
8
chairs__2
62
14
10
13
20
-100.274
30
0.0
11
13
21
-99.2744
31
0.0
12
13
22
-99.2744
32
6
13
13
23
-100.274
33
6
0
3DFACE
8
chairs__2
62
14
10
7
20
-94.7744
30
0.0
11
7
21
-99.2744
31
0.0
12
7
22
-99.2744
32
6
13
7
23
-94.7744
33
6
0
3DFACE
8
chairs__2
62
14
10
7
20
-99.2744
30
0.0
11
7
21
-100.274
31
0.0
12
7
22
-100.274
32
6
13
7
23
-99.2744
33
6
0
3DFACE
8
chairs__2
62
14
10
7
20
-100.274
30
6
11
13
21
-100.274
31
6
12
13
22
-100.274
32
13
13
7
23
-100.274
33
13
0
3DFACE
8
chairs__2
62
14
10
13
20
-100.274
30
6
11
13
21
-99.2744
31
6
12
13
22
-99.2744
32
13
13
13
23
-100.274
33
13
0
3DFACE
8
chairs__2
62
14
10
13
20
-99.2744
30
6
11
7
21
-99.2744
31
6
12
7
22
-99.2744
32
13
13
13
23
-99.2744
33
13
0
3DFACE
8
chairs__2
62
14
10
7
20
-99.2744
30
6
11
7
21
-100.274
31
6
12
7
22
-100.274
32
13
13
7
23
-99.2744
33
13
0
3DFACE
8
chairs__2
62
14
10
17
20
-100.274
30
0.0
11
23
21
-100.274
31
0.0
12
23
22
-100.274
32
6
13
17
23
-100.274
33
6
0
3DFACE
8
chairs__2
62
14
10
17
20
-100.274
30
13
11
23
21
-100.274
31
13
12
23
22
-99.2744
32
13
13
17
23
-99.2744
33
13
0
3DFACE
8
chairs__2
62
14
10
17
20
-99.2744
30
6
11
23
21
-99.2744
31
6
12
23
22
-94.7744
32
6
13
17
23
-94.7744
33
6
0
3DFACE
8
chairs__2
62
14
10
17
20
-94.7744
30
6
11
23
21
-94.7744
31
6
12
23
22
-94.7744
32
0.0
13
17
23
-94.7744
33
0.0
0
3DFACE
8
chairs__2
62
14
10
17
20
-94.7744
30
0.0
11
23
21
-94.7744
31
0.0
12
23
22
-99.2744
32
0.0
13
17
23
-99.2744
33
0.0
0
3DFACE
8
chairs__2
62
14
10
17
20
-99.2744
30
0.0
11
23
21
-99.2744
31
0.0
12
23
22
-100.274
32
0.0
13
17
23
-100.274
33
0.0
0
3DFACE
8
chairs__2
62
14
10
23
20
-99.2744
30
0.0
11
23
21
-94.7744
31
0.0
12
23
22
-94.7744
32
6
13
23
23
-99.2744
33
6
0
3DFACE
8
chairs__2
62
14
10
23
20
-100.274
30
0.0
11
23
21
-99.2744
31
0.0
12
23
22
-99.2744
32
6
13
23
23
-100.274
33
6
0
3DFACE
8
chairs__2
62
14
10
17
20
-94.7744
30
0.0
11
17
21
-99.2744
31
0.0
12
17
22
-99.2744
32
6
13
17
23
-94.7744
33
6
0
3DFACE
8
chairs__2
62
14
10
17
20
-99.2744
30
0.0
11
17
21
-100.274
31
0.0
12
17
22
-100.274
32
6
13
17
23
-99.2744
33
6
0
3DFACE
8
chairs__2
62
14
10
17
20
-100.274
30
6
11
23
21
-100.274
31
6
12
23
22
-100.274
32
13
13
17
23
-100.274
33
13
0
3DFACE
8
chairs__2
62
14
10
23
20
-100.274
30
6
11
23
21
-99.2744
31
6
12
23
22
-99.2744
32
13
13
23
23
-100.274
33
13
0
3DFACE
8
chairs__2
62
14
10
23
20
-99.2744
30
6
11
17
21
-99.2744
31
6
12
17
22
-99.2744
32
13
13
23
23
-99.2744
33
13
0
3DFACE
8
chairs__2
62
14
10
17
20
-99.2744
30
6
11
17
21
-100.274
31
6
12
17
22
-100.274
32
13
13
17
23
-99.2744
33
13
0
3DFACE
8
chairs__2
62
14
10
-23
20
-115.274
30
0.0
11
-17
21
-115.274
31
0.0
12
-17
22
-115.274
32
6
13
-23
23
-115.274
33
6
0
3DFACE
8
chairs__2
62
14
10
-23
20
-115.274
30
13
11
-17
21
-115.274
31
13
12
-17
22
-114.274
32
13
13
-23
23
-114.274
33
13
0
3DFACE
8
chairs__2
62
14
10
-23
20
-114.274
30
6
11
-17
21
-114.274
31
6
12
-17
22
-109.774
32
6
13
-23
23
-109.774
33
6
0
3DFACE
8
chairs__2
62
14
10
-23
20
-109.774
30
6
11
-17
21
-109.774
31
6
12
-17
22
-109.774
32
0.0
13
-23
23
-109.774
33
0.0
0
3DFACE
8
chairs__2
62
14
10
-23
20
-109.774
30
0.0
11
-17
21
-109.774
31
0.0
12
-17
22
-114.274
32
0.0
13
-23
23
-114.274
33
0.0
0
3DFACE
8
chairs__2
62
14
10
-23
20
-114.274
30
0.0
11
-17
21
-114.274
31
0.0
12
-17
22
-115.274
32
0.0
13
-23
23
-115.274
33
0.0
0
3DFACE
8
chairs__2
62
14
10
-17
20
-114.274
30
0.0
11
-17
21
-109.774
31
0.0
12
-17
22
-109.774
32
6
13
-17
23
-114.274
33
6
0
3DFACE
8
chairs__2
62
14
10
-17
20
-115.274
30
0.0
11
-17
21
-114.274
31
0.0
12
-17
22
-114.274
32
6
13
-17
23
-115.274
33
6
0
3DFACE
8
chairs__2
62
14
10
-23
20
-109.774
30
0.0
11
-23
21
-114.274
31
0.0
12
-23
22
-114.274
32
6
13
-23
23
-109.774
33
6
0
3DFACE
8
chairs__2
62
14
10
-23
20
-114.274
30
0.0
11
-23
21
-115.274
31
0.0
12
-23
22
-115.274
32
6
13
-23
23
-114.274
33
6
0
3DFACE
8
chairs__2
62
14
10
-23
20
-115.274
30
6
11
-17
21
-115.274
31
6
12
-17
22
-115.274
32
13
13
-23
23
-115.274
33
13
0
3DFACE
8
chairs__2
62
14
10
-17
20
-115.274
30
6
11
-17
21
-114.274
31
6
12
-17
22
-114.274
32
13
13
-17
23
-115.274
33
13
0
3DFACE
8
chairs__2
62
14
10
-17
20
-114.274
30
6
11
-23
21
-114.274
31
6
12
-23
22
-114.274
32
13
13
-17
23
-114.274
33
13
0
3DFACE
8
chairs__2
62
14
10
-23
20
-114.274
30
6
11
-23
21
-115.274
31
6
12
-23
22
-115.274
32
13
13
-23
23
-114.274
33
13
0
3DFACE
8
chairs__2
62
14
10
-13
20
-115.274
30
0.0
11
-7
21
-115.274
31
0.0
12
-7
22
-115.274
32
6
13
-13
23
-115.274
33
6
0
3DFACE
8
chairs__2
62
14
10
-13
20
-115.274
30
13
11
-7
21
-115.274
31
13
12
-7
22
-114.274
32
13
13
-13
23
-114.274
33
13
0
3DFACE
8
chairs__2
62
14
10
-13
20
-114.274
30
6
11
-7
21
-114.274
31
6
12
-7
22
-109.774
32
6
13
-13
23
-109.774
33
6
0
3DFACE
8
chairs__2
62
14
10
-13
20
-109.774
30
6
11
-7
21
-109.774
31
6
12
-7
22
-109.774
32
0.0
13
-13
23
-109.774
33
0.0
0
3DFACE
8
chairs__2
62
14
10
-13
20
-109.774
30
0.0
11
-7
21
-109.774
31
0.0
12
-7
22
-114.274
32
0.0
13
-13
23
-114.274
33
0.0
0
3DFACE
8
chairs__2
62
14
10
-13
20
-114.274
30
0.0
11
-7
21
-114.274
31
0.0
12
-7
22
-115.274
32
0.0
13
-13
23
-115.274
33
0.0
0
3DFACE
8
chairs__2
62
14
10
-7
20
-114.274
30
0.0
11
-7
21
-109.774
31
0.0
12
-7
22
-109.774
32
6
13
-7
23
-114.274
33
6
0
3DFACE
8
chairs__2
62
14
10
-7
20
-115.274
30
0.0
11
-7
21
-114.274
31
0.0
12
-7
22
-114.274
32
6
13
-7
23
-115.274
33
6
0
3DFACE
8
chairs__2
62
14
10
-13
20
-109.774
30
0.0
11
-13
21
-114.274
31
0.0
12
-13
22
-114.274
32
6
13
-13
23
-109.774
33
6
0
3DFACE
8
chairs__2
62
14
10
-13
20
-114.274
30
0.0
11
-13
21
-115.274
31
0.0
12
-13
22
-115.274
32
6
13
-13
23
-114.274
33
6
0
3DFACE
8
chairs__2
62
14
10
-13
20
-115.274
30
6
11
-7
21
-115.274
31
6
12
-7
22
-115.274
32
13
13
-13
23
-115.274
33
13
0
3DFACE
8
chairs__2
62
14
10
-7
20
-115.274
30
6
11
-7
21
-114.274
31
6
12
-7
22
-114.274
32
13
13
-7
23
-115.274
33
13
0
3DFACE
8
chairs__2
62
14
10
-7
20
-114.274
30
6
11
-13
21
-114.274
31
6
12
-13
22
-114.274
32
13
13
-7
23
-114.274
33
13
0
3DFACE
8
chairs__2
62
14
10
-13
20
-114.274
30
6
11
-13
21
-115.274
31
6
12
-13
22
-115.274
32
13
13
-13
23
-114.274
33
13
0
3DFACE
8
chairs__2
62
14
10
-3
20
-115.274
30
0.0
11
3
21
-115.274
31
0.0
12
3
22
-115.274
32
6
13
-3
23
-115.274
33
6
0
3DFACE
8
chairs__2
62
14
10
-3
20
-115.274
30
13
11
3
21
-115.274
31
13
12
3
22
-114.274
32
13
13
-3
23
-114.274
33
13
0
3DFACE
8
chairs__2
62
14
10
-3
20
-114.274
30
6
11
3
21
-114.274
31
6
12
3
22
-109.774
32
6
13
-3
23
-109.774
33
6
0
3DFACE
8
chairs__2
62
14
10
-3
20
-109.774
30
6
11
3
21
-109.774
31
6
12
3
22
-109.774
32
0.0
13
-3
23
-109.774
33
0.0
0
3DFACE
8
chairs__2
62
14
10
-3
20
-109.774
30
0.0
11
3
21
-109.774
31
0.0
12
3
22
-114.274
32
0.0
13
-3
23
-114.274
33
0.0
0
3DFACE
8
chairs__2
62
14
10
-3
20
-114.274
30
0.0
11
3
21
-114.274
31
0.0
12
3
22
-115.274
32
0.0
13
-3
23
-115.274
33
0.0
0
3DFACE
8
chairs__2
62
14
10
3
20
-114.274
30
0.0
11
3
21
-109.774
31
0.0
12
3
22
-109.774
32
6
13
3
23
-114.274
33
6
0
3DFACE
8
chairs__2
62
14
10
3
20
-115.274
30
0.0
11
3
21
-114.274
31
0.0
12
3
22
-114.274
32
6
13
3
23
-115.274
33
6
0
3DFACE
8
chairs__2
62
14
10
-3
20
-109.774
30
0.0
11
-3
21
-114.274
31
0.0
12
-3
22
-114.274
32
6
13
-3
23
-109.774
33
6
0
3DFACE
8
chairs__2
62
14
10
-3
20
-114.274
30
0.0
11
-3
21
-115.274
31
0.0
12
-3
22
-115.274
32
6
13
-3
23
-114.274
33
6
0
3DFACE
8
chairs__2
62
14
10
-3
20
-115.274
30
6
11
3
21
-115.274
31
6
12
3
22
-115.274
32
13
13
-3
23
-115.274
33
13
0
3DFACE
8
chairs__2
62
14
10
3
20
-115.274
30
6
11
3
21
-114.274
31
6
12
3
22
-114.274
32
13
13
3
23
-115.274
33
13
0
3DFACE
8
chairs__2
62
14
10
3
20
-114.274
30
6
11
-3
21
-114.274
31
6
12
-3
22
-114.274
32
13
13
3
23
-114.274
33
13
0
3DFACE
8
chairs__2
62
14
10
-3
20
-114.274
30
6
11
-3
21
-115.274
31
6
12
-3
22
-115.274
32
13
13
-3
23
-114.274
33
13
0
3DFACE
8
chairs__2
62
14
10
7
20
-115.274
30
0.0
11
13
21
-115.274
31
0.0
12
13
22
-115.274
32
6
13
7
23
-115.274
33
6
0
3DFACE
8
chairs__2
62
14
10
7
20
-115.274
30
13
11
13
21
-115.274
31
13
12
13
22
-114.274
32
13
13
7
23
-114.274
33
13
0
3DFACE
8
chairs__2
62
14
10
7
20
-114.274
30
6
11
13
21
-114.274
31
6
12
13
22
-109.774
32
6
13
7
23
-109.774
33
6
0
3DFACE
8
chairs__2
62
14
10
7
20
-109.774
30
6
11
13
21
-109.774
31
6
12
13
22
-109.774
32
0.0
13
7
23
-109.774
33
0.0
0
3DFACE
8
chairs__2
62
14
10
7
20
-109.774
30
0.0
11
13
21
-109.774
31
0.0
12
13
22
-114.274
32
0.0
13
7
23
-114.274
33
0.0
0
3DFACE
8
chairs__2
62
14
10
7
20
-114.274
30
0.0
11
13
21
-114.274
31
0.0
12
13
22
-115.274
32
0.0
13
7
23
-115.274
33
0.0
0
3DFACE
8
chairs__2
62
14
10
13
20
-114.274
30
0.0
11
13
21
-109.774
31
0.0
12
13
22
-109.774
32
6
13
13
23
-114.274
33
6
0
3DFACE
8
chairs__2
62
14
10
13
20
-115.274
30
0.0
11
13
21
-114.274
31
0.0
12
13
22
-114.274
32
6
13
13
23
-115.274
33
6
0
3DFACE
8
chairs__2
62
14
10
7
20
-109.774
30
0.0
11
7
21
-114.274
31
0.0
12
7
22
-114.274
32
6
13
7
23
-109.774
33
6
0
3DFACE
8
chairs__2
62
14
10
7
20
-114.274
30
0.0
11
7
21
-115.274
31
0.0
12
7
22
-115.274
32
6
13
7
23
-114.274
33
6
0
3DFACE
8
chairs__2
62
14
10
7
20
-115.274
30
6
11
13
21
-115.274
31
6
12
13
22
-115.274
32
13
13
7
23
-115.274
33
13
0
3DFACE
8
chairs__2
62
14
10
13
20
-115.274
30
6
11
13
21
-114.274
31
6
12
13
22
-114.274
32
13
13
13
23
-115.274
33
13
0
3DFACE
8
chairs__2
62
14
10
13
20
-114.274
30
6
11
7
21
-114.274
31
6
12
7
22
-114.274
32
13
13
13
23
-114.274
33
13
0
3DFACE
8
chairs__2
62
14
10
7
20
-114.274
30
6
11
7
21
-115.274
31
6
12
7
22
-115.274
32
13
13
7
23
-114.274
33
13
0
3DFACE
8
chairs__2
62
14
10
17
20
-115.274
30
0.0
11
23
21
-115.274
31
0.0
12
23
22
-115.274
32
6
13
17
23
-115.274
33
6
0
3DFACE
8
chairs__2
62
14
10
17
20
-115.274
30
13
11
23
21
-115.274
31
13
12
23
22
-114.274
32
13
13
17
23
-114.274
33
13
0
3DFACE
8
chairs__2
62
14
10
17
20
-114.274
30
6
11
23
21
-114.274
31
6
12
23
22
-109.774
32
6
13
17
23
-109.774
33
6
0
3DFACE
8
chairs__2
62
14
10
17
20
-109.774
30
6
11
23
21
-109.774
31
6
12
23
22
-109.774
32
0.0
13
17
23
-109.774
33
0.0
0
3DFACE
8
chairs__2
62
14
10
17
20
-109.774
30
0.0
11
23
21
-109.774
31
0.0
12
23
22
-114.274
32
0.0
13
17
23
-114.274
33
0.0
0
3DFACE
8
chairs__2
62
14
10
17
20
-114.274
30
0.0
11
23
21
-114.274
31
0.0
12
23
22
-115.274
32
0.0
13
17
23
-115.274
33
0.0
0
3DFACE
8
chairs__2
62
14
10
23
20
-114.274
30
0.0
11
23
21
-109.774
31
0.0
12
23
22
-109.774
32
6
13
23
23
-114.274
33
6
0
3DFACE
8
chairs__2
62
14
10
23
20
-115.274
30
0.0
11
23
21
-114.274
31
0.0
12
23
22
-114.274
32
6
13
23
23
-115.274
33
6
0
3DFACE
8
chairs__2
62
14
10
17
20
-109.774
30
0.0
11
17
21
-114.274
31
0.0
12
17
22
-114.274
32
6
13
17
23
-109.774
33
6
0
3DFACE
8
chairs__2
62
14
10
17
20
-114.274
30
0.0
11
17
21
-115.274
31
0.0
12
17
22
-115.274
32
6
13
17
23
-114.274
33
6
0
3DFACE
8
chairs__2
62
14
10
17
20
-115.274
30
6
11
23
21
-115.274
31
6
12
23
22
-115.274
32
13
13
17
23
-115.274
33
13
0
3DFACE
8
chairs__2
62
14
10
23
20
-115.274
30
6
11
23
21
-114.274
31
6
12
23
22
-114.274
32
13
13
23
23
-115.274
33
13
0
3DFACE
8
chairs__2
62
14
10
23
20
-114.274
30
6
11
17
21
-114.274
31
6
12
17
22
-114.274
32
13
13
23
23
-114.274
33
13
0
3DFACE
8
chairs__2
62
14
10
17
20
-114.274
30
6
11
17
21
-115.274
31
6
12
17
22
-115.274
32
13
13
17
23
-114.274
33
13
0
3DFACE
8
chairs__2
62
14
10
-23
20
-130.274
30
0.0
11
-17
21
-130.274
31
0.0
12
-17
22
-130.274
32
6
13
-23
23
-130.274
33
6
0
3DFACE
8
chairs__2
62
14
10
-23
20
-130.274
30
13
11
-17
21
-130.274
31
13
12
-17
22
-129.274
32
13
13
-23
23
-129.274
33
13
0
3DFACE
8
chairs__2
62
14
10
-23
20
-129.274
30
6
11
-17
21
-129.274
31
6
12
-17
22
-124.774
32
6
13
-23
23
-124.774
33
6
0
3DFACE
8
chairs__2
62
14
10
-23
20
-124.774
30
6
11
-17
21
-124.774
31
6
12
-17
22
-124.774
32
0.0
13
-23
23
-124.774
33
0.0
0
3DFACE
8
chairs__2
62
14
10
-23
20
-124.774
30
0.0
11
-17
21
-124.774
31
0.0
12
-17
22
-129.274
32
0.0
13
-23
23
-129.274
33
0.0
0
3DFACE
8
chairs__2
62
14
10
-23
20
-129.274
30
0.0
11
-17
21
-129.274
31
0.0
12
-17
22
-130.274
32
0.0
13
-23
23
-130.274
33
0.0
0
3DFACE
8
chairs__2
62
14
10
-17
20
-129.274
30
0.0
11
-17
21
-124.774
31
0.0
12
-17
22
-124.774
32
6
13
-17
23
-129.274
33
6
0
3DFACE
8
chairs__2
62
14
10
-17
20
-130.274
30
0.0
11
-17
21
-129.274
31
0.0
12
-17
22
-129.274
32
6
13
-17
23
-130.274
33
6
0
3DFACE
8
chairs__2
62
14
10
-23
20
-124.774
30
0.0
11
-23
21
-129.274
31
0.0
12
-23
22
-129.274
32
6
13
-23
23
-124.774
33
6
0
3DFACE
8
chairs__2
62
14
10
-23
20
-129.274
30
0.0
11
-23
21
-130.274
31
0.0
12
-23
22
-130.274
32
6
13
-23
23
-129.274
33
6
0
3DFACE
8
chairs__2
62
14
10
-23
20
-130.274
30
6
11
-17
21
-130.274
31
6
12
-17
22
-130.274
32
13
13
-23
23
-130.274
33
13
0
3DFACE
8
chairs__2
62
14
10
-17
20
-130.274
30
6
11
-17
21
-129.274
31
6
12
-17
22
-129.274
32
13
13
-17
23
-130.274
33
13
0
3DFACE
8
chairs__2
62
14
10
-17
20
-129.274
30
6
11
-23
21
-129.274
31
6
12
-23
22
-129.274
32
13
13
-17
23
-129.274
33
13
0
3DFACE
8
chairs__2
62
14
10
-23
20
-129.274
30
6
11
-23
21
-130.274
31
6
12
-23
22
-130.274
32
13
13
-23
23
-129.274
33
13
0
3DFACE
8
chairs__2
62
14
10
-13
20
-130.274
30
0.0
11
-7
21
-130.274
31
0.0
12
-7
22
-130.274
32
6
13
-13
23
-130.274
33
6
0
3DFACE
8
chairs__2
62
14
10
-13
20
-130.274
30
13
11
-7
21
-130.274
31
13
12
-7
22
-129.274
32
13
13
-13
23
-129.274
33
13
0
3DFACE
8
chairs__2
62
14
10
-13
20
-129.274
30
6
11
-7
21
-129.274
31
6
12
-7
22
-124.774
32
6
13
-13
23
-124.774
33
6
0
3DFACE
8
chairs__2
62
14
10
-13
20
-124.774
30
6
11
-7
21
-124.774
31
6
12
-7
22
-124.774
32
0.0
13
-13
23
-124.774
33
0.0
0
3DFACE
8
chairs__2
62
14
10
-13
20
-124.774
30
0.0
11
-7
21
-124.774
31
0.0
12
-7
22
-129.274
32
0.0
13
-13
23
-129.274
33
0.0
0
3DFACE
8
chairs__2
62
14
10
-13
20
-129.274
30
0.0
11
-7
21
-129.274
31
0.0
12
-7
22
-130.274
32
0.0
13
-13
23
-130.274
33
0.0
0
3DFACE
8
chairs__2
62
14
10
-7
20
-129.274
30
0.0
11
-7
21
-124.774
31
0.0
12
-7
22
-124.774
32
6
13
-7
23
-129.274
33
6
0
3DFACE
8
chairs__2
62
14
10
-7
20
-130.274
30
0.0
11
-7
21
-129.274
31
0.0
12
-7
22
-129.274
32
6
13
-7
23
-130.274
33
6
0
3DFACE
8
chairs__2
62
14
10
-13
20
-124.774
30
0.0
11
-13
21
-129.274
31
0.0
12
-13
22
-129.274
32
6
13
-13
23
-124.774
33
6
0
3DFACE
8
chairs__2
62
14
10
-13
20
-129.274
30
0.0
11
-13
21
-130.274
31
0.0
12
-13
22
-130.274
32
6
13
-13
23
-129.274
33
6
0
3DFACE
8
chairs__2
62
14
10
-13
20
-130.274
30
6
11
-7
21
-130.274
31
6
12
-7
22
-130.274
32
13
13
-13
23
-130.274
33
13
0
3DFACE
8
chairs__2
62
14
10
-7
20
-130.274
30
6
11
-7
21
-129.274
31
6
12
-7
22
-129.274
32
13
13
-7
23
-130.274
33
13
0
3DFACE
8
chairs__2
62
14
10
-7
20
-129.274
30
6
11
-13
21
-129.274
31
6
12
-13
22
-129.274
32
13
13
-7
23
-129.274
33
13
0
3DFACE
8
chairs__2
62
14
10
-13
20
-129.274
30
6
11
-13
21
-130.274
31
6
12
-13
22
-130.274
32
13
13
-13
23
-129.274
33
13
0
3DFACE
8
chairs__2
62
14
10
-3
20
-130.274
30
0.0
11
3
21
-130.274
31
0.0
12
3
22
-130.274
32
6
13
-3
23
-130.274
33
6
0
3DFACE
8
chairs__2
62
14
10
-3
20
-130.274
30
13
11
3
21
-130.274
31
13
12
3
22
-129.274
32
13
13
-3
23
-129.274
33
13
0
3DFACE
8
chairs__2
62
14
10
-3
20
-129.274
30
6
11
3
21
-129.274
31
6
12
3
22
-124.774
32
6
13
-3
23
-124.774
33
6
0
3DFACE
8
chairs__2
62
14
10
-3
20
-124.774
30
6
11
3
21
-124.774
31
6
12
3
22
-124.774
32
0.0
13
-3
23
-124.774
33
0.0
0
3DFACE
8
chairs__2
62
14
10
-3
20
-124.774
30
0.0
11
3
21
-124.774
31
0.0
12
3
22
-129.274
32
0.0
13
-3
23
-129.274
33
0.0
0
3DFACE
8
chairs__2
62
14
10
-3
20
-129.274
30
0.0
11
3
21
-129.274
31
0.0
12
3
22
-130.274
32
0.0
13
-3
23
-130.274
33
0.0
0
3DFACE
8
chairs__2
62
14
10
3
20
-129.274
30
0.0
11
3
21
-124.774
31
0.0
12
3
22
-124.774
32
6
13
3
23
-129.274
33
6
0
3DFACE
8
chairs__2
62
14
10
3
20
-130.274
30
0.0
11
3
21
-129.274
31
0.0
12
3
22
-129.274
32
6
13
3
23
-130.274
33
6
0
3DFACE
8
chairs__2
62
14
10
-3
20
-124.774
30
0.0
11
-3
21
-129.274
31
0.0
12
-3
22
-129.274
32
6
13
-3
23
-124.774
33
6
0
3DFACE
8
chairs__2
62
14
10
-3
20
-129.274
30
0.0
11
-3
21
-130.274
31
0.0
12
-3
22
-130.274
32
6
13
-3
23
-129.274
33
6
0
3DFACE
8
chairs__2
62
14
10
-3
20
-130.274
30
6
11
3
21
-130.274
31
6
12
3
22
-130.274
32
13
13
-3
23
-130.274
33
13
0
3DFACE
8
chairs__2
62
14
10
3
20
-130.274
30
6
11
3
21
-129.274
31
6
12
3
22
-129.274
32
13
13
3
23
-130.274
33
13
0
3DFACE
8
chairs__2
62
14
10
3
20
-129.274
30
6
11
-3
21
-129.274
31
6
12
-3
22
-129.274
32
13
13
3
23
-129.274
33
13
0
3DFACE
8
chairs__2
62
14
10
-3
20
-129.274
30
6
11
-3
21
-130.274
31
6
12
-3
22
-130.274
32
13
13
-3
23
-129.274
33
13
0
3DFACE
8
chairs__2
62
14
10
7
20
-130.274
30
0.0
11
13
21
-130.274
31
0.0
12
13
22
-130.274
32
6
13
7
23
-130.274
33
6
0
3DFACE
8
chairs__2
62
14
10
7
20
-130.274
30
13
11
13
21
-130.274
31
13
12
13
22
-129.274
32
13
13
7
23
-129.274
33
13
0
3DFACE
8
chairs__2
62
14
10
7
20
-129.274
30
6
11
13
21
-129.274
31
6
12
13
22
-124.774
32
6
13
7
23
-124.774
33
6
0
3DFACE
8
chairs__2
62
14
10
7
20
-124.774
30
6
11
13
21
-124.774
31
6
12
13
22
-124.774
32
0.0
13
7
23
-124.774
33
0.0
0
3DFACE
8
chairs__2
62
14
10
7
20
-124.774
30
0.0
11
13
21
-124.774
31
0.0
12
13
22
-129.274
32
0.0
13
7
23
-129.274
33
0.0
0
3DFACE
8
chairs__2
62
14
10
7
20
-129.274
30
0.0
11
13
21
-129.274
31
0.0
12
13
22
-130.274
32
0.0
13
7
23
-130.274
33
0.0
0
3DFACE
8
chairs__2
62
14
10
13
20
-129.274
30
0.0
11
13
21
-124.774
31
0.0
12
13
22
-124.774
32
6
13
13
23
-129.274
33
6
0
3DFACE
8
chairs__2
62
14
10
13
20
-130.274
30
0.0
11
13
21
-129.274
31
0.0
12
13
22
-129.274
32
6
13
13
23
-130.274
33
6
0
3DFACE
8
chairs__2
62
14
10
7
20
-124.774
30
0.0
11
7
21
-129.274
31
0.0
12
7
22
-129.274
32
6
13
7
23
-124.774
33
6
0
3DFACE
8
chairs__2
62
14
10
7
20
-129.274
30
0.0
11
7
21
-130.274
31
0.0
12
7
22
-130.274
32
6
13
7
23
-129.274
33
6
0
3DFACE
8
chairs__2
62
14
10
7
20
-130.274
30
6
11
13
21
-130.274
31
6
12
13
22
-130.274
32
13
13
7
23
-130.274
33
13
0
3DFACE
8
chairs__2
62
14
10
13
20
-130.274
30
6
11
13
21
-129.274
31
6
12
13
22
-129.274
32
13
13
13
23
-130.274
33
13
0
3DFACE
8
chairs__2
62
14
10
13
20
-129.274
30
6
11
7
21
-129.274
31
6
12
7
22
-129.274
32
13
13
13
23
-129.274
33
13
0
3DFACE
8
chairs__2
62
14
10
7
20
-129.274
30
6
11
7
21
-130.274
31
6
12
7
22
-130.274
32
13
13
7
23
-129.274
33
13
0
3DFACE
8
chairs__2
62
14
10
17
20
-130.274
30
0.0
11
23
21
-130.274
31
0.0
12
23
22
-130.274
32
6
13
17
23
-130.274
33
6
0
3DFACE
8
chairs__2
62
14
10
17
20
-130.274
30
13
11
23
21
-130.274
31
13
12
23
22
-129.274
32
13
13
17
23
-129.274
33
13
0
3DFACE
8
chairs__2
62
14
10
17
20
-129.274
30
6
11
23
21
-129.274
31
6
12
23
22
-124.774
32
6
13
17
23
-124.774
33
6
0
3DFACE
8
chairs__2
62
14
10
17
20
-124.774
30
6
11
23
21
-124.774
31
6
12
23
22
-124.774
32
0.0
13
17
23
-124.774
33
0.0
0
3DFACE
8
chairs__2
62
14
10
17
20
-124.774
30
0.0
11
23
21
-124.774
31
0.0
12
23
22
-129.274
32
0.0
13
17
23
-129.274
33
0.0
0
3DFACE
8
chairs__2
62
14
10
17
20
-129.274
30
0.0
11
23
21
-129.274
31
0.0
12
23
22
-130.274
32
0.0
13
17
23
-130.274
33
0.0
0
3DFACE
8
chairs__2
62
14
10
23
20
-129.274
30
0.0
11
23
21
-124.774
31
0.0
12
23
22
-124.774
32
6
13
23
23
-129.274
33
6
0
3DFACE
8
chairs__2
62
14
10
23
20
-130.274
30
0.0
11
23
21
-129.274
31
0.0
12
23
22
-129.274
32
6
13
23
23
-130.274
33
6
0
3DFACE
8
chairs__2
62
14
10
17
20
-124.774
30
0.0
11
17
21
-129.274
31
0.0
12
17
22
-129.274
32
6
13
17
23
-124.774
33
6
0
3DFACE
8
chairs__2
62
14
10
17
20
-129.274
30
0.0
11
17
21
-130.274
31
0.0
12
17
22
-130.274
32
6
13
17
23
-129.274
33
6
0
3DFACE
8
chairs__2
62
14
10
17
20
-130.274
30
6
11
23
21
-130.274
31
6
12
23
22
-130.274
32
13
13
17
23
-130.274
33
13
0
3DFACE
8
chairs__2
62
14
10
23
20
-130.274
30
6
11
23
21
-129.274
31
6
12
23
22
-129.274
32
13
13
23
23
-130.274
33
13
0
3DFACE
8
chairs__2
62
14
10
23
20
-129.274
30
6
11
17
21
-129.274
31
6
12
17
22
-129.274
32
13
13
23
23
-129.274
33
13
0
3DFACE
8
chairs__2
62
14
10
17
20
-129.274
30
6
11
17
21
-130.274
31
6
12
17
22
-130.274
32
13
13
17
23
-129.274
33
13
0
3DFACE
8
chairs__2
62
14
10
-23
20
-145.274
30
0.0
11
-17
21
-145.274
31
0.0
12
-17
22
-145.274
32
6
13
-23
23
-145.274
33
6
0
3DFACE
8
chairs__2
62
14
10
-23
20
-145.274
30
13
11
-17
21
-145.274
31
13
12
-17
22
-144.274
32
13
13
-23
23
-144.274
33
13
0
3DFACE
8
chairs__2
62
14
10
-23
20
-144.274
30
6
11
-17
21
-144.274
31
6
12
-17
22
-139.774
32
6
13
-23
23
-139.774
33
6
0
3DFACE
8
chairs__2
62
14
10
-23
20
-139.774
30
6
11
-17
21
-139.774
31
6
12
-17
22
-139.774
32
0.0
13
-23
23
-139.774
33
0.0
0
3DFACE
8
chairs__2
62
14
10
-23
20
-139.774
30
0.0
11
-17
21
-139.774
31
0.0
12
-17
22
-144.274
32
0.0
13
-23
23
-144.274
33
0.0
0
3DFACE
8
chairs__2
62
14
10
-23
20
-144.274
30
0.0
11
-17
21
-144.274
31
0.0
12
-17
22
-145.274
32
0.0
13
-23
23
-145.274
33
0.0
0
3DFACE
8
chairs__2
62
14
10
-17
20
-144.274
30
0.0
11
-17
21
-139.774
31
0.0
12
-17
22
-139.774
32
6
13
-17
23
-144.274
33
6
0
3DFACE
8
chairs__2
62
14
10
-17
20
-145.274
30
0.0
11
-17
21
-144.274
31
0.0
12
-17
22
-144.274
32
6
13
-17
23
-145.274
33
6
0
3DFACE
8
chairs__2
62
14
10
-23
20
-139.774
30
0.0
11
-23
21
-144.274
31
0.0
12
-23
22
-144.274
32
6
13
-23
23
-139.774
33
6
0
3DFACE
8
chairs__2
62
14
10
-23
20
-144.274
30
0.0
11
-23
21
-145.274
31
0.0
12
-23
22
-145.274
32
6
13
-23
23
-144.274
33
6
0
3DFACE
8
chairs__2
62
14
10
-23
20
-145.274
30
6
11
-17
21
-145.274
31
6
12
-17
22
-145.274
32
13
13
-23
23
-145.274
33
13
0
3DFACE
8
chairs__2
62
14
10
-17
20
-145.274
30
6
11
-17
21
-144.274
31
6
12
-17
22
-144.274
32
13
13
-17
23
-145.274
33
13
0
3DFACE
8
chairs__2
62
14
10
-17
20
-144.274
30
6
11
-23
21
-144.274
31
6
12
-23
22
-144.274
32
13
13
-17
23
-144.274
33
13
0
3DFACE
8
chairs__2
62
14
10
-23
20
-144.274
30
6
11
-23
21
-145.274
31
6
12
-23
22
-145.274
32
13
13
-23
23
-144.274
33
13
0
3DFACE
8
chairs__2
62
14
10
-13
20
-145.274
30
0.0
11
-7
21
-145.274
31
0.0
12
-7
22
-145.274
32
6
13
-13
23
-145.274
33
6
0
3DFACE
8
chairs__2
62
14
10
-13
20
-145.274
30
13
11
-7
21
-145.274
31
13
12
-7
22
-144.274
32
13
13
-13
23
-144.274
33
13
0
3DFACE
8
chairs__2
62
14
10
-13
20
-144.274
30
6
11
-7
21
-144.274
31
6
12
-7
22
-139.774
32
6
13
-13
23
-139.774
33
6
0
3DFACE
8
chairs__2
62
14
10
-13
20
-139.774
30
6
11
-7
21
-139.774
31
6
12
-7
22
-139.774
32
0.0
13
-13
23
-139.774
33
0.0
0
3DFACE
8
chairs__2
62
14
10
-13
20
-139.774
30
0.0
11
-7
21
-139.774
31
0.0
12
-7
22
-144.274
32
0.0
13
-13
23
-144.274
33
0.0
0
3DFACE
8
chairs__2
62
14
10
-13
20
-144.274
30
0.0
11
-7
21
-144.274
31
0.0
12
-7
22
-145.274
32
0.0
13
-13
23
-145.274
33
0.0
0
3DFACE
8
chairs__2
62
14
10
-7
20
-144.274
30
0.0
11
-7
21
-139.774
31
0.0
12
-7
22
-139.774
32
6
13
-7
23
-144.274
33
6
0
3DFACE
8
chairs__2
62
14
10
-7
20
-145.274
30
0.0
11
-7
21
-144.274
31
0.0
12
-7
22
-144.274
32
6
13
-7
23
-145.274
33
6
0
3DFACE
8
chairs__2
62
14
10
-13
20
-139.774
30
0.0
11
-13
21
-144.274
31
0.0
12
-13
22
-144.274
32
6
13
-13
23
-139.774
33
6
0
3DFACE
8
chairs__2
62
14
10
-13
20
-144.274
30
0.0
11
-13
21
-145.274
31
0.0
12
-13
22
-145.274
32
6
13
-13
23
-144.274
33
6
0
3DFACE
8
chairs__2
62
14
10
-13
20
-145.274
30
6
11
-7
21
-145.274
31
6
12
-7
22
-145.274
32
13
13
-13
23
-145.274
33
13
0
3DFACE
8
chairs__2
62
14
10
-7
20
-145.274
30
6
11
-7
21
-144.274
31
6
12
-7
22
-144.274
32
13
13
-7
23
-145.274
33
13
0
3DFACE
8
chairs__2
62
14
10
-7
20
-144.274
30
6
11
-13
21
-144.274
31
6
12
-13
22
-144.274
32
13
13
-7
23
-144.274
33
13
0
3DFACE
8
chairs__2
62
14
10
-13
20
-144.274
30
6
11
-13
21
-145.274
31
6
12
-13
22
-145.274
32
13
13
-13
23
-144.274
33
13
0
3DFACE
8
chairs__2
62
14
10
-3
20
-145.274
30
0.0
11
3
21
-145.274
31
0.0
12
3
22
-145.274
32
6
13
-3
23
-145.274
33
6
0
3DFACE
8
chairs__2
62
14
10
-3
20
-145.274
30
13
11
3
21
-145.274
31
13
12
3
22
-144.274
32
13
13
-3
23
-144.274
33
13
0
3DFACE
8
chairs__2
62
14
10
-3
20
-144.274
30
6
11
3
21
-144.274
31
6
12
3
22
-139.774
32
6
13
-3
23
-139.774
33
6
0
3DFACE
8
chairs__2
62
14
10
-3
20
-139.774
30
6
11
3
21
-139.774
31
6
12
3
22
-139.774
32
0.0
13
-3
23
-139.774
33
0.0
0
3DFACE
8
chairs__2
62
14
10
-3
20
-139.774
30
0.0
11
3
21
-139.774
31
0.0
12
3
22
-144.274
32
0.0
13
-3
23
-144.274
33
0.0
0
3DFACE
8
chairs__2
62
14
10
-3
20
-144.274
30
0.0
11
3
21
-144.274
31
0.0
12
3
22
-145.274
32
0.0
13
-3
23
-145.274
33
0.0
0
3DFACE
8
chairs__2
62
14
10
3
20
-144.274
30
0.0
11
3
21
-139.774
31
0.0
12
3
22
-139.774
32
6
13
3
23
-144.274
33
6
0
3DFACE
8
chairs__2
62
14
10
3
20
-145.274
30
0.0
11
3
21
-144.274
31
0.0
12
3
22
-144.274
32
6
13
3
23
-145.274
33
6
0
3DFACE
8
chairs__2
62
14
10
-3
20
-139.774
30
0.0
11
-3
21
-144.274
31
0.0
12
-3
22
-144.274
32
6
13
-3
23
-139.774
33
6
0
3DFACE
8
chairs__2
62
14
10
-3
20
-144.274
30
0.0
11
-3
21
-145.274
31
0.0
12
-3
22
-145.274
32
6
13
-3
23
-144.274
33
6
0
3DFACE
8
chairs__2
62
14
10
-3
20
-145.274
30
6
11
3
21
-145.274
31
6
12
3
22
-145.274
32
13
13
-3
23
-145.274
33
13
0
3DFACE
8
chairs__2
62
14
10
3
20
-145.274
30
6
11
3
21
-144.274
31
6
12
3
22
-144.274
32
13
13
3
23
-145.274
33
13
0
3DFACE
8
chairs__2
62
14
10
3
20
-144.274
30
6
11
-3
21
-144.274
31
6
12
-3
22
-144.274
32
13
13
3
23
-144.274
33
13
0
3DFACE
8
chairs__2
62
14
10
-3
20
-144.274
30
6
11
-3
21
-145.274
31
6
12
-3
22
-145.274
32
13
13
-3
23
-144.274
33
13
0
3DFACE
8
chairs__2
62
14
10
7
20
-145.274
30
0.0
11
13
21
-145.274
31
0.0
12
13
22
-145.274
32
6
13
7
23
-145.274
33
6
0
3DFACE
8
chairs__2
62
14
10
7
20
-145.274
30
13
11
13
21
-145.274
31
13
12
13
22
-144.274
32
13
13
7
23
-144.274
33
13
0
3DFACE
8
chairs__2
62
14
10
7
20
-144.274
30
6
11
13
21
-144.274
31
6
12
13
22
-139.774
32
6
13
7
23
-139.774
33
6
0
3DFACE
8
chairs__2
62
14
10
7
20
-139.774
30
6
11
13
21
-139.774
31
6
12
13
22
-139.774
32
0.0
13
7
23
-139.774
33
0.0
0
3DFACE
8
chairs__2
62
14
10
7
20
-139.774
30
0.0
11
13
21
-139.774
31
0.0
12
13
22
-144.274
32
0.0
13
7
23
-144.274
33
0.0
0
3DFACE
8
chairs__2
62
14
10
7
20
-144.274
30
0.0
11
13
21
-144.274
31
0.0
12
13
22
-145.274
32
0.0
13
7
23
-145.274
33
0.0
0
3DFACE
8
chairs__2
62
14
10
13
20
-144.274
30
0.0
11
13
21
-139.774
31
0.0
12
13
22
-139.774
32
6
13
13
23
-144.274
33
6
0
3DFACE
8
chairs__2
62
14
10
13
20
-145.274
30
0.0
11
13
21
-144.274
31
0.0
12
13
22
-144.274
32
6
13
13
23
-145.274
33
6
0
3DFACE
8
chairs__2
62
14
10
7
20
-139.774
30
0.0
11
7
21
-144.274
31
0.0
12
7
22
-144.274
32
6
13
7
23
-139.774
33
6
0
3DFACE
8
chairs__2
62
14
10
7
20
-144.274
30
0.0
11
7
21
-145.274
31
0.0
12
7
22
-145.274
32
6
13
7
23
-144.274
33
6
0
3DFACE
8
chairs__2
62
14
10
7
20
-145.274
30
6
11
13
21
-145.274
31
6
12
13
22
-145.274
32
13
13
7
23
-145.274
33
13
0
3DFACE
8
chairs__2
62
14
10
13
20
-145.274
30
6
11
13
21
-144.274
31
6
12
13
22
-144.274
32
13
13
13
23
-145.274
33
13
0
3DFACE
8
chairs__2
62
14
10
13
20
-144.274
30
6
11
7
21
-144.274
31
6
12
7
22
-144.274
32
13
13
13
23
-144.274
33
13
0
3DFACE
8
chairs__2
62
14
10
7
20
-144.274
30
6
11
7
21
-145.274
31
6
12
7
22
-145.274
32
13
13
7
23
-144.274
33
13
0
3DFACE
8
chairs__2
62
14
10
17
20
-145.274
30
0.0
11
23
21
-145.274
31
0.0
12
23
22
-145.274
32
6
13
17
23
-145.274
33
6
0
3DFACE
8
chairs__2
62
14
10
17
20
-145.274
30
13
11
23
21
-145.274
31
13
12
23
22
-144.274
32
13
13
17
23
-144.274
33
13
0
3DFACE
8
chairs__2
62
14
10
17
20
-144.274
30
6
11
23
21
-144.274
31
6
12
23
22
-139.774
32
6
13
17
23
-139.774
33
6
0
3DFACE
8
chairs__2
62
14
10
17
20
-139.774
30
6
11
23
21
-139.774
31
6
12
23
22
-139.774
32
0.0
13
17
23
-139.774
33
0.0
0
3DFACE
8
chairs__2
62
14
10
17
20
-139.774
30
0.0
11
23
21
-139.774
31
0.0
12
23
22
-144.274
32
0.0
13
17
23
-144.274
33
0.0
0
3DFACE
8
chairs__2
62
14
10
17
20
-144.274
30
0.0
11
23
21
-144.274
31
0.0
12
23
22
-145.274
32
0.0
13
17
23
-145.274
33
0.0
0
3DFACE
8
chairs__2
62
14
10
23
20
-144.274
30
0.0
11
23
21
-139.774
31
0.0
12
23
22
-139.774
32
6
13
23
23
-144.274
33
6
0
3DFACE
8
chairs__2
62
14
10
23
20
-145.274
30
0.0
11
23
21
-144.274
31
0.0
12
23
22
-144.274
32
6
13
23
23
-145.274
33
6
0
3DFACE
8
chairs__2
62
14
10
17
20
-139.774
30
0.0
11
17
21
-144.274
31
0.0
12
17
22
-144.274
32
6
13
17
23
-139.774
33
6
0
3DFACE
8
chairs__2
62
14
10
17
20
-144.274
30
0.0
11
17
21
-145.274
31
0.0
12
17
22
-145.274
32
6
13
17
23
-144.274
33
6
0
3DFACE
8
chairs__2
62
14
10
17
20
-145.274
30
6
11
23
21
-145.274
31
6
12
23
22
-145.274
32
13
13
17
23
-145.274
33
13
0
3DFACE
8
chairs__2
62
14
10
23
20
-145.274
30
6
11
23
21
-144.274
31
6
12
23
22
-144.274
32
13
13
23
23
-145.274
33
13
0
3DFACE
8
chairs__2
62
14
10
23
20
-144.274
30
6
11
17
21
-144.274
31
6
12
17
22
-144.274
32
13
13
23
23
-144.274
33
13
0
3DFACE
8
chairs__2
62
14
10
17
20
-144.274
30
6
11
17
21
-145.274
31
6
12
17
22
-145.274
32
13
13
17
23
-144.274
33
13
0
3DFACE
8
chairs__2
62
14
10
-23
20
-70.2744
30
0.0
11
-17
21
-70.2744
31
0.0
12
-17
22
-70.2744
32
6
13
-23
23
-70.2744
33
6
0
3DFACE
8
chairs__2
62
14
10
-23
20
-70.2744
30
13
11
-17
21
-70.2744
31
13
12
-17
22
-69.2744
32
13
13
-23
23
-69.2744
33
13
0
3DFACE
8
chairs__2
62
14
10
-23
20
-69.2744
30
6
11
-17
21
-69.2744
31
6
12
-17
22
-64.7744
32
6
13
-23
23
-64.7744
33
6
0
3DFACE
8
chairs__2
62
14
10
-23
20
-64.7744
30
6
11
-17
21
-64.7744
31
6
12
-17
22
-64.7744
32
0.0
13
-23
23
-64.7744
33
0.0
0
3DFACE
8
chairs__2
62
14
10
-23
20
-64.7744
30
0.0
11
-17
21
-64.7744
31
0.0
12
-17
22
-69.2744
32
0.0
13
-23
23
-69.2744
33
0.0
0
3DFACE
8
chairs__2
62
14
10
-23
20
-69.2744
30
0.0
11
-17
21
-69.2744
31
0.0
12
-17
22
-70.2744
32
0.0
13
-23
23
-70.2744
33
0.0
0
3DFACE
8
chairs__2
62
14
10
-17
20
-69.2744
30
0.0
11
-17
21
-64.7744
31
0.0
12
-17
22
-64.7744
32
6
13
-17
23
-69.2744
33
6
0
3DFACE
8
chairs__2
62
14
10
-17
20
-70.2744
30
0.0
11
-17
21
-69.2744
31
0.0
12
-17
22
-69.2744
32
6
13
-17
23
-70.2744
33
6
0
3DFACE
8
chairs__2
62
14
10
-23
20
-64.7744
30
0.0
11
-23
21
-69.2744
31
0.0
12
-23
22
-69.2744
32
6
13
-23
23
-64.7744
33
6
0
3DFACE
8
chairs__2
62
14
10
-23
20
-69.2744
30
0.0
11
-23
21
-70.2744
31
0.0
12
-23
22
-70.2744
32
6
13
-23
23
-69.2744
33
6
0
3DFACE
8
chairs__2
62
14
10
-23
20
-70.2744
30
6
11
-17
21
-70.2744
31
6
12
-17
22
-70.2744
32
13
13
-23
23
-70.2744
33
13
0
3DFACE
8
chairs__2
62
14
10
-17
20
-70.2744
30
6
11
-17
21
-69.2744
31
6
12
-17
22
-69.2744
32
13
13
-17
23
-70.2744
33
13
0
3DFACE
8
chairs__2
62
14
10
-17
20
-69.2744
30
6
11
-23
21
-69.2744
31
6
12
-23
22
-69.2744
32
13
13
-17
23
-69.2744
33
13
0
3DFACE
8
chairs__2
62
14
10
-23
20
-69.2744
30
6
11
-23
21
-70.2744
31
6
12
-23
22
-70.2744
32
13
13
-23
23
-69.2744
33
13
0
3DFACE
8
chairs__2
62
14
10
-13
20
-70.2744
30
0.0
11
-7
21
-70.2744
31
0.0
12
-7
22
-70.2744
32
6
13
-13
23
-70.2744
33
6
0
3DFACE
8
chairs__2
62
14
10
-13
20
-70.2744
30
13
11
-7
21
-70.2744
31
13
12
-7
22
-69.2744
32
13
13
-13
23
-69.2744
33
13
0
3DFACE
8
chairs__2
62
14
10
-13
20
-69.2744
30
6
11
-7
21
-69.2744
31
6
12
-7
22
-64.7744
32
6
13
-13
23
-64.7744
33
6
0
3DFACE
8
chairs__2
62
14
10
-13
20
-64.7744
30
6
11
-7
21
-64.7744
31
6
12
-7
22
-64.7744
32
0.0
13
-13
23
-64.7744
33
0.0
0
3DFACE
8
chairs__2
62
14
10
-13
20
-64.7744
30
0.0
11
-7
21
-64.7744
31
0.0
12
-7
22
-69.2744
32
0.0
13
-13
23
-69.2744
33
0.0
0
3DFACE
8
chairs__2
62
14
10
-13
20
-69.2744
30
0.0
11
-7
21
-69.2744
31
0.0
12
-7
22
-70.2744
32
0.0
13
-13
23
-70.2744
33
0.0
0
3DFACE
8
chairs__2
62
14
10
-7
20
-69.2744
30
0.0
11
-7
21
-64.7744
31
0.0
12
-7
22
-64.7744
32
6
13
-7
23
-69.2744
33
6
0
3DFACE
8
chairs__2
62
14
10
-7
20
-70.2744
30
0.0
11
-7
21
-69.2744
31
0.0
12
-7
22
-69.2744
32
6
13
-7
23
-70.2744
33
6
0
3DFACE
8
chairs__2
62
14
10
-13
20
-64.7744
30
0.0
11
-13
21
-69.2744
31
0.0
12
-13
22
-69.2744
32
6
13
-13
23
-64.7744
33
6
0
3DFACE
8
chairs__2
62
14
10
-13
20
-69.2744
30
0.0
11
-13
21
-70.2744
31
0.0
12
-13
22
-70.2744
32
6
13
-13
23
-69.2744
33
6
0
3DFACE
8
chairs__2
62
14
10
-13
20
-70.2744
30
6
11
-7
21
-70.2744
31
6
12
-7
22
-70.2744
32
13
13
-13
23
-70.2744
33
13
0
3DFACE
8
chairs__2
62
14
10
-7
20
-70.2744
30
6
11
-7
21
-69.2744
31
6
12
-7
22
-69.2744
32
13
13
-7
23
-70.2744
33
13
0
3DFACE
8
chairs__2
62
14
10
-7
20
-69.2744
30
6
11
-13
21
-69.2744
31
6
12
-13
22
-69.2744
32
13
13
-7
23
-69.2744
33
13
0
3DFACE
8
chairs__2
62
14
10
-13
20
-69.2744
30
6
11
-13
21
-70.2744
31
6
12
-13
22
-70.2744
32
13
13
-13
23
-69.2744
33
13
0
3DFACE
8
chairs__2
62
14
10
-3
20
-70.2744
30
0.0
11
3
21
-70.2744
31
0.0
12
3
22
-70.2744
32
6
13
-3
23
-70.2744
33
6
0
3DFACE
8
chairs__2
62
14
10
-3
20
-70.2744
30
13
11
3
21
-70.2744
31
13
12
3
22
-69.2744
32
13
13
-3
23
-69.2744
33
13
0
3DFACE
8
chairs__2
62
14
10
-3
20
-69.2744
30
6
11
3
21
-69.2744
31
6
12
3
22
-64.7744
32
6
13
-3
23
-64.7744
33
6
0
3DFACE
8
chairs__2
62
14
10
-3
20
-64.7744
30
6
11
3
21
-64.7744
31
6
12
3
22
-64.7744
32
0.0
13
-3
23
-64.7744
33
0.0
0
3DFACE
8
chairs__2
62
14
10
-3
20
-64.7744
30
0.0
11
3
21
-64.7744
31
0.0
12
3
22
-69.2744
32
0.0
13
-3
23
-69.2744
33
0.0
0
3DFACE
8
chairs__2
62
14
10
-3
20
-69.2744
30
0.0
11
3
21
-69.2744
31
0.0
12
3
22
-70.2744
32
0.0
13
-3
23
-70.2744
33
0.0
0
3DFACE
8
chairs__2
62
14
10
3
20
-69.2744
30
0.0
11
3
21
-64.7744
31
0.0
12
3
22
-64.7744
32
6
13
3
23
-69.2744
33
6
0
3DFACE
8
chairs__2
62
14
10
3
20
-70.2744
30
0.0
11
3
21
-69.2744
31
0.0
12
3
22
-69.2744
32
6
13
3
23
-70.2744
33
6
0
3DFACE
8
chairs__2
62
14
10
-3
20
-64.7744
30
0.0
11
-3
21
-69.2744
31
0.0
12
-3
22
-69.2744
32
6
13
-3
23
-64.7744
33
6
0
3DFACE
8
chairs__2
62
14
10
-3
20
-69.2744
30
0.0
11
-3
21
-70.2744
31
0.0
12
-3
22
-70.2744
32
6
13
-3
23
-69.2744
33
6
0
3DFACE
8
chairs__2
62
14
10
-3
20
-70.2744
30
6
11
3
21
-70.2744
31
6
12
3
22
-70.2744
32
13
13
-3
23
-70.2744
33
13
0
3DFACE
8
chairs__2
62
14
10
3
20
-70.2744
30
6
11
3
21
-69.2744
31
6
12
3
22
-69.2744
32
13
13
3
23
-70.2744
33
13
0
3DFACE
8
chairs__2
62
14
10
3
20
-69.2744
30
6
11
-3
21
-69.2744
31
6
12
-3
22
-69.2744
32
13
13
3
23
-69.2744
33
13
0
3DFACE
8
chairs__2
62
14
10
-3
20
-69.2744
30
6
11
-3
21
-70.2744
31
6
12
-3
22
-70.2744
32
13
13
-3
23
-69.2744
33
13
0
3DFACE
8
chairs__2
62
14
10
7
20
-70.2744
30
0.0
11
13
21
-70.2744
31
0.0
12
13
22
-70.2744
32
6
13
7
23
-70.2744
33
6
0
3DFACE
8
chairs__2
62
14
10
7
20
-70.2744
30
13
11
13
21
-70.2744
31
13
12
13
22
-69.2744
32
13
13
7
23
-69.2744
33
13
0
3DFACE
8
chairs__2
62
14
10
7
20
-69.2744
30
6
11
13
21
-69.2744
31
6
12
13
22
-64.7744
32
6
13
7
23
-64.7744
33
6
0
3DFACE
8
chairs__2
62
14
10
7
20
-64.7744
30
6
11
13
21
-64.7744
31
6
12
13
22
-64.7744
32
0.0
13
7
23
-64.7744
33
0.0
0
3DFACE
8
chairs__2
62
14
10
7
20
-64.7744
30
0.0
11
13
21
-64.7744
31
0.0
12
13
22
-69.2744
32
0.0
13
7
23
-69.2744
33
0.0
0
3DFACE
8
chairs__2
62
14
10
7
20
-69.2744
30
0.0
11
13
21
-69.2744
31
0.0
12
13
22
-70.2744
32
0.0
13
7
23
-70.2744
33
0.0
0
3DFACE
8
chairs__2
62
14
10
13
20
-69.2744
30
0.0
11
13
21
-64.7744
31
0.0
12
13
22
-64.7744
32
6
13
13
23
-69.2744
33
6
0
3DFACE
8
chairs__2
62
14
10
13
20
-70.2744
30
0.0
11
13
21
-69.2744
31
0.0
12
13
22
-69.2744
32
6
13
13
23
-70.2744
33
6
0
3DFACE
8
chairs__2
62
14
10
7
20
-64.7744
30
0.0
11
7
21
-69.2744
31
0.0
12
7
22
-69.2744
32
6
13
7
23
-64.7744
33
6
0
3DFACE
8
chairs__2
62
14
10
7
20
-69.2744
30
0.0
11
7
21
-70.2744
31
0.0
12
7
22
-70.2744
32
6
13
7
23
-69.2744
33
6
0
3DFACE
8
chairs__2
62
14
10
7
20
-70.2744
30
6
11
13
21
-70.2744
31
6
12
13
22
-70.2744
32
13
13
7
23
-70.2744
33
13
0
3DFACE
8
chairs__2
62
14
10
13
20
-70.2744
30
6
11
13
21
-69.2744
31
6
12
13
22
-69.2744
32
13
13
13
23
-70.2744
33
13
0
3DFACE
8
chairs__2
62
14
10
13
20
-69.2744
30
6
11
7
21
-69.2744
31
6
12
7
22
-69.2744
32
13
13
13
23
-69.2744
33
13
0
3DFACE
8
chairs__2
62
14
10
7
20
-69.2744
30
6
11
7
21
-70.2744
31
6
12
7
22
-70.2744
32
13
13
7
23
-69.2744
33
13
0
3DFACE
8
chairs__2
62
14
10
17
20
-70.2744
30
0.0
11
23
21
-70.2744
31
0.0
12
23
22
-70.2744
32
6
13
17
23
-70.2744
33
6
0
3DFACE
8
chairs__2
62
14
10
17
20
-70.2744
30
13
11
23
21
-70.2744
31
13
12
23
22
-69.2744
32
13
13
17
23
-69.2744
33
13
0
3DFACE
8
chairs__2
62
14
10
17
20
-69.2744
30
6
11
23
21
-69.2744
31
6
12
23
22
-64.7744
32
6
13
17
23
-64.7744
33
6
0
3DFACE
8
chairs__2
62
14
10
17
20
-64.7744
30
6
11
23
21
-64.7744
31
6
12
23
22
-64.7744
32
0.0
13
17
23
-64.7744
33
0.0
0
3DFACE
8
chairs__2
62
14
10
17
20
-64.7744
30
0.0
11
23
21
-64.7744
31
0.0
12
23
22
-69.2744
32
0.0
13
17
23
-69.2744
33
0.0
0
3DFACE
8
chairs__2
62
14
10
17
20
-69.2744
30
0.0
11
23
21
-69.2744
31
0.0
12
23
22
-70.2744
32
0.0
13
17
23
-70.2744
33
0.0
0
3DFACE
8
chairs__2
62
14
10
23
20
-69.2744
30
0.0
11
23
21
-64.7744
31
0.0
12
23
22
-64.7744
32
6
13
23
23
-69.2744
33
6
0
3DFACE
8
chairs__2
62
14
10
23
20
-70.2744
30
0.0
11
23
21
-69.2744
31
0.0
12
23
22
-69.2744
32
6
13
23
23
-70.2744
33
6
0
3DFACE
8
chairs__2
62
14
10
17
20
-64.7744
30
0.0
11
17
21
-69.2744
31
0.0
12
17
22
-69.2744
32
6
13
17
23
-64.7744
33
6
0
3DFACE
8
chairs__2
62
14
10
17
20
-69.2744
30
0.0
11
17
21
-70.2744
31
0.0
12
17
22
-70.2744
32
6
13
17
23
-69.2744
33
6
0
3DFACE
8
chairs__2
62
14
10
17
20
-70.2744
30
6
11
23
21
-70.2744
31
6
12
23
22
-70.2744
32
13
13
17
23
-70.2744
33
13
0
3DFACE
8
chairs__2
62
14
10
23
20
-70.2744
30
6
11
23
21
-69.2744
31
6
12
23
22
-69.2744
32
13
13
23
23
-70.2744
33
13
0
3DFACE
8
chairs__2
62
14
10
23
20
-69.2744
30
6
11
17
21
-69.2744
31
6
12
17
22
-69.2744
32
13
13
23
23
-69.2744
33
13
0
3DFACE
8
chairs__2
62
14
10
17
20
-69.2744
30
6
11
17
21
-70.2744
31
6
12
17
22
-70.2744
32
13
13
17
23
-69.2744
33
13
0
ENDSEC
0
EOF
