# Alias OBJ Model File
# Exported from SketchUp, (c) 2000-2012 Trimble Navigation Limited
# File units = meters

mtllib small_square.mtl

g Mesh1 Model

usemtl FrontColor
v 1.83697e-16 0 -3
vt -7.23217e-15 118.11
vn 0 -1 -0
v 3 0 -0
vt -118.11 0
v -5.51091e-16 0 3
vt 2.16965e-14 -118.11
v -3 0 -3.67394e-16
vt 118.11 1.44643e-14
f 1/1/1 2/2/1 3/3/1 4/4/1 

vt -83.5165 0
vn 0.707107 0 -0.707107
vt 83.5165 0
v 1.83697e-16 3 -3
vt 83.5165 118.11
v 3 3 -0
vt -83.5165 118.11
f 2/5/2 1/6/2 5/7/2 6/8/2 

vn -0.707107 0 -0.707107
v -3 3 -3.67394e-16
f 1/5/3 4/6/3 7/7/3 5/8/3 

vn -0.707107 0 0.707107
v -5.51091e-16 3 3
f 4/5/4 3/6/4 8/7/4 7/8/4 

vn 0.707107 0 0.707107
f 3/5/5 2/6/5 6/7/5 8/8/5 

vt 118.11 0
vn 0 1 -0
vt 7.23217e-15 118.11
vt -118.11 1.44643e-14
vt -2.16965e-14 -118.11
f 6/9/6 5/10/6 7/11/6 8/12/6 

