# Alias OBJ Model File
# Exported from SketchUp, (c) 2000-2012 Trimble Navigation Limited
# File units = meters

mtllib small_triangle.mtl

g Mesh1 Model

usemtl FrontColor
v 3 0 -0
vt -118.11 0
vn 0 -1 -0
v -1.5 0 2.59808
vt 59.0551 -102.286
v -1.5 0 -2.59808
vt 59.0551 102.286
f 1/1/1 2/2/1 3/3/1

vt -102.286 0
vn 0.5 0 0.866025
vt 102.286 0
v 3 3 -0
vt 102.286 118.11
v -1.5 3 2.59808
vt -102.286 118.11
f 2/4/2 1/5/2 4/6/2 5/7/2 

vn 0.5 0 -0.866025
v -1.5 3 -2.59808
f 1/4/3 3/5/3 6/6/3 4/7/3 

vn -1 0 -3.82063e-16
f 3/4/4 2/5/4 5/6/4 6/7/4 

vt -59.0551 -102.286
vn 0 1 -0
vt 118.11 0
vt -59.0551 102.286
f 5/8/5 4/9/5 6/10/5

