<?xml version="1.0" encoding="utf-8" standalone="no"?>
<!DOCTYPE svg PUBLIC "-//W3C//DTD SVG 1.1//EN"
  "http://www.w3.org/Graphics/SVG/1.1/DTD/svg11.dtd">
<!-- Created with matplotlib (http://matplotlib.org/) -->
<svg height="345pt" version="1.1" viewBox="0 0 430 345" width="430pt" xmlns="http://www.w3.org/2000/svg" xmlns:xlink="http://www.w3.org/1999/xlink">
 <defs>
  <style type="text/css">
*{stroke-linecap:butt;stroke-linejoin:round;}
  </style>
 </defs>
 <g id="figure_1">
  <g id="patch_1">
   <path d="M 0 345.42825 
L 430.795 345.42825 
L 430.795 -0 
L 0 -0 
z
" style="fill:#ffffff;"/>
  </g>
  <g id="axes_1">
   <g id="patch_2">
    <path d="M 52.160938 307.872 
L 409.280938 307.872 
L 409.280938 41.76 
L 52.160938 41.76 
z
" style="fill:#ffffff;"/>
   </g>
   <g id="matplotlib.axis_1">
    <g id="xtick_1">
     <g id="line2d_1">
      <defs>
       <path d="M 0 0 
L 0 3.5 
" id="mbb3373bbf2" style="stroke:#000000;stroke-width:0.8;"/>
      </defs>
      <g>
       <use style="stroke:#000000;stroke-width:0.8;" x="52.160937" xlink:href="#mbb3373bbf2" y="307.872"/>
      </g>
     </g>
     <g id="text_1">
      <!-- 0.040 -->
      <defs>
       <path d="M 31.78125 66.40625 
Q 24.171875 66.40625 20.328125 58.90625 
Q 16.5 51.421875 16.5 36.375 
Q 16.5 21.390625 20.328125 13.890625 
Q 24.171875 6.390625 31.78125 6.390625 
Q 39.453125 6.390625 43.28125 13.890625 
Q 47.125 21.390625 47.125 36.375 
Q 47.125 51.421875 43.28125 58.90625 
Q 39.453125 66.40625 31.78125 66.40625 
M 31.78125 74.21875 
Q 44.046875 74.21875 50.515625 64.515625 
Q 56.984375 54.828125 56.984375 36.375 
Q 56.984375 17.96875 50.515625 8.265625 
Q 44.046875 -1.421875 31.78125 -1.421875 
Q 19.53125 -1.421875 13.0625 8.265625 
Q 6.59375 17.96875 6.59375 36.375 
Q 6.59375 54.828125 13.0625 64.515625 
Q 19.53125 74.21875 31.78125 74.21875 
" id="DejaVuSans-30"/>
       <path d="M 10.6875 12.40625 
L 21 12.40625 
L 21 0 
L 10.6875 0 
z
" id="DejaVuSans-2e"/>
       <path d="M 37.796875 64.3125 
L 12.890625 25.390625 
L 37.796875 25.390625 
z
M 35.203125 72.90625 
L 47.609375 72.90625 
L 47.609375 25.390625 
L 58.015625 25.390625 
L 58.015625 17.1875 
L 47.609375 17.1875 
L 47.609375 0 
L 37.796875 0 
L 37.796875 17.1875 
L 4.890625 17.1875 
L 4.890625 26.703125 
z
" id="DejaVuSans-34"/>
      </defs>
      <g transform="translate(37.846875 322.470438)scale(0.1 -0.1)">
       <use xlink:href="#DejaVuSans-30"/>
       <use x="63.623047" xlink:href="#DejaVuSans-2e"/>
       <use x="95.410156" xlink:href="#DejaVuSans-30"/>
       <use x="159.033203" xlink:href="#DejaVuSans-34"/>
       <use x="222.65625" xlink:href="#DejaVuSans-30"/>
      </g>
     </g>
    </g>
    <g id="xtick_2">
     <g id="line2d_2">
      <g>
       <use style="stroke:#000000;stroke-width:0.8;" x="111.680937" xlink:href="#mbb3373bbf2" y="307.872"/>
      </g>
     </g>
     <g id="text_2">
      <!-- 0.045 -->
      <defs>
       <path d="M 10.796875 72.90625 
L 49.515625 72.90625 
L 49.515625 64.59375 
L 19.828125 64.59375 
L 19.828125 46.734375 
Q 21.96875 47.46875 24.109375 47.828125 
Q 26.265625 48.1875 28.421875 48.1875 
Q 40.625 48.1875 47.75 41.5 
Q 54.890625 34.8125 54.890625 23.390625 
Q 54.890625 11.625 47.5625 5.09375 
Q 40.234375 -1.421875 26.90625 -1.421875 
Q 22.3125 -1.421875 17.546875 -0.640625 
Q 12.796875 0.140625 7.71875 1.703125 
L 7.71875 11.625 
Q 12.109375 9.234375 16.796875 8.0625 
Q 21.484375 6.890625 26.703125 6.890625 
Q 35.15625 6.890625 40.078125 11.328125 
Q 45.015625 15.765625 45.015625 23.390625 
Q 45.015625 31 40.078125 35.4375 
Q 35.15625 39.890625 26.703125 39.890625 
Q 22.75 39.890625 18.8125 39.015625 
Q 14.890625 38.140625 10.796875 36.28125 
z
" id="DejaVuSans-35"/>
      </defs>
      <g transform="translate(97.366875 322.470438)scale(0.1 -0.1)">
       <use xlink:href="#DejaVuSans-30"/>
       <use x="63.623047" xlink:href="#DejaVuSans-2e"/>
       <use x="95.410156" xlink:href="#DejaVuSans-30"/>
       <use x="159.033203" xlink:href="#DejaVuSans-34"/>
       <use x="222.65625" xlink:href="#DejaVuSans-35"/>
      </g>
     </g>
    </g>
    <g id="xtick_3">
     <g id="line2d_3">
      <g>
       <use style="stroke:#000000;stroke-width:0.8;" x="171.200937" xlink:href="#mbb3373bbf2" y="307.872"/>
      </g>
     </g>
     <g id="text_3">
      <!-- 0.050 -->
      <g transform="translate(156.886875 322.470438)scale(0.1 -0.1)">
       <use xlink:href="#DejaVuSans-30"/>
       <use x="63.623047" xlink:href="#DejaVuSans-2e"/>
       <use x="95.410156" xlink:href="#DejaVuSans-30"/>
       <use x="159.033203" xlink:href="#DejaVuSans-35"/>
       <use x="222.65625" xlink:href="#DejaVuSans-30"/>
      </g>
     </g>
    </g>
    <g id="xtick_4">
     <g id="line2d_4">
      <g>
       <use style="stroke:#000000;stroke-width:0.8;" x="230.720937" xlink:href="#mbb3373bbf2" y="307.872"/>
      </g>
     </g>
     <g id="text_4">
      <!-- 0.055 -->
      <g transform="translate(216.406875 322.470438)scale(0.1 -0.1)">
       <use xlink:href="#DejaVuSans-30"/>
       <use x="63.623047" xlink:href="#DejaVuSans-2e"/>
       <use x="95.410156" xlink:href="#DejaVuSans-30"/>
       <use x="159.033203" xlink:href="#DejaVuSans-35"/>
       <use x="222.65625" xlink:href="#DejaVuSans-35"/>
      </g>
     </g>
    </g>
    <g id="xtick_5">
     <g id="line2d_5">
      <g>
       <use style="stroke:#000000;stroke-width:0.8;" x="290.240937" xlink:href="#mbb3373bbf2" y="307.872"/>
      </g>
     </g>
     <g id="text_5">
      <!-- 0.060 -->
      <defs>
       <path d="M 33.015625 40.375 
Q 26.375 40.375 22.484375 35.828125 
Q 18.609375 31.296875 18.609375 23.390625 
Q 18.609375 15.53125 22.484375 10.953125 
Q 26.375 6.390625 33.015625 6.390625 
Q 39.65625 6.390625 43.53125 10.953125 
Q 47.40625 15.53125 47.40625 23.390625 
Q 47.40625 31.296875 43.53125 35.828125 
Q 39.65625 40.375 33.015625 40.375 
M 52.59375 71.296875 
L 52.59375 62.3125 
Q 48.875 64.0625 45.09375 64.984375 
Q 41.3125 65.921875 37.59375 65.921875 
Q 27.828125 65.921875 22.671875 59.328125 
Q 17.53125 52.734375 16.796875 39.40625 
Q 19.671875 43.65625 24.015625 45.921875 
Q 28.375 48.1875 33.59375 48.1875 
Q 44.578125 48.1875 50.953125 41.515625 
Q 57.328125 34.859375 57.328125 23.390625 
Q 57.328125 12.15625 50.6875 5.359375 
Q 44.046875 -1.421875 33.015625 -1.421875 
Q 20.359375 -1.421875 13.671875 8.265625 
Q 6.984375 17.96875 6.984375 36.375 
Q 6.984375 53.65625 15.1875 63.9375 
Q 23.390625 74.21875 37.203125 74.21875 
Q 40.921875 74.21875 44.703125 73.484375 
Q 48.484375 72.75 52.59375 71.296875 
" id="DejaVuSans-36"/>
      </defs>
      <g transform="translate(275.926875 322.470438)scale(0.1 -0.1)">
       <use xlink:href="#DejaVuSans-30"/>
       <use x="63.623047" xlink:href="#DejaVuSans-2e"/>
       <use x="95.410156" xlink:href="#DejaVuSans-30"/>
       <use x="159.033203" xlink:href="#DejaVuSans-36"/>
       <use x="222.65625" xlink:href="#DejaVuSans-30"/>
      </g>
     </g>
    </g>
    <g id="xtick_6">
     <g id="line2d_6">
      <g>
       <use style="stroke:#000000;stroke-width:0.8;" x="349.760937" xlink:href="#mbb3373bbf2" y="307.872"/>
      </g>
     </g>
     <g id="text_6">
      <!-- 0.065 -->
      <g transform="translate(335.446875 322.470438)scale(0.1 -0.1)">
       <use xlink:href="#DejaVuSans-30"/>
       <use x="63.623047" xlink:href="#DejaVuSans-2e"/>
       <use x="95.410156" xlink:href="#DejaVuSans-30"/>
       <use x="159.033203" xlink:href="#DejaVuSans-36"/>
       <use x="222.65625" xlink:href="#DejaVuSans-35"/>
      </g>
     </g>
    </g>
    <g id="xtick_7">
     <g id="line2d_7">
      <g>
       <use style="stroke:#000000;stroke-width:0.8;" x="409.280937" xlink:href="#mbb3373bbf2" y="307.872"/>
      </g>
     </g>
     <g id="text_7">
      <!-- 0.070 -->
      <defs>
       <path d="M 8.203125 72.90625 
L 55.078125 72.90625 
L 55.078125 68.703125 
L 28.609375 0 
L 18.3125 0 
L 43.21875 64.59375 
L 8.203125 64.59375 
z
" id="DejaVuSans-37"/>
      </defs>
      <g transform="translate(394.966875 322.470438)scale(0.1 -0.1)">
       <use xlink:href="#DejaVuSans-30"/>
       <use x="63.623047" xlink:href="#DejaVuSans-2e"/>
       <use x="95.410156" xlink:href="#DejaVuSans-30"/>
       <use x="159.033203" xlink:href="#DejaVuSans-37"/>
       <use x="222.65625" xlink:href="#DejaVuSans-30"/>
      </g>
     </g>
    </g>
    <g id="text_8">
     <!-- time / s -->
     <defs>
      <path d="M 18.3125 70.21875 
L 18.3125 54.6875 
L 36.8125 54.6875 
L 36.8125 47.703125 
L 18.3125 47.703125 
L 18.3125 18.015625 
Q 18.3125 11.328125 20.140625 9.421875 
Q 21.96875 7.515625 27.59375 7.515625 
L 36.8125 7.515625 
L 36.8125 0 
L 27.59375 0 
Q 17.1875 0 13.234375 3.875 
Q 9.28125 7.765625 9.28125 18.015625 
L 9.28125 47.703125 
L 2.6875 47.703125 
L 2.6875 54.6875 
L 9.28125 54.6875 
L 9.28125 70.21875 
z
" id="DejaVuSans-74"/>
      <path d="M 9.421875 54.6875 
L 18.40625 54.6875 
L 18.40625 0 
L 9.421875 0 
z
M 9.421875 75.984375 
L 18.40625 75.984375 
L 18.40625 64.59375 
L 9.421875 64.59375 
z
" id="DejaVuSans-69"/>
      <path d="M 52 44.1875 
Q 55.375 50.25 60.0625 53.125 
Q 64.75 56 71.09375 56 
Q 79.640625 56 84.28125 50.015625 
Q 88.921875 44.046875 88.921875 33.015625 
L 88.921875 0 
L 79.890625 0 
L 79.890625 32.71875 
Q 79.890625 40.578125 77.09375 44.375 
Q 74.3125 48.1875 68.609375 48.1875 
Q 61.625 48.1875 57.5625 43.546875 
Q 53.515625 38.921875 53.515625 30.90625 
L 53.515625 0 
L 44.484375 0 
L 44.484375 32.71875 
Q 44.484375 40.625 41.703125 44.40625 
Q 38.921875 48.1875 33.109375 48.1875 
Q 26.21875 48.1875 22.15625 43.53125 
Q 18.109375 38.875 18.109375 30.90625 
L 18.109375 0 
L 9.078125 0 
L 9.078125 54.6875 
L 18.109375 54.6875 
L 18.109375 46.1875 
Q 21.1875 51.21875 25.484375 53.609375 
Q 29.78125 56 35.6875 56 
Q 41.65625 56 45.828125 52.96875 
Q 50 49.953125 52 44.1875 
" id="DejaVuSans-6d"/>
      <path d="M 56.203125 29.59375 
L 56.203125 25.203125 
L 14.890625 25.203125 
Q 15.484375 15.921875 20.484375 11.0625 
Q 25.484375 6.203125 34.421875 6.203125 
Q 39.59375 6.203125 44.453125 7.46875 
Q 49.3125 8.734375 54.109375 11.28125 
L 54.109375 2.78125 
Q 49.265625 0.734375 44.1875 -0.34375 
Q 39.109375 -1.421875 33.890625 -1.421875 
Q 20.796875 -1.421875 13.15625 6.1875 
Q 5.515625 13.8125 5.515625 26.8125 
Q 5.515625 40.234375 12.765625 48.109375 
Q 20.015625 56 32.328125 56 
Q 43.359375 56 49.78125 48.890625 
Q 56.203125 41.796875 56.203125 29.59375 
M 47.21875 32.234375 
Q 47.125 39.59375 43.09375 43.984375 
Q 39.0625 48.390625 32.421875 48.390625 
Q 24.90625 48.390625 20.390625 44.140625 
Q 15.875 39.890625 15.1875 32.171875 
z
" id="DejaVuSans-65"/>
      <path id="DejaVuSans-20"/>
      <path d="M 25.390625 72.90625 
L 33.6875 72.90625 
L 8.296875 -9.28125 
L 0 -9.28125 
z
" id="DejaVuSans-2f"/>
      <path d="M 44.28125 53.078125 
L 44.28125 44.578125 
Q 40.484375 46.53125 36.375 47.5 
Q 32.28125 48.484375 27.875 48.484375 
Q 21.1875 48.484375 17.84375 46.4375 
Q 14.5 44.390625 14.5 40.28125 
Q 14.5 37.15625 16.890625 35.375 
Q 19.28125 33.59375 26.515625 31.984375 
L 29.59375 31.296875 
Q 39.15625 29.25 43.1875 25.515625 
Q 47.21875 21.78125 47.21875 15.09375 
Q 47.21875 7.46875 41.1875 3.015625 
Q 35.15625 -1.421875 24.609375 -1.421875 
Q 20.21875 -1.421875 15.453125 -0.5625 
Q 10.6875 0.296875 5.421875 2 
L 5.421875 11.28125 
Q 10.40625 8.6875 15.234375 7.390625 
Q 20.0625 6.109375 24.8125 6.109375 
Q 31.15625 6.109375 34.5625 8.28125 
Q 37.984375 10.453125 37.984375 14.40625 
Q 37.984375 18.0625 35.515625 20.015625 
Q 33.0625 21.96875 24.703125 23.78125 
L 21.578125 24.515625 
Q 13.234375 26.265625 9.515625 29.90625 
Q 5.8125 33.546875 5.8125 39.890625 
Q 5.8125 47.609375 11.28125 51.796875 
Q 16.75 56 26.8125 56 
Q 31.78125 56 36.171875 55.265625 
Q 40.578125 54.546875 44.28125 53.078125 
" id="DejaVuSans-73"/>
     </defs>
     <g transform="translate(211.957656 336.148562)scale(0.1 -0.1)">
      <use xlink:href="#DejaVuSans-74"/>
      <use x="39.208984" xlink:href="#DejaVuSans-69"/>
      <use x="66.992188" xlink:href="#DejaVuSans-6d"/>
      <use x="164.404297" xlink:href="#DejaVuSans-65"/>
      <use x="225.927734" xlink:href="#DejaVuSans-20"/>
      <use x="257.714844" xlink:href="#DejaVuSans-2f"/>
      <use x="291.40625" xlink:href="#DejaVuSans-20"/>
      <use x="323.193359" xlink:href="#DejaVuSans-73"/>
     </g>
    </g>
   </g>
   <g id="matplotlib.axis_2">
    <g id="ytick_1">
     <g id="line2d_8">
      <defs>
       <path d="M 0 0 
L -3.5 0 
" id="ma28610b614" style="stroke:#000000;stroke-width:0.8;"/>
      </defs>
      <g>
       <use style="stroke:#000000;stroke-width:0.8;" x="52.160938" xlink:href="#ma28610b614" y="302.013524"/>
      </g>
     </g>
     <g id="text_9">
      <!-- −0.2 -->
      <defs>
       <path d="M 10.59375 35.5 
L 73.1875 35.5 
L 73.1875 27.203125 
L 10.59375 27.203125 
z
" id="DejaVuSans-2212"/>
       <path d="M 19.1875 8.296875 
L 53.609375 8.296875 
L 53.609375 0 
L 7.328125 0 
L 7.328125 8.296875 
Q 12.9375 14.109375 22.625 23.890625 
Q 32.328125 33.6875 34.8125 36.53125 
Q 39.546875 41.84375 41.421875 45.53125 
Q 43.3125 49.21875 43.3125 52.78125 
Q 43.3125 58.59375 39.234375 62.25 
Q 35.15625 65.921875 28.609375 65.921875 
Q 23.96875 65.921875 18.8125 64.3125 
Q 13.671875 62.703125 7.8125 59.421875 
L 7.8125 69.390625 
Q 13.765625 71.78125 18.9375 73 
Q 24.125 74.21875 28.421875 74.21875 
Q 39.75 74.21875 46.484375 68.546875 
Q 53.21875 62.890625 53.21875 53.421875 
Q 53.21875 48.921875 51.53125 44.890625 
Q 49.859375 40.875 45.40625 35.40625 
Q 44.1875 33.984375 37.640625 27.21875 
Q 31.109375 20.453125 19.1875 8.296875 
" id="DejaVuSans-32"/>
      </defs>
      <g transform="translate(20.878125 305.812743)scale(0.1 -0.1)">
       <use xlink:href="#DejaVuSans-2212"/>
       <use x="83.789062" xlink:href="#DejaVuSans-30"/>
       <use x="147.412109" xlink:href="#DejaVuSans-2e"/>
       <use x="179.199219" xlink:href="#DejaVuSans-32"/>
      </g>
     </g>
    </g>
    <g id="ytick_2">
     <g id="line2d_9">
      <g>
       <use style="stroke:#000000;stroke-width:0.8;" x="52.160938" xlink:href="#ma28610b614" y="260.653933"/>
      </g>
     </g>
     <g id="text_10">
      <!-- 0.0 -->
      <g transform="translate(29.257812 264.453151)scale(0.1 -0.1)">
       <use xlink:href="#DejaVuSans-30"/>
       <use x="63.623047" xlink:href="#DejaVuSans-2e"/>
       <use x="95.410156" xlink:href="#DejaVuSans-30"/>
      </g>
     </g>
    </g>
    <g id="ytick_3">
     <g id="line2d_10">
      <g>
       <use style="stroke:#000000;stroke-width:0.8;" x="52.160938" xlink:href="#ma28610b614" y="219.294341"/>
      </g>
     </g>
     <g id="text_11">
      <!-- 0.2 -->
      <g transform="translate(29.257812 223.09356)scale(0.1 -0.1)">
       <use xlink:href="#DejaVuSans-30"/>
       <use x="63.623047" xlink:href="#DejaVuSans-2e"/>
       <use x="95.410156" xlink:href="#DejaVuSans-32"/>
      </g>
     </g>
    </g>
    <g id="ytick_4">
     <g id="line2d_11">
      <g>
       <use style="stroke:#000000;stroke-width:0.8;" x="52.160938" xlink:href="#ma28610b614" y="177.93475"/>
      </g>
     </g>
     <g id="text_12">
      <!-- 0.4 -->
      <g transform="translate(29.257812 181.733968)scale(0.1 -0.1)">
       <use xlink:href="#DejaVuSans-30"/>
       <use x="63.623047" xlink:href="#DejaVuSans-2e"/>
       <use x="95.410156" xlink:href="#DejaVuSans-34"/>
      </g>
     </g>
    </g>
    <g id="ytick_5">
     <g id="line2d_12">
      <g>
       <use style="stroke:#000000;stroke-width:0.8;" x="52.160938" xlink:href="#ma28610b614" y="136.575158"/>
      </g>
     </g>
     <g id="text_13">
      <!-- 0.6 -->
      <g transform="translate(29.257812 140.374377)scale(0.1 -0.1)">
       <use xlink:href="#DejaVuSans-30"/>
       <use x="63.623047" xlink:href="#DejaVuSans-2e"/>
       <use x="95.410156" xlink:href="#DejaVuSans-36"/>
      </g>
     </g>
    </g>
    <g id="ytick_6">
     <g id="line2d_13">
      <g>
       <use style="stroke:#000000;stroke-width:0.8;" x="52.160938" xlink:href="#ma28610b614" y="95.215567"/>
      </g>
     </g>
     <g id="text_14">
      <!-- 0.8 -->
      <defs>
       <path d="M 31.78125 34.625 
Q 24.75 34.625 20.71875 30.859375 
Q 16.703125 27.09375 16.703125 20.515625 
Q 16.703125 13.921875 20.71875 10.15625 
Q 24.75 6.390625 31.78125 6.390625 
Q 38.8125 6.390625 42.859375 10.171875 
Q 46.921875 13.96875 46.921875 20.515625 
Q 46.921875 27.09375 42.890625 30.859375 
Q 38.875 34.625 31.78125 34.625 
M 21.921875 38.8125 
Q 15.578125 40.375 12.03125 44.71875 
Q 8.5 49.078125 8.5 55.328125 
Q 8.5 64.0625 14.71875 69.140625 
Q 20.953125 74.21875 31.78125 74.21875 
Q 42.671875 74.21875 48.875 69.140625 
Q 55.078125 64.0625 55.078125 55.328125 
Q 55.078125 49.078125 51.53125 44.71875 
Q 48 40.375 41.703125 38.8125 
Q 48.828125 37.15625 52.796875 32.3125 
Q 56.78125 27.484375 56.78125 20.515625 
Q 56.78125 9.90625 50.3125 4.234375 
Q 43.84375 -1.421875 31.78125 -1.421875 
Q 19.734375 -1.421875 13.25 4.234375 
Q 6.78125 9.90625 6.78125 20.515625 
Q 6.78125 27.484375 10.78125 32.3125 
Q 14.796875 37.15625 21.921875 38.8125 
M 18.3125 54.390625 
Q 18.3125 48.734375 21.84375 45.5625 
Q 25.390625 42.390625 31.78125 42.390625 
Q 38.140625 42.390625 41.71875 45.5625 
Q 45.3125 48.734375 45.3125 54.390625 
Q 45.3125 60.0625 41.71875 63.234375 
Q 38.140625 66.40625 31.78125 66.40625 
Q 25.390625 66.40625 21.84375 63.234375 
Q 18.3125 60.0625 18.3125 54.390625 
" id="DejaVuSans-38"/>
      </defs>
      <g transform="translate(29.257812 99.014786)scale(0.1 -0.1)">
       <use xlink:href="#DejaVuSans-30"/>
       <use x="63.623047" xlink:href="#DejaVuSans-2e"/>
       <use x="95.410156" xlink:href="#DejaVuSans-38"/>
      </g>
     </g>
    </g>
    <g id="ytick_7">
     <g id="line2d_14">
      <g>
       <use style="stroke:#000000;stroke-width:0.8;" x="52.160938" xlink:href="#ma28610b614" y="53.855975"/>
      </g>
     </g>
     <g id="text_15">
      <!-- 1.0 -->
      <defs>
       <path d="M 12.40625 8.296875 
L 28.515625 8.296875 
L 28.515625 63.921875 
L 10.984375 60.40625 
L 10.984375 69.390625 
L 28.421875 72.90625 
L 38.28125 72.90625 
L 38.28125 8.296875 
L 54.390625 8.296875 
L 54.390625 0 
L 12.40625 0 
z
" id="DejaVuSans-31"/>
      </defs>
      <g transform="translate(29.257812 57.655194)scale(0.1 -0.1)">
       <use xlink:href="#DejaVuSans-31"/>
       <use x="63.623047" xlink:href="#DejaVuSans-2e"/>
       <use x="95.410156" xlink:href="#DejaVuSans-30"/>
      </g>
     </g>
    </g>
    <g id="text_16">
     <!-- amplitude -->
     <defs>
      <path d="M 34.28125 27.484375 
Q 23.390625 27.484375 19.1875 25 
Q 14.984375 22.515625 14.984375 16.5 
Q 14.984375 11.71875 18.140625 8.90625 
Q 21.296875 6.109375 26.703125 6.109375 
Q 34.1875 6.109375 38.703125 11.40625 
Q 43.21875 16.703125 43.21875 25.484375 
L 43.21875 27.484375 
z
M 52.203125 31.203125 
L 52.203125 0 
L 43.21875 0 
L 43.21875 8.296875 
Q 40.140625 3.328125 35.546875 0.953125 
Q 30.953125 -1.421875 24.3125 -1.421875 
Q 15.921875 -1.421875 10.953125 3.296875 
Q 6 8.015625 6 15.921875 
Q 6 25.140625 12.171875 29.828125 
Q 18.359375 34.515625 30.609375 34.515625 
L 43.21875 34.515625 
L 43.21875 35.40625 
Q 43.21875 41.609375 39.140625 45 
Q 35.0625 48.390625 27.6875 48.390625 
Q 23 48.390625 18.546875 47.265625 
Q 14.109375 46.140625 10.015625 43.890625 
L 10.015625 52.203125 
Q 14.9375 54.109375 19.578125 55.046875 
Q 24.21875 56 28.609375 56 
Q 40.484375 56 46.34375 49.84375 
Q 52.203125 43.703125 52.203125 31.203125 
" id="DejaVuSans-61"/>
      <path d="M 18.109375 8.203125 
L 18.109375 -20.796875 
L 9.078125 -20.796875 
L 9.078125 54.6875 
L 18.109375 54.6875 
L 18.109375 46.390625 
Q 20.953125 51.265625 25.265625 53.625 
Q 29.59375 56 35.59375 56 
Q 45.5625 56 51.78125 48.09375 
Q 58.015625 40.1875 58.015625 27.296875 
Q 58.015625 14.40625 51.78125 6.484375 
Q 45.5625 -1.421875 35.59375 -1.421875 
Q 29.59375 -1.421875 25.265625 0.953125 
Q 20.953125 3.328125 18.109375 8.203125 
M 48.6875 27.296875 
Q 48.6875 37.203125 44.609375 42.84375 
Q 40.53125 48.484375 33.40625 48.484375 
Q 26.265625 48.484375 22.1875 42.84375 
Q 18.109375 37.203125 18.109375 27.296875 
Q 18.109375 17.390625 22.1875 11.75 
Q 26.265625 6.109375 33.40625 6.109375 
Q 40.53125 6.109375 44.609375 11.75 
Q 48.6875 17.390625 48.6875 27.296875 
" id="DejaVuSans-70"/>
      <path d="M 9.421875 75.984375 
L 18.40625 75.984375 
L 18.40625 0 
L 9.421875 0 
z
" id="DejaVuSans-6c"/>
      <path d="M 8.5 21.578125 
L 8.5 54.6875 
L 17.484375 54.6875 
L 17.484375 21.921875 
Q 17.484375 14.15625 20.5 10.265625 
Q 23.53125 6.390625 29.59375 6.390625 
Q 36.859375 6.390625 41.078125 11.03125 
Q 45.3125 15.671875 45.3125 23.6875 
L 45.3125 54.6875 
L 54.296875 54.6875 
L 54.296875 0 
L 45.3125 0 
L 45.3125 8.40625 
Q 42.046875 3.421875 37.71875 1 
Q 33.40625 -1.421875 27.6875 -1.421875 
Q 18.265625 -1.421875 13.375 4.4375 
Q 8.5 10.296875 8.5 21.578125 
M 31.109375 56 
z
" id="DejaVuSans-75"/>
      <path d="M 45.40625 46.390625 
L 45.40625 75.984375 
L 54.390625 75.984375 
L 54.390625 0 
L 45.40625 0 
L 45.40625 8.203125 
Q 42.578125 3.328125 38.25 0.953125 
Q 33.9375 -1.421875 27.875 -1.421875 
Q 17.96875 -1.421875 11.734375 6.484375 
Q 5.515625 14.40625 5.515625 27.296875 
Q 5.515625 40.1875 11.734375 48.09375 
Q 17.96875 56 27.875 56 
Q 33.9375 56 38.25 53.625 
Q 42.578125 51.265625 45.40625 46.390625 
M 14.796875 27.296875 
Q 14.796875 17.390625 18.875 11.75 
Q 22.953125 6.109375 30.078125 6.109375 
Q 37.203125 6.109375 41.296875 11.75 
Q 45.40625 17.390625 45.40625 27.296875 
Q 45.40625 37.203125 41.296875 42.84375 
Q 37.203125 48.484375 30.078125 48.484375 
Q 22.953125 48.484375 18.875 42.84375 
Q 14.796875 37.203125 14.796875 27.296875 
" id="DejaVuSans-64"/>
     </defs>
     <g transform="translate(14.798437 200.082406)rotate(-90)scale(0.1 -0.1)">
      <use xlink:href="#DejaVuSans-61"/>
      <use x="61.279297" xlink:href="#DejaVuSans-6d"/>
      <use x="158.691406" xlink:href="#DejaVuSans-70"/>
      <use x="222.167969" xlink:href="#DejaVuSans-6c"/>
      <use x="249.951172" xlink:href="#DejaVuSans-69"/>
      <use x="277.734375" xlink:href="#DejaVuSans-74"/>
      <use x="316.943359" xlink:href="#DejaVuSans-75"/>
      <use x="380.322266" xlink:href="#DejaVuSans-64"/>
      <use x="443.798828" xlink:href="#DejaVuSans-65"/>
     </g>
    </g>
   </g>
   <g id="line2d_15">
    <path clip-path="url(#p591702ed11)" d="M 51.891006 261.716912 
L 52.160937 262.026372 
L 52.430869 261.731334 
L 52.700801 262.05519 
L 52.970733 261.744942 
L 53.240665 262.084896 
L 53.510597 261.758229 
L 53.780529 262.113444 
L 54.050461 261.768312 
L 54.320393 262.139994 
L 54.590325 261.775437 
L 54.860257 262.165115 
L 55.130189 261.78229 
L 55.400121 262.193785 
L 55.670053 261.791535 
L 55.939985 262.225094 
L 56.209917 261.801765 
L 56.479849 262.258054 
L 56.749781 261.810024 
L 57.019713 262.291038 
L 57.289645 261.820131 
L 57.559577 262.330334 
L 57.829509 261.834479 
L 58.099441 262.376335 
L 58.369373 261.852648 
L 58.639305 262.42315 
L 58.909237 261.862262 
L 59.179169 262.462741 
L 59.449101 261.863322 
L 59.719033 262.497131 
L 59.988965 261.858268 
L 60.258897 262.535662 
L 60.528829 261.854102 
L 60.798761 262.570225 
L 61.068693 261.833123 
L 61.338625 262.590563 
L 61.608557 261.787812 
L 61.878489 262.590489 
L 62.14842 261.731038 
L 62.418352 262.609866 
L 62.688284 261.694577 
L 62.958216 262.655743 
L 63.228148 261.676483 
L 63.49808 262.716363 
L 63.768012 261.622765 
L 64.037944 262.733349 
L 64.307876 261.543385 
L 64.577808 262.783048 
L 64.84774 261.525143 
L 65.117672 263.003537 
L 65.387604 261.778642 
L 65.657536 263.513765 
L 65.927468 262.206383 
L 66.1974 264.110719 
L 66.467332 262.60745 
L 66.737264 264.246084 
L 67.007196 262.356663 
L 67.277128 263.168436 
L 67.54706 260.823343 
L 67.816992 254.940653 
L 68.086924 267.770171 
L 68.356856 273.325577 
L 68.626788 53.856 
L 69.166652 295.776 
L 69.436584 244.491975 
L 69.706516 266.084549 
L 69.976448 257.525983 
L 70.24638 266.345395 
L 70.516312 260.360891 
L 70.786244 265.610462 
L 71.056176 261.146928 
L 71.326108 264.601002 
L 71.59604 261.027562 
L 71.865972 263.680833 
L 72.135903 260.807467 
L 72.405835 263.022963 
L 72.675767 260.751679 
L 72.945699 262.733176 
L 73.215631 260.848981 
L 73.485563 262.580603 
L 73.755495 260.950326 
L 74.025427 262.455025 
L 74.295359 260.98447 
L 74.565291 262.308813 
L 74.835223 261.000518 
L 75.105155 262.200145 
L 75.375087 261.027562 
L 75.645019 262.127397 
L 75.914951 261.0674 
L 76.184883 262.064829 
L 76.454815 261.080761 
L 76.724747 261.986953 
L 76.994679 261.071985 
L 77.264611 261.900424 
L 77.534543 261.050464 
L 77.804475 261.820427 
L 78.074407 261.030495 
L 78.344339 261.743389 
L 78.614271 261.00254 
L 78.884203 261.664255 
L 79.154135 260.96566 
L 79.424067 261.580955 
L 79.693999 260.925428 
L 79.963931 261.505445 
L 80.233863 260.891013 
L 80.503795 261.438934 
L 80.773727 260.862416 
L 81.043659 261.379916 
L 81.313591 260.834559 
L 81.583523 261.322846 
L 81.853455 260.807886 
L 82.123386 261.27083 
L 82.393318 260.784146 
L 82.66325 261.224755 
L 82.933182 260.764942 
L 83.203114 261.183191 
L 83.473046 260.745688 
L 83.742978 261.142318 
L 84.01291 260.725547 
L 84.282842 261.10174 
L 84.552774 260.704913 
L 84.822706 261.063825 
L 85.092638 260.686473 
L 85.36257 261.028597 
L 85.632502 260.668822 
L 85.902434 260.99507 
L 86.172366 260.651147 
L 86.442298 260.961888 
L 86.71223 260.63352 
L 86.982162 260.9309 
L 87.252094 260.617496 
L 87.522026 260.90223 
L 87.791958 260.60305 
L 88.06189 260.875507 
L 88.331822 260.588629 
L 88.601754 260.848907 
L 88.871686 260.573961 
L 89.141618 260.823022 
L 89.41155 260.559391 
L 89.681482 260.798321 
L 89.951414 260.545783 
L 90.221346 260.774852 
L 90.491278 260.53215 
L 90.76121 260.751753 
L 91.031142 260.518518 
L 91.301074 260.729146 
L 91.571006 260.505132 
L 91.840937 260.708093 
L 92.110869 260.493274 
L 92.380801 260.688889 
L 92.650733 260.482649 
L 92.920665 260.671386 
L 93.190597 260.473084 
L 93.460529 260.655165 
L 93.730461 260.464727 
L 94.000393 260.641113 
L 94.270325 260.458243 
L 94.540257 260.62928 
L 94.810189 260.453682 
L 95.080121 260.619567 
L 95.350053 260.450404 
L 95.619985 260.611309 
L 95.889917 260.448407 
L 96.159849 260.60485 
L 96.429781 260.447963 
L 96.699713 260.600536 
L 96.969645 260.449467 
L 97.239577 260.598243 
L 97.509509 260.452302 
L 97.779441 260.597553 
L 98.049373 260.456517 
L 98.319305 260.598588 
L 98.589237 260.462409 
L 98.859169 260.602064 
L 99.129101 260.470545 
L 99.399033 260.607833 
L 99.668965 260.480455 
L 99.938897 260.615549 
L 100.208829 260.491696 
L 100.478761 260.62472 
L 100.748693 260.504392 
L 101.018625 260.635936 
L 101.288557 260.518789 
L 101.558489 260.648879 
L 101.82842 260.534394 
L 102.098352 260.662931 
L 102.368284 260.550221 
L 102.638216 260.677278 
L 102.908148 260.566368 
L 103.17808 260.692513 
L 103.448012 260.583279 
L 103.717944 260.709129 
L 103.987876 260.601374 
L 104.257808 260.72678 
L 104.52774 260.61974 
L 104.797672 260.744973 
L 105.067604 260.638599 
L 105.337536 260.764153 
L 105.607468 260.658592 
L 105.8774 260.785477 
L 106.147332 260.680532 
L 106.417264 260.808379 
L 106.687196 260.703064 
L 106.957128 260.8317 
L 107.22706 260.724956 
L 107.496992 260.854355 
L 107.766924 260.746452 
L 108.036856 260.877652 
L 108.306788 260.768245 
L 108.57672 260.901392 
L 108.846652 260.789914 
L 109.116584 260.92454 
L 109.386516 260.809463 
L 109.656448 260.945864 
L 109.92638 260.827928 
L 110.196312 260.967682 
L 110.466244 260.847453 
L 110.736176 260.992334 
L 111.006108 260.870009 
L 111.27604 261.019353 
L 111.545972 260.892837 
L 111.815903 261.046544 
L 112.085835 260.915172 
L 112.355767 261.073662 
L 112.625699 260.937976 
L 112.895631 261.103762 
L 113.165563 260.963318 
L 113.435495 261.134996 
L 113.705427 260.986861 
L 113.975359 261.162927 
L 114.245291 261.003427 
L 114.515223 261.183216 
L 114.785155 261.013904 
L 115.055087 261.202248 
L 115.325019 261.024579 
L 115.594951 261.224139 
L 115.864883 261.038581 
L 116.134815 261.248742 
L 116.404747 261.049626 
L 116.674679 261.270633 
L 116.944611 261.060497 
L 117.214543 261.298638 
L 117.484475 261.081501 
L 117.754407 261.347129 
L 118.024339 261.126393 
L 118.294271 261.41613 
L 118.564203 261.17831 
L 118.834135 261.486217 
L 119.104067 261.220367 
L 119.373999 261.541487 
L 119.643931 261.248347 
L 119.913863 261.603586 
L 120.183795 261.288703 
L 120.453727 261.676778 
L 120.723659 261.323586 
L 120.993591 261.730446 
L 121.263523 261.288185 
L 121.533455 261.680994 
L 121.803386 261.144956 
L 122.073318 261.578096 
L 122.34325 260.985875 
L 122.613182 261.558842 
L 122.883114 261.011464 
L 123.153046 261.802037 
L 123.422978 261.182772 
L 123.69291 262.101068 
L 123.962842 261.233408 
L 124.232774 262.050556 
L 124.502706 260.425653 
L 124.772638 261.257271 
L 125.04257 259.165135 
L 125.312502 260.153073 
L 125.582434 255.820294 
L 125.852366 263.366887 
L 126.122298 231.714572 
L 126.39223 229.397829 
L 126.662162 262.996216 
L 126.932094 256.069898 
L 127.202026 259.943948 
L 127.471958 259.220923 
L 127.74189 261.204294 
L 128.011822 260.453189 
L 128.281754 262.034335 
L 128.551686 261.282712 
L 128.821618 262.128235 
L 129.09155 261.243639 
L 129.361482 261.843477 
L 129.631414 261.076003 
L 129.901346 261.606027 
L 130.171278 261.047604 
L 130.44121 261.628411 
L 130.711142 261.210901 
L 130.981074 261.740307 
L 131.251006 261.362265 
L 131.520937 261.801124 
L 131.790869 261.407872 
L 132.060801 261.757169 
L 132.330733 261.380335 
L 132.600665 261.691496 
L 132.870597 261.346586 
L 133.140529 261.636053 
L 133.410461 261.325262 
L 133.680393 261.588203 
L 133.950325 261.290675 
L 134.220257 261.525167 
L 134.490189 261.245586 
L 134.760121 261.462551 
L 135.030053 261.206931 
L 135.299985 261.419606 
L 135.569917 261.192066 
L 135.839849 261.397469 
L 136.109781 261.187703 
L 136.379713 261.381543 
L 136.649645 261.183389 
L 136.919577 261.362783 
L 137.189509 261.175722 
L 137.459441 261.346118 
L 137.729373 261.17121 
L 137.999305 261.33219 
L 138.269237 261.166773 
L 138.539169 261.31688 
L 138.809101 261.15632 
L 139.079033 261.293633 
L 139.348965 261.138448 
L 139.618897 261.266491 
L 139.888829 261.118381 
L 140.158761 261.239941 
L 140.428693 261.100458 
L 140.698625 261.216053 
L 140.968557 261.082881 
L 141.238489 261.191696 
L 141.50842 261.064417 
L 141.778352 261.16702 
L 142.048284 261.045755 
L 142.318216 261.143994 
L 142.588148 261.029608 
L 142.85808 261.123336 
L 143.128012 261.014225 
L 143.397944 261.102677 
L 143.667876 260.997387 
L 143.937808 261.079677 
L 144.20774 260.977888 
L 144.477672 261.05532 
L 144.747604 260.957673 
L 145.017536 261.030791 
L 145.287468 260.937359 
L 145.5574 261.00641 
L 145.827332 260.916356 
L 146.097264 260.980944 
L 146.367196 260.894267 
L 146.637128 260.955183 
L 146.90706 260.872277 
L 147.176992 260.930333 
L 147.446924 260.851717 
L 147.716856 260.907136 
L 147.986788 260.832045 
L 148.25672 260.884406 
L 148.526652 260.812397 
L 148.796584 260.861554 
L 149.066516 260.792404 
L 149.60638 260.772904 
L 150.416176 260.795165 
L 151.225972 260.714897 
L 152.035767 260.730231 
L 152.845563 260.660564 
L 153.655359 260.673285 
L 154.465155 260.613552 
L 155.274951 260.624621 
L 156.084747 260.573443 
L 157.164475 260.549752 
L 158.514135 260.54672 
L 159.863795 260.505847 
L 161.753318 260.502223 
L 163.642842 260.47831 
L 166.612094 260.489354 
L 170.661074 260.515338 
L 183.077944 260.636134 
L 212.770461 260.710386 
L 215.199849 260.797532 
L 217.089373 260.840575 
L 218.439033 260.910562 
L 219.788693 260.936989 
L 221.138352 261.021448 
L 221.948148 261.027217 
L 222.757944 261.100434 
L 223.56774 261.105364 
L 224.377536 261.185952 
L 225.187332 261.189552 
L 225.997128 261.276032 
L 226.806924 261.271348 
L 227.61672 261.366259 
L 228.426516 261.348953 
L 228.696448 261.418374 
L 228.96638 261.371165 
L 229.236312 261.444111 
L 229.506244 261.394017 
L 229.776176 261.469305 
L 230.046108 261.413764 
L 230.31604 261.489101 
L 230.585972 261.426336 
L 230.855903 261.502364 
L 231.125835 261.434472 
L 231.395767 261.514665 
L 231.665699 261.443815 
L 231.935631 261.529038 
L 232.205563 261.452912 
L 232.475495 261.539416 
L 232.745427 261.453503 
L 233.015359 261.539811 
L 233.285291 261.445393 
L 233.555223 261.537 
L 233.825155 261.440216 
L 234.095087 261.542794 
L 234.365019 261.44347 
L 234.634951 261.55189 
L 234.904883 261.439402 
L 235.174815 261.544223 
L 235.444747 261.412334 
L 235.714679 261.517254 
L 235.984611 261.37718 
L 236.254543 261.499923 
L 236.524475 261.36367 
L 236.794407 261.506505 
L 237.064339 261.358124 
L 237.334271 261.493119 
L 237.604203 261.297874 
L 237.874135 261.40659 
L 238.144067 261.174267 
L 238.413999 261.308474 
L 238.683931 261.122867 
L 238.953863 261.384403 
L 239.223795 261.325805 
L 239.493727 261.73412 
L 239.763659 261.732443 
L 240.033591 262.111102 
L 240.303523 261.921674 
L 240.573455 261.967798 
L 241.113318 260.804484 
L 241.38325 259.775228 
L 241.653182 257.755668 
L 241.923114 260.183198 
L 242.193046 259.948164 
L 242.462978 221.155871 
L 242.73291 248.608825 
L 243.002842 264.444091 
L 243.272774 256.006271 
L 243.542706 260.388946 
L 243.812638 259.757405 
L 244.08257 261.898353 
L 244.352502 261.338599 
L 244.622434 262.409813 
L 244.892366 261.727266 
L 245.162298 262.207393 
L 245.43223 261.473743 
L 245.702162 261.738483 
L 245.972094 261.156173 
L 246.242026 261.452418 
L 246.511958 261.086949 
L 246.78189 261.445935 
L 247.051822 261.209397 
L 247.321754 261.548045 
L 247.591686 261.335123 
L 247.861618 261.602501 
L 248.13155 261.382258 
L 248.401482 261.598015 
L 248.671414 261.395891 
L 248.941346 261.597102 
L 249.211278 261.428087 
L 249.48121 261.621779 
L 249.751142 261.472288 
L 250.021074 261.644657 
L 250.291006 261.497853 
L 250.560937 261.64547 
L 250.830869 261.502808 
L 251.100801 261.636719 
L 251.370733 261.507122 
L 251.640665 261.636053 
L 251.910597 261.519571 
L 252.180529 261.640614 
L 252.450461 261.529629 
L 252.720393 261.638001 
L 252.990325 261.528766 
L 253.260257 261.626192 
L 253.530189 261.52179 
L 253.800121 261.613324 
L 254.070053 261.515849 
L 254.339985 261.602279 
L 254.609917 261.509094 
L 254.879849 261.587685 
L 255.149781 261.495535 
L 255.419713 261.565696 
L 255.689645 261.475197 
L 255.959577 261.539712 
L 256.229509 261.453084 
L 256.499441 261.514024 
L 256.769373 261.431218 
L 257.039305 261.48777 
L 257.309237 261.406836 
L 257.579169 261.458015 
L 257.849101 261.378462 
L 258.119033 261.42535 
L 258.388965 261.348509 
L 258.658897 261.392908 
L 258.928829 261.319494 
L 259.198761 261.36155 
L 260.008557 261.259835 
L 260.818352 261.261561 
L 261.628148 261.166872 
L 262.437944 261.165047 
L 263.24774 261.07625 
L 264.057536 261.073538 
L 264.867332 260.994454 
L 265.677128 260.990953 
L 266.486924 260.921311 
L 267.29672 260.918673 
L 268.106516 260.85369 
L 268.916312 260.851027 
L 269.726108 260.78984 
L 271.075767 260.766495 
L 272.425427 260.694609 
L 273.775087 260.675306 
L 275.124747 260.601719 
L 276.474407 260.578595 
L 277.824067 260.53008 
L 279.173727 260.554091 
L 280.523386 260.53432 
L 281.333182 260.533654 
L 282.142978 260.423681 
L 284.032502 260.529907 
L 284.302434 260.32983 
L 284.572366 260.287181 
L 284.842298 259.96754 
L 285.11223 259.941705 
L 285.382162 259.295791 
L 285.652094 259.897725 
L 286.191958 255.284798 
L 286.46189 259.411953 
L 286.731822 259.475482 
L 288.081482 260.575686 
L 289.701074 260.656274 
L 289.971006 260.613478 
L 290.780801 260.781286 
L 291.590597 260.808083 
L 292.130461 260.830936 
L 292.940257 260.918081 
L 293.750053 260.895771 
L 294.019985 260.962751 
L 294.289917 260.914334 
L 294.559849 260.983065 
L 294.829781 260.935362 
L 295.099713 261.008777 
L 295.369645 260.963219 
L 295.639577 261.0408 
L 295.909509 260.994922 
L 296.179441 261.074598 
L 296.449373 261.026576 
L 296.719305 261.10746 
L 296.989237 261.056997 
L 297.259169 261.139902 
L 297.529101 261.087368 
L 297.799033 261.172246 
L 298.068965 261.11668 
L 298.338897 261.202889 
L 298.608829 261.143353 
L 298.878761 261.230524 
L 299.148693 261.166921 
L 299.418625 261.255989 
L 299.688557 261.188985 
L 299.958489 261.280617 
L 300.22842 261.210235 
L 300.498352 261.304653 
L 300.768284 261.230499 
L 301.038216 261.32758 
L 301.308148 261.249457 
L 301.57808 261.349841 
L 301.848012 261.267872 
L 302.117944 261.371855 
L 302.387876 261.285868 
L 302.657808 261.393623 
L 302.92774 261.302977 
L 303.197672 261.414355 
L 303.467604 261.318877 
L 303.737536 261.434521 
L 304.007468 261.334088 
L 304.2774 261.454341 
L 304.547332 261.349027 
L 304.817264 261.473989 
L 305.087196 261.362832 
L 305.357128 261.492454 
L 305.62706 261.37538 
L 305.896992 261.510129 
L 306.166924 261.386917 
L 306.436856 261.527583 
L 306.706788 261.398208 
L 306.97672 261.544643 
L 307.246652 261.407749 
L 307.516584 261.559976 
L 307.786516 261.415046 
L 308.056448 261.573338 
L 308.32638 261.420321 
L 308.596312 261.586699 
L 308.866244 261.426016 
L 309.136176 261.600726 
L 309.406108 261.431218 
L 309.67604 261.614803 
L 309.945972 261.434792 
L 310.215903 261.62703 
L 310.485835 261.436592 
L 310.755767 261.640441 
L 311.025699 261.439353 
L 311.295631 261.655799 
L 311.565563 261.443075 
L 311.835495 261.671971 
L 312.105427 261.442138 
L 312.375359 261.681734 
L 312.645291 261.433239 
L 312.915223 261.6859 
L 313.185155 261.416895 
L 313.455087 261.687354 
L 313.725019 261.398849 
L 313.994951 261.687749 
L 314.264883 261.371041 
L 314.534815 261.678504 
L 314.804747 261.328788 
L 315.074679 261.656095 
L 315.344611 261.27152 
L 315.614543 261.636817 
L 315.884475 261.223966 
L 316.154407 261.636053 
L 316.424339 261.187333 
L 316.694271 261.654912 
L 316.964203 261.146213 
L 317.234135 261.659226 
L 317.504067 261.076595 
L 317.773999 261.677 
L 318.043931 261.023568 
L 318.313863 261.767893 
L 318.583795 261.076718 
L 318.853727 262.051764 
L 319.123659 261.235873 
L 319.393591 262.434564 
L 319.663523 261.357902 
L 319.933455 262.782407 
L 320.203386 261.009886 
L 320.473318 262.820987 
L 320.74325 260.017116 
L 321.013182 262.706157 
L 321.283114 255.759551 
L 321.553046 271.03886 
L 322.09291 198.042032 
L 322.362842 264.637192 
L 322.902706 259.459507 
L 323.44257 261.849073 
L 323.712502 261.33781 
L 323.982434 262.244298 
L 324.252366 261.56964 
L 324.522298 262.174014 
L 324.79223 261.352355 
L 325.062162 261.84254 
L 325.332094 261.094616 
L 325.602026 261.547724 
L 325.871958 260.920818 
L 326.14189 261.416747 
L 326.411822 260.902969 
L 326.681754 261.385216 
L 326.951686 260.925132 
L 327.221618 261.376909 
L 327.49155 260.937951 
L 327.761482 261.347104 
L 328.031414 260.935782 
L 328.301346 261.32896 
L 328.571278 260.947984 
L 328.84121 261.327851 
L 329.111142 260.974362 
L 329.381074 261.338155 
L 329.651006 260.994824 
L 329.920937 261.335887 
L 330.190869 261.000962 
L 330.460801 261.323783 
L 330.730733 260.996303 
L 331.000665 261.307365 
L 331.270597 260.990707 
L 331.540529 261.291193 
L 331.810461 260.980131 
L 332.080393 261.270263 
L 332.350325 260.963441 
L 332.620257 261.243614 
L 332.890189 260.940663 
L 333.160121 261.216004 
L 333.430053 260.919092 
L 333.699985 261.191154 
L 333.969917 260.899296 
L 334.239849 261.169386 
L 334.509781 260.880388 
L 334.779713 261.147372 
L 335.049645 260.860124 
L 335.319577 261.125875 
L 335.589509 260.839884 
L 335.859441 261.105192 
L 336.129373 260.820384 
L 336.399305 261.086308 
L 336.669237 260.800811 
L 336.939169 261.066907 
L 337.209101 260.779807 
L 337.479033 261.046692 
L 337.748965 260.756831 
L 338.018897 261.025491 
L 338.288829 260.733189 
L 338.558761 261.004857 
L 338.828693 260.709277 
L 339.098625 260.984864 
L 339.368557 260.685611 
L 339.638489 260.965463 
L 339.90842 260.66118 
L 340.178352 260.946111 
L 340.448284 260.636454 
L 340.718216 260.927252 
L 340.988148 260.611555 
L 341.25808 260.909872 
L 341.528012 260.587938 
L 341.797944 260.894341 
L 342.067876 260.564839 
L 342.337808 260.880018 
L 342.60774 260.541469 
L 342.877672 260.865572 
L 343.147604 260.516989 
L 343.417536 260.852112 
L 343.687468 260.4932 
L 343.9574 260.840821 
L 344.227332 260.47084 
L 344.497264 260.832193 
L 344.767196 260.448382 
L 345.037128 260.823022 
L 345.30706 260.423409 
L 345.576992 260.813383 
L 345.846924 260.396908 
L 346.116856 260.805519 
L 346.386788 260.372897 
L 346.65672 260.803226 
L 346.926652 260.350858 
L 347.196584 260.803177 
L 347.466516 260.327241 
L 347.736448 260.802438 
L 348.00638 260.299285 
L 348.276312 260.803522 
L 348.546244 260.275176 
L 348.816176 260.814912 
L 349.086108 260.257549 
L 349.35604 260.83626 
L 349.625972 260.240712 
L 349.895903 260.854577 
L 350.165835 260.208836 
L 350.435767 260.866139 
L 350.705699 260.168505 
L 350.975631 260.882902 
L 351.245563 260.133844 
L 351.515495 260.923357 
L 351.785427 260.103621 
L 352.055359 260.959546 
L 352.325291 260.035556 
L 352.595223 260.96354 
L 352.865155 259.905688 
L 353.135087 260.944484 
L 353.405019 259.783684 
L 353.674951 261.039987 
L 353.944883 259.779246 
L 354.214815 261.336578 
L 354.484747 259.933964 
L 354.754679 261.79644 
L 355.024611 259.941434 
L 355.294543 262.088545 
L 355.564475 259.536521 
L 355.834407 261.929809 
L 356.104339 257.35285 
L 356.374271 259.775697 
L 356.644203 253.617765 
L 356.914135 275.400778 
L 357.184067 214.462345 
L 357.453999 208.967238 
L 357.723931 274.885719 
L 357.993863 254.54459 
L 358.263795 259.301215 
L 358.533727 257.422912 
L 358.803659 261.726034 
L 359.073591 259.592703 
L 359.343523 261.986041 
L 359.613455 259.973136 
L 359.883386 261.718465 
L 360.153318 259.952823 
L 360.42325 261.266615 
L 360.693182 259.777619 
L 360.963114 260.962135 
L 361.233046 259.764159 
L 361.502978 260.858719 
L 361.77291 259.87258 
L 362.042842 260.872696 
L 362.312774 259.995249 
L 362.582706 260.865473 
L 362.852638 260.056732 
L 363.12257 260.8246 
L 363.392502 260.079905 
L 363.662434 260.777563 
L 363.932366 260.106727 
L 364.202298 260.754021 
L 364.47223 260.140254 
L 364.742162 260.736 
L 365.012094 260.165818 
L 365.282026 260.711175 
L 365.551958 260.17632 
L 365.82189 260.682554 
L 366.091822 260.187216 
L 366.361754 260.663695 
L 366.631686 260.204892 
L 366.901618 260.65519 
L 367.17155 260.226808 
L 367.441482 260.648756 
L 367.711414 260.244582 
L 367.981346 260.641335 
L 368.251278 260.26068 
L 368.52121 260.635986 
L 368.791142 260.278824 
L 369.061074 260.636134 
L 369.331006 260.299655 
L 369.600937 260.638056 
L 369.870869 260.318884 
L 370.140801 260.639092 
L 370.410733 260.335426 
L 370.680665 260.639363 
L 370.950597 260.351869 
L 371.220529 260.642173 
L 371.490461 260.369963 
L 371.760393 260.647252 
L 372.030325 260.388847 
L 372.300257 260.653119 
L 372.570189 260.406745 
L 372.840121 260.658863 
L 373.110053 260.424519 
L 373.379985 260.665913 
L 373.649917 260.443378 
L 373.919849 260.675059 
L 374.189781 260.463593 
L 374.459713 260.685438 
L 374.729645 260.483635 
L 374.999577 260.695817 
L 375.269509 260.503012 
L 375.539441 260.705998 
L 375.809373 260.521994 
L 376.079305 260.716722 
L 376.349237 260.541198 
L 376.619169 260.727914 
L 376.889101 260.560155 
L 377.159033 260.739007 
L 377.428965 260.578225 
L 377.698897 260.749386 
L 377.968829 260.595285 
L 378.238761 260.759518 
L 378.508693 260.612122 
L 378.778625 260.770192 
L 379.048557 260.629551 
L 379.318489 260.781976 
L 379.58842 260.647622 
L 379.858352 260.79445 
L 380.128284 260.665741 
L 380.398216 260.807048 
L 380.668148 260.683589 
L 380.93808 260.819867 
L 381.208012 260.701709 
L 381.477944 260.833573 
L 381.747876 260.72042 
L 382.017808 260.847748 
L 382.28774 260.738416 
L 382.557672 260.860518 
L 382.827604 260.753774 
L 383.097536 260.870478 
L 383.367468 260.766445 
L 383.6374 260.879254 
L 383.907332 260.77887 
L 384.177264 260.889238 
L 384.447196 260.7927 
L 384.717128 260.900603 
L 384.98706 260.806382 
L 385.256992 260.91145 
L 385.526924 260.819374 
L 385.796856 260.923554 
L 386.066788 260.835718 
L 386.33672 260.942955 
L 386.606652 260.861455 
L 386.876584 260.972563 
L 387.146516 260.893749 
L 387.416448 261.00498 
L 387.68638 260.922445 
L 387.956312 261.030471 
L 388.226244 260.942019 
L 388.496176 261.052756 
L 388.766108 260.963836 
L 389.03604 261.087048 
L 389.305972 260.999088 
L 389.575903 261.137511 
L 389.845835 261.036091 
L 390.115767 261.180455 
L 390.385699 261.036486 
L 390.655631 261.185016 
L 390.925563 260.974781 
L 391.195495 261.165442 
L 391.465427 260.790481 
L 391.735359 261.024579 
L 392.005291 260.108181 
L 392.275223 262.193662 
L 392.545155 259.947449 
L 392.815087 249.313336 
L 393.085019 259.753214 
L 393.354951 261.879888 
L 393.624883 259.607618 
L 393.894815 260.447963 
L 394.164747 259.701715 
L 394.434679 260.350907 
L 394.704611 257.605708 
L 394.974543 257.127602 
L 395.244475 260.1122 
L 395.514407 260.036123 
L 395.784339 260.467414 
L 397.133999 261.209914 
L 397.673863 261.238634 
L 402.262706 261.43102 
L 403.882298 261.437602 
L 405.231958 261.460357 
L 407.121482 261.534683 
L 409.011006 261.547206 
L 409.550869 261.554306 
L 409.550869 261.554306 
" style="fill:none;stroke:#1f77b4;stroke-linecap:square;stroke-width:1.5;"/>
   </g>
   <g id="line2d_16">
    <path clip-path="url(#p591702ed11)" d="M 51.891006 261.206241 
L 52.160937 261.373975 
L 52.430869 261.222438 
L 52.700801 261.398849 
L 52.970733 261.240902 
L 53.240665 261.427643 
L 53.510597 261.262991 
L 53.780529 261.459296 
L 54.050461 261.286016 
L 54.320393 261.490999 
L 54.590325 261.307734 
L 54.860257 261.522036 
L 55.130189 261.329823 
L 55.400121 261.555613 
L 55.670053 261.354598 
L 55.939985 261.591999 
L 56.209917 261.380212 
L 56.479849 261.627351 
L 56.749781 261.401758 
L 57.019713 261.65856 
L 57.289645 261.419853 
L 57.559577 261.689277 
L 57.829509 261.439008 
L 58.099441 261.723544 
L 58.369373 261.460603 
L 58.639305 261.757934 
L 58.909237 261.477367 
L 59.179169 261.785766 
L 59.449101 261.485724 
L 59.719033 261.807238 
L 59.988965 261.490136 
L 60.258897 261.83014 
L 60.528829 261.495979 
L 60.798761 261.852894 
L 61.068693 261.495313 
L 61.338625 261.864678 
L 61.608557 261.476578 
L 61.878489 261.858465 
L 62.14842 261.442977 
L 62.418352 261.847397 
L 62.688284 261.408932 
L 62.958216 261.841258 
L 63.228148 261.376342 
L 63.49808 261.830978 
L 63.768012 261.325164 
L 64.037944 261.798487 
L 64.307876 261.251601 
L 64.577808 261.756602 
L 64.84774 261.179346 
L 65.117672 261.736585 
L 65.387604 261.132457 
L 65.657536 261.736314 
L 65.927468 261.076817 
L 66.1974 261.709615 
L 66.467332 260.970073 
L 66.737264 261.633465 
L 67.007196 260.826597 
L 67.277128 261.57245 
L 67.54706 260.724339 
L 67.816992 261.572327 
L 68.086924 260.649643 
L 68.356856 261.560198 
L 68.626788 260.457528 
L 68.89672 261.374961 
L 69.166652 260.073323 
L 69.436584 261.120575 
L 69.706516 259.752449 
L 69.976448 261.198796 
L 70.24638 259.968699 
L 70.516312 261.988087 
L 70.786244 260.689802 
L 71.056176 263.04091 
L 71.326108 261.071344 
L 71.59604 263.197822 
L 71.865972 259.56667 
L 72.135903 261.418793 
L 72.405835 255.729944 
L 72.675767 257.428138 
L 72.945699 248.352343 
L 73.215631 268.970513 
L 73.485563 193.913398 
L 73.755495 191.536651 
L 74.025427 268.638398 
L 74.295359 248.616911 
L 74.565291 257.149272 
L 74.835223 255.681034 
L 75.105155 261.250665 
L 75.375087 259.476665 
L 75.645019 263.048848 
L 75.914951 260.966153 
L 76.184883 262.896473 
L 76.454815 260.561635 
L 76.724747 261.823385 
L 76.994679 259.806142 
L 77.264611 261.002145 
L 77.534543 259.55109 
L 77.804475 260.89121 
L 78.074407 259.839792 
L 78.344339 261.119367 
L 78.614271 260.197841 
L 78.884203 261.282022 
L 79.154135 260.366241 
L 79.424067 261.271101 
L 79.693999 260.415866 
L 79.963931 261.246967 
L 80.233863 260.493151 
L 80.503795 261.284389 
L 80.773727 260.61333 
L 81.043659 261.339018 
L 81.313591 260.698824 
L 81.583523 261.345477 
L 81.853455 260.734102 
L 82.123386 261.326125 
L 82.393318 260.761268 
L 82.66325 261.32721 
L 82.933182 260.814961 
L 83.203114 261.351665 
L 83.473046 260.871612 
L 83.742978 261.36828 
L 84.01291 260.907333 
L 84.282842 261.363892 
L 84.552774 260.925526 
L 84.822706 261.356373 
L 85.092638 260.946333 
L 85.36257 261.355067 
L 85.632502 260.96815 
L 85.902434 261.350481 
L 86.172366 260.976729 
L 86.442298 261.329453 
L 86.71223 260.968717 
L 86.982162 261.298835 
L 87.252094 260.955553 
L 87.522026 261.26945 
L 87.791958 260.945297 
L 88.06189 261.243022 
L 88.331822 260.932675 
L 88.601754 261.211837 
L 88.871686 260.913175 
L 89.141618 261.175525 
L 89.41155 260.890249 
L 89.681482 261.140617 
L 89.951414 260.870946 
L 90.221346 261.110517 
L 90.491278 260.854059 
L 90.76121 261.081328 
L 91.031142 260.8352 
L 91.301074 261.049453 
L 91.571006 260.813679 
L 91.840937 261.017947 
L 92.110869 260.794376 
L 92.380801 260.990633 
L 92.650733 260.779191 
L 92.920665 260.967312 
L 93.190597 260.765903 
L 93.460529 260.944928 
L 93.730461 260.752837 
L 94.000393 260.924022 
L 94.270325 260.742114 
L 94.540257 260.907234 
L 94.810189 260.736049 
L 95.080121 260.895401 
L 95.350053 260.733411 
L 95.619985 260.88591 
L 95.889917 260.731784 
L 96.159849 260.877306 
L 96.429781 260.730847 
L 96.699713 260.870478 
L 96.969645 260.732253 
L 97.239577 260.866583 
L 97.509509 260.735877 
L 97.779441 260.864463 
L 98.049373 260.740191 
L 98.319305 260.86254 
L 98.589237 260.744184 
L 98.859169 260.860987 
L 99.129101 260.748992 
L 99.399033 260.860937 
L 99.668965 260.755179 
L 99.938897 260.862244 
L 100.208829 260.76186 
L 100.478761 260.863477 
L 100.748693 260.767727 
L 101.018625 260.864019 
L 101.288557 260.77288 
L 101.558489 260.864339 
L 101.82842 260.777909 
L 102.098352 260.864808 
L 102.368284 260.782617 
L 102.638216 260.864758 
L 102.908148 260.786389 
L 103.17808 260.863871 
L 103.448012 260.789273 
L 103.717944 260.862614 
L 103.987876 260.792108 
L 104.257808 260.861825 
L 104.52774 260.795313 
L 104.797672 260.861529 
L 105.067604 260.79874 
L 105.337536 260.86143 
L 105.607468 260.802092 
L 105.8774 260.86143 
L 106.417264 260.861751 
L 107.22706 260.812496 
L 108.036856 260.862885 
L 108.846652 260.822578 
L 109.656448 260.867717 
L 110.466244 260.840057 
L 111.27604 260.884677 
L 112.085835 260.866312 
L 112.895631 260.904769 
L 114.245291 260.892369 
L 115.594951 260.926586 
L 116.944611 260.927917 
L 118.564203 260.94616 
L 120.453727 260.928558 
L 121.803386 260.905854 
L 125.312502 261.203727 
L 127.74189 260.807023 
L 128.011822 260.916997 
L 128.551686 260.806111 
L 128.821618 260.31595 
L 129.09155 260.069551 
L 129.361482 259.371351 
L 129.631414 259.326336 
L 129.901346 257.586331 
L 130.171278 258.59017 
L 130.44121 253.88502 
L 130.711142 241.527888 
L 130.981074 254.842587 
L 131.251006 258.352621 
L 131.520937 257.784585 
L 131.790869 259.297665 
L 132.060801 259.470822 
L 132.600665 260.404057 
L 132.870597 260.80118 
L 133.410461 260.91034 
L 134.220257 260.820458 
L 135.030053 261.01743 
L 136.109781 261.236637 
L 138.269237 261.079997 
L 140.428693 260.979687 
L 144.477672 261.005424 
L 155.544883 260.794228 
L 178.489101 260.499264 
L 201.973182 260.582145 
L 203.322842 260.629354 
L 204.132638 260.613996 
L 204.942434 260.662462 
L 205.75223 260.642592 
L 206.562026 260.700303 
L 207.371822 260.675059 
L 208.181618 260.743617 
L 208.991414 260.711619 
L 209.80121 260.792133 
L 210.071142 260.738687 
L 210.341074 260.809513 
L 210.611006 260.75264 
L 210.880937 260.827164 
L 211.150869 260.766864 
L 211.420801 260.845456 
L 211.690733 260.78173 
L 211.960665 260.864537 
L 212.230597 260.797162 
L 212.500529 260.884209 
L 212.770461 260.812767 
L 213.040393 260.904054 
L 213.310325 260.82847 
L 213.580257 260.924343 
L 213.850189 260.844593 
L 214.120121 260.945396 
L 214.390053 260.861381 
L 214.659985 260.967188 
L 214.929917 260.878366 
L 215.199849 260.989055 
L 215.469781 260.89513 
L 215.739713 261.010946 
L 216.009645 260.911869 
L 216.279577 261.03338 
L 216.549509 260.929224 
L 216.819441 261.056602 
L 217.089373 260.946826 
L 217.359305 261.080046 
L 217.629237 260.964082 
L 217.899169 261.103146 
L 218.169101 260.98087 
L 218.439033 261.126516 
L 218.708965 260.998028 
L 218.978897 261.150749 
L 219.248829 261.015753 
L 219.518761 261.175599 
L 219.788693 261.033158 
L 220.058625 261.199906 
L 220.328557 261.049601 
L 220.598489 261.223942 
L 220.86842 261.065773 
L 221.138352 261.248643 
L 221.408284 261.082734 
L 221.678216 261.274454 
L 221.948148 261.09962 
L 222.21808 261.29992 
L 222.488012 261.11525 
L 222.757944 261.324449 
L 223.027876 261.129696 
L 223.297808 261.349347 
L 223.56774 261.145054 
L 223.837672 261.376095 
L 224.107604 261.161202 
L 224.377536 261.403632 
L 224.647468 261.176363 
L 224.9174 261.429689 
L 225.187332 261.189157 
L 225.457264 261.455401 
L 225.727196 261.202124 
L 225.997128 261.483234 
L 226.26706 261.21699 
L 226.536992 261.513704 
L 226.806924 261.231485 
L 227.076856 261.542547 
L 227.346788 261.24211 
L 227.61672 261.569221 
L 227.886652 261.250369 
L 228.156584 261.597423 
L 228.426516 261.261635 
L 228.696448 261.63132 
L 228.96638 261.27475 
L 229.236312 261.665833 
L 229.506244 261.283427 
L 229.776176 261.695366 
L 230.046108 261.284093 
L 230.31604 261.723618 
L 230.585972 261.286805 
L 230.855903 261.760645 
L 231.125835 261.29526 
L 231.395767 261.804921 
L 231.665699 261.299747 
L 231.935631 261.83867 
L 232.205563 261.282244 
L 232.475495 261.859131 
L 232.745427 261.253795 
L 233.015359 261.88615 
L 233.285291 261.23824 
L 233.555223 261.943121 
L 233.825155 261.231707 
L 234.095087 261.993782 
L 234.365019 261.182427 
L 234.634951 261.999871 
L 234.904883 261.065625 
L 235.174815 261.98789 
L 235.444747 260.987034 
L 235.714679 262.131834 
L 235.984611 261.091559 
L 236.254543 262.537881 
L 236.524475 261.409376 
L 236.794407 263.087996 
L 237.064339 261.536532 
L 237.334271 263.338586 
L 237.604203 261.12018 
L 237.874135 262.794684 
L 238.144067 258.78263 
L 238.413999 259.79675 
L 238.683931 256.604186 
L 238.953863 274.347807 
L 239.223795 204.765683 
L 239.493727 220.985647 
L 239.763659 275.908491 
L 240.033591 253.940315 
L 240.303523 261.167932 
L 240.573455 258.630748 
L 240.843386 263.348102 
L 241.113318 260.988168 
L 241.38325 263.568197 
L 241.653182 261.447611 
L 241.923114 263.219244 
L 242.193046 261.340719 
L 242.462978 262.633483 
L 242.73291 261.077137 
L 243.002842 262.246171 
L 243.272774 261.023815 
L 243.542706 262.121209 
L 243.812638 261.138152 
L 244.08257 262.139476 
L 244.352502 261.268217 
L 244.622434 262.13144 
L 244.892366 261.327875 
L 245.162298 262.082973 
L 245.43223 261.347252 
L 245.702162 262.034655 
L 245.972094 261.378511 
L 246.242026 262.016264 
L 246.511958 261.418793 
L 246.78189 262.002089 
L 247.051822 261.445343 
L 247.321754 261.973271 
L 247.591686 261.449657 
L 247.861618 261.935947 
L 248.13155 261.451161 
L 248.401482 261.90634 
L 248.671414 261.457842 
L 248.941346 261.884769 
L 249.211278 261.464671 
L 249.48121 261.860265 
L 249.751142 261.462551 
L 250.021074 261.83083 
L 250.291006 261.455919 
L 250.560937 261.80216 
L 250.830869 261.451186 
L 251.100801 261.778888 
L 251.370733 261.448302 
L 251.640665 261.756011 
L 251.910597 261.44204 
L 252.180529 261.7302 
L 252.450461 261.431292 
L 252.720393 261.702589 
L 252.990325 261.420025 
L 253.260257 261.677198 
L 253.530189 261.409819 
L 253.800121 261.653063 
L 254.070053 261.398726 
L 254.339985 261.627425 
L 254.609917 261.384304 
L 254.879849 261.599691 
L 255.149781 261.36833 
L 255.419713 261.572278 
L 255.689645 261.352676 
L 255.959577 261.546122 
L 256.229509 261.33712 
L 256.499441 261.519473 
L 256.769373 261.319543 
L 257.039305 261.491196 
L 257.309237 261.300142 
L 257.579169 261.462156 
L 257.849101 261.280395 
L 258.119033 261.433905 
L 258.388965 261.260846 
L 258.658897 261.405579 
L 258.928829 261.240187 
L 259.198761 261.376046 
L 259.468693 261.217655 
L 259.738625 261.34528 
L 260.008557 261.194334 
L 260.278489 261.314686 
L 260.54842 261.171112 
L 260.818352 261.284512 
L 261.088284 261.147717 
L 261.358216 261.253894 
L 261.628148 261.123212 
L 261.89808 261.222512 
L 262.168012 261.098166 
L 262.437944 261.191401 
L 262.707876 261.073637 
L 262.977808 261.161325 
L 263.24774 261.049798 
L 263.517672 261.131594 
L 263.787604 261.025565 
L 264.057536 261.101395 
L 264.327468 261.000592 
L 264.5974 261.070876 
L 264.867332 260.975669 
L 265.137264 261.040997 
L 265.407196 260.951238 
L 265.677128 261.011538 
L 265.94706 260.926636 
L 266.216992 260.981536 
L 266.486924 260.901145 
L 266.756856 260.951091 
L 267.026788 260.875778 
L 267.29672 260.921607 
L 267.836584 260.893947 
L 268.64638 260.807146 
L 269.456176 260.815084 
L 270.265972 260.745663 
L 271.075767 260.742533 
L 272.155495 260.689037 
L 273.775087 260.618852 
L 275.934543 260.594077 
L 277.824067 260.623709 
L 279.173727 260.445522 
L 279.983523 260.548199 
L 280.253455 260.496602 
L 280.523386 260.637514 
L 280.793318 260.526653 
L 281.06325 260.616535 
L 281.333182 260.311365 
L 281.603114 260.314422 
L 281.873046 259.812921 
L 282.142978 259.845438 
L 282.41291 258.85814 
L 282.682842 260.094031 
L 283.222706 252.704202 
L 283.492638 259.424846 
L 283.76257 259.212763 
L 284.302434 259.804835 
L 284.572366 260.177602 
L 284.842298 260.312203 
L 285.11223 260.59245 
L 286.731822 260.616905 
L 287.001754 260.568093 
L 287.81155 260.73351 
L 288.621346 260.76785 
L 289.431142 260.82036 
L 290.240937 260.808329 
L 291.050733 260.852161 
L 292.130461 260.87706 
L 293.480121 260.928953 
L 295.369645 261.042896 
L 298.878761 261.17407 
L 304.817264 261.34952 
L 308.866244 261.420568 
L 310.215903 261.457028 
L 311.565563 261.439328 
L 312.915223 261.461515 
L 313.725019 261.409869 
L 314.534815 261.421677 
L 315.344611 261.350975 
L 316.154407 261.355732 
L 316.964203 261.268488 
L 317.234135 261.31693 
L 317.504067 261.246005 
L 317.773999 261.296888 
L 318.043931 261.213908 
L 318.313863 261.264716 
L 318.583795 261.169534 
L 318.853727 261.23045 
L 319.123659 261.131718 
L 319.393591 261.208213 
L 319.663523 261.100631 
L 319.933455 261.186667 
L 320.203386 261.048492 
L 320.473318 261.123878 
L 320.74325 260.941772 
L 321.013182 261.028129 
L 321.283114 260.827509 
L 321.553046 260.97912 
L 321.822978 260.81395 
L 322.09291 261.097081 
L 322.362842 260.941205 
L 322.632774 261.314711 
L 322.902706 261.044917 
L 323.172638 261.417634 
L 323.44257 260.750199 
L 323.712502 261.089809 
L 323.982434 259.821205 
L 324.252366 260.400162 
L 324.522298 257.07317 
L 324.79223 263.141171 
L 325.062162 252.867868 
L 325.332094 222.191783 
L 325.602026 256.771747 
L 325.871958 261.675866 
L 326.14189 257.642317 
L 326.411822 260.087523 
L 326.681754 260.078426 
L 326.951686 260.810573 
L 327.221618 260.873461 
L 327.49155 261.142565 
L 329.381074 260.716401 
L 330.190869 260.802832 
L 331.000665 260.88061 
L 331.810461 260.844544 
L 332.620257 260.901761 
L 333.430053 260.864315 
L 334.239849 260.896412 
L 335.049645 260.86466 
L 335.859441 260.90361 
L 336.669237 260.85825 
L 337.479033 260.889534 
L 338.288829 260.834214 
L 339.098625 260.852186 
L 339.90842 260.790974 
L 340.718216 260.81151 
L 341.528012 260.747069 
L 342.337808 260.77251 
L 343.147604 260.709721 
L 343.9574 260.737824 
L 344.767196 260.672767 
L 345.576992 260.710657 
L 346.386788 260.640177 
L 347.196584 260.682677 
L 347.466516 260.620036 
L 347.736448 260.675479 
L 348.00638 260.608918 
L 348.276312 260.663991 
L 348.546244 260.591957 
L 348.816176 260.647498 
L 349.086108 260.57226 
L 349.35604 260.631647 
L 349.625972 260.55525 
L 349.895903 260.619 
L 350.165835 260.538905 
L 350.435767 260.60305 
L 350.705699 260.514721 
L 350.975631 260.57788 
L 351.245563 260.482969 
L 351.515495 260.550664 
L 351.785427 260.455408 
L 352.055359 260.53326 
L 352.325291 260.437387 
L 352.595223 260.519602 
L 352.865155 260.412291 
L 353.135087 260.48933 
L 353.405019 260.364491 
L 353.674951 260.44005 
L 353.944883 260.309861 
L 354.214815 260.402282 
L 354.484747 260.279071 
L 354.754679 260.390006 
L 355.024611 260.25787 
L 355.294543 260.358352 
L 355.564475 260.181522 
L 355.834407 260.252323 
L 356.104339 260.04273 
L 356.374271 260.137296 
L 356.644203 259.981148 
L 356.914135 260.204029 
L 357.184067 260.185787 
L 357.453999 260.553647 
L 357.723931 260.596813 
L 357.993863 260.927424 
L 358.533727 260.756708 
L 359.073591 259.564723 
L 359.343523 258.612505 
L 359.613455 256.643926 
L 359.883386 258.737394 
L 360.153318 257.981729 
L 360.42325 224.186543 
L 360.693182 248.642204 
L 360.963114 262.171081 
L 361.233046 255.144034 
L 361.502978 259.067117 
L 361.77291 258.653699 
L 362.042842 260.572605 
L 362.312774 260.187216 
L 362.582706 261.137585 
L 362.852638 260.568956 
L 363.12257 260.944188 
L 363.392502 260.291717 
L 363.662434 260.472418 
L 363.932366 259.955337 
L 364.202298 260.184086 
L 364.47223 259.878595 
L 364.742162 260.185072 
L 365.012094 260.002941 
L 365.282026 260.297634 
L 365.551958 260.133869 
L 365.82189 260.362913 
L 366.091822 260.186551 
L 366.361754 260.368805 
L 366.631686 260.20785 
L 366.901618 260.380317 
L 367.17155 260.250425 
L 367.441482 260.419613 
L 367.711414 260.307569 
L 367.981346 260.45844 
L 368.251278 260.347086 
L 368.52121 260.475697 
L 368.791142 260.366956 
L 369.061074 260.484103 
L 369.331006 260.387393 
L 369.600937 260.502001 
L 369.870869 260.417739 
L 370.140801 260.52653 
L 370.410733 260.447174 
L 370.680665 260.545167 
L 370.950597 260.467044 
L 371.220529 260.555743 
L 371.490461 260.482131 
L 371.760393 260.566688 
L 372.030325 260.499905 
L 372.300257 260.581011 
L 372.570189 260.518666 
L 372.840121 260.593559 
L 373.110053 260.532249 
L 373.379985 260.600092 
L 373.649917 260.540458 
L 373.919849 260.603864 
L 374.189781 260.548125 
L 374.729645 260.557542 
L 375.539441 260.619863 
L 376.349237 260.577412 
L 377.159033 260.632312 
L 377.968829 260.602385 
L 378.778625 260.651344 
L 379.58842 260.63034 
L 380.398216 260.678683 
L 381.208012 260.664336 
L 382.557672 260.725177 
L 383.907332 260.738638 
L 385.256992 260.799036 
L 387.146516 260.823565 
L 389.03604 260.87531 
L 391.465427 260.951312 
L 393.354951 260.960631 
L 394.704611 260.97345 
L 395.784339 261.005917 
L 396.864067 260.511492 
L 397.133999 260.140205 
L 397.403931 260.187956 
L 397.673863 258.962814 
L 397.943795 258.409642 
L 398.213727 260.059025 
L 398.483659 260.13626 
L 398.753591 260.477644 
L 400.10325 261.137807 
L 400.643114 261.155063 
L 401.45291 261.166502 
L 402.262706 261.203949 
L 403.072502 261.313996 
L 404.422162 261.323339 
L 405.231958 261.371978 
L 406.581618 261.36939 
L 407.931278 261.43992 
L 409.280937 261.45444 
L 409.550869 261.491049 
L 409.550869 261.491049 
" style="fill:none;stroke:#ff7f0e;stroke-linecap:square;stroke-width:1.5;"/>
   </g>
   <g id="patch_3">
    <path d="M 52.160938 307.872 
L 52.160938 41.76 
" style="fill:none;stroke:#000000;stroke-linecap:square;stroke-linejoin:miter;stroke-width:0.8;"/>
   </g>
   <g id="patch_4">
    <path d="M 409.280938 307.872 
L 409.280938 41.76 
" style="fill:none;stroke:#000000;stroke-linecap:square;stroke-linejoin:miter;stroke-width:0.8;"/>
   </g>
   <g id="patch_5">
    <path d="M 52.160937 307.872 
L 409.280937 307.872 
" style="fill:none;stroke:#000000;stroke-linecap:square;stroke-linejoin:miter;stroke-width:0.8;"/>
   </g>
   <g id="patch_6">
    <path d="M 52.160937 41.76 
L 409.280937 41.76 
" style="fill:none;stroke:#000000;stroke-linecap:square;stroke-linejoin:miter;stroke-width:0.8;"/>
   </g>
   <g id="legend_1">
    <g id="patch_7">
     <path d="M 135.317188 301.872 
L 326.124688 301.872 
Q 328.524688 301.872 328.524688 299.472 
L 328.524688 283.05825 
Q 328.524688 280.65825 326.124688 280.65825 
L 135.317188 280.65825 
Q 132.917188 280.65825 132.917188 283.05825 
L 132.917188 299.472 
Q 132.917188 301.872 135.317188 301.872 
z
" style="fill:#ffffff;opacity:0.8;stroke:#cccccc;stroke-linejoin:miter;"/>
    </g>
    <g id="line2d_17">
     <path d="M 137.717188 290.376375 
L 161.717188 290.376375 
" style="fill:none;stroke:#1f77b4;stroke-linecap:square;stroke-width:1.5;"/>
    </g>
    <g id="line2d_18"/>
    <g id="text_17">
     <!-- left ear -->
     <defs>
      <path d="M 37.109375 75.984375 
L 37.109375 68.5 
L 28.515625 68.5 
Q 23.6875 68.5 21.796875 66.546875 
Q 19.921875 64.59375 19.921875 59.515625 
L 19.921875 54.6875 
L 34.71875 54.6875 
L 34.71875 47.703125 
L 19.921875 47.703125 
L 19.921875 0 
L 10.890625 0 
L 10.890625 47.703125 
L 2.296875 47.703125 
L 2.296875 54.6875 
L 10.890625 54.6875 
L 10.890625 58.5 
Q 10.890625 67.625 15.140625 71.796875 
Q 19.390625 75.984375 28.609375 75.984375 
z
" id="DejaVuSans-66"/>
      <path d="M 41.109375 46.296875 
Q 39.59375 47.171875 37.8125 47.578125 
Q 36.03125 48 33.890625 48 
Q 26.265625 48 22.1875 43.046875 
Q 18.109375 38.09375 18.109375 28.8125 
L 18.109375 0 
L 9.078125 0 
L 9.078125 54.6875 
L 18.109375 54.6875 
L 18.109375 46.1875 
Q 20.953125 51.171875 25.484375 53.578125 
Q 30.03125 56 36.53125 56 
Q 37.453125 56 38.578125 55.875 
Q 39.703125 55.765625 41.0625 55.515625 
z
" id="DejaVuSans-72"/>
     </defs>
     <g transform="translate(171.317188 294.576375)scale(0.12 -0.12)">
      <use xlink:href="#DejaVuSans-6c"/>
      <use x="27.783203" xlink:href="#DejaVuSans-65"/>
      <use x="89.306641" xlink:href="#DejaVuSans-66"/>
      <use x="124.496094" xlink:href="#DejaVuSans-74"/>
      <use x="163.705078" xlink:href="#DejaVuSans-20"/>
      <use x="195.492188" xlink:href="#DejaVuSans-65"/>
      <use x="257.015625" xlink:href="#DejaVuSans-61"/>
      <use x="318.294922" xlink:href="#DejaVuSans-72"/>
     </g>
    </g>
    <g id="line2d_19">
     <path d="M 238.445938 290.376375 
L 262.445938 290.376375 
" style="fill:none;stroke:#ff7f0e;stroke-linecap:square;stroke-width:1.5;"/>
    </g>
    <g id="line2d_20"/>
    <g id="text_18">
     <!-- right ear -->
     <defs>
      <path d="M 45.40625 27.984375 
Q 45.40625 37.75 41.375 43.109375 
Q 37.359375 48.484375 30.078125 48.484375 
Q 22.859375 48.484375 18.828125 43.109375 
Q 14.796875 37.75 14.796875 27.984375 
Q 14.796875 18.265625 18.828125 12.890625 
Q 22.859375 7.515625 30.078125 7.515625 
Q 37.359375 7.515625 41.375 12.890625 
Q 45.40625 18.265625 45.40625 27.984375 
M 54.390625 6.78125 
Q 54.390625 -7.171875 48.1875 -13.984375 
Q 42 -20.796875 29.203125 -20.796875 
Q 24.46875 -20.796875 20.265625 -20.09375 
Q 16.0625 -19.390625 12.109375 -17.921875 
L 12.109375 -9.1875 
Q 16.0625 -11.328125 19.921875 -12.34375 
Q 23.78125 -13.375 27.78125 -13.375 
Q 36.625 -13.375 41.015625 -8.765625 
Q 45.40625 -4.15625 45.40625 5.171875 
L 45.40625 9.625 
Q 42.625 4.78125 38.28125 2.390625 
Q 33.9375 0 27.875 0 
Q 17.828125 0 11.671875 7.65625 
Q 5.515625 15.328125 5.515625 27.984375 
Q 5.515625 40.671875 11.671875 48.328125 
Q 17.828125 56 27.875 56 
Q 33.9375 56 38.28125 53.609375 
Q 42.625 51.21875 45.40625 46.390625 
L 45.40625 54.6875 
L 54.390625 54.6875 
z
" id="DejaVuSans-67"/>
      <path d="M 54.890625 33.015625 
L 54.890625 0 
L 45.90625 0 
L 45.90625 32.71875 
Q 45.90625 40.484375 42.875 44.328125 
Q 39.84375 48.1875 33.796875 48.1875 
Q 26.515625 48.1875 22.3125 43.546875 
Q 18.109375 38.921875 18.109375 30.90625 
L 18.109375 0 
L 9.078125 0 
L 9.078125 75.984375 
L 18.109375 75.984375 
L 18.109375 46.1875 
Q 21.34375 51.125 25.703125 53.5625 
Q 30.078125 56 35.796875 56 
Q 45.21875 56 50.046875 50.171875 
Q 54.890625 44.34375 54.890625 33.015625 
" id="DejaVuSans-68"/>
     </defs>
     <g transform="translate(272.045938 294.576375)scale(0.12 -0.12)">
      <use xlink:href="#DejaVuSans-72"/>
      <use x="41.113281" xlink:href="#DejaVuSans-69"/>
      <use x="68.896484" xlink:href="#DejaVuSans-67"/>
      <use x="132.373047" xlink:href="#DejaVuSans-68"/>
      <use x="195.751953" xlink:href="#DejaVuSans-74"/>
      <use x="234.960938" xlink:href="#DejaVuSans-20"/>
      <use x="266.748047" xlink:href="#DejaVuSans-65"/>
      <use x="328.271484" xlink:href="#DejaVuSans-61"/>
      <use x="389.550781" xlink:href="#DejaVuSans-72"/>
     </g>
    </g>
   </g>
  </g>
  <g id="text_19">
   <!-- Comparison of Left and Right Ear Responses -->
   <defs>
    <path d="M 64.40625 67.28125 
L 64.40625 56.890625 
Q 59.421875 61.53125 53.78125 63.8125 
Q 48.140625 66.109375 41.796875 66.109375 
Q 29.296875 66.109375 22.65625 58.46875 
Q 16.015625 50.828125 16.015625 36.375 
Q 16.015625 21.96875 22.65625 14.328125 
Q 29.296875 6.6875 41.796875 6.6875 
Q 48.140625 6.6875 53.78125 8.984375 
Q 59.421875 11.28125 64.40625 15.921875 
L 64.40625 5.609375 
Q 59.234375 2.09375 53.4375 0.328125 
Q 47.65625 -1.421875 41.21875 -1.421875 
Q 24.65625 -1.421875 15.125 8.703125 
Q 5.609375 18.84375 5.609375 36.375 
Q 5.609375 53.953125 15.125 64.078125 
Q 24.65625 74.21875 41.21875 74.21875 
Q 47.75 74.21875 53.53125 72.484375 
Q 59.328125 70.75 64.40625 67.28125 
" id="DejaVuSans-43"/>
    <path d="M 30.609375 48.390625 
Q 23.390625 48.390625 19.1875 42.75 
Q 14.984375 37.109375 14.984375 27.296875 
Q 14.984375 17.484375 19.15625 11.84375 
Q 23.34375 6.203125 30.609375 6.203125 
Q 37.796875 6.203125 41.984375 11.859375 
Q 46.1875 17.53125 46.1875 27.296875 
Q 46.1875 37.015625 41.984375 42.703125 
Q 37.796875 48.390625 30.609375 48.390625 
M 30.609375 56 
Q 42.328125 56 49.015625 48.375 
Q 55.71875 40.765625 55.71875 27.296875 
Q 55.71875 13.875 49.015625 6.21875 
Q 42.328125 -1.421875 30.609375 -1.421875 
Q 18.84375 -1.421875 12.171875 6.21875 
Q 5.515625 13.875 5.515625 27.296875 
Q 5.515625 40.765625 12.171875 48.375 
Q 18.84375 56 30.609375 56 
" id="DejaVuSans-6f"/>
    <path d="M 54.890625 33.015625 
L 54.890625 0 
L 45.90625 0 
L 45.90625 32.71875 
Q 45.90625 40.484375 42.875 44.328125 
Q 39.84375 48.1875 33.796875 48.1875 
Q 26.515625 48.1875 22.3125 43.546875 
Q 18.109375 38.921875 18.109375 30.90625 
L 18.109375 0 
L 9.078125 0 
L 9.078125 54.6875 
L 18.109375 54.6875 
L 18.109375 46.1875 
Q 21.34375 51.125 25.703125 53.5625 
Q 30.078125 56 35.796875 56 
Q 45.21875 56 50.046875 50.171875 
Q 54.890625 44.34375 54.890625 33.015625 
" id="DejaVuSans-6e"/>
    <path d="M 9.8125 72.90625 
L 19.671875 72.90625 
L 19.671875 8.296875 
L 55.171875 8.296875 
L 55.171875 0 
L 9.8125 0 
z
" id="DejaVuSans-4c"/>
    <path d="M 44.390625 34.1875 
Q 47.5625 33.109375 50.5625 29.59375 
Q 53.5625 26.078125 56.59375 19.921875 
L 66.609375 0 
L 56 0 
L 46.6875 18.703125 
Q 43.0625 26.03125 39.671875 28.421875 
Q 36.28125 30.8125 30.421875 30.8125 
L 19.671875 30.8125 
L 19.671875 0 
L 9.8125 0 
L 9.8125 72.90625 
L 32.078125 72.90625 
Q 44.578125 72.90625 50.734375 67.671875 
Q 56.890625 62.453125 56.890625 51.90625 
Q 56.890625 45.015625 53.6875 40.46875 
Q 50.484375 35.9375 44.390625 34.1875 
M 19.671875 64.796875 
L 19.671875 38.921875 
L 32.078125 38.921875 
Q 39.203125 38.921875 42.84375 42.21875 
Q 46.484375 45.515625 46.484375 51.90625 
Q 46.484375 58.296875 42.84375 61.546875 
Q 39.203125 64.796875 32.078125 64.796875 
z
" id="DejaVuSans-52"/>
    <path d="M 9.8125 72.90625 
L 55.90625 72.90625 
L 55.90625 64.59375 
L 19.671875 64.59375 
L 19.671875 43.015625 
L 54.390625 43.015625 
L 54.390625 34.71875 
L 19.671875 34.71875 
L 19.671875 8.296875 
L 56.78125 8.296875 
L 56.78125 0 
L 9.8125 0 
z
" id="DejaVuSans-45"/>
   </defs>
   <g transform="translate(91.083125 16.318125)scale(0.12 -0.12)">
    <use xlink:href="#DejaVuSans-43"/>
    <use x="69.824219" xlink:href="#DejaVuSans-6f"/>
    <use x="131.005859" xlink:href="#DejaVuSans-6d"/>
    <use x="228.417969" xlink:href="#DejaVuSans-70"/>
    <use x="291.894531" xlink:href="#DejaVuSans-61"/>
    <use x="353.173828" xlink:href="#DejaVuSans-72"/>
    <use x="394.287109" xlink:href="#DejaVuSans-69"/>
    <use x="422.070312" xlink:href="#DejaVuSans-73"/>
    <use x="474.169922" xlink:href="#DejaVuSans-6f"/>
    <use x="535.351562" xlink:href="#DejaVuSans-6e"/>
    <use x="598.730469" xlink:href="#DejaVuSans-20"/>
    <use x="630.517578" xlink:href="#DejaVuSans-6f"/>
    <use x="691.699219" xlink:href="#DejaVuSans-66"/>
    <use x="726.904297" xlink:href="#DejaVuSans-20"/>
    <use x="758.691406" xlink:href="#DejaVuSans-4c"/>
    <use x="814.388672" xlink:href="#DejaVuSans-65"/>
    <use x="875.912109" xlink:href="#DejaVuSans-66"/>
    <use x="911.101562" xlink:href="#DejaVuSans-74"/>
    <use x="950.310547" xlink:href="#DejaVuSans-20"/>
    <use x="982.097656" xlink:href="#DejaVuSans-61"/>
    <use x="1043.376953" xlink:href="#DejaVuSans-6e"/>
    <use x="1106.755859" xlink:href="#DejaVuSans-64"/>
    <use x="1170.232422" xlink:href="#DejaVuSans-20"/>
    <use x="1202.019531" xlink:href="#DejaVuSans-52"/>
    <use x="1271.501953" xlink:href="#DejaVuSans-69"/>
    <use x="1299.285156" xlink:href="#DejaVuSans-67"/>
    <use x="1362.761719" xlink:href="#DejaVuSans-68"/>
    <use x="1426.140625" xlink:href="#DejaVuSans-74"/>
    <use x="1465.349609" xlink:href="#DejaVuSans-20"/>
    <use x="1497.136719" xlink:href="#DejaVuSans-45"/>
    <use x="1560.320312" xlink:href="#DejaVuSans-61"/>
    <use x="1621.599609" xlink:href="#DejaVuSans-72"/>
    <use x="1662.712891" xlink:href="#DejaVuSans-20"/>
    <use x="1694.5" xlink:href="#DejaVuSans-52"/>
    <use x="1763.919922" xlink:href="#DejaVuSans-65"/>
    <use x="1825.443359" xlink:href="#DejaVuSans-73"/>
    <use x="1877.542969" xlink:href="#DejaVuSans-70"/>
    <use x="1941.019531" xlink:href="#DejaVuSans-6f"/>
    <use x="2002.201172" xlink:href="#DejaVuSans-6e"/>
    <use x="2065.580078" xlink:href="#DejaVuSans-73"/>
    <use x="2117.679688" xlink:href="#DejaVuSans-65"/>
    <use x="2179.203125" xlink:href="#DejaVuSans-73"/>
   </g>
  </g>
 </g>
 <defs>
  <clipPath id="p591702ed11">
   <rect height="266.112" width="357.12" x="52.160938" y="41.76"/>
  </clipPath>
 </defs>
</svg>
