<?xml version="1.0" encoding="utf-8" standalone="no"?>
<!DOCTYPE svg PUBLIC "-//W3C//DTD SVG 1.1//EN"
  "http://www.w3.org/Graphics/SVG/1.1/DTD/svg11.dtd">
<!-- Created with matplotlib (http://matplotlib.org/) -->
<svg height="425pt" version="1.1" viewBox="0 0 573 425" width="573pt" xmlns="http://www.w3.org/2000/svg" xmlns:xlink="http://www.w3.org/1999/xlink">
 <defs>
  <style type="text/css">
*{stroke-linecap:butt;stroke-linejoin:round;stroke-miterlimit:100000;}
  </style>
 </defs>
 <g id="figure_1">
  <g id="patch_1">
   <path d="M 0 425.37153 
L 573.31651 425.37153 
L 573.31651 0 
L 0 0 
z
" style="fill:#ffffff;"/>
  </g>
  <g id="axes_1">
   <g id="patch_2">
    <path d="M 56.953125 385.94403 
L 552.757135 385.94403 
L 552.757135 41.76 
L 56.953125 41.76 
z
" style="fill:#ffffff;"/>
   </g>
   <g id="line2d_1">
    <path clip-path="url(#pea9326c2c8)" d="M 56.953125 287.605736 
L 88.657599 287.494633 
L 145.770623 287.033749 
L 151.16713 286.997145 
L 160.83587 287.277496 
L 164.208686 286.953213 
L 166.232376 286.711107 
L 167.806357 286.625179 
L 168.48092 286.572309 
L 169.155484 286.615097 
L 169.830047 286.59341 
L 170.50461 286.695633 
L 170.729465 286.658648 
L 170.954319 286.743521 
L 171.179174 286.70636 
L 171.404028 286.80149 
L 171.628882 286.763831 
L 171.853737 286.869073 
L 172.078591 286.830065 
L 172.303446 286.945183 
L 172.5283 286.903977 
L 172.753155 287.028327 
L 172.978009 286.983722 
L 173.202863 287.116952 
L 173.427718 287.06798 
L 173.652572 287.209474 
L 173.877427 287.154993 
L 174.102281 287.304342 
L 174.327136 287.24306 
L 174.55199 287.399297 
L 174.776844 287.329956 
L 175.001699 287.49261 
L 175.226553 287.413862 
L 175.451408 287.582261 
L 175.676262 287.493109 
L 175.901117 287.666812 
L 176.125971 287.565702 
L 176.350825 287.743831 
L 176.57568 287.629416 
L 176.800534 287.811091 
L 177.025389 287.681582 
L 177.250243 287.866188 
L 177.475097 287.720561 
L 177.699952 287.907511 
L 177.924806 287.744241 
L 178.149661 287.933155 
L 178.374515 287.75107 
L 178.59937 287.941155 
L 178.824224 287.738907 
L 179.049078 287.930458 
L 179.273933 287.707519 
L 179.498787 287.900594 
L 179.723642 287.656642 
L 179.948496 287.852267 
L 180.173351 287.586862 
L 180.398205 287.785124 
L 180.623059 287.497974 
L 180.847914 287.699958 
L 181.072768 287.39071 
L 181.297623 287.597295 
L 181.522477 287.266535 
L 181.747332 287.479334 
L 181.972186 287.126799 
L 182.19704 287.346749 
L 182.421895 286.97279 
L 182.646749 287.201034 
L 182.871604 286.805242 
L 183.096458 287.043684 
L 183.321313 286.627553 
L 183.546167 286.878509 
L 183.771021 286.442742 
L 183.995876 286.709261 
L 184.22073 286.255382 
L 184.445585 286.539309 
L 184.670439 286.067904 
L 184.895294 286.372816 
L 185.120148 285.885702 
L 185.345002 286.214323 
L 185.569857 285.713347 
L 185.794711 286.070015 
L 186.019566 285.556027 
L 186.24442 285.942177 
L 186.469275 285.415499 
L 186.694129 285.833917 
L 186.918983 285.293845 
L 187.143838 285.746318 
L 187.368692 285.194348 
L 187.593547 285.684597 
L 187.818401 285.119937 
L 188.043256 285.649985 
L 188.26811 285.07328 
L 188.492964 285.64515 
L 188.717819 285.053996 
L 188.942673 285.670911 
L 189.167528 285.067595 
L 189.392382 285.733452 
L 189.617237 285.117505 
L 189.842091 285.837727 
L 190.066945 285.209939 
L 190.2918 285.984936 
L 190.516654 285.340942 
L 190.741509 286.174143 
L 190.966363 285.511802 
L 191.191218 286.403119 
L 191.416072 285.719678 
L 191.640926 286.674767 
L 191.865781 285.965242 
L 192.090635 286.980527 
L 192.31549 286.237768 
L 192.540344 287.314716 
L 192.765198 286.527791 
L 192.990053 287.664467 
L 193.214907 286.832585 
L 193.439762 288.038777 
L 193.664616 287.155139 
L 193.889471 288.436152 
L 194.114325 287.501227 
L 194.339179 288.862541 
L 194.564034 287.860502 
L 194.788888 289.309914 
L 195.013743 288.24466 
L 195.238597 289.794771 
L 195.463452 288.657274 
L 195.688306 290.331882 
L 195.91316 289.122847 
L 196.138015 290.918874 
L 196.362869 289.603249 
L 196.587724 291.53145 
L 196.812578 290.082947 
L 197.037433 292.130898 
L 197.262287 290.522436 
L 197.487141 292.739254 
L 197.711996 290.943726 
L 197.93685 293.316575 
L 198.161705 291.285564 
L 198.386559 293.845099 
L 198.611414 291.458798 
L 198.836268 294.167331 
L 199.061122 291.399275 
L 199.285977 294.400937 
L 199.510831 291.166108 
L 199.735686 294.615143 
L 199.96054 291.026431 
L 200.185395 295.157617 
L 200.410249 290.792413 
L 200.635103 295.713485 
L 200.859958 290.411919 
L 201.084812 296.116897 
L 201.309667 288.392104 
L 201.534521 296.003098 
L 201.759376 286.278183 
L 201.98423 295.599129 
L 202.209084 274.866176 
L 202.433939 326.458387 
L 202.658793 142.182404 
L 202.883648 128.361998 
L 203.108502 324.49953 
L 203.333357 276.553268 
L 203.558211 294.353929 
L 203.783065 286.471287 
L 204.00792 295.474984 
L 204.232774 288.254507 
L 204.457629 295.603671 
L 204.682483 290.14968 
L 204.907338 295.225229 
L 205.132192 290.421855 
L 205.357046 294.621268 
L 205.581901 290.572669 
L 205.806755 294.031756 
L 206.03161 290.629466 
L 206.256464 293.766439 
L 206.481318 290.807184 
L 206.706173 293.497839 
L 206.931027 290.823303 
L 207.155882 293.151166 
L 207.380736 290.624367 
L 207.605591 292.606083 
L 207.830445 290.263069 
L 208.055299 292.020938 
L 208.280154 289.83542 
L 208.505008 291.414222 
L 208.729863 289.400737 
L 208.954717 290.829868 
L 209.179572 288.939912 
L 209.404426 290.243023 
L 209.62928 288.489872 
L 209.854135 289.693954 
L 210.078989 288.066473 
L 210.303844 289.205317 
L 210.528698 287.708252 
L 210.753553 288.781624 
L 210.978407 287.390416 
L 211.203261 288.40623 
L 211.428116 287.108922 
L 211.65297 288.06237 
L 211.877825 286.849906 
L 212.102679 287.756257 
L 212.327534 286.623626 
L 212.552388 287.481474 
L 212.777242 286.42252 
L 213.002097 287.238225 
L 213.226951 286.242956 
L 213.451806 287.01593 
L 213.67666 286.085284 
L 213.901515 286.825903 
L 214.126369 285.958032 
L 214.351223 286.672246 
L 214.576078 285.87017 
L 214.800932 286.562432 
L 215.025787 285.819673 
L 215.250641 286.491363 
L 215.475496 285.807364 
L 215.70035 286.459799 
L 215.925204 285.830048 
L 216.150059 286.466364 
L 216.374913 285.889952 
L 216.599768 286.508361 
L 216.824622 285.978782 
L 217.049477 286.578786 
L 217.274331 286.091614 
L 217.499185 286.669784 
L 217.72404 286.220888 
L 217.948894 286.779041 
L 218.173749 286.366133 
L 218.398603 286.902658 
L 218.623458 286.523249 
L 218.848312 287.038731 
L 219.073166 286.688863 
L 219.298021 287.180871 
L 219.522875 286.858669 
L 219.74773 287.327963 
L 219.972584 287.030291 
L 220.197438 287.475495 
L 220.422293 287.200917 
L 220.647147 287.620829 
L 220.872002 287.364099 
L 221.096856 287.755817 
L 221.321711 287.514649 
L 221.546565 287.876006 
L 221.771419 287.645916 
L 221.996274 287.975826 
L 222.221128 287.755993 
L 222.445983 288.0522 
L 222.670837 287.838727 
L 222.895692 288.10126 
L 223.120546 287.894616 
L 223.3454 288.122391 
L 223.570255 287.922311 
L 223.795109 288.119665 
L 224.019964 287.929257 
L 224.244818 288.094783 
L 224.469673 287.914486 
L 224.694527 288.052698 
L 224.919381 287.884593 
L 225.144236 287.992677 
L 225.36909 287.842537 
L 225.593945 287.930429 
L 225.818799 287.801214 
L 226.043654 287.859887 
L 226.268508 287.755817 
L 226.493362 287.782956 
L 227.39278 287.493372 
L 227.617635 287.457207 
L 227.842489 287.293293 
L 228.067343 287.448298 
L 228.292198 287.19781 
L 228.517052 287.514679 
L 228.741907 286.867959 
L 228.966761 288.782562 
L 229.191616 284.852686 
L 229.41647 291.192807 
L 229.641324 318.276549 
L 229.866179 290.915503 
L 230.091033 284.543877 
L 230.315888 288.019728 
L 230.765597 285.108947 
L 230.990451 288.509596 
L 231.215305 282.264078 
L 231.44016 254.850866 
L 231.665014 282.084103 
L 231.889869 288.392602 
L 232.114723 284.633615 
L 232.339578 286.535587 
L 232.564432 286.081386 
L 232.789286 286.402504 
L 233.014141 286.363173 
L 233.46385 286.597425 
L 233.688704 286.585204 
L 233.913559 286.733439 
L 234.138413 286.696659 
L 234.363267 286.914 
L 234.588122 286.853569 
L 234.812976 287.149893 
L 235.037831 287.087909 
L 235.262685 287.431652 
L 235.487539 287.345782 
L 235.712394 287.734951 
L 235.937248 287.630852 
L 236.162103 288.061051 
L 236.386957 287.942914 
L 236.611812 288.43161 
L 236.836666 288.306175 
L 237.06152 288.84695 
L 237.286375 288.702378 
L 237.511229 289.293502 
L 237.736084 289.116194 
L 237.960938 289.747147 
L 238.185793 289.531212 
L 238.410647 290.216822 
L 238.635501 289.954934 
L 238.860356 290.686058 
L 239.08521 290.356177 
L 239.310065 291.122089 
L 239.534919 290.670848 
L 239.759774 291.442503 
L 239.984628 290.856801 
L 240.209482 291.678953 
L 240.434337 290.962805 
L 240.659191 291.911915 
L 240.884046 291.13176 
L 241.1089 292.285815 
L 241.333755 291.323311 
L 241.558609 292.660037 
L 241.783463 291.39145 
L 242.008318 292.803232 
L 242.233172 290.75956 
L 242.458027 292.473205 
L 242.682881 289.77279 
L 242.907736 291.796269 
L 243.13259 286.360946 
L 243.357444 299.132011 
L 243.582299 252.111707 
L 243.807153 249.468588 
L 244.032008 298.99459 
L 244.256862 287.097492 
L 244.481717 292.128348 
L 244.706571 290.545911 
L 244.931425 293.278593 
L 245.15628 291.797618 
L 245.381134 293.938442 
L 245.605989 292.723458 
L 245.830843 294.110856 
L 246.055698 292.931919 
L 246.280552 294.01423 
L 246.505406 292.995662 
L 246.730261 293.891756 
L 246.955115 293.054833 
L 247.17997 293.881118 
L 247.404824 293.152426 
L 247.629679 293.839912 
L 247.854533 293.139677 
L 248.079387 293.68136 
L 248.304242 292.963718 
L 248.529096 293.369797 
L 248.753951 292.660887 
L 248.978805 292.983148 
L 249.203659 292.294519 
L 249.428514 292.556437 
L 249.653368 291.89732 
L 249.878223 292.107921 
L 250.103077 291.466799 
L 250.327932 291.634611 
L 250.552786 291.020071 
L 250.77764 291.159338 
L 251.002495 290.576156 
L 251.227349 290.701298 
L 251.452204 290.153519 
L 251.677058 290.2643 
L 251.901913 289.743425 
L 252.126767 289.838966 
L 252.351621 289.339719 
L 252.576476 289.418116 
L 252.80133 288.938828 
L 253.026185 289.005325 
L 253.251039 288.546142 
L 253.475894 288.601327 
L 253.700748 288.160929 
L 253.925602 288.206414 
L 254.150457 287.782604 
L 254.375311 287.819414 
L 254.600166 287.414595 
L 254.82502 287.448532 
L 255.049875 287.065752 
L 255.274729 287.101595 
L 255.499583 286.744254 
L 255.724438 286.785196 
L 255.949292 286.453058 
L 256.174147 286.500565 
L 256.399001 286.194687 
L 256.623856 286.250546 
L 256.84871 285.97125 
L 257.073564 286.03766 
L 257.298419 285.785736 
L 257.523273 285.862843 
L 257.748128 285.63668 
L 257.972982 285.724044 
L 258.197837 285.522148 
L 258.422691 285.618861 
L 258.647545 285.440293 
L 258.8724 285.547147 
L 259.097254 285.39176 
L 259.322109 285.508754 
L 259.546963 285.375905 
L 259.771818 285.50301 
L 259.996672 285.39138 
L 260.221526 285.527657 
L 260.446381 285.436337 
L 260.671235 285.5817 
L 260.89609 285.509722 
L 261.120944 285.66376 
L 261.345799 285.610157 
L 261.570653 285.771844 
L 261.795507 285.734478 
L 262.020362 285.90185 
L 262.245216 285.878727 
L 262.470071 286.050056 
L 262.694925 286.039125 
L 262.919779 286.213092 
L 263.144634 286.212945 
L 263.369488 286.388055 
L 263.594343 286.396759 
L 263.819197 286.571488 
L 264.044052 286.587256 
L 264.268906 286.759962 
L 264.49376 286.781327 
L 264.718615 286.951191 
L 264.943469 286.977245 
L 265.393178 287.173134 
L 266.067741 287.522797 
L 266.292596 287.556236 
L 266.967159 287.881222 
L 267.641722 288.081507 
L 268.316286 288.354679 
L 268.990849 288.518447 
L 269.665412 288.734118 
L 270.789684 288.962009 
L 271.913957 289.192129 
L 274.162501 289.529102 
L 280.008716 290.537207 
L 280.683279 290.707804 
L 280.908134 290.682248 
L 281.132988 290.778112 
L 281.357842 290.743881 
L 281.582697 290.839803 
L 281.807551 290.795579 
L 282.032406 290.890153 
L 282.25726 290.834821 
L 282.482115 290.927783 
L 282.706969 290.860728 
L 282.931823 290.951844 
L 283.156678 290.873125 
L 283.381532 290.962629 
L 283.606387 290.871484 
L 283.831241 290.95879 
L 284.056096 290.854896 
L 284.28095 290.939887 
L 284.505804 290.82257 
L 284.730659 290.905627 
L 284.955513 290.775533 
L 285.180368 290.857006 
L 285.405222 290.713548 
L 285.630077 290.793498 
L 285.854931 290.636295 
L 286.079785 290.714105 
L 286.30464 290.542483 
L 286.529494 290.619179 
L 286.754349 290.434193 
L 286.979203 290.51086 
L 287.204058 290.313535 
L 287.428912 290.392254 
L 287.653766 290.183353 
L 287.878621 290.264446 
L 288.103475 290.04476 
L 288.32833 290.130542 
L 288.553184 289.901536 
L 288.778039 289.994059 
L 289.002893 289.758518 
L 289.227747 289.860829 
L 289.452602 289.619192 
L 289.677456 289.731702 
L 289.902311 289.484408 
L 290.127165 289.607645 
L 290.35202 289.35364 
L 290.576874 289.488892 
L 290.801728 289.23058 
L 291.026583 289.380075 
L 291.251437 289.117425 
L 291.476292 289.282834 
L 291.701146 289.016579 
L 291.926 289.197228 
L 292.150855 288.925991 
L 292.375709 289.124869 
L 292.600564 288.851727 
L 292.825418 289.071735 
L 293.050273 288.799677 
L 293.275127 289.046414 
L 293.499981 288.776261 
L 293.724836 289.047557 
L 293.94969 288.77714 
L 294.174545 289.073757 
L 294.399399 288.8 
L 294.624254 289.120737 
L 294.849108 288.846217 
L 295.073962 289.195118 
L 295.298817 288.915704 
L 295.523671 289.288549 
L 295.748526 289.000841 
L 295.97338 289.39171 
L 296.198235 289.084132 
L 296.423089 289.492233 
L 296.647943 289.172581 
L 296.872798 289.605095 
L 297.097652 289.278262 
L 297.322507 289.750781 
L 297.547361 289.427846 
L 297.772216 289.932895 
L 297.99707 289.60448 
L 298.221924 290.146837 
L 298.446779 289.81297 
L 298.671633 290.378656 
L 298.896488 290.063927 
L 299.121342 290.694645 
L 299.346197 290.419715 
L 299.571051 291.089558 
L 299.795905 290.945426 
L 300.02076 291.643638 
L 300.245614 291.570986 
L 300.470469 292.01197 
L 300.695323 293.015679 
L 300.920178 291.173552 
L 301.145032 295.251517 
L 301.369886 315.585923 
L 301.594741 295.532953 
L 301.819595 292.018417 
L 302.04445 293.836014 
L 302.269304 293.553581 
L 302.494159 292.539175 
L 302.719013 294.582231 
L 302.943867 290.746548 
L 303.168722 296.242918 
L 303.393576 314.517299 
L 303.618431 296.36041 
L 303.843285 290.412974 
L 304.06814 294.560603 
L 304.292994 291.511111 
L 304.517848 292.847134 
L 304.742703 290.081101 
L 304.967557 291.101955 
L 305.417266 285.559602 
L 305.64212 288.321855 
L 305.866975 293.146916 
L 306.091829 145.190601 
L 306.541538 310.342649 
L 306.766393 272.508185 
L 306.991247 264.136526 
L 307.440956 294.840104 
L 307.66581 288.047892 
L 307.890665 294.061327 
L 308.115519 292.590345 
L 308.340374 292.366615 
L 308.565228 295.687695 
L 308.790082 322.720882 
L 309.014937 296.039058 
L 309.239791 292.027239 
L 309.464646 293.866698 
L 309.6895 293.660992 
L 309.914355 292.742801 
L 310.139209 293.709612 
L 310.364063 292.571296 
L 310.588918 293.433979 
L 310.813772 292.256303 
L 311.038627 293.075524 
L 311.263481 291.916868 
L 311.488336 292.615373 
L 311.71319 291.477643 
L 311.938044 292.09233 
L 312.162899 290.981063 
L 312.387753 291.502876 
L 312.612608 290.428742 
L 312.837462 290.908733 
L 313.062317 289.899338 
L 313.287171 290.359753 
L 313.512025 289.431802 
L 313.73688 289.897521 
L 313.961734 289.041109 
L 314.186589 289.4966 
L 314.411443 288.69552 
L 314.636298 289.137588 
L 314.861152 288.375281 
L 315.086006 288.798124 
L 315.310861 288.073448 
L 315.535715 288.481637 
L 315.76057 287.784069 
L 315.985424 288.172447 
L 316.210279 287.496274 
L 316.435133 287.86229 
L 316.659987 287.199012 
L 316.884842 287.546184 
L 317.109696 286.901779 
L 317.334551 287.238606 
L 317.559405 286.616064 
L 317.78426 286.951484 
L 318.009114 286.355085 
L 318.233968 286.692204 
L 318.458823 286.121595 
L 318.683677 286.466598 
L 318.908532 285.924857 
L 319.133386 286.281788 
L 319.35824 285.770291 
L 319.583095 286.143136 
L 319.807949 285.659364 
L 320.032804 286.045543 
L 320.257658 285.584836 
L 320.482513 285.982973 
L 320.707367 285.54067 
L 320.932221 285.949709 
L 321.157076 285.523203 
L 321.38193 285.941913 
L 321.606785 285.525372 
L 321.831639 285.950881 
L 322.056494 285.539117 
L 322.281348 285.969872 
L 322.506202 285.561507 
L 322.731057 286.002784 
L 322.955911 285.600691 
L 323.180766 286.058175 
L 323.40562 285.664727 
L 323.630475 286.142696 
L 323.855329 285.755784 
L 324.080183 286.257433 
L 324.305038 285.880779 
L 324.529892 286.416161 
L 324.754747 286.055156 
L 324.979601 286.636345 
L 325.204456 286.295034 
L 325.42931 286.921122 
L 325.654164 286.583446 
L 325.879019 287.244965 
L 326.103873 286.893339 
L 326.328728 287.579125 
L 326.553582 287.201737 
L 326.778437 287.922633 
L 327.003291 287.513917 
L 327.228145 288.260427 
L 327.453 287.789315 
L 327.677854 288.539577 
L 327.902709 287.94394 
L 328.127563 288.656014 
L 328.352418 287.912229 
L 328.577272 288.636496 
L 328.802126 287.773196 
L 329.026981 288.611438 
L 329.251835 287.723052 
L 329.47669 288.78602 
L 329.701544 287.770471 
L 329.926399 289.00257 
L 330.151253 287.677714 
L 330.376107 288.933963 
L 330.600962 286.76301 
L 330.825816 288.176872 
L 331.050671 285.197044 
L 331.275525 287.181545 
L 331.50038 281.000766 
L 331.725234 293.165849 
L 331.950088 256.57849 
L 332.174943 241.379156 
L 332.399797 291.171911 
L 332.624652 283.625949 
L 332.849506 286.67081 
L 333.074361 286.758145 
L 333.299215 289.142805 
L 333.524069 288.669847 
L 333.748924 290.642332 
L 333.973778 290.168172 
L 334.198633 291.436935 
L 334.423487 290.8061 
L 334.648341 291.793896 
L 334.873196 291.26162 
L 335.09805 292.136818 
L 335.322905 291.775168 
L 335.547759 292.649164 
L 335.772614 292.392933 
L 335.997468 293.164354 
L 336.222322 292.906041 
L 336.447177 293.536818 
L 336.672031 293.227862 
L 336.896886 293.726816 
L 337.12174 293.402445 
L 337.346595 293.828599 
L 337.571449 293.516948 
L 337.796303 293.90049 
L 338.021158 293.612371 
L 338.246012 293.95969 
L 338.470867 293.69109 
L 338.695721 294.010626 
L 338.920576 293.762658 
L 339.14543 294.058601 
L 339.370284 293.834549 
L 339.595139 294.102679 
L 339.819993 293.880795 
L 340.044848 294.10942 
L 340.269702 293.896885 
L 340.494557 294.081402 
L 340.719411 293.874641 
L 340.944265 294.038555 
L 341.16912 293.875227 
L 341.393974 293.970621 
L 341.618829 293.804362 
L 341.843683 293.813008 
L 342.068538 293.653313 
L 342.743101 292.707456 
L 342.967955 293.026054 
L 343.19281 290.499108 
L 343.417664 294.904052 
L 343.642519 286.906732 
L 343.867373 252.371808 
L 344.092227 286.471082 
L 344.317082 293.767318 
L 344.541936 289.666816 
L 344.766791 289.534172 
L 344.991645 293.52067 
L 345.2165 286.139707 
L 345.441354 253.917024 
L 345.666208 286.243278 
L 345.891063 294.010479 
L 346.115917 289.343324 
L 346.340772 291.934247 
L 346.565626 291.145271 
L 346.790481 291.835951 
L 347.015335 291.475064 
L 347.240189 291.988319 
L 347.465044 291.655566 
L 347.689898 291.891605 
L 347.914753 291.56404 
L 348.139607 291.736483 
L 348.364461 291.40247 
L 348.589316 291.526146 
L 348.81417 291.230144 
L 349.039025 291.355842 
L 349.263879 291.056998 
L 349.488734 291.15462 
L 349.713588 290.845987 
L 349.938442 290.911869 
L 350.163297 290.570705 
L 350.388151 290.611237 
L 350.613006 290.262688 
L 350.83786 290.296537 
L 351.062715 289.944295 
L 351.287569 289.983801 
L 351.512423 289.637128 
L 351.737278 289.678539 
L 351.962132 289.328114 
L 352.186987 289.374331 
L 352.411841 289.024053 
L 352.636696 289.07493 
L 352.86155 288.725912 
L 353.086404 288.789186 
L 353.311259 288.442336 
L 353.536113 288.511618 
L 353.760968 288.161222 
L 353.985822 288.235223 
L 354.210677 287.875683 
L 354.435531 287.949537 
L 354.660385 287.58188 
L 354.88524 287.660012 
L 355.110094 287.282391 
L 355.334949 287.362135 
L 355.559803 286.974549 
L 355.784658 287.054821 
L 356.009512 286.651497 
L 356.234366 286.73215 
L 356.459221 286.320209 
L 356.684075 286.407808 
L 356.90893 285.990592 
L 357.133784 286.092991 
L 357.358639 285.678677 
L 357.583493 285.794235 
L 357.808347 285.378748 
L 358.033202 285.512975 
L 358.258056 285.106456 
L 358.482911 285.263425 
L 358.707765 284.879678 
L 358.93262 285.082864 
L 359.157474 284.735311 
L 359.382328 284.969299 
L 359.607183 284.650027 
L 359.832037 284.901951 
L 360.056892 284.580071 
L 360.281746 284.797882 
L 360.506601 284.501587 
L 360.731455 284.721654 
L 360.956309 284.485292 
L 361.181164 284.706912 
L 361.406018 284.752075 
L 361.855727 285.272569 
L 362.080581 285.109504 
L 362.305436 287.254168 
L 362.53029 283.341172 
L 362.755145 290.501775 
L 362.979999 321.936009 
L 363.204854 290.645995 
L 363.429708 283.675889 
L 363.654562 287.684689 
L 363.879417 285.778262 
L 364.104271 285.99071 
L 364.329126 285.994109 
L 364.55398 285.761176 
L 364.778835 286.056416 
L 365.003689 285.794821 
L 365.228543 286.424162 
L 365.453398 286.117844 
L 365.678252 286.862654 
L 365.903107 286.511673 
L 366.127961 287.337253 
L 366.352816 286.904944 
L 366.57767 287.789257 
L 366.802524 287.325179 
L 367.027379 288.295625 
L 367.252233 287.807339 
L 367.477088 288.873238 
L 367.701942 288.366519 
L 367.926797 289.51058 
L 368.151651 288.961218 
L 368.376505 290.178576 
L 368.60136 289.576052 
L 368.826214 290.859058 
L 369.051069 290.199355 
L 369.275923 291.558149 
L 369.500778 290.827142 
L 369.725632 292.25812 
L 369.950486 291.453845 
L 370.175341 292.967088 
L 370.400195 292.072606 
L 370.62505 293.682093 
L 370.849904 292.704057 
L 371.074759 294.415151 
L 371.299613 293.317454 
L 371.524467 295.139975 
L 371.749322 293.90641 
L 371.974176 295.827402 
L 372.199031 294.416646 
L 372.423885 296.482972 
L 372.64874 294.881808 
L 372.873594 297.079694 
L 373.098448 295.230094 
L 373.323303 297.607808 
L 373.548157 295.408984 
L 373.773012 297.908997 
L 373.997866 295.303391 
L 374.222721 298.090291 
L 374.447575 294.988515 
L 374.672429 298.167016 
L 374.897284 294.657668 
L 375.122138 298.571191 
L 375.346993 294.224392 
L 375.571847 298.933104 
L 375.796701 293.587578 
L 376.021556 299.423969 
L 376.24641 291.277387 
L 376.471265 299.273682 
L 376.696119 288.402215 
L 376.920974 301.101946 
L 377.145828 272.501738 
L 377.370682 332.471294 
L 377.820391 44.440134 
L 378.045246 308.359204 
L 378.2701 291.02224 
L 378.494955 288.421645 
L 378.944663 294.188578 
L 379.169518 290.43856 
L 379.394372 294.52813 
L 379.619227 291.56571 
L 379.844081 294.392644 
L 380.068936 291.208486 
L 380.29379 293.654486 
L 380.518644 290.930127 
L 380.743499 292.904576 
L 380.968353 290.556872 
L 381.193208 292.444777 
L 381.418062 290.450634 
L 381.642917 292.033422 
L 381.867771 290.24059 
L 382.092625 291.580511 
L 382.31748 289.877241 
L 382.542334 290.915064 
L 382.767189 289.363282 
L 382.992043 290.230215 
L 383.216898 288.83552 
L 383.441752 289.577195 
L 383.666606 288.431815 
L 383.891461 289.040494 
L 384.116315 288.064362 
L 384.34117 288.520498 
L 384.566024 287.779351 
L 384.790879 287.837907 
L 385.240587 287.103178 
L 385.465442 287.453192 
L 385.690296 284.544346 
L 385.915151 290.455323 
L 386.140005 280.263488 
L 386.36486 235.537871 
L 386.589714 280.388717 
L 386.814568 290.85516 
L 387.039423 284.916868 
L 387.264277 288.235457 
L 387.489132 287.680557 
L 387.713986 288.436885 
L 387.938841 288.50772 
L 388.163695 289.051543 
L 388.388549 289.14471 
L 389.063113 289.778036 
L 389.287967 289.889638 
L 389.96253 290.718354 
L 390.187385 290.838513 
L 390.412239 291.280494 
L 390.637094 291.388989 
L 390.861948 291.921264 
L 391.086802 292.028176 
L 391.311657 292.704408 
L 391.536511 292.834268 
L 391.761366 293.628344 
L 391.98622 293.723797 
L 392.211075 294.601398 
L 392.435929 294.602394 
L 392.660783 295.512761 
L 392.885638 295.411769 
L 393.110492 296.389776 
L 393.335347 296.152505 
L 393.560201 297.124094 
L 393.785056 296.65055 
L 394.00991 297.475809 
L 394.234764 296.531944 
L 394.459619 297.077056 
L 394.684473 295.709382 
L 394.909328 296.149223 
L 395.134182 294.560896 
L 395.359037 295.304036 
L 395.583891 293.93091 
L 395.808745 295.040184 
L 396.0336 293.487787 
L 396.258454 294.563416 
L 396.483309 292.280921 
L 396.708163 291.930232 
L 396.933018 287.865807 
L 397.157872 286.44875 
L 397.382726 282.585079 
L 397.607581 274.522638 
L 397.832435 279.85861 
L 398.05729 277.419146 
L 398.282144 83.230537 
L 398.731853 300.985538 
L 398.956707 263.2033 
L 399.181562 285.265388 
L 399.406416 279.811983 
L 399.631271 288.888771 
L 399.856125 286.171271 
L 400.08098 292.252434 
L 400.305834 289.711509 
L 400.530688 292.823424 
L 400.755543 290.368223 
L 400.980397 292.50767 
L 401.205252 290.601097 
L 401.430106 292.402194 
L 401.654961 291.309889 
L 401.879815 293.056299 
L 402.104669 292.324559 
L 402.329524 293.634821 
L 402.554378 292.929751 
L 402.779233 293.67081 
L 403.004087 292.8122 
L 403.228942 293.049411 
L 403.453796 292.254574 
L 403.67865 292.226087 
L 403.903505 291.610433 
L 404.353214 291.232078 
L 404.578068 290.872803 
L 404.802922 291.049173 
L 405.027777 290.150207 
L 405.252631 292.399175 
L 405.477486 287.602834 
L 405.70234 295.214561 
L 405.927195 326.522071 
L 406.152049 295.109788 
L 406.376903 287.158861 
L 406.601758 292.002093 
L 406.826612 289.12654 
L 407.051467 290.212397 
L 407.276321 289.125631 
L 407.501176 289.863584 
L 407.72603 288.893255 
L 407.950884 289.700959 
L 408.175739 288.907879 
L 408.400593 289.826657 
L 408.625448 288.954184 
L 408.850302 289.961528 
L 409.075157 288.959108 
L 409.300011 290.052702 
L 409.524865 288.686435 
L 409.74972 289.938932 
L 409.974574 288.301603 
L 410.199429 290.166267 
L 410.424283 286.601704 
L 410.649138 292.519715 
L 410.873992 283.768118 
L 411.098846 253.765976 
L 411.323701 284.182052 
L 411.548555 293.576558 
L 411.77341 287.8001 
L 411.998264 292.197542 
L 412.223119 290.179309 
L 412.447973 292.799627 
L 412.672827 291.085543 
L 412.897682 293.561524 
L 413.122536 291.706033 
L 413.347391 293.764094 
L 413.572245 291.804182 
L 413.7971 293.645723 
L 414.021954 291.939903 
L 414.246808 291.71632 
L 414.471663 295.208817 
L 414.696517 286.695692 
L 414.921372 259.698933 
L 415.146226 325.472086 
L 415.371081 297.724421 
L 415.595935 290.613435 
L 416.045644 294.06795 
L 416.270498 287.462219 
L 416.495353 293.143575 
L 416.720207 284.618346 
L 416.945062 288.724856 
L 417.169916 275.136211 
L 417.39477 319.550675 
L 417.619625 67.237508 
L 417.844479 137.490103 
L 418.069334 329.787966 
L 418.294188 265.743053 
L 418.519042 294.478015 
L 418.743897 282.194034 
L 418.968751 294.728444 
L 419.193606 285.978811 
L 419.41846 295.486326 
L 419.643315 288.930797 
L 419.868169 295.211279 
L 420.093023 289.669043 
L 420.317878 294.719213 
L 420.542732 290.166853 
L 420.767587 294.315302 
L 420.992441 290.701679 
L 421.217296 294.442436 
L 421.44215 291.407599 
L 421.667004 294.57678 
L 421.891859 291.902918 
L 422.116713 294.560192 
L 422.341568 292.059594 
L 422.566422 294.268968 
L 422.791277 292.019883 
L 423.016131 293.942926 
L 423.240985 291.930379 
L 423.46584 293.647804 
L 423.690694 291.888704 
L 423.915549 293.416952 
L 424.140403 291.847088 
L 424.365258 293.221796 
L 424.590112 291.850048 
L 424.814966 293.091233 
L 425.039821 291.908252 
L 425.264675 293.066468 
L 425.48953 292.061264 
L 425.714384 293.116144 
L 425.939239 292.262223 
L 426.164093 293.236684 
L 426.388947 292.47974 
L 426.613802 293.342043 
L 426.838656 292.67387 
L 427.063511 293.458451 
L 427.288365 292.714431 
L 427.51322 293.422168 
L 427.738074 292.653414 
L 427.962928 293.588984 
L 428.187783 291.496018 
L 428.412637 295.282905 
L 428.637492 289.443085 
L 428.862346 265.340227 
L 429.087201 289.821469 
L 429.312055 295.641917 
L 429.536909 292.912665 
L 429.761764 293.26221 
L 429.986618 296.365099 
L 430.211473 291.173845 
L 430.436327 266.859126 
L 430.661182 291.801926 
L 430.886036 296.328905 
L 431.11089 296.199221 
L 431.335745 293.038099 
L 431.560599 267.87995 
L 431.785454 293.408101 
L 432.010308 298.162064 
L 432.235163 295.770077 
L 432.460017 295.79531 
L 432.684871 296.201536 
L 432.909726 294.158128 
L 433.13458 295.891115 
L 433.359435 290.95372 
L 433.584289 298.881142 
L 433.809143 285.773925 
L 434.033998 239.57507 
L 434.258852 284.897496 
L 434.483707 296.571362 
L 434.708561 285.957974 
L 434.933416 289.3304 
L 435.15827 285.205983 
L 435.383124 277.857873 
L 435.607979 285.09951 
L 435.832833 285.532083 
L 436.057688 41.760029 
L 436.507397 314.213384 
L 436.732251 264.734185 
L 436.957105 291.65073 
L 437.18196 282.984358 
L 437.406814 293.74229 
L 437.631669 288.945744 
L 437.856523 296.545514 
L 438.081378 292.597994 
L 438.306232 297.00795 
L 438.531086 293.487259 
L 438.755941 296.811094 
L 438.980795 293.923232 
L 439.20565 296.70468 
L 439.430504 294.626221 
L 439.655359 297.199619 
L 439.880213 295.468273 
L 440.105067 297.560389 
L 440.329922 295.913623 
L 440.554776 297.488645 
L 440.779631 295.798212 
L 441.004485 297.013255 
L 441.22934 295.41256 
L 441.454194 296.42553 
L 441.679048 294.930458 
L 441.903903 295.835256 
L 442.128757 294.282244 
L 442.353612 295.075939 
L 442.578466 293.458304 
L 442.803321 294.528629 
L 443.028175 291.441859 
L 443.253029 295.730366 
L 443.477884 288.398581 
L 443.702738 261.721856 
L 443.927593 288.1723 
L 444.152447 295.037751 
L 444.377302 290.755076 
L 444.602156 293.169805 
L 444.82701 292.386807 
L 445.051865 293.080858 
L 445.276719 292.83503 
L 445.501574 293.198585 
L 445.951283 292.967762 
L 446.176137 293.145568 
L 446.400991 292.737437 
L 446.625846 293.583709 
L 446.8507 291.587925 
L 447.075555 296.080996 
L 447.300409 289.678128 
L 447.525263 263.489103 
L 447.750118 290.570119 
L 447.974972 298.14656 
L 448.199827 293.986623 
L 448.424681 297.307176 
L 448.649536 296.098053 
L 448.87439 298.194389 
L 449.099244 295.430291 
L 449.324099 300.431546 
L 449.548953 292.664463 
L 449.773808 266.141014 
L 449.998662 291.438283 
L 450.223517 298.344207 
L 450.448371 292.519451 
L 450.673225 295.461239 
L 450.89808 293.346468 
L 451.122934 295.253188 
L 451.347789 293.355143 
L 451.572643 295.001909 
L 451.797498 292.025744 
L 452.022352 291.523362 
L 452.247206 285.923333 
L 452.472061 283.825326 
L 452.696915 277.888675 
L 452.92177 268.64891 
L 453.371479 273.549349 
L 453.596333 49.863764 
L 454.046042 300.091526 
L 454.270896 255.984142 
L 454.495751 283.88564 
L 454.720605 278.481265 
L 454.94546 291.316161 
L 455.170314 288.779163 
L 455.395168 297.604965 
L 455.620023 294.811061 
L 455.844877 299.646849 
L 456.069732 296.598911 
L 456.294586 299.853142 
L 456.519441 297.374728 
L 456.744295 300.06679 
L 456.969149 298.869361 
L 457.194004 299.951965 
L 457.418858 302.187335 
L 457.643713 298.471517 
L 457.868567 270.888675 
L 458.093422 298.366744 
L 458.318276 302.228687 
L 458.767985 298.015206 
L 458.992839 301.649461 
L 459.217694 294.117157 
L 459.442548 268.459674 
L 459.667403 293.148352 
L 459.892257 299.16038 
L 460.117111 294.516437 
L 460.341966 295.708591 
L 460.56682 296.226301 
L 460.791675 291.136596 
L 461.016529 299.484253 
L 461.241383 319.451412 
L 461.466238 266.579008 
L 461.691092 286.318568 
L 461.915947 295.071425 
L 462.140801 289.501055 
L 462.365656 291.278472 
L 462.59051 290.317668 
L 462.815364 290.467984 
L 463.040219 289.597915 
L 463.265073 291.481775 
L 463.489928 286.838095 
L 463.714782 293.667674 
L 463.939637 326.296582 
L 464.164491 292.611739 
L 464.389345 285.059008 
L 464.6142 287.871873 
L 464.839054 287.518547 
L 465.063909 282.393762 
L 465.288763 289.270379 
L 465.513618 320.768883 
L 465.738472 287.560427 
L 465.963326 278.725627 
L 466.188181 282.862617 
L 466.413035 279.309893 
L 466.63789 279.568235 
L 466.862744 278.031078 
L 467.087599 277.929295 
L 467.312453 276.696257 
L 467.537307 276.653469 
L 467.762162 275.81514 
L 467.987016 275.83035 
L 468.211871 275.147289 
L 468.436725 275.220264 
L 468.66158 274.666331 
L 468.886434 274.74968 
L 469.111288 274.280767 
L 469.336143 274.43372 
L 469.560997 274.079984 
L 469.785852 274.310894 
L 470.010706 274.085318 
L 470.235561 274.44134 
L 470.460415 274.328713 
L 470.685269 274.79411 
L 470.910124 274.790944 
L 471.134978 275.380193 
L 471.359833 275.39341 
L 471.584687 276.081043 
L 471.809542 276.094788 
L 472.034396 276.904338 
L 472.25925 276.692946 
L 472.484105 277.810865 
L 472.708959 277.425008 
L 472.933814 279.211041 
L 473.158668 276.742475 
L 473.383523 283.877463 
L 473.608377 273.2156 
L 473.833231 251.928596 
L 474.058086 310.626283 
L 474.28294 289.349772 
L 474.507795 278.799569 
L 474.732649 285.968172 
L 474.957503 283.724568 
L 475.182358 285.565083 
L 475.407212 285.513678 
L 475.632067 286.699824 
L 475.856921 286.922763 
L 476.30663 288.337768 
L 477.206048 291.070508 
L 477.880611 292.732983 
L 478.105465 293.469265 
L 478.33032 293.79176 
L 478.555174 294.54633 
L 478.780029 294.811413 
L 479.004883 295.616449 
L 479.229738 295.836604 
L 479.454592 296.709076 
L 479.679446 296.902327 
L 479.904301 297.833472 
L 480.129155 297.962512 
L 480.35401 298.929822 
L 480.578864 298.968771 
L 480.803719 299.947159 
L 481.028573 299.872602 
L 481.253427 300.879974 
L 481.478282 300.682093 
L 481.703136 301.687355 
L 481.927991 301.294552 
L 482.152845 302.239824 
L 482.3777 301.523558 
L 482.602554 302.312857 
L 482.827408 301.224831 
L 483.052263 301.959648 
L 483.277117 300.580807 
L 483.501972 301.478132 
L 483.726826 300.021863 
L 483.951681 301.319698 
L 484.176535 299.61719 
L 484.401389 301.185178 
L 484.626244 298.853418 
L 484.851098 300.369181 
L 485.075953 296.352702 
L 485.300807 297.974381 
L 485.525662 292.306946 
L 485.750516 295.010994 
L 485.97537 283.233 
L 486.200225 304.151584 
L 486.649934 206.010386 
L 486.874788 298.221821 
L 487.099643 286.960393 
L 487.324497 291.065966 
L 487.549351 291.802805 
L 487.774206 295.876081 
L 487.99906 295.054368 
L 488.223915 298.436202 
L 488.448769 297.361042 
L 488.673624 299.412509 
L 488.898478 297.87081 
L 489.123332 299.404743 
L 489.348187 298.009432 
L 489.573041 299.405476 
L 489.797896 298.354641 
L 490.02275 299.834532 
L 490.247604 298.99544 
L 490.472459 300.303416 
L 490.697313 299.432731 
L 490.922168 300.457894 
L 491.147022 299.427104 
L 491.371877 300.168545 
L 491.596731 299.163809 
L 491.821585 299.799275 
L 492.04644 298.897027 
L 492.271294 299.420012 
L 492.496149 299.534456 
L 492.721003 298.270236 
L 492.945858 300.834841 
L 493.170712 319.43286 
L 493.395566 299.260757 
L 493.620421 300.952187 
L 493.845275 316.376746 
L 494.07013 302.879275 
L 494.294984 314.663512 
L 494.519839 300.478672 
L 494.744693 294.434875 
L 494.969547 297.239564 
L 495.194402 295.109143 
L 495.419256 295.694875 
L 495.644111 295.772832 
L 495.868965 294.220816 
L 496.09382 297.300113 
L 496.318674 314.537227 
L 496.543528 297.248942 
L 496.768383 293.917312 
L 496.993237 295.407285 
L 497.442946 293.825639 
L 497.667801 293.616416 
L 498.117509 291.304379 
L 498.342364 291.987762 
L 498.567218 287.970668 
L 498.792073 269.623166 
L 499.016927 286.265258 
L 499.241782 288.502328 
L 499.466636 286.827369 
L 499.69149 286.359276 
L 499.916345 286.917341 
L 500.141199 284.884513 
L 500.366054 285.324911 
L 500.590908 281.278334 
L 500.815763 281.122508 
L 501.040617 275.01573 
L 501.265471 275.816253 
L 501.490326 263.50065 
L 501.71518 279.427854 
L 501.940035 239.968664 
L 502.164889 170.664974 
L 502.389744 264.764577 
L 502.614598 272.05331 
L 502.839452 268.494872 
L 503.064307 275.641173 
L 503.963724 286.415399 
L 504.188579 287.945434 
L 504.863142 290.031865 
L 505.087997 292.113665 
L 505.312851 290.585242 
L 505.537705 295.866527 
L 505.76256 315.981041 
L 505.987414 297.737902 
L 506.212269 295.771484 
L 506.437123 295.749035 
L 506.661978 300.481251 
L 506.886832 316.602323 
L 507.111686 302.030805 
L 507.336541 315.681464 
L 507.561395 299.191915 
L 507.78625 292.589202 
L 508.011104 295.147946 
L 508.235959 292.571178 
L 508.460813 292.631492 
L 508.685667 291.256521 
L 508.910522 291.108051 
L 509.135376 289.993297 
L 509.360231 289.918915 
L 509.585085 289.036069 
L 509.80994 289.079912 
L 510.034794 288.269834 
L 510.259648 288.524161 
L 510.484503 287.740109 
L 510.709357 288.160402 
L 510.934212 287.114988 
L 511.159066 288.680339 
L 511.383921 285.345983 
L 511.608775 289.924484 
L 511.833629 307.731182 
L 512.058484 289.197551 
L 512.283338 283.834469 
L 512.508193 286.479464 
L 512.733047 284.080502 
L 512.957902 284.488164 
L 513.182756 283.194461 
L 513.40761 283.419569 
L 513.632465 282.273603 
L 513.857319 282.553105 
L 514.082174 281.521465 
L 514.307028 281.87192 
L 514.531883 280.85596 
L 514.756737 281.335072 
L 514.981591 280.342236 
L 515.206446 281.21843 
L 515.4313 280.284354 
L 515.656155 281.570408 
L 515.881009 280.24183 
L 516.105864 283.720201 
L 516.330718 278.192004 
L 516.555572 287.319816 
L 516.780427 321.161217 
L 517.005281 287.331011 
L 517.230136 278.152234 
L 517.45499 283.740716 
L 517.679844 280.123429 
L 517.904699 281.549747 
L 518.129553 280.056961 
L 518.354408 281.14484 
L 518.579262 280.010128 
L 518.804117 281.247591 
L 519.028971 280.507616 
L 519.253825 281.849089 
L 519.47868 281.206414 
L 519.703534 282.618928 
L 519.928389 282.005501 
L 520.153243 283.438179 
L 520.378098 282.81722 
L 520.602952 284.341423 
L 520.827806 283.743823 
L 521.052661 285.366058 
L 521.277515 284.776399 
L 521.50237 286.496228 
L 521.727224 285.864601 
L 521.952079 287.639234 
L 522.176933 286.941227 
L 522.401787 288.780393 
L 522.626642 288.002466 
L 522.851496 289.915076 
L 523.076351 289.064819 
L 523.301205 291.060398 
L 523.52606 290.111141 
L 523.750914 292.201968 
L 523.975768 291.174578 
L 524.200623 293.401947 
L 524.425477 292.316646 
L 524.650332 294.744563 
L 524.875186 293.620314 
L 525.100041 296.234419 
L 525.324895 294.99338 
L 525.549749 297.760732 
L 525.774604 296.320318 
L 525.999458 299.189688 
L 526.224313 297.508808 
L 526.449167 300.547778 
L 526.674022 298.584672 
L 526.898876 301.734833 
L 527.12373 299.340209 
L 527.348585 302.489667 
L 527.573439 299.336252 
L 527.798294 302.301662 
L 528.023148 298.328381 
L 528.248003 301.380921 
L 528.472857 296.719041 
L 528.697711 300.393858 
L 528.922566 295.522842 
L 529.14742 300.242604 
L 529.372275 294.532644 
L 529.597129 300.032472 
L 529.821984 292.633397 
L 530.046838 297.934846 
L 530.271692 286.339698 
L 530.496547 292.497647 
L 530.721401 277.71084 
L 530.946256 283.790216 
L 531.17111 258.40057 
L 531.395965 316.883759 
L 531.620819 57.29109 
L 531.845673 82.148401 
L 532.070528 320.191152 
L 532.295382 254.036128 
L 532.520237 284.840523 
L 532.745091 274.893256 
L 532.969945 291.262968 
L 533.1948 281.789625 
L 533.419654 297.038459 
L 533.869363 271.015692 
L 534.319072 298.280523 
L 534.543926 289.866045 
L 534.768781 297.355005 
L 534.993635 292.846167 
L 535.21849 298.985564 
L 535.443344 295.136311 
L 535.668199 301.699518 
L 535.893053 295.240146 
L 536.117907 304.270952 
L 536.342762 322.688527 
L 536.567616 303.554862 
L 536.792471 294.659748 
L 537.017325 300.164647 
L 537.24218 295.038132 
L 537.467034 297.649131 
L 537.691888 294.107808 
L 537.916743 296.267213 
L 538.141597 293.103981 
L 538.366452 295.145308 
L 538.591306 292.391409 
L 538.816161 294.415503 
L 539.041015 291.973841 
L 539.265869 294.076772 
L 539.490724 291.914025 
L 539.715578 294.20584 
L 539.940433 292.228403 
L 540.165287 294.664232 
L 540.390142 292.51614 
L 540.614996 296.201448 
L 540.83985 291.415131 
L 541.064705 298.523391 
L 541.289559 318.742063 
L 541.514414 298.258308 
L 541.739268 290.932384 
L 541.964123 295.193782 
L 542.188977 291.212238 
L 542.413831 292.574549 
L 542.638686 289.879263 
L 542.86354 291.006326 
L 543.088395 288.697894 
L 543.313249 290.033594 
L 543.538104 288.044522 
L 543.762958 289.397923 
L 543.987812 287.222106 
L 544.212667 288.075177 
L 544.437521 285.122047 
L 544.662376 285.422621 
L 544.88723 282.033138 
L 545.112085 281.19223 
L 545.336939 278.504534 
L 545.561793 282.395667 
L 545.786648 237.809522 
L 546.236357 285.461541 
L 546.461211 277.896178 
L 546.686065 283.562881 
L 546.91092 284.687951 
L 547.135774 287.053854 
L 547.360629 290.61534 
L 547.585483 287.647381 
L 547.810338 296.403315 
L 548.035192 332.51291 
L 548.260046 296.655474 
L 548.484901 288.15879 
L 548.709755 291.764852 
L 548.93461 288.536529 
L 549.384319 286.204007 
L 549.609173 281.735319 
L 549.834027 285.988863 
L 550.058882 273.839724 
L 550.283736 242.73751 
L 550.508591 269.129488 
L 550.733445 242.167487 
L 550.9583 272.640859 
L 551.183154 284.287586 
L 551.408008 279.0461 
L 551.632863 282.986644 
L 551.857717 282.543375 
L 552.082572 283.963772 
L 552.307426 283.802114 
L 552.532281 284.422252 
L 552.757135 284.115202 
L 552.981989 284.222378 
L 552.981989 284.222378 
" style="fill:none;stroke:#0000ff;stroke-linecap:square;"/>
   </g>
   <g id="line2d_2">
    <path clip-path="url(#pea9326c2c8)" d="M 144.44795 385.94403 
L 144.44795 41.76 
" style="fill:none;stroke:#ff0000;stroke-dasharray:1.000000,3.000000;stroke-dashoffset:0.0;"/>
   </g>
   <g id="line2d_3">
    <path clip-path="url(#pea9326c2c8)" d="M 202.777834 385.94403 
L 202.777834 41.76 
" style="fill:none;stroke:#ff0000;stroke-dasharray:1.000000,3.000000;stroke-dashoffset:0.0;"/>
   </g>
   <g id="line2d_4">
    <path clip-path="url(#pea9326c2c8)" d="M 377.767484 385.94403 
L 377.767484 41.76 
" style="fill:none;stroke:#ff0000;stroke-dasharray:1.000000,3.000000;stroke-dashoffset:0.0;"/>
   </g>
   <g id="line2d_5">
    <path clip-path="url(#pea9326c2c8)" d="M 436.097368 385.94403 
L 436.097368 41.76 
" style="fill:none;stroke:#ff0000;stroke-dasharray:1.000000,3.000000;stroke-dashoffset:0.0;"/>
   </g>
   <g id="patch_3">
    <path d="M 56.953125 41.76 
L 552.757135 41.76 
" style="fill:none;stroke:#000000;stroke-linecap:square;stroke-linejoin:miter;"/>
   </g>
   <g id="patch_4">
    <path d="M 552.757135 385.94403 
L 552.757135 41.76 
" style="fill:none;stroke:#000000;stroke-linecap:square;stroke-linejoin:miter;"/>
   </g>
   <g id="patch_5">
    <path d="M 56.953125 385.94403 
L 552.757135 385.94403 
" style="fill:none;stroke:#000000;stroke-linecap:square;stroke-linejoin:miter;"/>
   </g>
   <g id="patch_6">
    <path d="M 56.953125 385.94403 
L 56.953125 41.76 
" style="fill:none;stroke:#000000;stroke-linecap:square;stroke-linejoin:miter;"/>
   </g>
   <g id="matplotlib.axis_1">
    <g id="xtick_1">
     <g id="line2d_6">
      <defs>
       <path d="M 0 0 
L 0 -4 
" id="m6e5b4c6405" style="stroke:#000000;stroke-width:0.5;"/>
      </defs>
      <g>
       <use style="stroke:#000000;stroke-width:0.5;" x="56.953125" xlink:href="#m6e5b4c6405" y="385.94403"/>
      </g>
     </g>
     <g id="line2d_7">
      <defs>
       <path d="M 0 0 
L 0 4 
" id="m753ae11cc1" style="stroke:#000000;stroke-width:0.5;"/>
      </defs>
      <g>
       <use style="stroke:#000000;stroke-width:0.5;" x="56.953125" xlink:href="#m753ae11cc1" y="41.76"/>
      </g>
     </g>
     <g id="text_1">
      <!-- 0.00 -->
      <defs>
       <path d="M 31.78125 66.40625 
Q 24.171875 66.40625 20.328125 58.90625 
Q 16.5 51.421875 16.5 36.375 
Q 16.5 21.390625 20.328125 13.890625 
Q 24.171875 6.390625 31.78125 6.390625 
Q 39.453125 6.390625 43.28125 13.890625 
Q 47.125 21.390625 47.125 36.375 
Q 47.125 51.421875 43.28125 58.90625 
Q 39.453125 66.40625 31.78125 66.40625 
M 31.78125 74.21875 
Q 44.046875 74.21875 50.515625 64.515625 
Q 56.984375 54.828125 56.984375 36.375 
Q 56.984375 17.96875 50.515625 8.265625 
Q 44.046875 -1.421875 31.78125 -1.421875 
Q 19.53125 -1.421875 13.0625 8.265625 
Q 6.59375 17.96875 6.59375 36.375 
Q 6.59375 54.828125 13.0625 64.515625 
Q 19.53125 74.21875 31.78125 74.21875 
" id="BitstreamVeraSans-Roman-30"/>
       <path d="M 10.6875 12.40625 
L 21 12.40625 
L 21 0 
L 10.6875 0 
z
" id="BitstreamVeraSans-Roman-2e"/>
      </defs>
      <g transform="translate(43.59375 399.062155)scale(0.12 -0.12)">
       <use xlink:href="#BitstreamVeraSans-Roman-30"/>
       <use x="63.623046875" xlink:href="#BitstreamVeraSans-Roman-2e"/>
       <use x="95.41015625" xlink:href="#BitstreamVeraSans-Roman-30"/>
       <use x="159.033203125" xlink:href="#BitstreamVeraSans-Roman-30"/>
      </g>
     </g>
    </g>
    <g id="xtick_2">
     <g id="line2d_8">
      <g>
       <use style="stroke:#000000;stroke-width:0.5;" x="156.113927" xlink:href="#m6e5b4c6405" y="385.94403"/>
      </g>
     </g>
     <g id="line2d_9">
      <g>
       <use style="stroke:#000000;stroke-width:0.5;" x="156.113927" xlink:href="#m753ae11cc1" y="41.76"/>
      </g>
     </g>
     <g id="text_2">
      <!-- 0.01 -->
      <defs>
       <path d="M 12.40625 8.296875 
L 28.515625 8.296875 
L 28.515625 63.921875 
L 10.984375 60.40625 
L 10.984375 69.390625 
L 28.421875 72.90625 
L 38.28125 72.90625 
L 38.28125 8.296875 
L 54.390625 8.296875 
L 54.390625 0 
L 12.40625 0 
z
" id="BitstreamVeraSans-Roman-31"/>
      </defs>
      <g transform="translate(142.754552 399.062155)scale(0.12 -0.12)">
       <use xlink:href="#BitstreamVeraSans-Roman-30"/>
       <use x="63.623046875" xlink:href="#BitstreamVeraSans-Roman-2e"/>
       <use x="95.41015625" xlink:href="#BitstreamVeraSans-Roman-30"/>
       <use x="159.033203125" xlink:href="#BitstreamVeraSans-Roman-31"/>
      </g>
     </g>
    </g>
    <g id="xtick_3">
     <g id="line2d_10">
      <g>
       <use style="stroke:#000000;stroke-width:0.5;" x="255.274729" xlink:href="#m6e5b4c6405" y="385.94403"/>
      </g>
     </g>
     <g id="line2d_11">
      <g>
       <use style="stroke:#000000;stroke-width:0.5;" x="255.274729" xlink:href="#m753ae11cc1" y="41.76"/>
      </g>
     </g>
     <g id="text_3">
      <!-- 0.02 -->
      <defs>
       <path d="M 19.1875 8.296875 
L 53.609375 8.296875 
L 53.609375 0 
L 7.328125 0 
L 7.328125 8.296875 
Q 12.9375 14.109375 22.625 23.890625 
Q 32.328125 33.6875 34.8125 36.53125 
Q 39.546875 41.84375 41.421875 45.53125 
Q 43.3125 49.21875 43.3125 52.78125 
Q 43.3125 58.59375 39.234375 62.25 
Q 35.15625 65.921875 28.609375 65.921875 
Q 23.96875 65.921875 18.8125 64.3125 
Q 13.671875 62.703125 7.8125 59.421875 
L 7.8125 69.390625 
Q 13.765625 71.78125 18.9375 73 
Q 24.125 74.21875 28.421875 74.21875 
Q 39.75 74.21875 46.484375 68.546875 
Q 53.21875 62.890625 53.21875 53.421875 
Q 53.21875 48.921875 51.53125 44.890625 
Q 49.859375 40.875 45.40625 35.40625 
Q 44.1875 33.984375 37.640625 27.21875 
Q 31.109375 20.453125 19.1875 8.296875 
" id="BitstreamVeraSans-Roman-32"/>
      </defs>
      <g transform="translate(241.915354 399.062155)scale(0.12 -0.12)">
       <use xlink:href="#BitstreamVeraSans-Roman-30"/>
       <use x="63.623046875" xlink:href="#BitstreamVeraSans-Roman-2e"/>
       <use x="95.41015625" xlink:href="#BitstreamVeraSans-Roman-30"/>
       <use x="159.033203125" xlink:href="#BitstreamVeraSans-Roman-32"/>
      </g>
     </g>
    </g>
    <g id="xtick_4">
     <g id="line2d_12">
      <g>
       <use style="stroke:#000000;stroke-width:0.5;" x="354.435531" xlink:href="#m6e5b4c6405" y="385.94403"/>
      </g>
     </g>
     <g id="line2d_13">
      <g>
       <use style="stroke:#000000;stroke-width:0.5;" x="354.435531" xlink:href="#m753ae11cc1" y="41.76"/>
      </g>
     </g>
     <g id="text_4">
      <!-- 0.03 -->
      <defs>
       <path d="M 40.578125 39.3125 
Q 47.65625 37.796875 51.625 33 
Q 55.609375 28.21875 55.609375 21.1875 
Q 55.609375 10.40625 48.1875 4.484375 
Q 40.765625 -1.421875 27.09375 -1.421875 
Q 22.515625 -1.421875 17.65625 -0.515625 
Q 12.796875 0.390625 7.625 2.203125 
L 7.625 11.71875 
Q 11.71875 9.328125 16.59375 8.109375 
Q 21.484375 6.890625 26.8125 6.890625 
Q 36.078125 6.890625 40.9375 10.546875 
Q 45.796875 14.203125 45.796875 21.1875 
Q 45.796875 27.640625 41.28125 31.265625 
Q 36.765625 34.90625 28.71875 34.90625 
L 20.21875 34.90625 
L 20.21875 43.015625 
L 29.109375 43.015625 
Q 36.375 43.015625 40.234375 45.921875 
Q 44.09375 48.828125 44.09375 54.296875 
Q 44.09375 59.90625 40.109375 62.90625 
Q 36.140625 65.921875 28.71875 65.921875 
Q 24.65625 65.921875 20.015625 65.03125 
Q 15.375 64.15625 9.8125 62.3125 
L 9.8125 71.09375 
Q 15.4375 72.65625 20.34375 73.4375 
Q 25.25 74.21875 29.59375 74.21875 
Q 40.828125 74.21875 47.359375 69.109375 
Q 53.90625 64.015625 53.90625 55.328125 
Q 53.90625 49.265625 50.4375 45.09375 
Q 46.96875 40.921875 40.578125 39.3125 
" id="BitstreamVeraSans-Roman-33"/>
      </defs>
      <g transform="translate(341.076156 399.062155)scale(0.12 -0.12)">
       <use xlink:href="#BitstreamVeraSans-Roman-30"/>
       <use x="63.623046875" xlink:href="#BitstreamVeraSans-Roman-2e"/>
       <use x="95.41015625" xlink:href="#BitstreamVeraSans-Roman-30"/>
       <use x="159.033203125" xlink:href="#BitstreamVeraSans-Roman-33"/>
      </g>
     </g>
    </g>
    <g id="xtick_5">
     <g id="line2d_14">
      <g>
       <use style="stroke:#000000;stroke-width:0.5;" x="453.596333" xlink:href="#m6e5b4c6405" y="385.94403"/>
      </g>
     </g>
     <g id="line2d_15">
      <g>
       <use style="stroke:#000000;stroke-width:0.5;" x="453.596333" xlink:href="#m753ae11cc1" y="41.76"/>
      </g>
     </g>
     <g id="text_5">
      <!-- 0.04 -->
      <defs>
       <path d="M 37.796875 64.3125 
L 12.890625 25.390625 
L 37.796875 25.390625 
z
M 35.203125 72.90625 
L 47.609375 72.90625 
L 47.609375 25.390625 
L 58.015625 25.390625 
L 58.015625 17.1875 
L 47.609375 17.1875 
L 47.609375 0 
L 37.796875 0 
L 37.796875 17.1875 
L 4.890625 17.1875 
L 4.890625 26.703125 
z
" id="BitstreamVeraSans-Roman-34"/>
      </defs>
      <g transform="translate(440.236958 399.062155)scale(0.12 -0.12)">
       <use xlink:href="#BitstreamVeraSans-Roman-30"/>
       <use x="63.623046875" xlink:href="#BitstreamVeraSans-Roman-2e"/>
       <use x="95.41015625" xlink:href="#BitstreamVeraSans-Roman-30"/>
       <use x="159.033203125" xlink:href="#BitstreamVeraSans-Roman-34"/>
      </g>
     </g>
    </g>
    <g id="xtick_6">
     <g id="line2d_16">
      <g>
       <use style="stroke:#000000;stroke-width:0.5;" x="552.757135" xlink:href="#m6e5b4c6405" y="385.94403"/>
      </g>
     </g>
     <g id="line2d_17">
      <g>
       <use style="stroke:#000000;stroke-width:0.5;" x="552.757135" xlink:href="#m753ae11cc1" y="41.76"/>
      </g>
     </g>
     <g id="text_6">
      <!-- 0.05 -->
      <defs>
       <path d="M 10.796875 72.90625 
L 49.515625 72.90625 
L 49.515625 64.59375 
L 19.828125 64.59375 
L 19.828125 46.734375 
Q 21.96875 47.46875 24.109375 47.828125 
Q 26.265625 48.1875 28.421875 48.1875 
Q 40.625 48.1875 47.75 41.5 
Q 54.890625 34.8125 54.890625 23.390625 
Q 54.890625 11.625 47.5625 5.09375 
Q 40.234375 -1.421875 26.90625 -1.421875 
Q 22.3125 -1.421875 17.546875 -0.640625 
Q 12.796875 0.140625 7.71875 1.703125 
L 7.71875 11.625 
Q 12.109375 9.234375 16.796875 8.0625 
Q 21.484375 6.890625 26.703125 6.890625 
Q 35.15625 6.890625 40.078125 11.328125 
Q 45.015625 15.765625 45.015625 23.390625 
Q 45.015625 31 40.078125 35.4375 
Q 35.15625 39.890625 26.703125 39.890625 
Q 22.75 39.890625 18.8125 39.015625 
Q 14.890625 38.140625 10.796875 36.28125 
z
" id="BitstreamVeraSans-Roman-35"/>
      </defs>
      <g transform="translate(539.39776 399.062155)scale(0.12 -0.12)">
       <use xlink:href="#BitstreamVeraSans-Roman-30"/>
       <use x="63.623046875" xlink:href="#BitstreamVeraSans-Roman-2e"/>
       <use x="95.41015625" xlink:href="#BitstreamVeraSans-Roman-30"/>
       <use x="159.033203125" xlink:href="#BitstreamVeraSans-Roman-35"/>
      </g>
     </g>
    </g>
    <g id="text_7">
     <!-- time / s -->
     <defs>
      <path id="BitstreamVeraSans-Roman-20"/>
      <path d="M 52 44.1875 
Q 55.375 50.25 60.0625 53.125 
Q 64.75 56 71.09375 56 
Q 79.640625 56 84.28125 50.015625 
Q 88.921875 44.046875 88.921875 33.015625 
L 88.921875 0 
L 79.890625 0 
L 79.890625 32.71875 
Q 79.890625 40.578125 77.09375 44.375 
Q 74.3125 48.1875 68.609375 48.1875 
Q 61.625 48.1875 57.5625 43.546875 
Q 53.515625 38.921875 53.515625 30.90625 
L 53.515625 0 
L 44.484375 0 
L 44.484375 32.71875 
Q 44.484375 40.625 41.703125 44.40625 
Q 38.921875 48.1875 33.109375 48.1875 
Q 26.21875 48.1875 22.15625 43.53125 
Q 18.109375 38.875 18.109375 30.90625 
L 18.109375 0 
L 9.078125 0 
L 9.078125 54.6875 
L 18.109375 54.6875 
L 18.109375 46.1875 
Q 21.1875 51.21875 25.484375 53.609375 
Q 29.78125 56 35.6875 56 
Q 41.65625 56 45.828125 52.96875 
Q 50 49.953125 52 44.1875 
" id="BitstreamVeraSans-Roman-6d"/>
      <path d="M 9.421875 54.6875 
L 18.40625 54.6875 
L 18.40625 0 
L 9.421875 0 
z
M 9.421875 75.984375 
L 18.40625 75.984375 
L 18.40625 64.59375 
L 9.421875 64.59375 
z
" id="BitstreamVeraSans-Roman-69"/>
      <path d="M 25.390625 72.90625 
L 33.6875 72.90625 
L 8.296875 -9.28125 
L 0 -9.28125 
z
" id="BitstreamVeraSans-Roman-2f"/>
      <path d="M 56.203125 29.59375 
L 56.203125 25.203125 
L 14.890625 25.203125 
Q 15.484375 15.921875 20.484375 11.0625 
Q 25.484375 6.203125 34.421875 6.203125 
Q 39.59375 6.203125 44.453125 7.46875 
Q 49.3125 8.734375 54.109375 11.28125 
L 54.109375 2.78125 
Q 49.265625 0.734375 44.1875 -0.34375 
Q 39.109375 -1.421875 33.890625 -1.421875 
Q 20.796875 -1.421875 13.15625 6.1875 
Q 5.515625 13.8125 5.515625 26.8125 
Q 5.515625 40.234375 12.765625 48.109375 
Q 20.015625 56 32.328125 56 
Q 43.359375 56 49.78125 48.890625 
Q 56.203125 41.796875 56.203125 29.59375 
M 47.21875 32.234375 
Q 47.125 39.59375 43.09375 43.984375 
Q 39.0625 48.390625 32.421875 48.390625 
Q 24.90625 48.390625 20.390625 44.140625 
Q 15.875 39.890625 15.1875 32.171875 
z
" id="BitstreamVeraSans-Roman-65"/>
      <path d="M 18.3125 70.21875 
L 18.3125 54.6875 
L 36.8125 54.6875 
L 36.8125 47.703125 
L 18.3125 47.703125 
L 18.3125 18.015625 
Q 18.3125 11.328125 20.140625 9.421875 
Q 21.96875 7.515625 27.59375 7.515625 
L 36.8125 7.515625 
L 36.8125 0 
L 27.59375 0 
Q 17.1875 0 13.234375 3.875 
Q 9.28125 7.765625 9.28125 18.015625 
L 9.28125 47.703125 
L 2.6875 47.703125 
L 2.6875 54.6875 
L 9.28125 54.6875 
L 9.28125 70.21875 
z
" id="BitstreamVeraSans-Roman-74"/>
      <path d="M 44.28125 53.078125 
L 44.28125 44.578125 
Q 40.484375 46.53125 36.375 47.5 
Q 32.28125 48.484375 27.875 48.484375 
Q 21.1875 48.484375 17.84375 46.4375 
Q 14.5 44.390625 14.5 40.28125 
Q 14.5 37.15625 16.890625 35.375 
Q 19.28125 33.59375 26.515625 31.984375 
L 29.59375 31.296875 
Q 39.15625 29.25 43.1875 25.515625 
Q 47.21875 21.78125 47.21875 15.09375 
Q 47.21875 7.46875 41.1875 3.015625 
Q 35.15625 -1.421875 24.609375 -1.421875 
Q 20.21875 -1.421875 15.453125 -0.5625 
Q 10.6875 0.296875 5.421875 2 
L 5.421875 11.28125 
Q 10.40625 8.6875 15.234375 7.390625 
Q 20.0625 6.109375 24.8125 6.109375 
Q 31.15625 6.109375 34.5625 8.28125 
Q 37.984375 10.453125 37.984375 14.40625 
Q 37.984375 18.0625 35.515625 20.015625 
Q 33.0625 21.96875 24.703125 23.78125 
L 21.578125 24.515625 
Q 13.234375 26.265625 9.515625 29.90625 
Q 5.8125 33.546875 5.8125 39.890625 
Q 5.8125 47.609375 11.28125 51.796875 
Q 16.75 56 26.8125 56 
Q 31.78125 56 36.171875 55.265625 
Q 40.578125 54.546875 44.28125 53.078125 
" id="BitstreamVeraSans-Roman-73"/>
     </defs>
     <g transform="translate(282.3391925 415.675905)scale(0.12 -0.12)">
      <use xlink:href="#BitstreamVeraSans-Roman-74"/>
      <use x="39.208984375" xlink:href="#BitstreamVeraSans-Roman-69"/>
      <use x="66.9921875" xlink:href="#BitstreamVeraSans-Roman-6d"/>
      <use x="164.404296875" xlink:href="#BitstreamVeraSans-Roman-65"/>
      <use x="225.927734375" xlink:href="#BitstreamVeraSans-Roman-20"/>
      <use x="257.71484375" xlink:href="#BitstreamVeraSans-Roman-2f"/>
      <use x="291.40625" xlink:href="#BitstreamVeraSans-Roman-20"/>
      <use x="323.193359375" xlink:href="#BitstreamVeraSans-Roman-73"/>
     </g>
    </g>
   </g>
   <g id="matplotlib.axis_2">
    <g id="ytick_1">
     <g id="line2d_18">
      <defs>
       <path d="M 0 0 
L 4 0 
" id="m8f18dcdee4" style="stroke:#000000;stroke-width:0.5;"/>
      </defs>
      <g>
       <use style="stroke:#000000;stroke-width:0.5;" x="56.953125" xlink:href="#m8f18dcdee4" y="385.94403"/>
      </g>
     </g>
     <g id="line2d_19">
      <defs>
       <path d="M 0 0 
L -4 0 
" id="m81512ac249" style="stroke:#000000;stroke-width:0.5;"/>
      </defs>
      <g>
       <use style="stroke:#000000;stroke-width:0.5;" x="552.757135" xlink:href="#m81512ac249" y="385.94403"/>
      </g>
     </g>
     <g id="text_8">
      <!-- 0.4 -->
      <defs>
       <path d="M 10.59375 35.5 
L 73.1875 35.5 
L 73.1875 27.203125 
L 10.59375 27.203125 
z
" id="BitstreamVeraSans-Roman-2212"/>
      </defs>
      <g transform="translate(23.81375 389.25528)scale(0.12 -0.12)">
       <use xlink:href="#BitstreamVeraSans-Roman-2212"/>
       <use x="83.7890625" xlink:href="#BitstreamVeraSans-Roman-30"/>
       <use x="147.412109375" xlink:href="#BitstreamVeraSans-Roman-2e"/>
       <use x="179.19921875" xlink:href="#BitstreamVeraSans-Roman-34"/>
      </g>
     </g>
    </g>
    <g id="ytick_2">
     <g id="line2d_20">
      <g>
       <use style="stroke:#000000;stroke-width:0.5;" x="56.953125" xlink:href="#m8f18dcdee4" y="336.774882857"/>
      </g>
     </g>
     <g id="line2d_21">
      <g>
       <use style="stroke:#000000;stroke-width:0.5;" x="552.757135" xlink:href="#m81512ac249" y="336.774882857"/>
      </g>
     </g>
     <g id="text_9">
      <!-- 0.2 -->
      <g transform="translate(23.81375 340.086132857)scale(0.12 -0.12)">
       <use xlink:href="#BitstreamVeraSans-Roman-2212"/>
       <use x="83.7890625" xlink:href="#BitstreamVeraSans-Roman-30"/>
       <use x="147.412109375" xlink:href="#BitstreamVeraSans-Roman-2e"/>
       <use x="179.19921875" xlink:href="#BitstreamVeraSans-Roman-32"/>
      </g>
     </g>
    </g>
    <g id="ytick_3">
     <g id="line2d_22">
      <g>
       <use style="stroke:#000000;stroke-width:0.5;" x="56.953125" xlink:href="#m8f18dcdee4" y="287.605735714"/>
      </g>
     </g>
     <g id="line2d_23">
      <g>
       <use style="stroke:#000000;stroke-width:0.5;" x="552.757135" xlink:href="#m81512ac249" y="287.605735714"/>
      </g>
     </g>
     <g id="text_10">
      <!-- 0.0 -->
      <g transform="translate(33.869375 290.916985714)scale(0.12 -0.12)">
       <use xlink:href="#BitstreamVeraSans-Roman-30"/>
       <use x="63.623046875" xlink:href="#BitstreamVeraSans-Roman-2e"/>
       <use x="95.41015625" xlink:href="#BitstreamVeraSans-Roman-30"/>
      </g>
     </g>
    </g>
    <g id="ytick_4">
     <g id="line2d_24">
      <g>
       <use style="stroke:#000000;stroke-width:0.5;" x="56.953125" xlink:href="#m8f18dcdee4" y="238.436588571"/>
      </g>
     </g>
     <g id="line2d_25">
      <g>
       <use style="stroke:#000000;stroke-width:0.5;" x="552.757135" xlink:href="#m81512ac249" y="238.436588571"/>
      </g>
     </g>
     <g id="text_11">
      <!-- 0.2 -->
      <g transform="translate(33.869375 241.747838571)scale(0.12 -0.12)">
       <use xlink:href="#BitstreamVeraSans-Roman-30"/>
       <use x="63.623046875" xlink:href="#BitstreamVeraSans-Roman-2e"/>
       <use x="95.41015625" xlink:href="#BitstreamVeraSans-Roman-32"/>
      </g>
     </g>
    </g>
    <g id="ytick_5">
     <g id="line2d_26">
      <g>
       <use style="stroke:#000000;stroke-width:0.5;" x="56.953125" xlink:href="#m8f18dcdee4" y="189.267441429"/>
      </g>
     </g>
     <g id="line2d_27">
      <g>
       <use style="stroke:#000000;stroke-width:0.5;" x="552.757135" xlink:href="#m81512ac249" y="189.267441429"/>
      </g>
     </g>
     <g id="text_12">
      <!-- 0.4 -->
      <g transform="translate(33.869375 192.578691429)scale(0.12 -0.12)">
       <use xlink:href="#BitstreamVeraSans-Roman-30"/>
       <use x="63.623046875" xlink:href="#BitstreamVeraSans-Roman-2e"/>
       <use x="95.41015625" xlink:href="#BitstreamVeraSans-Roman-34"/>
      </g>
     </g>
    </g>
    <g id="ytick_6">
     <g id="line2d_28">
      <g>
       <use style="stroke:#000000;stroke-width:0.5;" x="56.953125" xlink:href="#m8f18dcdee4" y="140.098294286"/>
      </g>
     </g>
     <g id="line2d_29">
      <g>
       <use style="stroke:#000000;stroke-width:0.5;" x="552.757135" xlink:href="#m81512ac249" y="140.098294286"/>
      </g>
     </g>
     <g id="text_13">
      <!-- 0.6 -->
      <defs>
       <path d="M 33.015625 40.375 
Q 26.375 40.375 22.484375 35.828125 
Q 18.609375 31.296875 18.609375 23.390625 
Q 18.609375 15.53125 22.484375 10.953125 
Q 26.375 6.390625 33.015625 6.390625 
Q 39.65625 6.390625 43.53125 10.953125 
Q 47.40625 15.53125 47.40625 23.390625 
Q 47.40625 31.296875 43.53125 35.828125 
Q 39.65625 40.375 33.015625 40.375 
M 52.59375 71.296875 
L 52.59375 62.3125 
Q 48.875 64.0625 45.09375 64.984375 
Q 41.3125 65.921875 37.59375 65.921875 
Q 27.828125 65.921875 22.671875 59.328125 
Q 17.53125 52.734375 16.796875 39.40625 
Q 19.671875 43.65625 24.015625 45.921875 
Q 28.375 48.1875 33.59375 48.1875 
Q 44.578125 48.1875 50.953125 41.515625 
Q 57.328125 34.859375 57.328125 23.390625 
Q 57.328125 12.15625 50.6875 5.359375 
Q 44.046875 -1.421875 33.015625 -1.421875 
Q 20.359375 -1.421875 13.671875 8.265625 
Q 6.984375 17.96875 6.984375 36.375 
Q 6.984375 53.65625 15.1875 63.9375 
Q 23.390625 74.21875 37.203125 74.21875 
Q 40.921875 74.21875 44.703125 73.484375 
Q 48.484375 72.75 52.59375 71.296875 
" id="BitstreamVeraSans-Roman-36"/>
      </defs>
      <g transform="translate(33.869375 143.409544286)scale(0.12 -0.12)">
       <use xlink:href="#BitstreamVeraSans-Roman-30"/>
       <use x="63.623046875" xlink:href="#BitstreamVeraSans-Roman-2e"/>
       <use x="95.41015625" xlink:href="#BitstreamVeraSans-Roman-36"/>
      </g>
     </g>
    </g>
    <g id="ytick_7">
     <g id="line2d_30">
      <g>
       <use style="stroke:#000000;stroke-width:0.5;" x="56.953125" xlink:href="#m8f18dcdee4" y="90.9291471429"/>
      </g>
     </g>
     <g id="line2d_31">
      <g>
       <use style="stroke:#000000;stroke-width:0.5;" x="552.757135" xlink:href="#m81512ac249" y="90.9291471429"/>
      </g>
     </g>
     <g id="text_14">
      <!-- 0.8 -->
      <defs>
       <path d="M 31.78125 34.625 
Q 24.75 34.625 20.71875 30.859375 
Q 16.703125 27.09375 16.703125 20.515625 
Q 16.703125 13.921875 20.71875 10.15625 
Q 24.75 6.390625 31.78125 6.390625 
Q 38.8125 6.390625 42.859375 10.171875 
Q 46.921875 13.96875 46.921875 20.515625 
Q 46.921875 27.09375 42.890625 30.859375 
Q 38.875 34.625 31.78125 34.625 
M 21.921875 38.8125 
Q 15.578125 40.375 12.03125 44.71875 
Q 8.5 49.078125 8.5 55.328125 
Q 8.5 64.0625 14.71875 69.140625 
Q 20.953125 74.21875 31.78125 74.21875 
Q 42.671875 74.21875 48.875 69.140625 
Q 55.078125 64.0625 55.078125 55.328125 
Q 55.078125 49.078125 51.53125 44.71875 
Q 48 40.375 41.703125 38.8125 
Q 48.828125 37.15625 52.796875 32.3125 
Q 56.78125 27.484375 56.78125 20.515625 
Q 56.78125 9.90625 50.3125 4.234375 
Q 43.84375 -1.421875 31.78125 -1.421875 
Q 19.734375 -1.421875 13.25 4.234375 
Q 6.78125 9.90625 6.78125 20.515625 
Q 6.78125 27.484375 10.78125 32.3125 
Q 14.796875 37.15625 21.921875 38.8125 
M 18.3125 54.390625 
Q 18.3125 48.734375 21.84375 45.5625 
Q 25.390625 42.390625 31.78125 42.390625 
Q 38.140625 42.390625 41.71875 45.5625 
Q 45.3125 48.734375 45.3125 54.390625 
Q 45.3125 60.0625 41.71875 63.234375 
Q 38.140625 66.40625 31.78125 66.40625 
Q 25.390625 66.40625 21.84375 63.234375 
Q 18.3125 60.0625 18.3125 54.390625 
" id="BitstreamVeraSans-Roman-38"/>
      </defs>
      <g transform="translate(33.869375 94.2403971429)scale(0.12 -0.12)">
       <use xlink:href="#BitstreamVeraSans-Roman-30"/>
       <use x="63.623046875" xlink:href="#BitstreamVeraSans-Roman-2e"/>
       <use x="95.41015625" xlink:href="#BitstreamVeraSans-Roman-38"/>
      </g>
     </g>
    </g>
    <g id="ytick_8">
     <g id="line2d_32">
      <g>
       <use style="stroke:#000000;stroke-width:0.5;" x="56.953125" xlink:href="#m8f18dcdee4" y="41.76"/>
      </g>
     </g>
     <g id="line2d_33">
      <g>
       <use style="stroke:#000000;stroke-width:0.5;" x="552.757135" xlink:href="#m81512ac249" y="41.76"/>
      </g>
     </g>
     <g id="text_15">
      <!-- 1.0 -->
      <g transform="translate(33.869375 45.07125)scale(0.12 -0.12)">
       <use xlink:href="#BitstreamVeraSans-Roman-31"/>
       <use x="63.623046875" xlink:href="#BitstreamVeraSans-Roman-2e"/>
       <use x="95.41015625" xlink:href="#BitstreamVeraSans-Roman-30"/>
      </g>
     </g>
    </g>
    <g id="text_16">
     <!-- amplitude -->
     <defs>
      <path d="M 45.40625 46.390625 
L 45.40625 75.984375 
L 54.390625 75.984375 
L 54.390625 0 
L 45.40625 0 
L 45.40625 8.203125 
Q 42.578125 3.328125 38.25 0.953125 
Q 33.9375 -1.421875 27.875 -1.421875 
Q 17.96875 -1.421875 11.734375 6.484375 
Q 5.515625 14.40625 5.515625 27.296875 
Q 5.515625 40.1875 11.734375 48.09375 
Q 17.96875 56 27.875 56 
Q 33.9375 56 38.25 53.625 
Q 42.578125 51.265625 45.40625 46.390625 
M 14.796875 27.296875 
Q 14.796875 17.390625 18.875 11.75 
Q 22.953125 6.109375 30.078125 6.109375 
Q 37.203125 6.109375 41.296875 11.75 
Q 45.40625 17.390625 45.40625 27.296875 
Q 45.40625 37.203125 41.296875 42.84375 
Q 37.203125 48.484375 30.078125 48.484375 
Q 22.953125 48.484375 18.875 42.84375 
Q 14.796875 37.203125 14.796875 27.296875 
" id="BitstreamVeraSans-Roman-64"/>
      <path d="M 8.5 21.578125 
L 8.5 54.6875 
L 17.484375 54.6875 
L 17.484375 21.921875 
Q 17.484375 14.15625 20.5 10.265625 
Q 23.53125 6.390625 29.59375 6.390625 
Q 36.859375 6.390625 41.078125 11.03125 
Q 45.3125 15.671875 45.3125 23.6875 
L 45.3125 54.6875 
L 54.296875 54.6875 
L 54.296875 0 
L 45.3125 0 
L 45.3125 8.40625 
Q 42.046875 3.421875 37.71875 1 
Q 33.40625 -1.421875 27.6875 -1.421875 
Q 18.265625 -1.421875 13.375 4.4375 
Q 8.5 10.296875 8.5 21.578125 
" id="BitstreamVeraSans-Roman-75"/>
      <path d="M 34.28125 27.484375 
Q 23.390625 27.484375 19.1875 25 
Q 14.984375 22.515625 14.984375 16.5 
Q 14.984375 11.71875 18.140625 8.90625 
Q 21.296875 6.109375 26.703125 6.109375 
Q 34.1875 6.109375 38.703125 11.40625 
Q 43.21875 16.703125 43.21875 25.484375 
L 43.21875 27.484375 
z
M 52.203125 31.203125 
L 52.203125 0 
L 43.21875 0 
L 43.21875 8.296875 
Q 40.140625 3.328125 35.546875 0.953125 
Q 30.953125 -1.421875 24.3125 -1.421875 
Q 15.921875 -1.421875 10.953125 3.296875 
Q 6 8.015625 6 15.921875 
Q 6 25.140625 12.171875 29.828125 
Q 18.359375 34.515625 30.609375 34.515625 
L 43.21875 34.515625 
L 43.21875 35.40625 
Q 43.21875 41.609375 39.140625 45 
Q 35.0625 48.390625 27.6875 48.390625 
Q 23 48.390625 18.546875 47.265625 
Q 14.109375 46.140625 10.015625 43.890625 
L 10.015625 52.203125 
Q 14.9375 54.109375 19.578125 55.046875 
Q 24.21875 56 28.609375 56 
Q 40.484375 56 46.34375 49.84375 
Q 52.203125 43.703125 52.203125 31.203125 
" id="BitstreamVeraSans-Roman-61"/>
      <path d="M 9.421875 75.984375 
L 18.40625 75.984375 
L 18.40625 0 
L 9.421875 0 
z
" id="BitstreamVeraSans-Roman-6c"/>
      <path d="M 18.109375 8.203125 
L 18.109375 -20.796875 
L 9.078125 -20.796875 
L 9.078125 54.6875 
L 18.109375 54.6875 
L 18.109375 46.390625 
Q 20.953125 51.265625 25.265625 53.625 
Q 29.59375 56 35.59375 56 
Q 45.5625 56 51.78125 48.09375 
Q 58.015625 40.1875 58.015625 27.296875 
Q 58.015625 14.40625 51.78125 6.484375 
Q 45.5625 -1.421875 35.59375 -1.421875 
Q 29.59375 -1.421875 25.265625 0.953125 
Q 20.953125 3.328125 18.109375 8.203125 
M 48.6875 27.296875 
Q 48.6875 37.203125 44.609375 42.84375 
Q 40.53125 48.484375 33.40625 48.484375 
Q 26.265625 48.484375 22.1875 42.84375 
Q 18.109375 37.203125 18.109375 27.296875 
Q 18.109375 17.390625 22.1875 11.75 
Q 26.265625 6.109375 33.40625 6.109375 
Q 40.53125 6.109375 44.609375 11.75 
Q 48.6875 17.390625 48.6875 27.296875 
" id="BitstreamVeraSans-Roman-70"/>
     </defs>
     <g transform="translate(16.318125 244.1717025)rotate(-90.0)scale(0.12 -0.12)">
      <use xlink:href="#BitstreamVeraSans-Roman-61"/>
      <use x="61.279296875" xlink:href="#BitstreamVeraSans-Roman-6d"/>
      <use x="158.69140625" xlink:href="#BitstreamVeraSans-Roman-70"/>
      <use x="222.16796875" xlink:href="#BitstreamVeraSans-Roman-6c"/>
      <use x="249.951171875" xlink:href="#BitstreamVeraSans-Roman-69"/>
      <use x="277.734375" xlink:href="#BitstreamVeraSans-Roman-74"/>
      <use x="316.943359375" xlink:href="#BitstreamVeraSans-Roman-75"/>
      <use x="380.322265625" xlink:href="#BitstreamVeraSans-Roman-64"/>
      <use x="443.798828125" xlink:href="#BitstreamVeraSans-Roman-65"/>
     </g>
    </g>
   </g>
   <g id="text_17">
    <!-- 0.00882 s -->
    <g transform="translate(149.405990394 336.774882857)scale(0.12 -0.12)">
     <use xlink:href="#BitstreamVeraSans-Roman-30"/>
     <use x="63.623046875" xlink:href="#BitstreamVeraSans-Roman-2e"/>
     <use x="95.41015625" xlink:href="#BitstreamVeraSans-Roman-30"/>
     <use x="159.033203125" xlink:href="#BitstreamVeraSans-Roman-30"/>
     <use x="222.65625" xlink:href="#BitstreamVeraSans-Roman-38"/>
     <use x="286.279296875" xlink:href="#BitstreamVeraSans-Roman-38"/>
     <use x="349.90234375" xlink:href="#BitstreamVeraSans-Roman-32"/>
     <use x="413.525390625" xlink:href="#BitstreamVeraSans-Roman-20"/>
     <use x="445.3125" xlink:href="#BitstreamVeraSans-Roman-73"/>
    </g>
   </g>
   <g id="text_18">
    <!-- 0.0147 s -->
    <defs>
     <path d="M 8.203125 72.90625 
L 55.078125 72.90625 
L 55.078125 68.703125 
L 28.609375 0 
L 18.3125 0 
L 43.21875 64.59375 
L 8.203125 64.59375 
z
" id="BitstreamVeraSans-Roman-37"/>
    </defs>
    <g transform="translate(207.735873924 361.359456429)scale(0.12 -0.12)">
     <use xlink:href="#BitstreamVeraSans-Roman-30"/>
     <use x="63.623046875" xlink:href="#BitstreamVeraSans-Roman-2e"/>
     <use x="95.41015625" xlink:href="#BitstreamVeraSans-Roman-30"/>
     <use x="159.033203125" xlink:href="#BitstreamVeraSans-Roman-31"/>
     <use x="222.65625" xlink:href="#BitstreamVeraSans-Roman-34"/>
     <use x="286.279296875" xlink:href="#BitstreamVeraSans-Roman-37"/>
     <use x="349.90234375" xlink:href="#BitstreamVeraSans-Roman-20"/>
     <use x="381.689453125" xlink:href="#BitstreamVeraSans-Roman-73"/>
    </g>
   </g>
   <g id="text_19">
    <!-- 0.0324 s -->
    <g transform="translate(382.725524512 336.774882857)scale(0.12 -0.12)">
     <use xlink:href="#BitstreamVeraSans-Roman-30"/>
     <use x="63.623046875" xlink:href="#BitstreamVeraSans-Roman-2e"/>
     <use x="95.41015625" xlink:href="#BitstreamVeraSans-Roman-30"/>
     <use x="159.033203125" xlink:href="#BitstreamVeraSans-Roman-33"/>
     <use x="222.65625" xlink:href="#BitstreamVeraSans-Roman-32"/>
     <use x="286.279296875" xlink:href="#BitstreamVeraSans-Roman-34"/>
     <use x="349.90234375" xlink:href="#BitstreamVeraSans-Roman-20"/>
     <use x="381.689453125" xlink:href="#BitstreamVeraSans-Roman-73"/>
    </g>
   </g>
   <g id="text_20">
    <!-- 0.0382 s -->
    <g transform="translate(441.055408041 361.359456429)scale(0.12 -0.12)">
     <use xlink:href="#BitstreamVeraSans-Roman-30"/>
     <use x="63.623046875" xlink:href="#BitstreamVeraSans-Roman-2e"/>
     <use x="95.41015625" xlink:href="#BitstreamVeraSans-Roman-30"/>
     <use x="159.033203125" xlink:href="#BitstreamVeraSans-Roman-33"/>
     <use x="222.65625" xlink:href="#BitstreamVeraSans-Roman-38"/>
     <use x="286.279296875" xlink:href="#BitstreamVeraSans-Roman-32"/>
     <use x="349.90234375" xlink:href="#BitstreamVeraSans-Roman-20"/>
     <use x="381.689453125" xlink:href="#BitstreamVeraSans-Roman-73"/>
    </g>
   </g>
  </g>
  <g id="text_21">
   <!-- Early Response for Cardoid Receiver Pointing Away From Source -->
   <defs>
    <path d="M 54.890625 33.015625 
L 54.890625 0 
L 45.90625 0 
L 45.90625 32.71875 
Q 45.90625 40.484375 42.875 44.328125 
Q 39.84375 48.1875 33.796875 48.1875 
Q 26.515625 48.1875 22.3125 43.546875 
Q 18.109375 38.921875 18.109375 30.90625 
L 18.109375 0 
L 9.078125 0 
L 9.078125 54.6875 
L 18.109375 54.6875 
L 18.109375 46.1875 
Q 21.34375 51.125 25.703125 53.5625 
Q 30.078125 56 35.796875 56 
Q 45.21875 56 50.046875 50.171875 
Q 54.890625 44.34375 54.890625 33.015625 
" id="BitstreamVeraSans-Roman-6e"/>
    <path d="M 30.609375 48.390625 
Q 23.390625 48.390625 19.1875 42.75 
Q 14.984375 37.109375 14.984375 27.296875 
Q 14.984375 17.484375 19.15625 11.84375 
Q 23.34375 6.203125 30.609375 6.203125 
Q 37.796875 6.203125 41.984375 11.859375 
Q 46.1875 17.53125 46.1875 27.296875 
Q 46.1875 37.015625 41.984375 42.703125 
Q 37.796875 48.390625 30.609375 48.390625 
M 30.609375 56 
Q 42.328125 56 49.015625 48.375 
Q 55.71875 40.765625 55.71875 27.296875 
Q 55.71875 13.875 49.015625 6.21875 
Q 42.328125 -1.421875 30.609375 -1.421875 
Q 18.84375 -1.421875 12.171875 6.21875 
Q 5.515625 13.875 5.515625 27.296875 
Q 5.515625 40.765625 12.171875 48.375 
Q 18.84375 56 30.609375 56 
" id="BitstreamVeraSans-Roman-6f"/>
    <path d="M 44.390625 34.1875 
Q 47.5625 33.109375 50.5625 29.59375 
Q 53.5625 26.078125 56.59375 19.921875 
L 66.609375 0 
L 56 0 
L 46.6875 18.703125 
Q 43.0625 26.03125 39.671875 28.421875 
Q 36.28125 30.8125 30.421875 30.8125 
L 19.671875 30.8125 
L 19.671875 0 
L 9.8125 0 
L 9.8125 72.90625 
L 32.078125 72.90625 
Q 44.578125 72.90625 50.734375 67.671875 
Q 56.890625 62.453125 56.890625 51.90625 
Q 56.890625 45.015625 53.6875 40.46875 
Q 50.484375 35.9375 44.390625 34.1875 
M 19.671875 64.796875 
L 19.671875 38.921875 
L 32.078125 38.921875 
Q 39.203125 38.921875 42.84375 42.21875 
Q 46.484375 45.515625 46.484375 51.90625 
Q 46.484375 58.296875 42.84375 61.546875 
Q 39.203125 64.796875 32.078125 64.796875 
z
" id="BitstreamVeraSans-Roman-52"/>
    <path d="M 19.671875 64.796875 
L 19.671875 37.40625 
L 32.078125 37.40625 
Q 38.96875 37.40625 42.71875 40.96875 
Q 46.484375 44.53125 46.484375 51.125 
Q 46.484375 57.671875 42.71875 61.234375 
Q 38.96875 64.796875 32.078125 64.796875 
z
M 9.8125 72.90625 
L 32.078125 72.90625 
Q 44.34375 72.90625 50.609375 67.359375 
Q 56.890625 61.8125 56.890625 51.125 
Q 56.890625 40.328125 50.609375 34.8125 
Q 44.34375 29.296875 32.078125 29.296875 
L 19.671875 29.296875 
L 19.671875 0 
L 9.8125 0 
z
" id="BitstreamVeraSans-Roman-50"/>
    <path d="M 9.8125 72.90625 
L 51.703125 72.90625 
L 51.703125 64.59375 
L 19.671875 64.59375 
L 19.671875 43.109375 
L 48.578125 43.109375 
L 48.578125 34.8125 
L 19.671875 34.8125 
L 19.671875 0 
L 9.8125 0 
z
" id="BitstreamVeraSans-Roman-46"/>
    <path d="M 9.8125 72.90625 
L 55.90625 72.90625 
L 55.90625 64.59375 
L 19.671875 64.59375 
L 19.671875 43.015625 
L 54.390625 43.015625 
L 54.390625 34.71875 
L 19.671875 34.71875 
L 19.671875 8.296875 
L 56.78125 8.296875 
L 56.78125 0 
L 9.8125 0 
z
" id="BitstreamVeraSans-Roman-45"/>
    <path d="M 53.515625 70.515625 
L 53.515625 60.890625 
Q 47.90625 63.578125 42.921875 64.890625 
Q 37.9375 66.21875 33.296875 66.21875 
Q 25.25 66.21875 20.875 63.09375 
Q 16.5 59.96875 16.5 54.203125 
Q 16.5 49.359375 19.40625 46.890625 
Q 22.3125 44.4375 30.421875 42.921875 
L 36.375 41.703125 
Q 47.40625 39.59375 52.65625 34.296875 
Q 57.90625 29 57.90625 20.125 
Q 57.90625 9.515625 50.796875 4.046875 
Q 43.703125 -1.421875 29.984375 -1.421875 
Q 24.8125 -1.421875 18.96875 -0.25 
Q 13.140625 0.921875 6.890625 3.21875 
L 6.890625 13.375 
Q 12.890625 10.015625 18.65625 8.296875 
Q 24.421875 6.59375 29.984375 6.59375 
Q 38.421875 6.59375 43.015625 9.90625 
Q 47.609375 13.234375 47.609375 19.390625 
Q 47.609375 24.75 44.3125 27.78125 
Q 41.015625 30.8125 33.5 32.328125 
L 27.484375 33.5 
Q 16.453125 35.6875 11.515625 40.375 
Q 6.59375 45.0625 6.59375 53.421875 
Q 6.59375 63.09375 13.40625 68.65625 
Q 20.21875 74.21875 32.171875 74.21875 
Q 37.3125 74.21875 42.625 73.28125 
Q 47.953125 72.359375 53.515625 70.515625 
" id="BitstreamVeraSans-Roman-53"/>
    <path d="M 64.40625 67.28125 
L 64.40625 56.890625 
Q 59.421875 61.53125 53.78125 63.8125 
Q 48.140625 66.109375 41.796875 66.109375 
Q 29.296875 66.109375 22.65625 58.46875 
Q 16.015625 50.828125 16.015625 36.375 
Q 16.015625 21.96875 22.65625 14.328125 
Q 29.296875 6.6875 41.796875 6.6875 
Q 48.140625 6.6875 53.78125 8.984375 
Q 59.421875 11.28125 64.40625 15.921875 
L 64.40625 5.609375 
Q 59.234375 2.09375 53.4375 0.328125 
Q 47.65625 -1.421875 41.21875 -1.421875 
Q 24.65625 -1.421875 15.125 8.703125 
Q 5.609375 18.84375 5.609375 36.375 
Q 5.609375 53.953125 15.125 64.078125 
Q 24.65625 74.21875 41.21875 74.21875 
Q 47.75 74.21875 53.53125 72.484375 
Q 59.328125 70.75 64.40625 67.28125 
" id="BitstreamVeraSans-Roman-43"/>
    <path d="M 34.1875 63.1875 
L 20.796875 26.90625 
L 47.609375 26.90625 
z
M 28.609375 72.90625 
L 39.796875 72.90625 
L 67.578125 0 
L 57.328125 0 
L 50.6875 18.703125 
L 17.828125 18.703125 
L 11.1875 0 
L 0.78125 0 
z
" id="BitstreamVeraSans-Roman-41"/>
    <path d="M 32.171875 -5.078125 
Q 28.375 -14.84375 24.75 -17.8125 
Q 21.140625 -20.796875 15.09375 -20.796875 
L 7.90625 -20.796875 
L 7.90625 -13.28125 
L 13.1875 -13.28125 
Q 16.890625 -13.28125 18.9375 -11.515625 
Q 21 -9.765625 23.484375 -3.21875 
L 25.09375 0.875 
L 2.984375 54.6875 
L 12.5 54.6875 
L 29.59375 11.921875 
L 46.6875 54.6875 
L 56.203125 54.6875 
z
" id="BitstreamVeraSans-Roman-79"/>
    <path d="M 2.984375 54.6875 
L 12.5 54.6875 
L 29.59375 8.796875 
L 46.6875 54.6875 
L 56.203125 54.6875 
L 35.6875 0 
L 23.484375 0 
z
" id="BitstreamVeraSans-Roman-76"/>
    <path d="M 4.203125 54.6875 
L 13.1875 54.6875 
L 24.421875 12.015625 
L 35.59375 54.6875 
L 46.1875 54.6875 
L 57.421875 12.015625 
L 68.609375 54.6875 
L 77.59375 54.6875 
L 63.28125 0 
L 52.6875 0 
L 40.921875 44.828125 
L 29.109375 0 
L 18.5 0 
z
" id="BitstreamVeraSans-Roman-77"/>
    <path d="M 45.40625 27.984375 
Q 45.40625 37.75 41.375 43.109375 
Q 37.359375 48.484375 30.078125 48.484375 
Q 22.859375 48.484375 18.828125 43.109375 
Q 14.796875 37.75 14.796875 27.984375 
Q 14.796875 18.265625 18.828125 12.890625 
Q 22.859375 7.515625 30.078125 7.515625 
Q 37.359375 7.515625 41.375 12.890625 
Q 45.40625 18.265625 45.40625 27.984375 
M 54.390625 6.78125 
Q 54.390625 -7.171875 48.1875 -13.984375 
Q 42 -20.796875 29.203125 -20.796875 
Q 24.46875 -20.796875 20.265625 -20.09375 
Q 16.0625 -19.390625 12.109375 -17.921875 
L 12.109375 -9.1875 
Q 16.0625 -11.328125 19.921875 -12.34375 
Q 23.78125 -13.375 27.78125 -13.375 
Q 36.625 -13.375 41.015625 -8.765625 
Q 45.40625 -4.15625 45.40625 5.171875 
L 45.40625 9.625 
Q 42.625 4.78125 38.28125 2.390625 
Q 33.9375 0 27.875 0 
Q 17.828125 0 11.671875 7.65625 
Q 5.515625 15.328125 5.515625 27.984375 
Q 5.515625 40.671875 11.671875 48.328125 
Q 17.828125 56 27.875 56 
Q 33.9375 56 38.28125 53.609375 
Q 42.625 51.21875 45.40625 46.390625 
L 45.40625 54.6875 
L 54.390625 54.6875 
z
" id="BitstreamVeraSans-Roman-67"/>
    <path d="M 37.109375 75.984375 
L 37.109375 68.5 
L 28.515625 68.5 
Q 23.6875 68.5 21.796875 66.546875 
Q 19.921875 64.59375 19.921875 59.515625 
L 19.921875 54.6875 
L 34.71875 54.6875 
L 34.71875 47.703125 
L 19.921875 47.703125 
L 19.921875 0 
L 10.890625 0 
L 10.890625 47.703125 
L 2.296875 47.703125 
L 2.296875 54.6875 
L 10.890625 54.6875 
L 10.890625 58.5 
Q 10.890625 67.625 15.140625 71.796875 
Q 19.390625 75.984375 28.609375 75.984375 
z
" id="BitstreamVeraSans-Roman-66"/>
    <path d="M 41.109375 46.296875 
Q 39.59375 47.171875 37.8125 47.578125 
Q 36.03125 48 33.890625 48 
Q 26.265625 48 22.1875 43.046875 
Q 18.109375 38.09375 18.109375 28.8125 
L 18.109375 0 
L 9.078125 0 
L 9.078125 54.6875 
L 18.109375 54.6875 
L 18.109375 46.1875 
Q 20.953125 51.171875 25.484375 53.578125 
Q 30.03125 56 36.53125 56 
Q 37.453125 56 38.578125 55.875 
Q 39.703125 55.765625 41.0625 55.515625 
z
" id="BitstreamVeraSans-Roman-72"/>
    <path d="M 48.78125 52.59375 
L 48.78125 44.1875 
Q 44.96875 46.296875 41.140625 47.34375 
Q 37.3125 48.390625 33.40625 48.390625 
Q 24.65625 48.390625 19.8125 42.84375 
Q 14.984375 37.3125 14.984375 27.296875 
Q 14.984375 17.28125 19.8125 11.734375 
Q 24.65625 6.203125 33.40625 6.203125 
Q 37.3125 6.203125 41.140625 7.25 
Q 44.96875 8.296875 48.78125 10.40625 
L 48.78125 2.09375 
Q 45.015625 0.34375 40.984375 -0.53125 
Q 36.96875 -1.421875 32.421875 -1.421875 
Q 20.0625 -1.421875 12.78125 6.34375 
Q 5.515625 14.109375 5.515625 27.296875 
Q 5.515625 40.671875 12.859375 48.328125 
Q 20.21875 56 33.015625 56 
Q 37.15625 56 41.109375 55.140625 
Q 45.0625 54.296875 48.78125 52.59375 
" id="BitstreamVeraSans-Roman-63"/>
   </defs>
   <g transform="translate(94.1300725 16.318125)scale(0.12 -0.12)">
    <use xlink:href="#BitstreamVeraSans-Roman-45"/>
    <use x="63.18359375" xlink:href="#BitstreamVeraSans-Roman-61"/>
    <use x="124.462890625" xlink:href="#BitstreamVeraSans-Roman-72"/>
    <use x="165.576171875" xlink:href="#BitstreamVeraSans-Roman-6c"/>
    <use x="193.359375" xlink:href="#BitstreamVeraSans-Roman-79"/>
    <use x="252.5390625" xlink:href="#BitstreamVeraSans-Roman-20"/>
    <use x="284.326171875" xlink:href="#BitstreamVeraSans-Roman-52"/>
    <use x="353.74609375" xlink:href="#BitstreamVeraSans-Roman-65"/>
    <use x="415.26953125" xlink:href="#BitstreamVeraSans-Roman-73"/>
    <use x="467.369140625" xlink:href="#BitstreamVeraSans-Roman-70"/>
    <use x="530.845703125" xlink:href="#BitstreamVeraSans-Roman-6f"/>
    <use x="592.02734375" xlink:href="#BitstreamVeraSans-Roman-6e"/>
    <use x="655.40625" xlink:href="#BitstreamVeraSans-Roman-73"/>
    <use x="707.505859375" xlink:href="#BitstreamVeraSans-Roman-65"/>
    <use x="769.029296875" xlink:href="#BitstreamVeraSans-Roman-20"/>
    <use x="800.81640625" xlink:href="#BitstreamVeraSans-Roman-66"/>
    <use x="836.021484375" xlink:href="#BitstreamVeraSans-Roman-6f"/>
    <use x="897.203125" xlink:href="#BitstreamVeraSans-Roman-72"/>
    <use x="938.31640625" xlink:href="#BitstreamVeraSans-Roman-20"/>
    <use x="970.103515625" xlink:href="#BitstreamVeraSans-Roman-43"/>
    <use x="1039.92773438" xlink:href="#BitstreamVeraSans-Roman-61"/>
    <use x="1101.20703125" xlink:href="#BitstreamVeraSans-Roman-72"/>
    <use x="1142.3046875" xlink:href="#BitstreamVeraSans-Roman-64"/>
    <use x="1205.78125" xlink:href="#BitstreamVeraSans-Roman-6f"/>
    <use x="1266.96289062" xlink:href="#BitstreamVeraSans-Roman-69"/>
    <use x="1294.74609375" xlink:href="#BitstreamVeraSans-Roman-64"/>
    <use x="1358.22265625" xlink:href="#BitstreamVeraSans-Roman-20"/>
    <use x="1390.00976562" xlink:href="#BitstreamVeraSans-Roman-52"/>
    <use x="1459.4296875" xlink:href="#BitstreamVeraSans-Roman-65"/>
    <use x="1520.953125" xlink:href="#BitstreamVeraSans-Roman-63"/>
    <use x="1575.93359375" xlink:href="#BitstreamVeraSans-Roman-65"/>
    <use x="1637.45703125" xlink:href="#BitstreamVeraSans-Roman-69"/>
    <use x="1665.24023438" xlink:href="#BitstreamVeraSans-Roman-76"/>
    <use x="1724.41992188" xlink:href="#BitstreamVeraSans-Roman-65"/>
    <use x="1785.94335938" xlink:href="#BitstreamVeraSans-Roman-72"/>
    <use x="1827.05664062" xlink:href="#BitstreamVeraSans-Roman-20"/>
    <use x="1858.84375" xlink:href="#BitstreamVeraSans-Roman-50"/>
    <use x="1919.09960938" xlink:href="#BitstreamVeraSans-Roman-6f"/>
    <use x="1980.28125" xlink:href="#BitstreamVeraSans-Roman-69"/>
    <use x="2008.06445312" xlink:href="#BitstreamVeraSans-Roman-6e"/>
    <use x="2071.44335938" xlink:href="#BitstreamVeraSans-Roman-74"/>
    <use x="2110.65234375" xlink:href="#BitstreamVeraSans-Roman-69"/>
    <use x="2138.43554688" xlink:href="#BitstreamVeraSans-Roman-6e"/>
    <use x="2201.81445312" xlink:href="#BitstreamVeraSans-Roman-67"/>
    <use x="2265.29101562" xlink:href="#BitstreamVeraSans-Roman-20"/>
    <use x="2297.078125" xlink:href="#BitstreamVeraSans-Roman-41"/>
    <use x="2365.42382812" xlink:href="#BitstreamVeraSans-Roman-77"/>
    <use x="2447.2109375" xlink:href="#BitstreamVeraSans-Roman-61"/>
    <use x="2508.49023438" xlink:href="#BitstreamVeraSans-Roman-79"/>
    <use x="2567.66992188" xlink:href="#BitstreamVeraSans-Roman-20"/>
    <use x="2599.45703125" xlink:href="#BitstreamVeraSans-Roman-46"/>
    <use x="2656.8671875" xlink:href="#BitstreamVeraSans-Roman-72"/>
    <use x="2697.94921875" xlink:href="#BitstreamVeraSans-Roman-6f"/>
    <use x="2759.13085938" xlink:href="#BitstreamVeraSans-Roman-6d"/>
    <use x="2856.54296875" xlink:href="#BitstreamVeraSans-Roman-20"/>
    <use x="2888.33007812" xlink:href="#BitstreamVeraSans-Roman-53"/>
    <use x="2951.80664062" xlink:href="#BitstreamVeraSans-Roman-6f"/>
    <use x="3012.98828125" xlink:href="#BitstreamVeraSans-Roman-75"/>
    <use x="3076.3671875" xlink:href="#BitstreamVeraSans-Roman-72"/>
    <use x="3117.44921875" xlink:href="#BitstreamVeraSans-Roman-63"/>
    <use x="3172.4296875" xlink:href="#BitstreamVeraSans-Roman-65"/>
   </g>
  </g>
 </g>
 <defs>
  <clipPath id="pea9326c2c8">
   <rect height="344.18403" width="495.80401" x="56.953125" y="41.76"/>
  </clipPath>
 </defs>
</svg>
