<?xml version="1.0" standalone="yes"?>

<svg version="1.1" viewBox="0.0 0.0 229.58267716535434 138.23097112860893" fill="none" stroke="none" stroke-linecap="square" stroke-miterlimit="10" xmlns="http://www.w3.org/2000/svg" xmlns:xlink="http://www.w3.org/1999/xlink"><clipPath id="p.0"><path d="m0 0l229.58267 0l0 138.23097l-229.58267 0l0 -138.23097z" clip-rule="nonzero"></path></clipPath><g clip-path="url(#p.0)"><path fill="#000000" fill-opacity="0.0" d="m0 0l229.58267 0l0 138.23097l-229.58267 0z" fill-rule="nonzero"></path><path fill="#cccccc" d="m131.06683 97.81068l0 0c1.5650024 2.6729736 2.7785034 5.536751 3.6104126 8.520363l-34.677246 9.668961z" fill-rule="nonzero"></path><path fill="#000000" fill-opacity="0.0" d="m4.0 116.0l212.0 0" fill-rule="nonzero"></path><path stroke="#000000" stroke-width="1.0" stroke-linejoin="round" stroke-linecap="butt" d="m4.0 116.0l212.0 0" fill-rule="nonzero"></path><path fill="#000000" fill-opacity="0.0" d="m60.0 24.0l40.0 92.0" fill-rule="nonzero"></path><path stroke="#000000" stroke-width="1.0" stroke-linejoin="round" stroke-linecap="butt" d="m60.0 24.0l37.607643 86.49758" fill-rule="evenodd"></path><path fill="#000000" stroke="#000000" stroke-width="1.0" stroke-linecap="butt" d="m96.09289 111.156166l3.3242111 3.5031662l-0.29470062 -4.820343z" fill-rule="evenodd"></path><path fill="#000000" fill-opacity="0.0" d="m148.0 76.0l0 0c0 -11.045692 8.9543 -20.0 20.0 -20.0l0 0c5.3043365 0 10.391403 2.1071358 14.142136 5.8578644c3.7507324 3.7507248 5.8578644 8.837807 5.8578644 14.142136l0 0c0 11.045692 -8.9543 20.0 -20.0 20.0l0 0c-11.0457 0 -20.0 -8.954308 -20.0 -20.0z" fill-rule="nonzero"></path><path stroke="#000000" stroke-width="1.0" stroke-linejoin="round" stroke-linecap="butt" d="m148.0 76.0l0 0c0 -11.045692 8.9543 -20.0 20.0 -20.0l0 0c5.3043365 0 10.391403 2.1071358 14.142136 5.8578644c3.7507324 3.7507248 5.8578644 8.837807 5.8578644 14.142136l0 0c0 11.045692 -8.9543 20.0 -20.0 20.0l0 0c-11.0457 0 -20.0 -8.954308 -20.0 -20.0z" fill-rule="nonzero"></path><path fill="#000000" fill-opacity="0.0" d="m168.0 76.0l-14.141739 -14.141731" fill-rule="nonzero"></path><path stroke="#000000" stroke-width="1.0" stroke-linejoin="round" stroke-linecap="butt" d="m168.0 76.0l-14.141739 -14.141731" fill-rule="nonzero"></path><path fill="#000000" fill-opacity="0.0" d="m148.40024 67.65021l5.669281 -5.6692924l5.6692963 5.6692924l-5.6692963 5.6692886z" fill-rule="nonzero"></path><path stroke="#000000" stroke-width="1.0" stroke-linejoin="round" stroke-linecap="butt" d="m148.40024 67.65021l5.669281 -5.6692924l5.6692963 5.6692924l-5.6692963 5.6692886z" fill-rule="nonzero"></path><path fill="#000000" fill-opacity="0.0" d="m100.0 116.0l75.18111 -21.196854" fill-rule="nonzero"></path><path stroke="#000000" stroke-width="1.0" stroke-linejoin="round" stroke-linecap="butt" d="m100.0 116.0l75.18111 -21.196854" fill-rule="nonzero"></path><path fill="#000000" fill-opacity="0.0" d="m163.59933 89.66232l7.7165375 -2.0787354l2.0787354 7.71653l-7.7165375 2.078743z" fill-rule="nonzero"></path><path stroke="#000000" stroke-width="1.0" stroke-linejoin="round" stroke-linecap="butt" d="m163.59933 89.66232l7.7165375 -2.0787354l2.0787354 7.71653l-7.7165375 2.078743z" fill-rule="nonzero"></path><path fill="#000000" fill-opacity="0.0" d="m168.00877 75.97729l4.346466 15.464561" fill-rule="nonzero"></path><path stroke="#000000" stroke-width="1.0" stroke-linejoin="round" stroke-linecap="butt" d="m168.00877 75.97729l4.346466 15.464561" fill-rule="nonzero"></path><path fill="#000000" fill-opacity="0.0" d="m61.824146 8.0l76.37796 0l0 20.0l-76.37796 0z" fill-rule="nonzero"></path><path fill="#000000" d="m69.4473 19.569374l0.78125 -0.125q0.0625 0.46875 0.359375 0.71875q0.3125 0.25 0.84375 0.25q0.546875 0 0.8125 -0.21875q0.265625 -0.21875 0.265625 -0.515625q0 -0.28125 -0.234375 -0.421875q-0.171875 -0.109375 -0.8125 -0.28125q-0.875 -0.21875 -1.21875 -0.375q-0.328125 -0.15625 -0.5 -0.4375q-0.171875 -0.28125 -0.171875 -0.625q0 -0.3125 0.140625 -0.578125q0.140625 -0.265625 0.390625 -0.453125q0.1875 -0.125 0.5 -0.21875q0.328125 -0.09375 0.6875 -0.09375q0.546875 0 0.953125 0.15625q0.421875 0.15625 0.625 0.421875q0.203125 0.265625 0.28125 0.71875l-0.78125 0.109375q-0.046875 -0.359375 -0.3125 -0.5625q-0.25 -0.203125 -0.703125 -0.203125q-0.546875 0 -0.78125 0.1875q-0.234375 0.171875 -0.234375 0.421875q0 0.15625 0.09375 0.265625q0.09375 0.140625 0.3125 0.21875q0.109375 0.046875 0.6875 0.203125q0.84375 0.21875 1.171875 0.359375q0.34375 0.140625 0.53125 0.421875q0.1875 0.265625 0.1875 0.671875q0 0.40625 -0.234375 0.75q-0.234375 0.34375 -0.671875 0.546875q-0.421875 0.1875 -0.984375 0.1875q-0.90625 0 -1.390625 -0.375q-0.46875 -0.390625 -0.59375 -1.125zm8.0390625 1.390625l0 -0.6875q-0.546875 0.796875 -1.484375 0.796875q-0.40625 0 -0.765625 -0.15625q-0.359375 -0.171875 -0.546875 -0.40625q-0.171875 -0.234375 -0.234375 -0.578125q-0.046875 -0.234375 -0.046875 -0.75l0 -2.890625l0.78125 0l0 2.59375q0 0.625 0.0625 0.828125q0.0625 0.3125 0.296875 0.5q0.25 0.171875 0.609375 0.171875q0.359375 0 0.671875 -0.171875q0.3125 -0.1875 0.4375 -0.5q0.125 -0.3125 0.125 -0.921875l0 -2.5l0.796875 0l0 4.671875l-0.703125 0zm2.1097412 0l0 -4.671875l0.71875 0l0 0.71875q0.265625 -0.5 0.5 -0.65625q0.234375 -0.15625 0.515625 -0.15625q0.390625 0 0.8125 0.25l-0.28125 0.734375q-0.28125 -0.171875 -0.578125 -0.171875q-0.25 0 -0.46875 0.15625q-0.203125 0.15625 -0.296875 0.4375q-0.125 0.421875 -0.125 0.921875l0 2.4375l-0.796875 0zm3.3094635 0l0 -4.046875l-0.703125 0l0 -0.625l0.703125 0l0 -0.484375q0 -0.484375 0.078125 -0.703125q0.125 -0.3125 0.40625 -0.5q0.296875 -0.1875 0.8125 -0.1875q0.328125 0 0.734375 0.078125l-0.125 0.6875q-0.234375 -0.046875 -0.453125 -0.046875q-0.359375 0 -0.515625 0.15625q-0.15625 0.15625 -0.15625 0.578125l0 0.421875l0.921875 0l0 0.625l-0.921875 0l0 4.046875l-0.78125 0zm5.4510345 -0.578125q-0.4375 0.375 -0.84375 0.53125q-0.40625 0.15625 -0.875 0.15625q-0.765625 0 -1.1875 -0.375q-0.40625 -0.375 -0.40625 -0.96875q0 -0.34375 0.15625 -0.625q0.15625 -0.28125 0.40625 -0.453125q0.25 -0.171875 0.5625 -0.265625q0.234375 -0.046875 0.703125 -0.109375q0.96875 -0.109375 1.421875 -0.28125q0 -0.15625 0 -0.203125q0 -0.484375 -0.21875 -0.671875q-0.3125 -0.28125 -0.90625 -0.28125q-0.5625 0 -0.828125 0.203125q-0.265625 0.1875 -0.390625 0.6875l-0.765625 -0.09375q0.09375 -0.5 0.328125 -0.796875q0.25 -0.3125 0.703125 -0.46875q0.46875 -0.171875 1.0625 -0.171875q0.609375 0 0.96875 0.140625q0.375 0.140625 0.546875 0.359375q0.1875 0.203125 0.25 0.53125q0.046875 0.203125 0.046875 0.71875l0 1.0625q0 1.09375 0.046875 1.390625q0.046875 0.296875 0.203125 0.5625l-0.828125 0q-0.125 -0.25 -0.15625 -0.578125zm-0.0625 -1.765625q-0.4375 0.171875 -1.296875 0.296875q-0.484375 0.078125 -0.6875 0.171875q-0.203125 0.078125 -0.3125 0.25q-0.109375 0.171875 -0.109375 0.375q0 0.3125 0.234375 0.53125q0.234375 0.203125 0.703125 0.203125q0.453125 0 0.8125 -0.203125q0.359375 -0.203125 0.53125 -0.546875q0.125 -0.265625 0.125 -0.78125l0 -0.296875zm5.250366 0.640625l0.78125 0.09375q-0.125 0.8125 -0.65625 1.265625q-0.53125 0.453125 -1.296875 0.453125q-0.953125 0 -1.53125 -0.625q-0.578125 -0.625 -0.578125 -1.796875q0 -0.765625 0.25 -1.328125q0.25 -0.5625 0.75 -0.84375q0.515625 -0.28125 1.125 -0.28125q0.75 0 1.234375 0.390625q0.484375 0.375 0.625 1.078125l-0.765625 0.125q-0.109375 -0.46875 -0.390625 -0.703125q-0.28125 -0.25 -0.671875 -0.25q-0.609375 0 -0.984375 0.4375q-0.359375 0.421875 -0.359375 1.34375q0 0.953125 0.359375 1.375q0.359375 0.421875 0.9375 0.421875q0.46875 0 0.78125 -0.28125q0.3125 -0.28125 0.390625 -0.875zm4.8046875 0.203125l0.828125 0.09375q-0.203125 0.71875 -0.734375 1.125q-0.515625 0.390625 -1.328125 0.390625q-1.015625 0 -1.625 -0.625q-0.59375 -0.640625 -0.59375 -1.78125q0 -1.171875 0.609375 -1.8125q0.609375 -0.65625 1.578125 -0.65625q0.9375 0 1.515625 0.640625q0.59375 0.625 0.59375 1.78125q0 0.078125 0 0.21875l-3.484375 0q0.046875 0.765625 0.4375 1.171875q0.390625 0.40625 0.984375 0.40625q0.4375 0 0.734375 -0.21875q0.3125 -0.234375 0.484375 -0.734375zm-2.59375 -1.28125l2.609375 0q-0.046875 -0.59375 -0.296875 -0.890625q-0.375 -0.453125 -0.984375 -0.453125q-0.546875 0 -0.921875 0.375q-0.359375 0.359375 -0.40625 0.96875zm7.1857758 2.78125l0 -4.671875l0.71875 0l0 0.671875q0.5 -0.765625 1.484375 -0.765625q0.421875 0 0.765625 0.15625q0.359375 0.140625 0.53125 0.390625q0.171875 0.234375 0.25 0.578125q0.046875 0.21875 0.046875 0.765625l0 2.875l-0.796875 0l0 -2.84375q0 -0.484375 -0.09375 -0.71875q-0.09375 -0.234375 -0.328125 -0.375q-0.234375 -0.15625 -0.546875 -0.15625q-0.5 0 -0.875 0.328125q-0.359375 0.3125 -0.359375 1.21875l0 2.546875l-0.796875 0zm4.890991 -2.328125q0 -1.296875 0.71875 -1.921875q0.609375 -0.515625 1.46875 -0.515625q0.96875 0 1.578125 0.625q0.609375 0.625 0.609375 1.734375q0 0.90625 -0.28125 1.421875q-0.265625 0.515625 -0.78125 0.8125q-0.515625 0.28125 -1.125 0.28125q-0.984375 0 -1.59375 -0.625q-0.59375 -0.640625 -0.59375 -1.8125zm0.8125 0q0 0.890625 0.390625 1.34375q0.390625 0.4375 0.984375 0.4375q0.59375 0 0.984375 -0.4375q0.390625 -0.453125 0.390625 -1.375q0 -0.859375 -0.390625 -1.3125q-0.390625 -0.453125 -0.984375 -0.453125q-0.59375 0 -0.984375 0.453125q-0.390625 0.4375 -0.390625 1.34375zm4.656616 2.328125l0 -4.671875l0.71875 0l0 0.71875q0.265625 -0.5 0.5 -0.65625q0.234375 -0.15625 0.515625 -0.15625q0.390625 0 0.8125 0.25l-0.28125 0.734375q-0.28125 -0.171875 -0.578125 -0.171875q-0.25 0 -0.46875 0.15625q-0.203125 0.15625 -0.296875 0.4375q-0.125 0.421875 -0.125 0.921875l0 2.4375l-0.796875 0zm3.1219635 0l0 -4.671875l0.703125 0l0 0.65625q0.21875 -0.34375 0.578125 -0.546875q0.375 -0.203125 0.84375 -0.203125q0.515625 0 0.84375 0.21875q0.328125 0.203125 0.46875 0.59375q0.5625 -0.8125 1.4375 -0.8125q0.703125 0 1.078125 0.390625q0.375 0.375 0.375 1.171875l0 3.203125l-0.796875 0l0 -2.9375q0 -0.484375 -0.078125 -0.6875q-0.0625 -0.203125 -0.265625 -0.328125q-0.203125 -0.140625 -0.484375 -0.140625q-0.484375 0 -0.8125 0.328125q-0.328125 0.328125 -0.328125 1.046875l0 2.71875l-0.796875 0l0 -3.03125q0 -0.53125 -0.1875 -0.796875q-0.1875 -0.265625 -0.625 -0.265625q-0.34375 0 -0.625 0.1875q-0.28125 0.171875 -0.40625 0.515625q-0.125 0.328125 -0.125 0.96875l0 2.421875l-0.796875 0zm10.817276 -0.578125q-0.4375 0.375 -0.84375 0.53125q-0.40625 0.15625 -0.875 0.15625q-0.765625 0 -1.1875 -0.375q-0.40625 -0.375 -0.40625 -0.96875q0 -0.34375 0.15625 -0.625q0.15625 -0.28125 0.40625 -0.453125q0.25 -0.171875 0.5625 -0.265625q0.234375 -0.046875 0.703125 -0.109375q0.96875 -0.109375 1.421875 -0.28125q0 -0.15625 0 -0.203125q0 -0.484375 -0.21875 -0.671875q-0.3125 -0.28125 -0.90625 -0.28125q-0.5625 0 -0.828125 0.203125q-0.265625 0.1875 -0.390625 0.6875l-0.765625 -0.09375q0.09375 -0.5 0.328125 -0.796875q0.25 -0.3125 0.703125 -0.46875q0.46875 -0.171875 1.0625 -0.171875q0.609375 0 0.96875 0.140625q0.375 0.140625 0.546875 0.359375q0.1875 0.203125 0.25 0.53125q0.046875 0.203125 0.046875 0.71875l0 1.0625q0 1.09375 0.04686737 1.390625q0.046875 0.296875 0.203125 0.5625l-0.8281174 0q-0.125 -0.25 -0.15625 -0.578125zm-0.0625 -1.765625q-0.4375 0.171875 -1.296875 0.296875q-0.484375 0.078125 -0.6875 0.171875q-0.203125 0.078125 -0.3125 0.25q-0.109375 0.171875 -0.109375 0.375q0 0.3125 0.234375 0.53125q0.234375 0.203125 0.703125 0.203125q0.453125 0 0.8125 -0.203125q0.359375 -0.203125 0.53125 -0.546875q0.125 -0.265625 0.125 -0.78125l0 -0.296875zm2.1878586 2.34375l0 -6.4375l0.78125 0l0 6.4375l-0.78125 0z" fill-rule="nonzero"></path><path fill="#000000" fill-opacity="0.0" d="m24.0 28.0l48.0 0l0 20.0l-48.0 0z" fill-rule="nonzero"></path><path fill="#000000" d="m32.51774 35.42875l0 -0.90625l0.796875 0l0 0.90625l-0.796875 0zm0 5.53125l0 -4.671875l0.796875 0l0 4.671875l-0.796875 0zm2.0724182 0l0 -4.671875l0.71875 0l0 0.671875q0.5 -0.765625 1.484375 -0.765625q0.421875 0 0.765625 0.15625q0.359375 0.140625 0.53125 0.390625q0.171875 0.234375 0.25 0.578125q0.046875 0.21875 0.046875 0.765625l0 2.875l-0.796875 0l0 -2.84375q0 -0.484375 -0.09375 -0.71875q-0.09375 -0.234375 -0.328125 -0.375q-0.234375 -0.15625 -0.546875 -0.15625q-0.5 0 -0.875 0.328125q-0.359375 0.3125 -0.359375 1.21875l0 2.546875l-0.796875 0zm8.234741 -1.703125l0.78125 0.09375q-0.125 0.8125 -0.65625 1.265625q-0.53125 0.453125 -1.296875 0.453125q-0.953125 0 -1.53125 -0.625q-0.578125 -0.625 -0.578125 -1.796875q0 -0.765625 0.25 -1.328125q0.25 -0.5625 0.75 -0.84375q0.515625 -0.28125 1.125 -0.28125q0.75 0 1.234375 0.390625q0.484375 0.375 0.625 1.078125l-0.765625 0.125q-0.109375 -0.46875 -0.390625 -0.703125q-0.28125 -0.25 -0.671875 -0.25q-0.609375 0 -0.984375 0.4375q-0.359375 0.421875 -0.359375 1.34375q0 0.953125 0.359375 1.375q0.359375 0.421875 0.9375 0.421875q0.46875 0 0.78125 -0.28125q0.3125 -0.28125 0.390625 -0.875zm1.6171875 -3.828125l0 -0.90625l0.796875 0l0 0.90625l-0.796875 0zm0 5.53125l0 -4.671875l0.796875 0l0 4.671875l-0.796875 0zm5.103668 0l0 -0.59375q-0.453125 0.703125 -1.3125 0.703125q-0.546875 0 -1.015625 -0.3125q-0.46875 -0.3125 -0.734375 -0.859375q-0.25 -0.546875 -0.25 -1.265625q0 -0.703125 0.234375 -1.265625q0.234375 -0.578125 0.6875 -0.875q0.46875 -0.296875 1.046875 -0.296875q0.421875 0 0.75 0.171875q0.328125 0.171875 0.53125 0.46875l0 -2.3125l0.796875 0l0 6.4375l-0.734375 0zm-2.5 -2.328125q0 0.890625 0.375 1.34375q0.375 0.4375 0.890625 0.4375q0.515625 0 0.875 -0.421875q0.375 -0.421875 0.375 -1.296875q0 -0.953125 -0.375 -1.40625q-0.375 -0.453125 -0.90625 -0.453125q-0.53125 0 -0.890625 0.4375q-0.34375 0.4375 -0.34375 1.359375zm7.844116 0.828125l0.828125 0.09375q-0.203125 0.71875 -0.734375 1.125q-0.515625 0.390625 -1.328125 0.390625q-1.015625 0 -1.625 -0.625q-0.59375 -0.640625 -0.59375 -1.78125q0 -1.171875 0.609375 -1.8125q0.609375 -0.65625 1.578125 -0.65625q0.9375 0 1.515625 0.640625q0.59375 0.625 0.59375 1.78125q0 0.078125 0 0.21875l-3.484375 0q0.046875 0.765625 0.4375 1.171875q0.390625 0.40625 0.984375 0.40625q0.4375 0 0.734375 -0.21875q0.3125 -0.234375 0.484375 -0.734375zm-2.59375 -1.28125l2.609375 0q-0.046875 -0.59375 -0.296875 -0.890625q-0.375 -0.453125 -0.984375 -0.453125q-0.546875 0 -0.921875 0.375q-0.359375 0.359375 -0.40625 0.96875zm4.594116 2.78125l0 -4.671875l0.71875 0l0 0.671875q0.5 -0.765625 1.484375 -0.765625q0.421875 0 0.765625 0.15625q0.359375 0.140625 0.53125 0.390625q0.171875 0.234375 0.25 0.578125q0.046875 0.21875 0.046875 0.765625l0 2.875l-0.796875 0l0 -2.84375q0 -0.484375 -0.09375 -0.71875q-0.09375 -0.234375 -0.328125 -0.375q-0.234375 -0.15625 -0.546875 -0.15625q-0.5 0 -0.875 0.328125q-0.359375 0.3125 -0.359375 1.21875l0 2.546875l-0.796875 0zm6.922241 -0.703125l0.109375 0.6875q-0.34375 0.078125 -0.59375 0.078125q-0.4375 0 -0.671875 -0.140625q-0.234375 -0.140625 -0.34375 -0.359375q-0.09375 -0.21875 -0.09375 -0.921875l0 -2.6875l-0.578125 0l0 -0.625l0.578125 0l0 -1.15625l0.796875 -0.46875l0 1.625l0.796875 0l0 0.625l-0.796875 0l0 2.71875q0 0.34375 0.03125 0.4375q0.046875 0.09375 0.140625 0.15625q0.09375 0.0625 0.265625 0.0625q0.140625 0 0.359375 -0.03125z" fill-rule="nonzero"></path><path fill="#000000" d="m32.50895 51.96l0 -4.671875l0.71875 0l0 0.71875q0.265625 -0.5 0.5 -0.65625q0.234375 -0.15625 0.515625 -0.15625q0.390625 0 0.8125 0.25l-0.28125 0.734375q-0.28125 -0.171875 -0.578125 -0.171875q-0.25 0 -0.46875 0.15625q-0.203125 0.15625 -0.296875 0.4375q-0.125 0.421875 -0.125 0.921875l0 2.4375l-0.796875 0zm6.1688385 -0.578125q-0.4375 0.375 -0.84375 0.53125q-0.40625 0.15625 -0.875 0.15625q-0.765625 0 -1.1875 -0.375q-0.40625 -0.375 -0.40625 -0.96875q0 -0.34375 0.15625 -0.625q0.15625 -0.28125 0.40625 -0.453125q0.25 -0.171875 0.5625 -0.265625q0.234375 -0.046875 0.703125 -0.109375q0.96875 -0.109375 1.421875 -0.28125q0 -0.15625 0 -0.203125q0 -0.484375 -0.21875 -0.671875q-0.3125 -0.28125 -0.90625 -0.28125q-0.5625 0 -0.828125 0.203125q-0.265625 0.1875 -0.390625 0.6875l-0.765625 -0.09375q0.09375 -0.5 0.328125 -0.796875q0.25 -0.3125 0.703125 -0.46875q0.46875 -0.171875 1.0625 -0.171875q0.609375 0 0.96875 0.140625q0.375 0.140625 0.546875 0.359375q0.1875 0.203125 0.25 0.53125q0.046875 0.203125 0.046875 0.71875l0 1.0625q0 1.09375 0.046875 1.390625q0.046875 0.296875 0.203125 0.5625l-0.828125 0q-0.125 -0.25 -0.15625 -0.578125zm-0.0625 -1.765625q-0.4375 0.171875 -1.296875 0.296875q-0.484375 0.078125 -0.6875 0.171875q-0.203125 0.078125 -0.3125 0.25q-0.109375 0.171875 -0.109375 0.375q0 0.3125 0.234375 0.53125q0.234375 0.203125 0.703125 0.203125q0.453125 0 0.8125 -0.203125q0.359375 -0.203125 0.53125 -0.546875q0.125 -0.265625 0.125 -0.78125l0 -0.296875zm2.1722412 4.140625l-0.09375 -0.734375q0.265625 0.0625 0.453125 0.0625q0.265625 0 0.421875 -0.09375q0.15625 -0.078125 0.265625 -0.234375q0.0625 -0.125 0.234375 -0.59375q0.03125 -0.0625 0.078125 -0.1875l-1.78125 -4.6875l0.859375 0l0.96875 2.703125q0.1875 0.515625 0.34375 1.078125q0.125 -0.53125 0.3125 -1.0625l1.0 -2.71875l0.796875 0l-1.78125 4.75q-0.28125 0.765625 -0.4375 1.0625q-0.21875 0.390625 -0.484375 0.5625q-0.265625 0.1875 -0.65625 0.1875q-0.21875 0 -0.5 -0.09375zm8.146347 -1.796875l-1.421875 -4.671875l0.8125 0l0.75 2.703125l0.265625 1.0q0.015625 -0.078125 0.25 -0.96875l0.734375 -2.734375l0.8125 0l0.703125 2.71875l0.234375 0.890625l0.265625 -0.90625l0.796875 -2.703125l0.765625 0l-1.453125 4.671875l-0.8125 0l-0.75 -2.796875l-0.1875 -0.796875l-0.9375 3.59375l-0.828125 0zm5.8771057 -5.53125l0 -0.90625l0.796875 0l0 0.90625l-0.796875 0zm0 5.53125l0 -4.671875l0.796875 0l0 4.671875l-0.796875 0zm3.8067932 -0.703125l0.109375 0.6875q-0.34375 0.078125 -0.59375 0.078125q-0.4375 0 -0.671875 -0.140625q-0.234375 -0.140625 -0.34375 -0.359375q-0.09375 -0.21875 -0.09375 -0.921875l0 -2.6875l-0.578125 0l0 -0.625l0.578125 0l0 -1.15625l0.796875 -0.46875l0 1.625l0.796875 0l0 0.625l-0.796875 0l0 2.71875q0 0.34375 0.03125 0.4375q0.046875 0.09375 0.140625 0.15625q0.09375 0.0625 0.265625 0.0625q0.140625 0 0.359375 -0.03125zm0.85728455 0.703125l0 -6.4375l0.796875 0l0 2.3125q0.546875 -0.640625 1.390625 -0.640625q0.515625 0 0.890625 0.203125q0.390625 0.203125 0.546875 0.5625q0.171875 0.359375 0.171875 1.046875l0 2.953125l-0.78125 0l0 -2.953125q0 -0.59375 -0.265625 -0.859375q-0.25 -0.28125 -0.71875 -0.28125q-0.359375 0 -0.671875 0.1875q-0.3125 0.171875 -0.4375 0.484375q-0.125 0.3125 -0.125 0.875l0 2.546875l-0.796875 0z" fill-rule="nonzero"></path><path fill="#000000" d="m31.48381 57.42875l0 -0.90625l0.796875 0l0 0.90625l-0.796875 0zm0 5.53125l0 -4.671875l0.796875 0l0 4.671875l-0.796875 0zm2.0724182 0l0 -4.671875l0.71875 0l0 0.671875q0.5 -0.765625 1.484375 -0.765625q0.421875 0 0.765625 0.15625q0.359375 0.140625 0.53125 0.390625q0.171875 0.234375 0.25 0.578125q0.046875 0.21875 0.046875 0.765625l0 2.875l-0.796875 0l0 -2.84375q0 -0.484375 -0.09375 -0.71875q-0.09375 -0.234375 -0.328125 -0.375q-0.234375 -0.15625 -0.546875 -0.15625q-0.5 0 -0.875 0.328125q-0.359375 0.3125 -0.359375 1.21875l0 2.546875l-0.796875 0zm6.922241 -0.703125l0.109375 0.6875q-0.34375 0.078125 -0.59375 0.078125q-0.4375 0 -0.671875 -0.140625q-0.234375 -0.140625 -0.34375 -0.359375q-0.09375 -0.21875 -0.09375 -0.921875l0 -2.6875l-0.578125 0l0 -0.625l0.578125 0l0 -1.15625l0.796875 -0.46875l0 1.625l0.796875 0l0 0.625l-0.796875 0l0 2.71875q0 0.34375 0.03125 0.4375q0.046875 0.09375 0.140625 0.15625q0.09375 0.0625 0.265625 0.0625q0.140625 0 0.359375 -0.03125zm4.0447845 -0.796875l0.828125 0.09375q-0.203125 0.71875 -0.734375 1.125q-0.515625 0.390625 -1.328125 0.390625q-1.015625 0 -1.625 -0.625q-0.59375 -0.640625 -0.59375 -1.78125q0 -1.171875 0.609375 -1.8125q0.609375 -0.65625 1.578125 -0.65625q0.9375 0 1.515625 0.640625q0.59375 0.625 0.59375 1.78125q0 0.078125 0 0.21875l-3.484375 0q0.046875 0.765625 0.4375 1.171875q0.390625 0.40625 0.984375 0.40625q0.4375 0 0.734375 -0.21875q0.3125 -0.234375 0.484375 -0.734375zm-2.59375 -1.28125l2.609375 0q-0.046875 -0.59375 -0.296875 -0.890625q-0.375 -0.453125 -0.984375 -0.453125q-0.546875 0 -0.921875 0.375q-0.359375 0.359375 -0.40625 0.96875zm4.594116 2.78125l0 -4.671875l0.71875 0l0 0.671875q0.5 -0.765625 1.484375 -0.765625q0.421875 0 0.765625 0.15625q0.359375 0.140625 0.53125 0.390625q0.171875 0.234375 0.25 0.578125q0.046875 0.21875 0.046875 0.765625l0 2.875l-0.796875 0l0 -2.84375q0 -0.484375 -0.09375 -0.71875q-0.09375 -0.234375 -0.328125 -0.375q-0.234375 -0.15625 -0.546875 -0.15625q-0.5 0 -0.875 0.328125q-0.359375 0.3125 -0.359375 1.21875l0 2.546875l-0.796875 0zm4.875366 -1.390625l0.78125 -0.125q0.0625 0.46875 0.359375 0.71875q0.3125 0.25 0.84375 0.25q0.546875 0 0.8125 -0.21875q0.265625 -0.21875 0.265625 -0.515625q0 -0.28125 -0.234375 -0.421875q-0.171875 -0.109375 -0.8125 -0.28125q-0.875 -0.21875 -1.21875 -0.375q-0.328125 -0.15625 -0.5 -0.4375q-0.171875 -0.28125 -0.171875 -0.625q0 -0.3125 0.140625 -0.578125q0.140625 -0.265625 0.390625 -0.453125q0.1875 -0.125 0.5 -0.21875q0.328125 -0.09375 0.6875 -0.09375q0.546875 0 0.953125 0.15625q0.421875 0.15625 0.625 0.421875q0.203125 0.265625 0.28125 0.71875l-0.78125 0.109375q-0.046875 -0.359375 -0.3125 -0.5625q-0.25 -0.203125 -0.703125 -0.203125q-0.546875 0 -0.78125 0.1875q-0.234375 0.171875 -0.234375 0.421875q0 0.15625 0.09375 0.265625q0.09375 0.140625 0.3125 0.21875q0.109375 0.046875 0.6875 0.203125q0.84375 0.21875 1.171875 0.359375q0.34375 0.140625 0.53125 0.421875q0.1875 0.265625 0.1875 0.671875q0 0.40625 -0.234375 0.75q-0.234375 0.34375 -0.671875 0.546875q-0.421875 0.1875 -0.984375 0.1875q-0.90625 0 -1.390625 -0.375q-0.46875 -0.390625 -0.59375 -1.125zm4.9765625 -4.140625l0 -0.90625l0.796875 0l0 0.90625l-0.796875 0zm0 5.53125l0 -4.671875l0.796875 0l0 4.671875l-0.796875 0zm3.8067932 -0.703125l0.109375 0.6875q-0.34375 0.078125 -0.59375 0.078125q-0.4375 0 -0.671875 -0.140625q-0.234375 -0.140625 -0.34375 -0.359375q-0.09375 -0.21875 -0.09375 -0.921875l0 -2.6875l-0.578125 0l0 -0.625l0.578125 0l0 -1.15625l0.796875 -0.46875l0 1.625l0.796875 0l0 0.625l-0.796875 0l0 2.71875q0 0.34375 0.03125 0.4375q0.046875 0.09375 0.140625 0.15625q0.09375 0.0625 0.265625 0.0625q0.140625 0 0.359375 -0.03125zm0.82603455 2.5l-0.09375 -0.734375q0.265625 0.0625 0.453125 0.0625q0.265625 0 0.421875 -0.09375q0.15625 -0.078125 0.265625 -0.234375q0.0625 -0.125 0.234375 -0.59375q0.03125 -0.0625 0.078125 -0.1875l-1.78125 -4.6875l0.859375 0l0.96875 2.703125q0.1875 0.515625 0.34375 1.078125q0.125 -0.53125 0.3125 -1.0625l1.0 -2.71875l0.796875 0l-1.78125 4.75q-0.28125 0.765625 -0.4375 1.0625q-0.21875 0.390625 -0.484375 0.5625q-0.265625 0.1875 -0.65625 0.1875q-0.21875 0 -0.5 -0.09375z" fill-rule="nonzero"></path><path fill="#000000" d="m34.890697 73.96l0 -6.4375l4.65625 0l0 0.75l-3.8125 0l0 1.984375l3.5625 0l0 0.75l-3.5625 0l0 2.1875l3.953125 0l0 0.765625l-4.796875 0z" fill-rule="nonzero"></path><path fill="#000000" d="m40.799984 73.7725l0 -0.609375l0.515625 0l0 0.609375l-0.515625 0zm0 3.6875l0 -3.109375l0.515625 0l0 3.109375l-0.515625 0zm1.365963 0l0 -3.109375l0.484375 0l0 0.4375q0.34375 -0.515625 0.984375 -0.515625q0.28125 0 0.515625 0.109375q0.234375 0.09375 0.34375 0.265625q0.125 0.15625 0.171875 0.390625q0.03125 0.140625 0.03125 0.515625l0 1.90625l-0.53125 0l0 -1.890625q0 -0.328125 -0.0625 -0.484375q-0.046875 -0.15625 -0.21875 -0.25q-0.15625 -0.09375 -0.359375 -0.09375q-0.34375 0 -0.59375 0.21875q-0.234375 0.203125 -0.234375 0.796875l0 1.703125l-0.53125 0zm5.489769 -1.140625l0.515625 0.0625q-0.078125 0.546875 -0.4375 0.859375q-0.34375 0.296875 -0.84375 0.296875q-0.640625 0 -1.03125 -0.421875q-0.390625 -0.421875 -0.390625 -1.203125q0 -0.5 0.15625 -0.875q0.171875 -0.375 0.515625 -0.5625q0.34375 -0.203125 0.75 -0.203125q0.5 0 0.8125 0.265625q0.328125 0.25 0.421875 0.71875l-0.515625 0.078125q-0.0625 -0.3125 -0.25 -0.46875q-0.1875 -0.15625 -0.453125 -0.15625q-0.390625 0 -0.640625 0.296875q-0.25 0.28125 -0.25 0.890625q0 0.625 0.234375 0.921875q0.234375 0.28125 0.625 0.28125q0.3125 0 0.515625 -0.1875q0.21875 -0.203125 0.265625 -0.59375zm1.0937004 -2.546875l0 -0.609375l0.515625 0l0 0.609375l-0.515625 0zm0 3.6875l0 -3.109375l0.515625 0l0 3.109375l-0.515625 0zm3.397213 0l0 -0.390625q-0.296875 0.46875 -0.875 0.46875q-0.375 0 -0.6875 -0.203125q-0.3125 -0.21875 -0.484375 -0.578125q-0.171875 -0.375 -0.171875 -0.84375q0 -0.46875 0.15625 -0.84375q0.15625 -0.390625 0.46875 -0.59375q0.3125 -0.203125 0.6875 -0.203125q0.28125 0 0.5 0.125q0.21875 0.125 0.359375 0.3125l0 -1.546875l0.53125 0l0 4.296875l-0.484375 0zm-1.671875 -1.546875q0 0.59375 0.25 0.890625q0.25 0.296875 0.59375 0.296875q0.34375 0 0.578125 -0.28125q0.25 -0.28125 0.25 -0.875q0 -0.625 -0.25 -0.921875q-0.234375 -0.3125 -0.59375 -0.3125q-0.359375 0 -0.59375 0.296875q-0.234375 0.28125 -0.234375 0.90625zm5.239769 0.546875l0.546875 0.0625q-0.140625 0.484375 -0.484375 0.75q-0.34375 0.265625 -0.890625 0.265625q-0.6875 0 -1.09375 -0.421875q-0.390625 -0.421875 -0.390625 -1.1875q0 -0.78125 0.40625 -1.21875q0.40625 -0.4375 1.046875 -0.4375q0.625 0 1.015625 0.4375q0.40625 0.421875 0.40625 1.1875q0 0.046875 -0.015625 0.140625l-2.3125 0q0.03125 0.515625 0.28125 0.796875q0.265625 0.265625 0.65625 0.265625q0.296875 0 0.5 -0.15625q0.203125 -0.15625 0.328125 -0.484375zm-1.734375 -0.859375l1.734375 0q-0.03125 -0.390625 -0.203125 -0.578125q-0.25 -0.3125 -0.65625 -0.3125q-0.359375 0 -0.609375 0.25q-0.234375 0.234375 -0.265625 0.640625zm3.052269 1.859375l0 -3.109375l0.484375 0l0 0.4375q0.34375 -0.515625 0.984375 -0.515625q0.28125 0 0.515625 0.109375q0.234375 0.09375 0.34375 0.265625q0.125 0.15625 0.171875 0.390625q0.03125 0.140625 0.03125 0.515625l0 1.90625l-0.53125 0l0 -1.890625q0 -0.328125 -0.0625 -0.484375q-0.046875 -0.15625 -0.21875 -0.25q-0.15625 -0.09375 -0.359375 -0.09375q-0.34375 0 -0.59375 0.21875q-0.234375 0.203125 -0.234375 0.796875l0 1.703125l-0.53125 0zm4.614769 -0.46875l0.078125 0.46875q-0.21875 0.046875 -0.40625 0.046875q-0.28125 0 -0.4375 -0.09375q-0.15625 -0.09375 -0.21875 -0.234375q-0.0625 -0.15625 -0.0625 -0.625l0 -1.796875l-0.390625 0l0 -0.40625l0.390625 0l0 -0.765625l0.515625 -0.328125l0 1.09375l0.53125 0l0 0.40625l-0.53125 0l0 1.828125q0 0.21875 0.03125 0.28125q0.03125 0.0625 0.09375 0.109375q0.0625 0.03125 0.171875 0.03125q0.09375 0 0.234375 -0.015625z" fill-rule="nonzero"></path><path fill="#000000" fill-opacity="0.0" d="m180.0 56.0l56.0 0l0 20.0l-56.0 0z" fill-rule="nonzero"></path><path fill="#000000" d="m189.61588 67.569374l0.78125 -0.125q0.0625 0.46875 0.359375 0.71875q0.3125 0.25 0.84375 0.25q0.546875 0 0.8125 -0.21875q0.265625 -0.21875 0.265625 -0.515625q0 -0.28125 -0.234375 -0.421875q-0.171875 -0.109375 -0.8125 -0.28125q-0.875 -0.21875 -1.21875 -0.375q-0.328125 -0.15625 -0.5 -0.4375q-0.171875 -0.28125 -0.171875 -0.625q0 -0.3125 0.140625 -0.578125q0.140625 -0.265625 0.390625 -0.453125q0.1875 -0.125 0.5 -0.21875q0.328125 -0.09375 0.6875 -0.09375q0.546875 0 0.953125 0.15625q0.421875 0.15625 0.625 0.421875q0.203125 0.265625 0.28125 0.71875l-0.78125 0.109375q-0.046875 -0.359375 -0.3125 -0.5625q-0.25 -0.203125 -0.703125 -0.203125q-0.546875 0 -0.78125 0.1875q-0.234375 0.171875 -0.234375 0.421875q0 0.15625 0.09375 0.265625q0.09375 0.140625 0.3125 0.21875q0.109375 0.046875 0.6875 0.203125q0.84375 0.21875 1.171875 0.359375q0.34375 0.140625 0.53125 0.421875q0.1875 0.265625 0.1875 0.671875q0 0.40625 -0.234375 0.75q-0.234375 0.34375 -0.671875 0.546875q-0.421875 0.1875 -0.984375 0.1875q-0.90625 0 -1.390625 -0.375q-0.46875 -0.390625 -0.59375 -1.125zm4.9765625 3.171875l0 -6.453125l0.71875 0l0 0.609375q0.25 -0.359375 0.5625 -0.53125q0.328125 -0.171875 0.796875 -0.171875q0.59375 0 1.046875 0.3125q0.453125 0.296875 0.6875 0.859375q0.234375 0.5625 0.234375 1.21875q0 0.71875 -0.265625 1.296875q-0.25 0.578125 -0.734375 0.890625q-0.484375 0.296875 -1.03125 0.296875q-0.390625 0 -0.703125 -0.171875q-0.3125 -0.171875 -0.515625 -0.421875l0 2.265625l-0.796875 0zm0.71875 -4.09375q0 0.90625 0.359375 1.34375q0.375 0.421875 0.890625 0.421875q0.515625 0 0.890625 -0.4375q0.390625 -0.453125 0.390625 -1.390625q0 -0.890625 -0.375 -1.328125q-0.359375 -0.453125 -0.875 -0.453125q-0.5 0 -0.890625 0.484375q-0.390625 0.46875 -0.390625 1.359375zm4.469116 2.3125l0 -6.4375l0.796875 0l0 2.3125q0.546875 -0.640625 1.390625 -0.640625q0.515625 0 0.890625 0.203125q0.390625 0.203125 0.546875 0.5625q0.171875 0.359375 0.171875 1.046875l0 2.953125l-0.78125 0l0 -2.953125q0 -0.59375 -0.265625 -0.859375q-0.25 -0.28125 -0.71875 -0.28125q-0.359375 0 -0.671875 0.1875q-0.3125 0.171875 -0.4375 0.484375q-0.125 0.3125 -0.125 0.875l0 2.546875l-0.796875 0zm8.375366 -1.5l0.828125 0.09375q-0.203125 0.71875 -0.734375 1.125q-0.515625 0.390625 -1.328125 0.390625q-1.015625 0 -1.625 -0.625q-0.59375 -0.640625 -0.59375 -1.78125q0 -1.171875 0.609375 -1.8125q0.609375 -0.65625 1.578125 -0.65625q0.9375 0 1.515625 0.640625q0.59375 0.625 0.59375 1.78125q0 0.078125 0 0.21875l-3.484375 0q0.046875 0.765625 0.4375 1.171875q0.390625 0.40625 0.984375 0.40625q0.4375 0 0.734375 -0.21875q0.3125 -0.234375 0.484375 -0.734375zm-2.59375 -1.28125l2.609375 0q-0.046875 -0.59375 -0.296875 -0.890625q-0.375 -0.453125 -0.984375 -0.453125q-0.546875 0 -0.921875 0.375q-0.359375 0.359375 -0.40625 0.96875zm4.578491 2.78125l0 -4.671875l0.71875 0l0 0.71875q0.265625 -0.5 0.5 -0.65625q0.234375 -0.15625 0.515625 -0.15625q0.390625 0 0.8125 0.25l-0.28125 0.734375q-0.28125 -0.171875 -0.578125 -0.171875q-0.25 0 -0.46875 0.15625q-0.203125 0.15625 -0.296875 0.4375q-0.125 0.421875 -0.125 0.921875l0 2.4375l-0.796875 0zm3.1219482 -5.53125l0 -0.90625l0.796875 0l0 0.90625l-0.796875 0zm0 5.53125l0 -4.671875l0.796875 0l0 4.671875l-0.796875 0zm5.119293 -1.703125l0.78125 0.09375q-0.125 0.8125 -0.65625 1.265625q-0.53125 0.453125 -1.296875 0.453125q-0.953125 0 -1.53125 -0.625q-0.578125 -0.625 -0.578125 -1.796875q0 -0.765625 0.25 -1.328125q0.25 -0.5625 0.75 -0.84375q0.515625 -0.28125 1.125 -0.28125q0.75 0 1.234375 0.390625q0.484375 0.375 0.625 1.078125l-0.765625 0.125q-0.109375 -0.46875 -0.390625 -0.703125q-0.28125 -0.25 -0.671875 -0.25q-0.609375 0 -0.984375 0.4375q-0.359375 0.421875 -0.359375 1.34375q0 0.953125 0.359375 1.375q0.359375 0.421875 0.9375 0.421875q0.46875 0 0.78125 -0.28125q0.3125 -0.28125 0.390625 -0.875zm4.6640625 1.125q-0.4375 0.375 -0.84375 0.53125q-0.40625 0.15625 -0.875 0.15625q-0.765625 0 -1.1875 -0.375q-0.40625 -0.375 -0.40625 -0.96875q0 -0.34375 0.15625 -0.625q0.15625 -0.28125 0.40625 -0.453125q0.25 -0.171875 0.5625 -0.265625q0.234375 -0.046875 0.703125 -0.109375q0.96875 -0.109375 1.421875 -0.28125q0 -0.15625 0 -0.203125q0 -0.484375 -0.21875 -0.671875q-0.3125 -0.28125 -0.90625 -0.28125q-0.5625 0 -0.828125 0.203125q-0.265625 0.1875 -0.390625 0.6875l-0.765625 -0.09375q0.09375 -0.5 0.328125 -0.796875q0.25 -0.3125 0.703125 -0.46875q0.46875 -0.171875 1.0625 -0.171875q0.609375 0 0.96875 0.140625q0.375 0.140625 0.546875 0.359375q0.1875 0.203125 0.25 0.53125q0.046875 0.203125 0.046875 0.71875l0 1.0625q0 1.09375 0.046875 1.390625q0.046875 0.296875 0.203125 0.5625l-0.828125 0q-0.125 -0.25 -0.15625 -0.578125zm-0.0625 -1.765625q-0.4375 0.171875 -1.296875 0.296875q-0.484375 0.078125 -0.6875 0.171875q-0.203125 0.078125 -0.3125 0.25q-0.109375 0.171875 -0.109375 0.375q0 0.3125 0.234375 0.53125q0.234375 0.203125 0.703125 0.203125q0.453125 0 0.8125 -0.203125q0.359375 -0.203125 0.53125 -0.546875q0.125 -0.265625 0.125 -0.78125l0 -0.296875zm2.1878662 2.34375l0 -6.4375l0.78125 0l0 6.4375l-0.78125 0z" fill-rule="nonzero"></path><path fill="#000000" d="m191.98972 79.96l0 -4.671875l0.71875 0l0 0.71875q0.265625 -0.5 0.5 -0.65625q0.234375 -0.15625 0.515625 -0.15625q0.390625 0 0.8125 0.25l-0.28125 0.734375q-0.28125 -0.171875 -0.578125 -0.171875q-0.25 0 -0.46875 0.15625q-0.203125 0.15625 -0.296875 0.4375q-0.125 0.421875 -0.125 0.921875l0 2.4375l-0.796875 0zm6.3094635 -1.5l0.828125 0.09375q-0.203125 0.71875 -0.734375 1.125q-0.515625 0.390625 -1.328125 0.390625q-1.015625 0 -1.625 -0.625q-0.59375 -0.640625 -0.59375 -1.78125q0 -1.171875 0.609375 -1.8125q0.609375 -0.65625 1.578125 -0.65625q0.9375 0 1.515625 0.640625q0.59375 0.625 0.59375 1.78125q0 0.078125 0 0.21875l-3.484375 0q0.046875 0.765625 0.4375 1.171875q0.390625 0.40625 0.984375 0.40625q0.4375 0 0.734375 -0.21875q0.3125 -0.234375 0.484375 -0.734375zm-2.59375 -1.28125l2.609375 0q-0.046875 -0.59375 -0.296875 -0.890625q-0.375 -0.453125 -0.984375 -0.453125q-0.546875 0 -0.921875 0.375q-0.359375 0.359375 -0.40625 0.96875zm7.640991 1.078125l0.78125 0.09375q-0.125 0.8125 -0.65625 1.265625q-0.53125 0.453125 -1.296875 0.453125q-0.953125 0 -1.53125 -0.625q-0.578125 -0.625 -0.578125 -1.796875q0 -0.765625 0.25 -1.328125q0.25 -0.5625 0.75 -0.84375q0.515625 -0.28125 1.125 -0.28125q0.75 0 1.234375 0.390625q0.484375 0.375 0.625 1.078125l-0.765625 0.125q-0.109375 -0.46875 -0.390625 -0.703125q-0.28125 -0.25 -0.671875 -0.25q-0.609375 0 -0.984375 0.4375q-0.359375 0.421875 -0.359375 1.34375q0 0.953125 0.359375 1.375q0.359375 0.421875 0.9375 0.421875q0.46875 0 0.78125 -0.28125q0.3125 -0.28125 0.390625 -0.875zm4.8046875 0.203125l0.828125 0.09375q-0.203125 0.71875 -0.734375 1.125q-0.515625 0.390625 -1.328125 0.390625q-1.015625 0 -1.625 -0.625q-0.59375 -0.640625 -0.59375 -1.78125q0 -1.171875 0.609375 -1.8125q0.609375 -0.65625 1.578125 -0.65625q0.9375 0 1.515625 0.640625q0.59375 0.625 0.59375 1.78125q0 0.078125 0 0.21875l-3.484375 0q0.046875 0.765625 0.4375 1.171875q0.390625 0.40625 0.984375 0.40625q0.4375 0 0.734375 -0.21875q0.3125 -0.234375 0.484375 -0.734375zm-2.59375 -1.28125l2.609375 0q-0.046875 -0.59375 -0.296875 -0.890625q-0.375 -0.453125 -0.984375 -0.453125q-0.546875 0 -0.921875 0.375q-0.359375 0.359375 -0.40625 0.96875zm4.594116 -2.75l0 -0.90625l0.796875 0l0 0.90625l-0.796875 0zm0 5.53125l0 -4.671875l0.796875 0l0 4.671875l-0.796875 0zm3.3692932 0l-1.78125 -4.671875l0.84375 0l1.0 2.796875q0.15625 0.453125 0.296875 0.9375q0.109375 -0.359375 0.296875 -0.875l1.03125 -2.859375l0.8125 0l-1.765625 4.671875l-0.734375 0zm6.5546875 -1.5l0.828125 0.09375q-0.203125 0.71875 -0.734375 1.125q-0.515625 0.390625 -1.328125 0.390625q-1.015625 0 -1.625 -0.625q-0.59375 -0.640625 -0.59375 -1.78125q0 -1.171875 0.609375 -1.8125q0.609375 -0.65625 1.578125 -0.65625q0.9375 0 1.515625 0.640625q0.59375 0.625 0.59375 1.78125q0 0.078125 0 0.21875l-3.484375 0q0.046875 0.765625 0.4375 1.171875q0.390625 0.40625 0.984375 0.40625q0.4375 0 0.734375 -0.21875q0.3125 -0.234375 0.484375 -0.734375zm-2.59375 -1.28125l2.609375 0q-0.046875 -0.59375 -0.296875 -0.890625q-0.375 -0.453125 -0.984375 -0.453125q-0.546875 0 -0.921875 0.375q-0.359375 0.359375 -0.40625 0.96875zm4.578491 2.78125l0 -4.671875l0.71875 0l0 0.71875q0.265625 -0.5 0.5 -0.65625q0.234375 -0.15625 0.515625 -0.15625q0.390625 0 0.8125 0.25l-0.28125 0.734375q-0.28125 -0.171875 -0.578125 -0.171875q-0.25 0 -0.46875 0.15625q-0.203125 0.15625 -0.296875 0.4375q-0.125 0.421875 -0.125 0.921875l0 2.4375l-0.796875 0z" fill-rule="nonzero"></path><path fill="#000000" fill-opacity="0.0" d="m121.4005 90.71021l16.0 0l0 20.0l-16.0 0z" fill-rule="nonzero"></path><path fill="#000000" d="m130.33948 99.63896l0.890625 0l-1.75 3.703125q0.0625 0.59375 0.0625 1.03125q0 1.234375 -0.46875 1.234375q-0.328125 0 -0.328125 -0.515625q0 -0.671875 0.5 -1.6875q-0.109375 -0.640625 -0.28125 -1.53125q-0.171875 -0.890625 -0.359375 -1.28125q-0.171875 -0.390625 -0.515625 -0.390625q-0.5468826 0 -0.5937576 0.828125l-0.15625 0q0 -1.453125 0.8593826 -1.453125q0.5 0 0.734375 0.59375q0.25 0.59375 0.5 2.546875l0.90625 -3.078125z" fill-rule="nonzero"></path><path fill="#000000" fill-opacity="0.0" d="m144.0 92.0l8.0 32.0" fill-rule="nonzero"></path><path stroke="#000000" stroke-width="1.0" stroke-linejoin="round" stroke-linecap="butt" d="m144.0 92.0l8.0 32.0" fill-rule="nonzero"></path><path fill="#000000" fill-opacity="0.0" d="m106.29396 120.0l91.40158 0l0 20.0l-91.40158 0z" fill-rule="nonzero"></path><path fill="#000000" d="m113.13016 131.56937l0.78125 -0.125q0.0625 0.46875 0.359375 0.71875q0.3125 0.25 0.84375 0.25q0.546875 0 0.8125 -0.21875q0.265625 -0.21875 0.265625 -0.515625q0 -0.28125 -0.234375 -0.421875q-0.171875 -0.109375 -0.8125 -0.28125q-0.875 -0.21875 -1.21875 -0.375q-0.328125 -0.15625 -0.5 -0.4375q-0.171875 -0.28125 -0.171875 -0.625q0 -0.3125 0.140625 -0.578125q0.140625 -0.265625 0.390625 -0.453125q0.1875 -0.125 0.5 -0.21875q0.328125 -0.09375 0.6875 -0.09375q0.546875 0 0.953125 0.15625q0.421875 0.15625 0.625 0.421875q0.203125 0.265625 0.28125 0.71875l-0.78125 0.109375q-0.046875 -0.359375 -0.3125 -0.5625q-0.25 -0.203125 -0.703125 -0.203125q-0.546875 0 -0.78125 0.1875q-0.234375 0.171875 -0.234375 0.421875q0 0.15625 0.09375 0.265625q0.09375 0.140625 0.3125 0.21875q0.109375 0.046875 0.6875 0.203125q0.84375 0.21875 1.171875 0.359375q0.34375 0.140625 0.53125 0.421875q0.1875 0.265625 0.1875 0.671875q0 0.40625 -0.234375 0.75q-0.234375 0.34375 -0.671875 0.546875q-0.421875 0.1875 -0.984375 0.1875q-0.90625 0 -1.390625 -0.375q-0.46875 -0.390625 -0.59375 -1.125zm8.0234375 -0.3125l0.78125 0.09375q-0.125 0.8125 -0.65625 1.265625q-0.53125 0.453125 -1.296875 0.453125q-0.953125 0 -1.53125 -0.625q-0.578125 -0.625 -0.578125 -1.796875q0 -0.765625 0.25 -1.328125q0.25 -0.5625 0.75 -0.84375q0.515625 -0.28125 1.125 -0.28125q0.75 0 1.234375 0.390625q0.484375 0.375 0.625 1.078125l-0.765625 0.125q-0.109375 -0.46875 -0.390625 -0.703125q-0.28125 -0.25 -0.671875 -0.25q-0.609375 0 -0.984375 0.4375q-0.359375 0.421875 -0.359375 1.34375q0 0.953125 0.359375 1.375q0.359375 0.421875 0.9375 0.421875q0.46875 0 0.78125 -0.28125q0.3125 -0.28125 0.390625 -0.875zm4.6640625 1.125q-0.4375 0.375 -0.84375 0.53125q-0.40625 0.15625 -0.875 0.15625q-0.765625 0 -1.1875 -0.375q-0.40625 -0.375 -0.40625 -0.96875q0 -0.34375 0.15625 -0.625q0.15625 -0.28125 0.40625 -0.453125q0.25 -0.171875 0.5625 -0.265625q0.234375 -0.046875 0.703125 -0.109375q0.96875 -0.109375 1.421875 -0.28125q0 -0.15625 0 -0.203125q0 -0.484375 -0.21875 -0.671875q-0.3125 -0.28125 -0.90625 -0.28125q-0.5625 0 -0.828125 0.203125q-0.265625 0.1875 -0.390625 0.6875l-0.765625 -0.09375q0.09375 -0.5 0.328125 -0.796875q0.25 -0.3125 0.703125 -0.46875q0.46875 -0.171875 1.0625 -0.171875q0.609375 0 0.96875 0.140625q0.375 0.140625 0.546875 0.359375q0.1875 0.203125 0.25 0.53125q0.046875 0.203125 0.046875 0.71875l0 1.0625q0 1.09375 0.046875 1.390625q0.046875 0.296875 0.203125 0.5625l-0.828125 0q-0.125 -0.25 -0.15625 -0.578125zm-0.0625 -1.765625q-0.4375 0.171875 -1.296875 0.296875q-0.484375 0.078125 -0.6875 0.171875q-0.203125 0.078125 -0.3125 0.25q-0.109375 0.171875 -0.109375 0.375q0 0.3125 0.234375 0.53125q0.234375 0.203125 0.703125 0.203125q0.453125 0 0.8125 -0.203125q0.359375 -0.203125 0.53125 -0.546875q0.125 -0.265625 0.125 -0.78125l0 -0.296875zm3.9378662 1.640625l0.109375 0.6875q-0.34375 0.078125 -0.59375 0.078125q-0.4375 0 -0.671875 -0.140625q-0.234375 -0.140625 -0.34375 -0.359375q-0.09375 -0.21875 -0.09375 -0.921875l0 -2.6875l-0.578125 0l0 -0.625l0.578125 0l0 -1.1562424l0.796875 -0.46875l0 1.6249924l0.796875 0l0 0.625l-0.796875 0l0 2.71875q0 0.34375 0.03125 0.4375q0.046875 0.09375 0.140625 0.15625q0.09375 0.0625 0.265625 0.0625q0.140625 0 0.359375 -0.03125zm2.5916595 0l0.109375 0.6875q-0.34375 0.078125 -0.59375 0.078125q-0.4375 0 -0.671875 -0.140625q-0.234375 -0.140625 -0.34375 -0.359375q-0.09375 -0.21875 -0.09375 -0.921875l0 -2.6875l-0.578125 0l0 -0.625l0.578125 0l0 -1.1562424l0.796875 -0.46875l0 1.6249924l0.796875 0l0 0.625l-0.796875 0l0 2.71875q0 0.34375 0.03125 0.4375q0.046875 0.09375 0.140625 0.15625q0.09375 0.0625 0.265625 0.0625q0.140625 0 0.359375 -0.03125zm4.0447845 -0.796875l0.828125 0.09375q-0.203125 0.71875 -0.734375 1.125q-0.515625 0.390625 -1.328125 0.390625q-1.015625 0 -1.625 -0.625q-0.59375 -0.640625 -0.59375 -1.78125q0 -1.171875 0.609375 -1.8125q0.609375 -0.65625 1.578125 -0.65625q0.9375 0 1.515625 0.640625q0.59375 0.625 0.59375 1.78125q0 0.078125 0 0.21875l-3.484375 0q0.046875 0.765625 0.4375 1.171875q0.390625 0.40625 0.984375 0.40625q0.4375 0 0.734375 -0.21875q0.3125 -0.234375 0.484375 -0.734375zm-2.59375 -1.28125l2.609375 0q-0.046875 -0.59375 -0.296875 -0.890625q-0.375 -0.453125 -0.984375 -0.453125q-0.546875 0 -0.921875 0.375q-0.359375 0.359375 -0.40625 0.96875zm4.578491 2.78125l0 -4.671875l0.71875 0l0 0.71875q0.265625 -0.5 0.5 -0.65625q0.234375 -0.15625 0.515625 -0.15625q0.390625 0 0.8125 0.25l-0.28125 0.734375q-0.28125 -0.171875 -0.578125 -0.171875q-0.25 0 -0.46875 0.15625q-0.203125 0.15625 -0.296875 0.4375q-0.125 0.421875 -0.125 0.921875l0 2.4375l-0.796875 0zm3.1219635 -5.5312424l0 -0.90625l0.796875 0l0 0.90625l-0.796875 0zm0 5.5312424l0 -4.671875l0.796875 0l0 4.671875l-0.796875 0zm2.0724182 0l0 -4.671875l0.71875 0l0 0.671875q0.5 -0.765625 1.484375 -0.765625q0.421875 0 0.765625 0.15625q0.359375 0.140625 0.53125 0.390625q0.171875 0.234375 0.25 0.578125q0.046875 0.21875 0.046875 0.765625l0 2.875l-0.796875 0l0 -2.84375q0 -0.484375 -0.09375 -0.71875q-0.09375 -0.234375 -0.328125 -0.375q-0.234375 -0.15625 -0.546875 -0.15625q-0.5 0 -0.875 0.328125q-0.359375 0.3125 -0.359375 1.21875l0 2.546875l-0.796875 0zm5.047241 0.390625l0.765625 0.109375q0.046875 0.359375 0.265625 0.515625q0.296875 0.21875 0.8125 0.21875q0.546875 0 0.84375 -0.21875q0.296875 -0.21875 0.40625 -0.609375q0.0625 -0.25 0.046875 -1.015625q-0.515625 0.609375 -1.28125 0.609375q-0.96875 0 -1.5 -0.6875q-0.515625 -0.703125 -0.515625 -1.671875q0 -0.671875 0.234375 -1.234375q0.25 -0.5625 0.703125 -0.859375q0.453125 -0.3125 1.078125 -0.3125q0.828125 0 1.359375 0.65625l0 -0.5625l0.734375 0l0 4.03125q0 1.09375 -0.234375 1.546875q-0.21875 0.453125 -0.703125 0.71875q-0.46875 0.265625 -1.171875 0.265625q-0.84375 0 -1.359375 -0.375q-0.5 -0.375 -0.484375 -1.125zm0.65625 -2.8125q0 0.921875 0.359375 1.34375q0.359375 0.421875 0.90625 0.421875q0.546875 0 0.921875 -0.421875q0.375 -0.421875 0.375 -1.3125q0 -0.859375 -0.390625 -1.296875q-0.375 -0.4375 -0.90625 -0.4375q-0.53125 0 -0.90625 0.4375q-0.359375 0.421875 -0.359375 1.265625zm10.295151 2.421875l0 -0.59375q-0.453125 0.703125 -1.3125 0.703125q-0.546875 0 -1.015625 -0.3125q-0.46875 -0.3125 -0.734375 -0.859375q-0.25 -0.546875 -0.25 -1.265625q0 -0.703125 0.234375 -1.265625q0.234375 -0.578125 0.6875 -0.875q0.46875 -0.296875 1.046875 -0.296875q0.421875 0 0.75 0.171875q0.328125 0.171875 0.53125 0.46875l0 -2.3124924l0.796875 0l0 6.4374924l-0.734375 0zm-2.5 -2.328125q0 0.890625 0.375 1.34375q0.375 0.4375 0.890625 0.4375q0.515625 0 0.875 -0.421875q0.375 -0.421875 0.375 -1.296875q0 -0.953125 -0.375 -1.40625q-0.375 -0.453125 -0.90625 -0.453125q-0.53125 0 -0.890625 0.4375q-0.34375 0.4375 -0.34375 1.359375zm4.656616 -3.2031174l0 -0.90625l0.796875 0l0 0.90625l-0.796875 0zm0 5.5312424l0 -4.671875l0.796875 0l0 4.671875l-0.796875 0zm2.0567932 0l0 -4.671875l0.71875 0l0 0.71875q0.265625 -0.5 0.5 -0.65625q0.234375 -0.15625 0.515625 -0.15625q0.390625 0 0.8125 0.25l-0.28125 0.734375q-0.28125 -0.171875 -0.578125 -0.171875q-0.25 0 -0.46875 0.15625q-0.203125 0.15625 -0.296875 0.4375q-0.125 0.421875 -0.125 0.921875l0 2.4375l-0.796875 0zm6.3094635 -1.5l0.828125 0.09375q-0.203125 0.71875 -0.734375 1.125q-0.515625 0.390625 -1.328125 0.390625q-1.015625 0 -1.625 -0.625q-0.59375 -0.640625 -0.59375 -1.78125q0 -1.171875 0.609375 -1.8125q0.609375 -0.65625 1.578125 -0.65625q0.9375 0 1.515625 0.640625q0.59375 0.625 0.59375 1.78125q0 0.078125 0 0.21875l-3.484375 0q0.046875 0.765625 0.4375 1.171875q0.390625 0.40625 0.984375 0.40625q0.4375 0 0.734375 -0.21875q0.3125 -0.234375 0.484375 -0.734375zm-2.59375 -1.28125l2.609375 0q-0.046875 -0.59375 -0.296875 -0.890625q-0.375 -0.453125 -0.984375 -0.453125q-0.546875 0 -0.921875 0.375q-0.359375 0.359375 -0.40625 0.96875zm7.640991 1.078125l0.78125 0.09375q-0.125 0.8125 -0.65625 1.265625q-0.53125 0.453125 -1.296875 0.453125q-0.953125 0 -1.53125 -0.625q-0.578125 -0.625 -0.578125 -1.796875q0 -0.765625 0.25 -1.328125q0.25 -0.5625 0.75 -0.84375q0.515625 -0.28125 1.125 -0.28125q0.75 0 1.234375 0.390625q0.484375 0.375 0.625 1.078125l-0.765625 0.125q-0.109375 -0.46875 -0.390625 -0.703125q-0.28125 -0.25 -0.671875 -0.25q-0.609375 0 -0.984375 0.4375q-0.359375 0.421875 -0.359375 1.34375q0 0.953125 0.359375 1.375q0.359375 0.421875 0.9375 0.421875q0.46875 0 0.78125 -0.28125q0.3125 -0.28125 0.390625 -0.875zm3.3515625 1.0l0.109375 0.6875q-0.34375 0.078125 -0.59375 0.078125q-0.4375 0 -0.671875 -0.140625q-0.234375 -0.140625 -0.34375 -0.359375q-0.09375 -0.21875 -0.09375 -0.921875l0 -2.6875l-0.578125 0l0 -0.625l0.578125 0l0 -1.1562424l0.796875 -0.46875l0 1.6249924l0.796875 0l0 0.625l-0.796875 0l0 2.71875q0 0.34375 0.03125 0.4375q0.046875 0.09375 0.140625 0.15625q0.09375 0.0625 0.265625 0.0625q0.140625 0 0.359375 -0.03125zm0.85728455 -4.8281174l0 -0.90625l0.796875 0l0 0.90625l-0.796875 0zm0 5.5312424l0 -4.671875l0.796875 0l0 4.671875l-0.796875 0zm1.7755432 -2.328125q0 -1.296875 0.71875 -1.921875q0.609375 -0.515625 1.46875 -0.515625q0.96875 0 1.578125 0.625q0.609375 0.625 0.609375 1.734375q0 0.90625 -0.28125 1.421875q-0.265625 0.515625 -0.78125 0.8125q-0.515625 0.28125 -1.125 0.28125q-0.984375 0 -1.59375 -0.625q-0.59375 -0.640625 -0.59375 -1.8125zm0.8125 0q0 0.890625 0.390625 1.34375q0.390625 0.4375 0.984375 0.4375q0.59375 0 0.984375 -0.4375q0.390625 -0.453125 0.390625 -1.375q0 -0.859375 -0.390625 -1.3125q-0.390625 -0.453125 -0.984375 -0.453125q-0.59375 0 -0.984375 0.453125q-0.390625 0.4375 -0.390625 1.34375zm4.672241 2.328125l0 -4.671875l0.71875 0l0 0.671875q0.5 -0.765625 1.484375 -0.765625q0.421875 0 0.765625 0.15625q0.359375 0.140625 0.53125 0.390625q0.171875 0.234375 0.25 0.578125q0.046875 0.21875 0.046875 0.765625l0 2.875l-0.796875 0l0 -2.84375q0 -0.484375 -0.09375 -0.71875q-0.09375 -0.234375 -0.328125 -0.375q-0.234375 -0.15625 -0.546875 -0.15625q-0.5 0 -0.875 0.328125q-0.359375 0.3125 -0.359375 1.21875l0 2.546875l-0.796875 0z" fill-rule="nonzero"></path><path fill="#000000" fill-opacity="0.0" d="m12.0 112.0l64.0 0l0 12.0l-64.0 0z" fill-rule="nonzero"></path><path fill="#000000" d="m28.98639 123.569374l0.78125 -0.125q0.0625 0.46875 0.359375 0.71875q0.3125 0.25 0.84375 0.25q0.546875 0 0.8125 -0.21875q0.265625 -0.21875 0.265625 -0.515625q0 -0.28125 -0.234375 -0.421875q-0.171875 -0.109375 -0.8125 -0.28125q-0.875 -0.21875 -1.21875 -0.375q-0.328125 -0.15625 -0.5 -0.4375q-0.171875 -0.28125 -0.171875 -0.625q0 -0.3125 0.140625 -0.578125q0.140625 -0.265625 0.390625 -0.453125q0.1875 -0.125 0.5 -0.21875q0.328125 -0.09375 0.6875 -0.09375q0.546875 0 0.953125 0.15625q0.421875 0.15625 0.625 0.421875q0.203125 0.265625 0.28125 0.71875l-0.78125 0.109375q-0.046875 -0.359375 -0.3125 -0.5625q-0.25 -0.203125 -0.703125 -0.203125q-0.546875 0 -0.78125 0.1875q-0.234375 0.171875 -0.234375 0.421875q0 0.15625 0.09375 0.265625q0.09375 0.140625 0.3125 0.21875q0.109375 0.046875 0.6875 0.203125q0.84375 0.21875 1.171875 0.359375q0.34375 0.140625 0.53125 0.421875q0.1875 0.265625 0.1875 0.671875q0 0.40625 -0.234375 0.75q-0.234375 0.34375 -0.671875 0.546875q-0.421875 0.1875 -0.984375 0.1875q-0.90625 0 -1.390625 -0.375q-0.46875 -0.390625 -0.59375 -1.125zm8.0390625 1.390625l0 -0.6875q-0.546875 0.796875 -1.484375 0.796875q-0.40625 0 -0.765625 -0.15625q-0.359375 -0.171875 -0.546875 -0.40625q-0.171875 -0.234375 -0.234375 -0.578125q-0.046875 -0.234375 -0.046875 -0.75l0 -2.890625l0.78125 0l0 2.59375q0 0.625 0.0625 0.828125q0.0625 0.3125 0.296875 0.5q0.25 0.171875 0.609375 0.171875q0.359375 0 0.671875 -0.171875q0.3125 -0.1875 0.4375 -0.5q0.125 -0.3125 0.125 -0.921875l0 -2.5l0.796875 0l0 4.671875l-0.703125 0zm2.1097412 0l0 -4.671875l0.71875 0l0 0.71875q0.265625 -0.5 0.5 -0.65625q0.234375 -0.15625 0.515625 -0.15625q0.390625 0 0.8125 0.25l-0.28125 0.734375q-0.28125 -0.171875 -0.578125 -0.171875q-0.25 0 -0.46875 0.15625q-0.203125 0.15625 -0.296875 0.4375q-0.125 0.421875 -0.125 0.921875l0 2.4375l-0.796875 0zm3.3094635 0l0 -4.046875l-0.703125 0l0 -0.625l0.703125 0l0 -0.484375q0 -0.484375 0.078125 -0.703125q0.125 -0.3125 0.40625 -0.5q0.296875 -0.1875 0.8125 -0.1875q0.328125 0 0.734375 0.078125l-0.125 0.6875q-0.234375 -0.046875 -0.453125 -0.046875q-0.359375 0 -0.515625 0.15625q-0.15625 0.15625 -0.15625 0.578125l0 0.421875l0.921875 0l0 0.625l-0.921875 0l0 4.046875l-0.78125 0zm5.4510345 -0.578125q-0.4375 0.375 -0.84375 0.53125q-0.40625 0.15625 -0.875 0.15625q-0.765625 0 -1.1875 -0.375q-0.40625 -0.375 -0.40625 -0.96875q0 -0.34375 0.15625 -0.625q0.15625 -0.28125 0.40625 -0.453125q0.25 -0.171875 0.5625 -0.265625q0.234375 -0.046875 0.703125 -0.109375q0.96875 -0.109375 1.421875 -0.28125q0 -0.15625 0 -0.203125q0 -0.484375 -0.21875 -0.671875q-0.3125 -0.28125 -0.90625 -0.28125q-0.5625 0 -0.828125 0.203125q-0.265625 0.1875 -0.390625 0.6875l-0.765625 -0.09375q0.09375 -0.5 0.328125 -0.796875q0.25 -0.3125 0.703125 -0.46875q0.46875 -0.171875 1.0625 -0.171875q0.609375 0 0.96875 0.140625q0.375 0.140625 0.546875 0.359375q0.1875 0.203125 0.25 0.53125q0.046875 0.203125 0.046875 0.71875l0 1.0625q0 1.09375 0.046875 1.390625q0.046875 0.296875 0.203125 0.5625l-0.828125 0q-0.125 -0.25 -0.15625 -0.578125zm-0.0625 -1.765625q-0.4375 0.171875 -1.296875 0.296875q-0.484375 0.078125 -0.6875 0.171875q-0.203125 0.078125 -0.3125 0.25q-0.109375 0.171875 -0.109375 0.375q0 0.3125 0.234375 0.53125q0.234375 0.203125 0.703125 0.203125q0.453125 0 0.8125 -0.203125q0.359375 -0.203125 0.53125 -0.546875q0.125 -0.265625 0.125 -0.78125l0 -0.296875zm5.250366 0.640625l0.78125 0.09375q-0.125 0.8125 -0.65625 1.265625q-0.53125 0.453125 -1.296875 0.453125q-0.953125 0 -1.53125 -0.625q-0.578125 -0.625 -0.578125 -1.796875q0 -0.765625 0.25 -1.328125q0.25 -0.5625 0.75 -0.84375q0.515625 -0.28125 1.125 -0.28125q0.75 0 1.234375 0.390625q0.484375 0.375 0.625 1.078125l-0.765625 0.125q-0.109375 -0.46875 -0.390625 -0.703125q-0.28125 -0.25 -0.671875 -0.25q-0.609375 0 -0.984375 0.4375q-0.359375 0.421875 -0.359375 1.34375q0 0.953125 0.359375 1.375q0.359375 0.421875 0.9375 0.421875q0.46875 0 0.78125 -0.28125q0.3125 -0.28125 0.390625 -0.875zm4.8046875 0.203125l0.828125 0.09375q-0.203125 0.71875 -0.734375 1.125q-0.515625 0.390625 -1.328125 0.390625q-1.015625 0 -1.625 -0.625q-0.59375 -0.640625 -0.59375 -1.78125q0 -1.171875 0.609375 -1.8125q0.609375 -0.65625 1.578125 -0.65625q0.9375 0 1.515625 0.640625q0.59375 0.625 0.59375 1.78125q0 0.078125 0 0.21875l-3.484375 0q0.046875 0.765625 0.4375 1.171875q0.390625 0.40625 0.984375 0.40625q0.4375 0 0.734375 -0.21875q0.3125 -0.234375 0.484375 -0.734375zm-2.59375 -1.28125l2.609375 0q-0.046875 -0.59375 -0.296875 -0.890625q-0.375 -0.453125 -0.984375 -0.453125q-0.546875 0 -0.921875 0.375q-0.359375 0.359375 -0.40625 0.96875z" fill-rule="nonzero"></path><path fill="#666666" d="m100.0947 76.000114l0 0c14.154892 0.0335083 27.23803 7.545555 34.402763 19.753288l-34.497467 20.246597z" fill-rule="nonzero"></path><path fill="#000000" fill-opacity="0.0" d="m100.0 116.0l68.0 -40.0" fill-rule="nonzero"></path><path stroke="#000000" stroke-width="1.0" stroke-linejoin="round" stroke-linecap="butt" d="m100.0 116.0l62.828384 -36.95788" fill-rule="evenodd"></path><path fill="#000000" stroke="#000000" stroke-width="1.0" stroke-linecap="butt" d="m163.66586 80.465805l3.0740662 -3.724594l-4.748993 0.8772278z" fill-rule="evenodd"></path><path fill="#000000" fill-opacity="0.0" d="m104.55118 81.10499l16.0 0l0 20.0l-16.0 0z" fill-rule="nonzero"></path><path fill="#ffffff" d="m112.520195 87.83061q0.734375 0 1.234375 0.875q0.515625 0.859375 0.515625 2.25q0 1.5 -0.546875 2.375q-0.546875 0.859375 -1.265625 0.859375q-0.703125 0 -1.25 -0.84375q-0.53125 -0.84375 -0.53125 -2.28125q0 -1.453125 0.53125 -2.34375q0.53125 -0.890625 1.3125 -0.890625zm0.9375 3.03125q0 -2.78125 -0.96875 -2.78125q-1.0 0 -1.0 2.78125l1.96875 0zm-1.96875 0.265625q0 1.4375 0.265625 2.125q0.265625 0.6875 0.71875 0.6875q0.984375 0 0.984375 -2.8125l-1.96875 0z" fill-rule="nonzero"></path><path fill="#000000" fill-opacity="0.0" d="m100.0 116.0l0 -92.0" fill-rule="nonzero"></path><path stroke="#000000" stroke-width="1.0" stroke-linejoin="round" stroke-linecap="butt" d="m100.0 116.0l0 -92.0" fill-rule="nonzero"></path><path fill="#000000" fill-opacity="0.0" d="m99.999596 115.999596l53.85827 -54.14173" fill-rule="nonzero"></path><path stroke="#000000" stroke-width="1.0" stroke-linejoin="round" stroke-linecap="butt" d="m99.999596 115.999596l53.85827 -54.14173" fill-rule="nonzero"></path></g></svg>

