<?xml version="1.0" standalone="yes"?>

<svg version="1.1" viewBox="0.0 0.0 464.59055118110234 245.7795275590551" fill="none" stroke="none" stroke-linecap="square" stroke-miterlimit="10" xmlns="http://www.w3.org/2000/svg" xmlns:xlink="http://www.w3.org/1999/xlink"><clipPath id="p.0"><path d="m0 0l464.59055 0l0 245.77953l-464.59055 0l0 -245.77953z" clip-rule="nonzero"></path></clipPath><g clip-path="url(#p.0)"><path fill="#000000" fill-opacity="0.0" d="m0 0l464.59055 0l0 245.77953l-464.59055 0z" fill-rule="nonzero"></path><path fill="#000000" fill-opacity="0.0" d="m48.0 104.0l48.0 -48.0" fill-rule="nonzero"></path><path stroke="#000000" stroke-width="1.0" stroke-linejoin="round" stroke-linecap="butt" d="m48.0 104.0l45.576683 -45.576683" fill-rule="evenodd"></path><path fill="#000000" stroke="#000000" stroke-width="1.0" stroke-linecap="butt" d="m93.57668 58.423317l0 1.5904007l1.389595 -2.9799957l-2.9799957 1.389595z" fill-rule="evenodd"></path><path fill="#000000" fill-opacity="0.0" d="m48.0 104.0l48.0 -32.0" fill-rule="nonzero"></path><path stroke="#000000" stroke-width="1.0" stroke-linejoin="round" stroke-linecap="butt" d="m48.0 104.0l45.14849 -30.098991" fill-rule="evenodd"></path><path fill="#000000" stroke="#000000" stroke-width="1.0" stroke-linecap="butt" d="m93.14849 73.90101l-0.3119049 1.5595169l1.9470367 -2.6496048l-3.1946487 0.778183z" fill-rule="evenodd"></path><path fill="#000000" fill-opacity="0.0" d="m48.0 104.0l40.0 -16.0" fill-rule="nonzero"></path><path stroke="#000000" stroke-width="1.0" stroke-linejoin="round" stroke-linecap="butt" d="m48.0 104.0l36.81803 -14.727211" fill-rule="evenodd"></path><path fill="#000000" stroke="#000000" stroke-width="1.0" stroke-linecap="butt" d="m84.81803 89.27279l-0.62648773 1.4618073l2.4511108 -2.191658l-3.2864304 0.10336304z" fill-rule="evenodd"></path><path fill="#000000" fill-opacity="0.0" d="m48.0 104.0l104.0 -16.0" fill-rule="nonzero"></path><path stroke="#000000" stroke-width="1.0" stroke-linejoin="round" stroke-linecap="butt" d="m48.0 104.0l100.61276 -15.478889" fill-rule="evenodd"></path><path fill="#000000" stroke="#000000" stroke-width="1.0" stroke-linecap="butt" d="m148.61276 88.52111l-0.940506 1.2825089l2.882843 -1.5813293l-3.2248383 -0.6416855z" fill-rule="evenodd"></path><path fill="#000000" fill-opacity="0.0" d="m48.0 104.0l88.0 48.0" fill-rule="nonzero"></path><path stroke="#000000" stroke-width="1.0" stroke-linejoin="round" stroke-linecap="butt" d="m48.0 104.0l84.99138 46.358932" fill-rule="evenodd"></path><path fill="#000000" stroke="#000000" stroke-width="1.0" stroke-linecap="butt" d="m132.99138 150.35893l-1.5257721 0.448761l3.2509918 0.49227905l-2.1739807 -2.4668121z" fill-rule="evenodd"></path><path fill="#000000" fill-opacity="0.0" d="m48.0 104.0l96.0 24.0" fill-rule="nonzero"></path><path stroke="#000000" stroke-width="1.0" stroke-linejoin="round" stroke-linecap="butt" d="m48.0 104.0l92.67523 23.168808" fill-rule="evenodd"></path><path fill="#000000" stroke="#000000" stroke-width="1.0" stroke-linecap="butt" d="m140.67523 127.16881l-1.3637543 0.81825256l3.2702637 -0.3416214l-2.724762 -1.8403854z" fill-rule="evenodd"></path><path fill="#000000" fill-opacity="0.0" d="m48.0 104.0l32.0 24.0" fill-rule="nonzero"></path><path stroke="#000000" stroke-width="1.0" stroke-linejoin="round" stroke-linecap="butt" d="m48.0 104.0l29.258331 21.94374" fill-rule="evenodd"></path><path fill="#000000" stroke="#000000" stroke-width="1.0" stroke-linecap="butt" d="m77.25833 125.94375l-1.5744171 0.22491455l3.1465607 0.9541931l-1.7970581 -2.7535248z" fill-rule="evenodd"></path><path fill="#000000" fill-opacity="0.0" d="m48.0 104.0l56.0 136.0" fill-rule="nonzero"></path><path stroke="#000000" stroke-width="1.0" stroke-linejoin="round" stroke-linecap="butt" d="m48.0 104.0l54.695137 132.83105" fill-rule="evenodd"></path><path fill="#000000" stroke="#000000" stroke-width="1.0" stroke-linecap="butt" d="m102.69514 236.83105l-1.4680634 -0.61169434l2.2163086 2.4288483l-0.1365509 -3.2852173z" fill-rule="evenodd"></path><path fill="#000000" fill-opacity="0.0" d="m48.0 104.0l8.0 -88.0" fill-rule="nonzero"></path><path stroke="#000000" stroke-width="1.0" stroke-linejoin="round" stroke-linecap="butt" d="m48.0 104.0l7.689724 -84.58699" fill-rule="evenodd"></path><path fill="#000000" stroke="#000000" stroke-width="1.0" stroke-linecap="butt" d="m55.689728 19.413012l1.0181503 1.2217808l-0.84023285 -3.178894l-1.3997002 2.9752636z" fill-rule="evenodd"></path><path fill="#000000" fill-opacity="0.0" d="m48.0 104.0l-16.0 -24.0" fill-rule="nonzero"></path><path stroke="#000000" stroke-width="1.0" stroke-linejoin="round" stroke-linecap="butt" d="m48.0 104.0l-14.098995 -21.14849" fill-rule="evenodd"></path><path fill="#000000" stroke="#000000" stroke-width="1.0" stroke-linecap="butt" d="m33.901005 82.85151l1.5595169 0.3119049l-2.6496048 -1.9470367l0.7781868 3.1946487z" fill-rule="evenodd"></path><path fill="#000000" fill-opacity="0.0" d="m48.0 104.0l8.0 -32.0" fill-rule="nonzero"></path><path stroke="#000000" stroke-width="1.0" stroke-linejoin="round" stroke-linecap="butt" d="m48.0 104.0l7.168808 -28.67524" fill-rule="evenodd"></path><path fill="#000000" stroke="#000000" stroke-width="1.0" stroke-linecap="butt" d="m55.168808 75.32476l0.8182564 1.3637619l-0.34162903 -3.2702713l-1.8403854 2.7247696z" fill-rule="evenodd"></path><path fill="#000000" fill-opacity="0.0" d="m48.0 104.0l-24.0 8.0" fill-rule="nonzero"></path><path stroke="#000000" stroke-width="1.0" stroke-linejoin="round" stroke-linecap="butt" d="m48.0 104.0l-20.74878 6.91626" fill-rule="evenodd"></path><path fill="#000000" stroke="#000000" stroke-width="1.0" stroke-linecap="butt" d="m27.25122 110.91626l0.7112484 -1.4225006l-2.5755863 2.0439453l3.2868347 0.0898056z" fill-rule="evenodd"></path><path fill="#000000" fill-opacity="0.0" d="m48.0 104.0l-16.0 56.0" fill-rule="nonzero"></path><path stroke="#000000" stroke-width="1.0" stroke-linejoin="round" stroke-linecap="butt" d="m48.0 104.0l-15.058506 52.704773" fill-rule="evenodd"></path><path fill="#000000" stroke="#000000" stroke-width="1.0" stroke-linecap="butt" d="m32.941494 156.70477l-0.7723694 -1.3902588l0.23249054 3.279831l1.9301376 -2.6619415z" fill-rule="evenodd"></path><path fill="#000000" fill-opacity="0.0" d="m48.0 104.0l-40.0 48.0" fill-rule="nonzero"></path><path stroke="#000000" stroke-width="1.0" stroke-linejoin="round" stroke-linecap="butt" d="m48.0 104.0l-37.80603 45.367233" fill-rule="evenodd"></path><path fill="#000000" stroke="#000000" stroke-width="1.0" stroke-linecap="butt" d="m10.193967 149.36723l-0.14398766 -1.5838623l-1.1140919 3.093567l2.8419495 -1.6536865z" fill-rule="evenodd"></path><path fill="#000000" fill-opacity="0.0" d="m48.0 104.0l-40.0 -8.0" fill-rule="nonzero"></path><path stroke="#000000" stroke-width="1.0" stroke-linejoin="round" stroke-linecap="butt" d="m48.0 104.0l-36.639465 -7.3278885" fill-rule="evenodd"></path><path fill="#000000" stroke="#000000" stroke-width="1.0" stroke-linecap="butt" d="m11.360535 96.672104l1.3232937 -0.8821945l-3.2503157 0.49679565l2.8092184 1.7086945z" fill-rule="evenodd"></path><path fill="#000000" fill-opacity="0.0" d="m48.0 104.0l8.0 72.0" fill-rule="nonzero"></path><path stroke="#000000" stroke-width="1.0" stroke-linejoin="round" stroke-linecap="butt" d="m48.0 104.0l7.62154 68.59387" fill-rule="evenodd"></path><path fill="#000000" stroke="#000000" stroke-width="1.0" stroke-linecap="butt" d="m55.62154 172.59387l-1.2418938 -0.993515l1.4589119 2.9466858l0.7765007 -3.1950684z" fill-rule="evenodd"></path><path fill="#ffffff" d="m56.0 104.0l0 0c0 -30.927948 25.072052 -56.0 56.0 -56.0l0 0c14.852127 0 29.095947 5.8999825 39.597977 16.402023c10.502045 10.502037 16.402023 24.74585 16.402023 39.597977l0 0c0 30.927948 -25.072052 56.0 -56.0 56.0l0 0c-30.927948 0 -56.0 -25.072052 -56.0 -56.0z" fill-rule="nonzero"></path><path stroke="#000000" stroke-width="1.0" stroke-linejoin="round" stroke-linecap="butt" d="m56.0 104.0l0 0c0 -30.927948 25.072052 -56.0 56.0 -56.0l0 0c14.852127 0 29.095947 5.8999825 39.597977 16.402023c10.502045 10.502037 16.402023 24.74585 16.402023 39.597977l0 0c0 30.927948 -25.072052 56.0 -56.0 56.0l0 0c-30.927948 0 -56.0 -25.072052 -56.0 -56.0z" fill-rule="nonzero"></path><path fill="#000000" d="m86.90524 109.08l0 -7.78125l1.1875 0l0 1.1875q0.453125 -0.828125 0.84375 -1.09375q0.390625 -0.265625 0.84375 -0.265625q0.671875 0 1.359375 0.421875l-0.453125 1.21875q-0.484375 -0.28125 -0.96875 -0.28125q-0.4375 0 -0.78125 0.265625q-0.34375 0.25 -0.484375 0.71875q-0.21875 0.703125 -0.21875 1.53125l0 4.078125l-1.328125 0zm10.224396 -2.5l1.359375 0.15625q-0.3125 1.203125 -1.1875 1.859375q-0.875 0.65625 -2.234375 0.65625q-1.703125 0 -2.703125 -1.046875q-1.0 -1.046875 -1.0 -2.953125q0 -1.953125 1.015625 -3.03125q1.015625 -1.09375 2.625 -1.09375q1.5625 0 2.546875 1.0625q0.984375 1.0625 0.984375 2.984375q0 0.125 0 0.359375l-5.8125 0q0.078125 1.28125 0.71875 1.96875q0.65625 0.671875 1.640625 0.671875q0.71875 0 1.234375 -0.375q0.515625 -0.390625 0.8125 -1.21875zm-4.328125 -2.140625l4.34375 0q-0.09375 -0.984375 -0.5 -1.46875q-0.625 -0.765625 -1.625 -0.765625q-0.921875 0 -1.546875 0.609375q-0.609375 0.609375 -0.671875 1.625zm12.229233 1.796875l1.296875 0.15625q-0.203125 1.34375 -1.09375 2.109375q-0.875 0.75 -2.140625 0.75q-1.59375 0 -2.5625 -1.03125q-0.96875 -1.046875 -0.96875 -3.0q0 -1.265625 0.40625 -2.203125q0.421875 -0.953125 1.265625 -1.421875q0.859375 -0.46875 1.859375 -0.46875q1.265625 0 2.078125 0.640625q0.8125 0.640625 1.03125 1.8125l-1.28125 0.203125q-0.1875 -0.78125 -0.65625 -1.171875q-0.453125 -0.40625 -1.109375 -0.40625q-1.0 0 -1.625 0.71875q-0.625 0.71875 -0.625 2.265625q0 1.5625 0.59375 2.28125q0.609375 0.703125 1.578125 0.703125q0.78125 0 1.296875 -0.46875q0.515625 -0.484375 0.65625 -1.46875zm7.578125 0.34375l1.359375 0.15625q-0.3125 1.203125 -1.1875 1.859375q-0.875 0.65625 -2.234375 0.65625q-1.703125 0 -2.703125 -1.046875q-1.0 -1.046875 -1.0 -2.953125q0 -1.953125 1.015625 -3.03125q1.015625 -1.09375 2.625 -1.09375q1.5625 0 2.546875 1.0625q0.984375 1.0625 0.984375 2.984375q0 0.125 0 0.359375l-5.8125 0q0.078125 1.28125 0.71875 1.96875q0.65625 0.671875 1.640625 0.671875q0.71875 0 1.234375 -0.375q0.515625 -0.390625 0.8125 -1.21875zm-4.328125 -2.140625l4.34375 0q-0.09375 -0.984375 -0.5 -1.46875q-0.625 -0.765625 -1.625 -0.765625q-0.921875 0 -1.546875 0.609375q-0.609375 0.609375 -0.671875 1.625zm7.166733 -4.578125l0 -1.515625l1.3125 0l0 1.515625l-1.3125 0zm0 9.21875l0 -7.78125l1.3125 0l0 7.78125l-1.3125 0zm5.4123993 0l-2.96875 -7.78125l1.390625 0l1.671875 4.65625q0.265625 0.765625 0.5 1.578125q0.171875 -0.625 0.484375 -1.484375l1.734375 -4.75l1.359375 0l-2.953125 7.78125l-1.21875 0zm10.484375 -2.5l1.359375 0.15625q-0.3125 1.203125 -1.1875 1.859375q-0.875 0.65625 -2.234375 0.65625q-1.703125 0 -2.703125 -1.046875q-1.0 -1.046875 -1.0 -2.953125q0 -1.953125 1.015625 -3.03125q1.015625 -1.09375 2.625 -1.09375q1.5625 0 2.546875 1.0625q0.984375 1.0625 0.984375 2.984375q0 0.125 0 0.359375l-5.8125 0q0.078125 1.28125 0.71875 1.96875q0.65625 0.671875 1.640625 0.671875q0.71875 0 1.234375 -0.375q0.515625 -0.390625 0.8125 -1.21875zm-4.328125 -2.140625l4.34375 0q-0.09375 -0.984375 -0.5 -1.46875q-0.625 -0.765625 -1.625 -0.765625q-0.921875 0 -1.546875 0.609375q-0.609375 0.609375 -0.671875 1.625zm7.135483 4.640625l0 -7.78125l1.1875 0l0 1.1875q0.453125 -0.828125 0.84375 -1.09375q0.390625 -0.265625 0.84375 -0.265625q0.671875 0 1.359375 0.421875l-0.453125 1.21875q-0.484375 -0.28125 -0.96875 -0.28125q-0.4375 0 -0.78125 0.265625q-0.34375 0.25 -0.484375 0.71875q-0.21875 0.703125 -0.21875 1.53125l0 4.078125l-1.328125 0z" fill-rule="nonzero"></path><path fill="#000000" fill-opacity="0.0" d="m240.0 104.0l72.0 -72.0" fill-rule="nonzero"></path><path stroke="#000000" stroke-width="1.0" stroke-linejoin="round" stroke-linecap="butt" d="m240.0 104.0l69.57669 -69.57668" fill-rule="evenodd"></path><path fill="#000000" stroke="#000000" stroke-width="1.0" stroke-linecap="butt" d="m309.5767 34.423317l0 1.5904007l1.3895874 -2.9799957l-2.9799805 1.389595z" fill-rule="evenodd"></path><path fill="#000000" fill-opacity="0.0" d="m240.0 104.0l136.0 -80.0" fill-rule="nonzero"></path><path stroke="#000000" stroke-width="1.0" stroke-linejoin="round" stroke-linecap="butt" d="m240.0 104.0l133.04608 -78.2624" fill-rule="evenodd"></path><path fill="#000000" stroke="#000000" stroke-width="1.0" stroke-linecap="butt" d="m373.04608 25.737602l-0.3991394 1.5395031l2.092987 -2.5358906l-3.233368 0.5972557z" fill-rule="evenodd"></path><path fill="#000000" fill-opacity="0.0" d="m240.0 104.0l184.0 -72.0" fill-rule="nonzero"></path><path stroke="#000000" stroke-width="1.0" stroke-linejoin="round" stroke-linecap="butt" d="m240.0 104.0l180.80856 -70.751175" fill-rule="evenodd"></path><path fill="#000000" stroke="#000000" stroke-width="1.0" stroke-linecap="butt" d="m420.80856 33.24883l-0.6374817 1.457058l2.4675293 -2.173172l-3.2871094 0.07865143z" fill-rule="evenodd"></path><path fill="#000000" fill-opacity="0.0" d="m240.0 104.0l144.0 -24.0" fill-rule="nonzero"></path><path stroke="#000000" stroke-width="1.0" stroke-linejoin="round" stroke-linecap="butt" d="m240.0 104.0l140.61954 -23.436592" fill-rule="evenodd"></path><path fill="#000000" stroke="#000000" stroke-width="1.0" stroke-linecap="butt" d="m380.61954 80.56341l-0.92440796 1.2941666l2.862854 -1.6172409l-3.232605 -0.601326z" fill-rule="evenodd"></path><path fill="#000000" fill-opacity="0.0" d="m240.0 104.0l176.0 104.0" fill-rule="nonzero"></path><path stroke="#000000" stroke-width="1.0" stroke-linejoin="round" stroke-linecap="butt" d="m240.0 104.0l173.04953 102.256546" fill-rule="evenodd"></path><path fill="#000000" stroke="#000000" stroke-width="1.0" stroke-linecap="butt" d="m413.04953 206.25655l-1.5402832 0.3960724l3.2321777 0.6036682l-2.0879822 -2.540039z" fill-rule="evenodd"></path><path fill="#000000" fill-opacity="0.0" d="m240.0 104.0l152.0 40.0" fill-rule="nonzero"></path><path stroke="#000000" stroke-width="1.0" stroke-linejoin="round" stroke-linecap="butt" d="m240.0 104.0l148.68573 39.127823" fill-rule="evenodd"></path><path fill="#000000" stroke="#000000" stroke-width="1.0" stroke-linecap="butt" d="m388.68576 143.12782l-1.3737488 0.8013611l3.274231 -0.30122375l-2.7018433 -1.8738861z" fill-rule="evenodd"></path><path fill="#000000" fill-opacity="0.0" d="m240.0 104.0l128.0 88.0" fill-rule="nonzero"></path><path stroke="#000000" stroke-width="1.0" stroke-linejoin="round" stroke-linecap="butt" d="m240.0 104.0l125.175934 86.05846" fill-rule="evenodd"></path><path fill="#000000" stroke="#000000" stroke-width="1.0" stroke-linecap="butt" d="m365.17593 190.05846l-1.5638123 0.28959656l3.183197 0.82373047l-1.9089661 -2.6771393z" fill-rule="evenodd"></path><path fill="#000000" fill-opacity="0.0" d="m240.0 104.0l56.0 136.0" fill-rule="nonzero"></path><path stroke="#000000" stroke-width="1.0" stroke-linejoin="round" stroke-linecap="butt" d="m240.0 104.0l54.69513 132.83105" fill-rule="evenodd"></path><path fill="#000000" stroke="#000000" stroke-width="1.0" stroke-linecap="butt" d="m294.69513 236.83105l-1.4680481 -0.61169434l2.2163086 2.4288483l-0.13656616 -3.2852173z" fill-rule="evenodd"></path><path fill="#000000" fill-opacity="0.0" d="m240.0 104.0l8.0 -88.0" fill-rule="nonzero"></path><path stroke="#000000" stroke-width="1.0" stroke-linejoin="round" stroke-linecap="butt" d="m240.0 104.0l7.689728 -84.58699" fill-rule="evenodd"></path><path fill="#000000" stroke="#000000" stroke-width="1.0" stroke-linecap="butt" d="m247.68973 19.413012l1.0181427 1.2217808l-0.8402252 -3.178894l-1.399704 2.9752636z" fill-rule="evenodd"></path><path fill="#000000" fill-opacity="0.0" d="m240.0 104.0l-16.0 -24.0" fill-rule="nonzero"></path><path stroke="#000000" stroke-width="1.0" stroke-linejoin="round" stroke-linecap="butt" d="m240.0 104.0l-14.098999 -21.14849" fill-rule="evenodd"></path><path fill="#000000" stroke="#000000" stroke-width="1.0" stroke-linecap="butt" d="m225.901 82.85151l1.5595245 0.3119049l-2.6496124 -1.9470367l0.778183 3.1946487z" fill-rule="evenodd"></path><path fill="#000000" fill-opacity="0.0" d="m240.0 104.0l8.0 -32.0" fill-rule="nonzero"></path><path stroke="#000000" stroke-width="1.0" stroke-linejoin="round" stroke-linecap="butt" d="m240.0 104.0l7.1687927 -28.67524" fill-rule="evenodd"></path><path fill="#000000" stroke="#000000" stroke-width="1.0" stroke-linecap="butt" d="m247.16881 75.32476l0.81825256 1.3637619l-0.34162903 -3.2702713l-1.8403778 2.7247696z" fill-rule="evenodd"></path><path fill="#000000" fill-opacity="0.0" d="m240.0 104.0l-24.0 8.0" fill-rule="nonzero"></path><path stroke="#000000" stroke-width="1.0" stroke-linejoin="round" stroke-linecap="butt" d="m240.0 104.0l-20.748795 6.91626" fill-rule="evenodd"></path><path fill="#000000" stroke="#000000" stroke-width="1.0" stroke-linecap="butt" d="m219.25122 110.91626l0.7112427 -1.4225006l-2.5755768 2.0439453l3.2868347 0.0898056z" fill-rule="evenodd"></path><path fill="#000000" fill-opacity="0.0" d="m240.0 104.0l-16.0 56.0" fill-rule="nonzero"></path><path stroke="#000000" stroke-width="1.0" stroke-linejoin="round" stroke-linecap="butt" d="m240.0 104.0l-15.058502 52.704773" fill-rule="evenodd"></path><path fill="#000000" stroke="#000000" stroke-width="1.0" stroke-linecap="butt" d="m224.9415 156.70477l-0.7723694 -1.3902588l0.23248291 3.279831l1.9301453 -2.6619415z" fill-rule="evenodd"></path><path fill="#000000" fill-opacity="0.0" d="m240.0 104.0l-40.0 48.0" fill-rule="nonzero"></path><path stroke="#000000" stroke-width="1.0" stroke-linejoin="round" stroke-linecap="butt" d="m240.0 104.0l-37.806046 45.367233" fill-rule="evenodd"></path><path fill="#000000" stroke="#000000" stroke-width="1.0" stroke-linecap="butt" d="m202.19397 149.36723l-0.14399719 -1.5838623l-1.11409 3.093567l2.8419495 -1.6536865z" fill-rule="evenodd"></path><path fill="#000000" fill-opacity="0.0" d="m240.0 104.0l-40.0 -8.0" fill-rule="nonzero"></path><path stroke="#000000" stroke-width="1.0" stroke-linejoin="round" stroke-linecap="butt" d="m240.0 104.0l-36.63945 -7.3278885" fill-rule="evenodd"></path><path fill="#000000" stroke="#000000" stroke-width="1.0" stroke-linecap="butt" d="m203.36053 96.672104l1.323288 -0.8821945l-3.2503052 0.49679565l2.8092194 1.7086945z" fill-rule="evenodd"></path><path fill="#000000" fill-opacity="0.0" d="m240.0 104.0l8.0 72.0" fill-rule="nonzero"></path><path stroke="#000000" stroke-width="1.0" stroke-linejoin="round" stroke-linecap="butt" d="m240.0 104.0l7.6215363 68.59387" fill-rule="evenodd"></path><path fill="#000000" stroke="#000000" stroke-width="1.0" stroke-linecap="butt" d="m247.62154 172.59387l-1.2418823 -0.993515l1.4589081 2.9466858l0.77648926 -3.1950684z" fill-rule="evenodd"></path><path fill="#ffffff" d="m344.0 104.0l0 0c0 -30.927948 25.072052 -56.0 56.0 -56.0l0 0c14.852112 0 29.095947 5.8999825 39.597992 16.402023c10.502014 10.502037 16.402008 24.74585 16.402008 39.597977l0 0c0 30.927948 -25.072052 56.0 -56.0 56.0l0 0c-30.927948 0 -56.0 -25.072052 -56.0 -56.0z" fill-rule="nonzero"></path><path stroke="#000000" stroke-width="1.0" stroke-linejoin="round" stroke-linecap="butt" d="m344.0 104.0l0 0c0 -30.927948 25.072052 -56.0 56.0 -56.0l0 0c14.852112 0 29.095947 5.8999825 39.597992 16.402023c10.502014 10.502037 16.402008 24.74585 16.402008 39.597977l0 0c0 30.927948 -25.072052 56.0 -56.0 56.0l0 0c-30.927948 0 -56.0 -25.072052 -56.0 -56.0z" fill-rule="nonzero"></path><path fill="#000000" d="m374.90524 109.08l0 -7.78125l1.1875 0l0 1.1875q0.453125 -0.828125 0.84375 -1.09375q0.390625 -0.265625 0.84375 -0.265625q0.671875 0 1.359375 0.421875l-0.453125 1.21875q-0.484375 -0.28125 -0.96875 -0.28125q-0.4375 0 -0.78125 0.265625q-0.34375 0.25 -0.484375 0.71875q-0.21875 0.703125 -0.21875 1.53125l0 4.078125l-1.328125 0zm10.224396 -2.5l1.359375 0.15625q-0.3125 1.203125 -1.1875 1.859375q-0.875 0.65625 -2.234375 0.65625q-1.703125 0 -2.703125 -1.046875q-1.0 -1.046875 -1.0 -2.953125q0 -1.953125 1.015625 -3.03125q1.015625 -1.09375 2.625 -1.09375q1.5625 0 2.546875 1.0625q0.984375 1.0625 0.984375 2.984375q0 0.125 0 0.359375l-5.8125 0q0.078125 1.28125 0.71875 1.96875q0.65625 0.671875 1.640625 0.671875q0.71875 0 1.234375 -0.375q0.515625 -0.390625 0.8125 -1.21875zm-4.328125 -2.140625l4.34375 0q-0.09375 -0.984375 -0.5 -1.46875q-0.625 -0.765625 -1.625 -0.765625q-0.921875 0 -1.546875 0.609375q-0.609375 0.609375 -0.671875 1.625zm12.229248 1.796875l1.296875 0.15625q-0.203125 1.34375 -1.09375 2.109375q-0.875 0.75 -2.140625 0.75q-1.59375 0 -2.5625 -1.03125q-0.96875 -1.046875 -0.96875 -3.0q0 -1.265625 0.40625 -2.203125q0.421875 -0.953125 1.265625 -1.421875q0.859375 -0.46875 1.859375 -0.46875q1.265625 0 2.078125 0.640625q0.8125 0.640625 1.03125 1.8125l-1.28125 0.203125q-0.1875 -0.78125 -0.65625 -1.171875q-0.453125 -0.40625 -1.109375 -0.40625q-1.0 0 -1.625 0.71875q-0.625 0.71875 -0.625 2.265625q0 1.5625 0.59375 2.28125q0.609375 0.703125 1.578125 0.703125q0.78125 0 1.296875 -0.46875q0.515625 -0.484375 0.65625 -1.46875zm7.578125 0.34375l1.359375 0.15625q-0.3125 1.203125 -1.1875 1.859375q-0.875 0.65625 -2.234375 0.65625q-1.703125 0 -2.703125 -1.046875q-1.0 -1.046875 -1.0 -2.953125q0 -1.953125 1.015625 -3.03125q1.015625 -1.09375 2.625 -1.09375q1.5625 0 2.546875 1.0625q0.984375 1.0625 0.984375 2.984375q0 0.125 0 0.359375l-5.8125 0q0.078125 1.28125 0.71875 1.96875q0.65625 0.671875 1.640625 0.671875q0.71875 0 1.234375 -0.375q0.515625 -0.390625 0.8125 -1.21875zm-4.328125 -2.140625l4.34375 0q-0.09375 -0.984375 -0.5 -1.46875q-0.625 -0.765625 -1.625 -0.765625q-0.921875 0 -1.546875 0.609375q-0.609375 0.609375 -0.671875 1.625zm7.1667175 -4.578125l0 -1.515625l1.3125 0l0 1.515625l-1.3125 0zm0 9.21875l0 -7.78125l1.3125 0l0 7.78125l-1.3125 0zm5.4124146 0l-2.96875 -7.78125l1.390625 0l1.671875 4.65625q0.265625 0.765625 0.5 1.578125q0.171875 -0.625 0.484375 -1.484375l1.734375 -4.75l1.359375 0l-2.953125 7.78125l-1.21875 0zm10.484375 -2.5l1.359375 0.15625q-0.3125 1.203125 -1.1875 1.859375q-0.875 0.65625 -2.234375 0.65625q-1.703125 0 -2.703125 -1.046875q-1.0 -1.046875 -1.0 -2.953125q0 -1.953125 1.015625 -3.03125q1.015625 -1.09375 2.625 -1.09375q1.5625 0 2.546875 1.0625q0.984375 1.0625 0.984375 2.984375q0 0.125 0 0.359375l-5.8125 0q0.078125 1.28125 0.71875 1.96875q0.65625 0.671875 1.640625 0.671875q0.71875 0 1.234375 -0.375q0.515625 -0.390625 0.8125 -1.21875zm-4.328125 -2.140625l4.34375 0q-0.09375 -0.984375 -0.5 -1.46875q-0.625 -0.765625 -1.625 -0.765625q-0.921875 0 -1.546875 0.609375q-0.609375 0.609375 -0.671875 1.625zm7.1354675 4.640625l0 -7.78125l1.1875 0l0 1.1875q0.453125 -0.828125 0.84375 -1.09375q0.390625 -0.265625 0.84375 -0.265625q0.671875 0 1.359375 0.421875l-0.453125 1.21875q-0.484375 -0.28125 -0.96875 -0.28125q-0.4375 0 -0.78125 0.265625q-0.34375 0.25 -0.484375 0.71875q-0.21875 0.703125 -0.21875 1.53125l0 4.078125l-1.328125 0z" fill-rule="nonzero"></path><path fill="#000000" fill-opacity="0.0" d="m136.0 184.0l96.0 0l0 51.779526l-96.0 0z" fill-rule="nonzero"></path><path fill="#000000" d="m151.91602 207.9825l1.65625 -0.265625q0.140625 1.0 0.765625 1.53125q0.640625 0.515625 1.78125 0.515625q1.15625 0 1.703125 -0.46875q0.5625 -0.46875 0.5625 -1.09375q0 -0.5625 -0.484375 -0.890625q-0.34375 -0.21875 -1.703125 -0.5625q-1.84375 -0.46875 -2.5625 -0.796875q-0.703125 -0.34375 -1.078125 -0.9375q-0.359375 -0.609375 -0.359375 -1.328125q0 -0.65625 0.296875 -1.21875q0.3125 -0.5625 0.828125 -0.9375q0.390625 -0.28125 1.0625 -0.484375q0.671875 -0.203125 1.4375 -0.203125q1.171875 0 2.046875 0.34375q0.875 0.328125 1.28125 0.90625q0.421875 0.5625 0.578125 1.515625l-1.625 0.21875q-0.109375 -0.75 -0.65625 -1.171875q-0.53125 -0.4375 -1.5 -0.4375q-1.15625 0 -1.640625 0.390625q-0.484375 0.375 -0.484375 0.875q0 0.328125 0.203125 0.59375q0.203125 0.265625 0.640625 0.4375q0.25 0.09375 1.46875 0.4375q1.765625 0.46875 2.46875 0.765625q0.703125 0.296875 1.09375 0.875q0.40625 0.578125 0.40625 1.4375q0 0.828125 -0.484375 1.578125q-0.484375 0.734375 -1.40625 1.140625q-0.921875 0.390625 -2.078125 0.390625q-1.921875 0 -2.9375 -0.796875q-1.0 -0.796875 -1.28125 -2.359375zm9.375 -1.984375q0 -2.734375 1.53125 -4.0625q1.265625 -1.09375 3.09375 -1.09375q2.03125 0 3.3125 1.34375q1.296875 1.328125 1.296875 3.671875q0 1.90625 -0.578125 3.0q-0.5625 1.078125 -1.65625 1.6875q-1.078125 0.59375 -2.375 0.59375q-2.0625 0 -3.34375 -1.328125q-1.28125 -1.328125 -1.28125 -3.8125zm1.71875 0q0 1.890625 0.828125 2.828125q0.828125 0.9375 2.078125 0.9375q1.25 0 2.0625 -0.9375q0.828125 -0.953125 0.828125 -2.890625q0 -1.828125 -0.828125 -2.765625q-0.828125 -0.9375 -2.0625 -0.9375q-1.25 0 -2.078125 0.9375q-0.828125 0.9375 -0.828125 2.828125zm15.735107 4.921875l0 -1.453125q-1.140625 1.671875 -3.125 1.671875q-0.859375 0 -1.625 -0.328125q-0.75 -0.34375 -1.125 -0.84375q-0.359375 -0.5 -0.515625 -1.234375q-0.09375 -0.5 -0.09375 -1.5625l0 -6.109375l1.671875 0l0 5.46875q0 1.3125 0.09375 1.765625q0.15625 0.65625 0.671875 1.03125q0.515625 0.375 1.265625 0.375q0.75 0 1.40625 -0.375q0.65625 -0.390625 0.921875 -1.046875q0.28125 -0.671875 0.28125 -1.9375l0 -5.28125l1.671875 0l0 9.859375l-1.5 0zm3.906952 0l0 -9.859375l1.5 0l0 1.5q0.578125 -1.046875 1.0625 -1.375q0.484375 -0.34375 1.078125 -0.34375q0.84375 0 1.71875 0.546875l-0.578125 1.546875q-0.609375 -0.359375 -1.234375 -0.359375q-0.546875 0 -0.984375 0.328125q-0.421875 0.328125 -0.609375 0.90625q-0.28125 0.890625 -0.28125 1.953125l0 5.15625l-1.671875 0zm12.665802 -3.609375l1.640625 0.21875q-0.265625 1.6875 -1.375 2.65625q-1.109375 0.953125 -2.734375 0.953125q-2.015625 0 -3.25 -1.3125q-1.21875 -1.328125 -1.21875 -3.796875q0 -1.59375 0.515625 -2.78125q0.53125 -1.203125 1.609375 -1.796875q1.09375 -0.609375 2.359375 -0.609375q1.609375 0 2.625 0.8125q1.015625 0.8125 1.3125 2.3125l-1.625 0.25q-0.234375 -1.0 -0.828125 -1.5q-0.59375 -0.5 -1.421875 -0.5q-1.265625 0 -2.0625 0.90625q-0.78125 0.90625 -0.78125 2.859375q0 1.984375 0.765625 2.890625q0.765625 0.890625 1.984375 0.890625q0.984375 0 1.640625 -0.59375q0.65625 -0.609375 0.84375 -1.859375zm9.640625 0.4375l1.71875 0.21875q-0.40625 1.5 -1.515625 2.34375q-1.09375 0.828125 -2.8125 0.828125q-2.15625 0 -3.421875 -1.328125q-1.265625 -1.328125 -1.265625 -3.734375q0 -2.484375 1.265625 -3.859375q1.28125 -1.375 3.328125 -1.375q1.984375 0 3.234375 1.34375q1.25 1.34375 1.25 3.796875q0 0.140625 -0.015625 0.4375l-7.34375 0q0.09375 1.625 0.921875 2.484375q0.828125 0.859375 2.0625 0.859375q0.90625 0 1.546875 -0.46875q0.65625 -0.484375 1.046875 -1.546875zm-5.484375 -2.703125l5.5 0q-0.109375 -1.234375 -0.625 -1.859375q-0.796875 -0.96875 -2.078125 -0.96875q-1.140625 0 -1.9375 0.78125q-0.78125 0.765625 -0.859375 2.046875zm8.438232 2.9375l1.65625 -0.265625q0.140625 1.0 0.765625 1.53125q0.640625 0.515625 1.78125 0.515625q1.15625 0 1.703125 -0.46875q0.5625 -0.46875 0.5625 -1.09375q0 -0.5625 -0.484375 -0.890625q-0.34375 -0.21875 -1.703125 -0.5625q-1.84375 -0.46875 -2.5625 -0.796875q-0.703125 -0.34375 -1.078125 -0.9375q-0.359375 -0.609375 -0.359375 -1.328125q0 -0.65625 0.296875 -1.21875q0.3125 -0.5625 0.828125 -0.9375q0.390625 -0.28125 1.0625 -0.484375q0.671875 -0.203125 1.4375 -0.203125q1.171875 0 2.046875 0.34375q0.875 0.328125 1.28125 0.90625q0.421875 0.5625 0.578125 1.515625l-1.625 0.21875q-0.109375 -0.75 -0.65625 -1.171875q-0.53125 -0.4375 -1.5 -0.4375q-1.15625 0 -1.640625 0.390625q-0.484375 0.375 -0.484375 0.875q0 0.328125 0.203125 0.59375q0.203125 0.265625 0.640625 0.4375q0.25 0.09375 1.46875 0.4375q1.765625 0.46875 2.46875 0.765625q0.703125 0.296875 1.09375 0.875q0.40625 0.578125 0.40625 1.4375q0 0.828125 -0.484375 1.578125q-0.484375 0.734375 -1.40625 1.140625q-0.921875 0.390625 -2.078125 0.390625q-1.921875 0 -2.9375 -0.796875q-1.0 -0.796875 -1.28125 -2.359375z" fill-rule="nonzero"></path><path fill="#000000" fill-opacity="0.0" d="m184.0 8.0l0 176.0" fill-rule="nonzero"></path><path stroke="#000000" stroke-width="1.0" stroke-linejoin="round" stroke-linecap="butt" stroke-dasharray="4.0,3.0" d="m184.0 8.0l0 176.0" fill-rule="nonzero"></path><path fill="#000000" fill-opacity="0.0" d="m168.0 192.0l-120.0 -88.0" fill-rule="nonzero"></path><path stroke="#ff0000" stroke-width="1.0" stroke-linejoin="round" stroke-linecap="butt" stroke-dasharray="1.0,3.0" d="m168.0 192.0l-120.0 -88.0" fill-rule="nonzero"></path><path fill="#000000" fill-opacity="0.0" d="m200.0 192.0l40.0 -88.0" fill-rule="nonzero"></path><path stroke="#ff0000" stroke-width="1.0" stroke-linejoin="round" stroke-linecap="butt" stroke-dasharray="1.0,3.0" d="m200.0 192.0l40.0 -88.0" fill-rule="nonzero"></path></g></svg>

