# Alias OBJ Model File
# Exported from SketchUp, (c) 2000-2012 Trimble Navigation Limited
# File units = meters

mtllib concert.mtl

g Mesh1 half1 Group1 Model

usemtl FrontColor
v 2.88765e-14 5.53672 -45.12
vt -646.457 336.092
vn 0 0 -1
v 2.88765e-14 12.41 -45.12
vt -646.457 606.693
v 16.42 5.53672 -45.12
vt -2.27374e-13 336.092
f 1/1/1 2/2/1 3/3/1

v 16.42 12.41 -45.12
vt -2.27374e-13 606.693
f 4/4/1 3/3/1 2/2/1

vt -1973.23 606.693
vn 1 -2.83513e-16 -3.03845e-18
v 16.42 12.1061 -44.0626
vt -1931.6 594.728
vt -1973.23 336.092
f 4/5/2 5/6/2 3/7/2

vt 1.12391e-13 2020.72
vn 9.26942e-20 0.967811 0.25168
vt 2.2605e-13 2064.04
vn 1.85328e-19 0.961095 0.276218
v 4.0427e-14 12.1061 -44.0626
vt 646.457 2020.72
f 5/8/3 4/9/4 6/10/3

vt 646.457 2064.04
f 2/11/4 6/10/3 4/9/4

vt 646.457 2016.17
v 4.0427e-14 11.8564 -42.9911
vt 646.457 1972.86
vn 0 0.979359 0.20213
vt 1.13687e-13 2016.17
f 6/12/3 7/13/5 5/14/3

v 16.42 11.8564 -42.9911
vt 1.13687e-13 1972.86
f 8/15/5 5/14/3 7/13/5

vt -1889.41 584.896
f 5/6/2 8/16/2 3/7/2

v 16.42 11.6615 -41.9082
vt -1846.78 577.223
f 8/16/2 9/17/2 3/7/2

vt 1.13687e-13 1919.83
vn -1.41223e-19 0.988372 0.152057
vt 1.13687e-13 1963.14
v 4.0427e-14 11.6615 -41.9082
vt 646.457 1919.83
f 9/18/6 8/19/5 10/20/6

vt 646.457 1963.14
f 7/21/5 10/20/6 8/19/5

vt 646.457 1905.09
v 4.0427e-14 11.5219 -40.8169
vt 646.457 1861.77
vn -2.24222e-19 0.994826 0.101591
vt 1.17797e-13 1905.09
f 10/22/6 11/23/7 9/24/6

v 16.42 11.5219 -40.8169
vt 4.01463e-15 1861.77
f 12/25/7 9/24/6 11/23/7

vt -1803.81 571.728
f 9/17/2 12/26/2 3/7/2

v 16.42 11.438 -39.7199
vt -1760.62 568.425
f 12/26/2 13/27/2 3/7/2

vt 3.83167e-15 1798.84
vn -4.268e-20 0.998706 0.0508612
vt 3.92567e-15 1842.16
v 4.0427e-14 11.438 -39.7199
vt 646.457 1798.84
f 13/28/8 12/29/7 14/30/8

vt 646.457 1842.16
f 11/31/7 14/30/8 12/29/7

vt 646.457 1774.52
v 4.0427e-14 11.41 -38.62
vt 646.457 1731.2
vn 4.66339e-20 1 -2.55955e-15
vt -5.57922e-15 1774.52
f 14/32/8 15/33/9 13/34/8

v 16.42 11.41 -38.62
vt -5.442e-15 1731.2
f 16/35/9 13/34/8 15/33/9

vt -1717.32 567.323
f 13/27/2 16/36/2 3/7/2

v 16.42 11.438 -37.5201
vt -1674.02 568.425
f 16/36/2 17/37/2 3/7/2

vt -8.30795e-16 -1659.02
vn 8.93139e-20 0.998706 -0.0508612
vt -8.52285e-16 -1702.34
v 4.0427e-14 11.438 -37.5201
vt -646.457 -1659.02
f 17/38/10 16/39/9 18/40/10

vt -646.457 -1702.34
f 15/41/9 18/40/10 16/39/9

vt -646.457 -1625.8
v 4.0427e-14 11.5219 -36.4231
vt -646.457 -1582.49
vn -5.82236e-20 0.994826 -0.101591
vt -3.64319e-15 -1625.8
f 18/42/10 19/43/11 17/44/10

v 16.42 11.5219 -36.4231
vt -3.5492e-15 -1582.49
f 20/45/11 17/44/10 19/43/11

vt -1630.83 571.728
v 16.42 3.43713 -37.2842
vt -1664.73 253.43
f 17/37/2 20/46/2 21/47/2

v 16.42 3.43713 -36.2842
vt -1625.36 253.43
f 21/47/2 20/46/2 22/48/2

v 16.42 11.6615 -35.3318
vt -1587.86 577.223
f 23/49/2 22/48/2 20/46/2

v 16.42 1.43713 -36.2842
vt -1625.36 174.69
f 22/48/2 23/49/2 24/50/2

v 16.42 1.43713 -34.2842
vt -1546.62 174.69
f 24/50/2 23/49/2 25/51/2

v 16.42 11.8564 -34.2489
vt -1545.23 584.896
f 23/49/2 26/52/2 25/51/2

vt -1.13687e-13 -1417.18
vn 0 0.979359 -0.20213
vt -1.13687e-13 -1460.49
vn -1.41223e-19 0.988372 -0.152057
v 4.0427e-14 11.8564 -34.2489
vt -646.457 -1417.18
f 26/53/12 23/54/13 27/55/12

v 4.0427e-14 11.6615 -35.3318
vt -646.457 -1460.49
f 28/56/13 27/55/12 23/54/13

vt -646.457 -1501.81
vt -1.10153e-13 -1501.81
vt -646.457 -1545.12
f 28/57/13 23/58/13 19/59/11

vt 3.62963e-15 -1545.12
f 20/60/11 19/59/11 23/58/13

vt -646.457 -1372.14
v 4.0427e-14 12.1061 -33.1774
vt -646.457 -1328.83
vn 9.26942e-20 0.967811 -0.25168
vt -1.13687e-13 -1372.14
f 27/61/12 29/62/14 26/63/12

v 16.42 12.1061 -33.1774
vt -1.13687e-13 -1328.83
f 30/64/14 26/63/12 29/62/14

vt -1503.05 594.728
f 26/52/2 30/65/2 25/51/2

v 16.42 12.41 -32.12
vt -1461.42 606.693
f 30/65/2 31/66/2 25/51/2

vt -1.14695e-13 -1280.3
vt -646.457 -1280.3
vt -2.28354e-13 -1236.98
vn 1.85328e-19 0.961095 -0.276218
f 30/67/14 29/68/14 31/69/15

v 2.88765e-14 12.41 -32.12
vt -646.457 -1236.98
f 32/70/15 31/69/15 29/68/14

vt 646.457 1572.14
vn 7.08239e-19 0.961095 0.276218
v 4.0427e-14 12.1061 -31.0626
vt 646.457 1528.82
vn 3.54234e-19 0.967811 0.25168
vt 2.23627e-13 1572.14
f 32/71/16 33/72/17 31/73/16

v 16.42 12.1061 -31.0626
vt 1.10046e-13 1528.82
f 34/74/17 31/73/16 33/72/17

vt -1419.79 594.728
f 31/66/2 34/75/2 25/51/2

v 16.42 11.8564 -29.9911
vt -1377.6 584.896
f 34/75/2 35/76/2 25/51/2

vt 1.13687e-13 1474.4
vt 1.13687e-13 1517.72
v 4.0427e-14 11.8564 -29.9911
vt 646.457 1474.4
f 35/77/5 34/78/17 36/79/5

vt 646.457 1517.72
f 33/80/17 36/79/5 34/78/17

vt 646.457 1459.43
v 4.0427e-14 11.6615 -28.9082
vt 646.457 1416.11
vt 1.13687e-13 1459.43
f 36/81/5 37/82/6 35/83/5

v 16.42 11.6615 -28.9082
vt 1.13687e-13 1416.11
f 38/84/6 35/83/5 37/82/6

vt -1334.97 577.223
f 35/76/2 38/85/2 25/51/2

v 16.42 11.5219 -27.8169
vt -1292 571.728
f 38/85/2 39/86/2 25/51/2

vt 2.87552e-15 1354.1
vn -1.41223e-19 0.994826 0.101591
vt 1.16658e-13 1397.41
v 4.0427e-14 11.5219 -27.8169
vt 646.457 1354.1
f 39/87/18 38/88/6 40/89/18

vt 646.457 1397.41
f 37/90/6 40/89/18 38/88/6

vt 646.457 1331.84
v 4.0427e-14 11.438 -26.7199
vt 646.457 1288.52
vn 4.03194e-20 0.998706 0.0508612
vt 0 1331.84
f 40/91/18 41/92/19 39/93/18

v 16.42 11.438 -26.7199
vt 0 1288.52
f 42/94/19 39/93/18 41/92/19

vt -1248.81 568.425
f 39/86/2 42/95/2 25/51/2

v 16.42 11.41 -25.62
vt -1205.51 567.323
f 42/95/2 43/96/2 25/51/2

vt -3.82013e-15 1219.55
vn 8.06388e-20 1 1.73529e-18
vt -3.95735e-15 1262.87
v 4.0427e-14 11.41 -25.62
vt 646.457 1219.55
f 43/97/20 42/98/19 44/99/20

vt 646.457 1262.87
f 41/100/19 44/99/20 42/98/19

vt -646.457 -1190.69
v 4.0427e-14 11.438 -24.5201
vt -646.457 -1147.37
vn 4.03194e-20 0.998706 -0.0508612
vt -3.82013e-15 -1190.69
f 44/101/20 45/102/21 43/103/20

v 16.42 11.438 -24.5201
vt -3.68291e-15 -1147.37
f 46/104/21 43/103/20 45/102/21

vt -1162.21 568.425
f 43/96/2 46/105/2 25/51/2

v 16.42 11.5219 -23.4231
vt -1119.02 571.728
f 46/105/2 47/106/2 25/51/2

vt 0 -1072.17
vn -1.41223e-19 0.994826 -0.101591
vt 0 -1115.48
v 4.0427e-14 11.5219 -23.4231
vt -646.457 -1072.17
f 47/107/22 46/108/21 48/109/22

vt -646.457 -1115.48
f 45/110/21 48/109/22 46/108/21

vt 2.49053e-15 -1037.45
vt -646.457 -1037.45
v 16.42 11.6615 -22.3318
vt -1.11292e-13 -994.13
f 47/111/22 48/112/22 49/113/13

v 4.0427e-14 11.6615 -22.3318
vt -646.457 -994.13
f 50/114/13 49/113/13 48/112/22

vt -646.457 -956.779
v 4.0427e-14 11.8564 -21.2489
vt -646.457 -913.463
vt -1.13687e-13 -956.779
f 50/115/13 51/116/12 49/117/13

v 16.42 11.8564 -21.2489
vt -1.13687e-13 -913.463
f 52/118/12 49/117/13 51/116/12

vt -1076.05 577.223
vt -1033.42 584.896
v 16.42 -0.781437 -21.7021
vt -1051.26 87.345
f 49/119/2 52/120/2 53/121/2

v 16.42 -0.781437 -20.7021
vt -1011.89 87.345
f 53/121/2 52/120/2 54/122/2

v 16.42 12.1061 -20.1774
vt -991.237 594.728
f 52/120/2 55/123/2 54/122/2

vt -1.13687e-13 -830.375
vn 5.35682e-20 0.967811 -0.25168
vt -1.13687e-13 -873.691
v 4.0427e-14 12.1061 -20.1774
vt -646.457 -830.375
f 55/124/23 52/125/12 56/126/23

vt -646.457 -873.691
f 51/127/12 56/126/23 52/125/12

vt -1.14071e-13 -788.398
vt -646.457 -788.398
v 16.42 12.41 -19.12
vt -2.27742e-13 -745.082
vn 1.07102e-19 0.961095 -0.276218
f 55/128/23 56/129/23 57/130/24

v 2.88765e-14 12.41 -19.12
vt -646.457 -745.082
f 58/131/24 57/130/24 56/129/23

vt 646.457 1080.24
v 4.0427e-14 12.1061 -18.0626
vt 646.457 1036.93
vt 2.26737e-13 1080.24
f 58/132/4 59/133/3 57/134/4

v 16.42 12.1061 -18.0626
vt 1.13078e-13 1036.93
f 60/135/3 57/134/4 59/133/3

vt -949.606 606.693
vt -907.975 594.728
f 57/136/2 60/137/2 54/122/2

v 16.42 11.8564 -16.9911
vt -865.79 584.896
f 60/137/2 61/138/2 54/122/2

vt 1.13687e-13 975.951
vt 1.13687e-13 1019.27
v 4.0427e-14 11.8564 -16.9911
vt 646.457 975.951
f 61/139/5 60/140/3 62/141/5

vt 646.457 1019.27
f 59/142/3 62/141/5 60/140/3

vt 646.457 955.711
v 4.0427e-14 11.6615 -15.9082
vt 646.457 912.395
vt 1.13687e-13 955.711
f 62/143/5 63/144/6 61/145/5

v 16.42 11.6615 -15.9082
vt 1.13687e-13 912.395
f 64/146/6 61/145/5 63/144/6

vt -823.159 577.223
f 61/138/2 64/147/2 54/122/2

v 16.42 11.5219 -14.8169
vt -780.193 571.728
f 64/147/2 65/148/2 54/122/2

vt 1.73642e-15 846.421
vt 1.15519e-13 889.737
v 4.0427e-14 11.5219 -14.8169
vt 646.457 846.421
f 65/149/18 64/150/6 66/151/18

vt 646.457 889.737
f 63/152/6 66/151/18 64/150/6

vt 646.457 821.516
v 4.0427e-14 11.438 -13.7199
vt 646.457 778.2
vt 0 821.516
f 66/153/18 67/154/19 65/155/18

v 16.42 11.438 -13.7199
vt 0 778.2
f 68/156/19 65/155/18 67/154/19

vt -737.003 568.425
f 65/148/2 68/157/2 54/122/2

v 16.42 11.41 -12.62
vt -693.701 567.323
f 68/157/2 69/158/2 54/122/2

vt -2.19826e-15 707.908
vn 2.95847e-19 1 -2.63243e-15
vt -2.33548e-15 751.224
v 4.0427e-14 11.41 -12.62
vt 646.457 707.908
f 69/159/25 68/160/19 70/161/25

vt 646.457 751.224
f 67/162/19 70/161/25 68/160/19

vt -646.457 -679.044
v 4.0427e-14 11.438 -11.5201
vt -646.457 -635.728
vn 1.99852e-18 0.998706 -0.0508612
vt -1.39317e-14 -679.044
f 70/163/25 71/164/26 69/165/25

v 16.42 11.438 -11.5201
vt -1.3062e-14 -635.728
f 72/166/26 69/165/25 71/164/26

vt -650.399 568.425
f 69/158/2 72/167/2 54/122/2

v 16.42 11.5219 -10.4231
vt -607.209 571.728
f 72/167/2 73/168/2 54/122/2

vt -2.7751e-14 -561.846
vn 4.50173e-18 0.994826 -0.101591
vt -2.97249e-14 -605.162
v 4.0427e-14 11.5219 -10.4231
vt -646.457 -561.846
f 73/169/27 72/170/26 74/171/27

vt -646.457 -605.162
f 71/172/26 74/171/27 72/170/26

vt -2.63996e-14 -529.77
vt -646.457 -529.77
v 16.42 11.6615 -9.33176
vt -1.38218e-13 -486.454
vn 4.68705e-18 0.988372 -0.152057
f 73/173/27 74/174/27 75/175/28

v 4.0427e-14 11.6615 -9.33176
vt -646.457 -486.454
f 76/176/28 75/175/28 74/174/27

vt -646.457 -453.063
v 4.0427e-14 11.8564 -8.24894
vt -646.457 -409.747
vn 1.9283e-18 0.979359 -0.20213
vt -1.25967e-13 -453.063
f 76/177/28 77/178/29 75/179/28

v 16.42 11.8564 -8.24894
vt -1.25039e-13 -409.747
f 78/180/29 75/179/28 77/178/29

vt -564.243 577.223
vt -521.612 584.896
f 75/181/2 78/182/2 54/122/2

v 16.42 -3 -8.12
vt -516.535 -6.40185e-29
f 54/122/2 78/182/2 79/183/2

v 16.42 12.1061 -7.17742
vt -479.426 594.728
f 78/182/2 80/184/2 79/183/2

vt -1.13687e-13 -331.923
vt -1.13687e-13 -375.239
v 4.0427e-14 12.1061 -7.17742
vt -646.457 -331.923
f 80/185/14 78/186/29 81/187/14

vt -646.457 -375.239
f 77/188/29 81/187/14 78/186/29

vt -1.14009e-13 -296.499
vt -646.457 -296.499
v 16.42 12.41 -6.12
vt -2.27667e-13 -253.183
f 80/189/14 81/190/14 82/191/15

v 2.88765e-14 12.41 -6.12
vt -646.457 -253.183
f 83/192/15 82/191/15 81/190/14

vt 646.457 437.795
vn 0 1 -0
v 2.88765e-14 12.41 -5.12
vt 646.457 398.425
vt 2.27374e-13 437.795
f 83/193/30 84/194/30 82/195/30

v 16.42 12.41 -5.12
vt 2.27374e-13 398.425
f 85/196/30 82/195/30 84/194/30

vt -398.425 606.693
v 16.42 -3 -5.12
vt -398.425 -6.41202e-29
vt -437.795 606.693
f 85/197/2 86/198/2 82/199/2

vt 2.27374e-13 0
vn 0 0 1
vt 2.27374e-13 606.693
v 12.5 -3 -5.12
vt 154.331 1.42109e-14
f 86/200/31 85/201/31 87/202/31

v 12.5 -2 -5.12
vt 154.331 39.3701
f 88/203/31 87/202/31 85/201/31

v 2.88765e-14 -3 -5.12
vt 646.457 1.42109e-13
f 89/204/31 87/202/31 88/203/31

v 2.88765e-14 -3 -8.12
vt -646.457 516.535
vn -2.59888e-16 -1 1.20319e-15
vt -154.331 398.425
vt -646.457 398.425
f 90/205/32 87/206/32 89/207/32

vt -2.27374e-13 398.425
vn -9.20805e-17 -1 5.03987e-16
f 86/208/33 87/206/33 90/205/33

vt -2.27374e-13 516.535
vn 0 -1 -0
f 79/209/34 86/208/34 90/205/34

f 79/183/2 82/199/2 86/198/2

f 80/184/2 82/199/2 79/183/2

vt -646.457 508.688
vn 4.2865e-17 -0.984808 -0.173648
v 2.88765e-14 -0.781437 -20.7021
vt -646.457 1011.69
vt -3.5488e-13 508.688
f 90/210/35 91/211/35 79/212/35

vt -4.77159e-13 1011.69
f 54/213/35 79/212/35 91/211/35

vt -646.457 1011.89
vn 7.69394e-17 -1 -3.60956e-16
v 2.88765e-14 -0.781437 -21.7021
vt -646.457 1051.26
vt -2.20653e-13 1011.89
f 91/214/36 92/215/36 54/216/36

vt -2.20653e-13 1051.26
f 53/217/36 54/216/36 92/215/36

vt -646.457 1050.46
vn 5.57245e-17 -0.984808 -0.173648
v 2.88765e-14 1.43713 -34.2842
vt -646.457 1553.46
vt -5.64729e-13 1050.46
f 92/218/37 93/219/37 53/220/37

vt -7.23692e-13 1553.46
f 25/221/37 53/220/37 93/219/37

f 25/51/2 49/119/2 53/121/2

f 47/106/2 49/119/2 25/51/2

vt -646.457 1546.62
vn 5.53818e-17 -1 3.50985e-16
v 12.315 1.43713 -35.2842
vt -161.614 1585.99
vt -2.17699e-13 1546.62
f 93/222/38 94/223/38 25/224/38

v 2.88765e-14 1.43713 -35.2842
vt -646.457 1585.99
f 95/225/38 94/223/38 93/222/38

vt -646.457 174.69
v 2.88765e-14 3.43713 -35.2842
vt -646.457 253.43
vt -161.614 174.69
f 95/226/1 96/227/1 94/228/1

v 8.21 3.43713 -35.2842
vt -323.228 253.43
f 97/229/1 94/228/1 96/227/1

vt 1585.99 401.576
vn -0.437992 -0.898979 -0
v 8.21 3.43713 -36.2842
vt 1625.36 401.576
vt 1585.99 221.801
f 97/230/39 98/231/39 94/232/39

vt -323.228 1585.99
vn 3.88531e-17 -1 -1.00732e-16
v 2.88765e-14 3.43713 -37.2842
vt -646.457 1664.73
vt -323.228 1625.36
f 97/233/40 99/234/40 98/235/40

f 96/225/40 99/234/40 97/233/40

vt -2.17527e-13 1625.36
f 98/235/40 99/234/40 22/236/40

vt -2.17527e-13 1664.73
f 21/237/40 22/236/40 99/234/40

vt -646.457 1673.6
vn 6.33666e-17 -0.965926 -0.258819
vt -646.457 1992.98
vt -6.34949e-13 1673.6
f 99/238/41 1/239/41 21/240/41

vt -7.10478e-13 1992.98
f 3/241/41 21/240/41 1/239/41

f 3/7/2 17/37/2 21/47/2

vt -2.27374e-13 253.43
v 12.315 1.43713 -36.2842
f 98/229/1 22/242/1 100/228/1

vt -2.27374e-13 174.69
f 24/243/1 100/228/1 22/242/1

vt -2.17699e-13 1625.36
vt -161.614 1625.36
f 24/244/38 25/224/38 100/245/38

f 94/223/38 100/245/38 25/224/38

vt 1625.36 221.801
f 100/246/39 94/232/39 98/231/39

v 1.73259e-14 -2 -5.12
vt 646.457 39.3701
f 101/247/31 89/204/31 88/203/31

v 8.72792 -2 5
vt -302.838 0
f 88/206/34 102/248/34 101/207/34

vt -319.432 39.3701
vn 0.937025 0 0.349262
v 12.5 10.65 -5.12
vt -319.432 537.402
vt 105.77 39.3701
f 88/249/42 103/250/42 102/251/42

vt 154.331 537.402
f 103/252/31 88/203/31 85/201/31

vt 646.457 606.693
f 84/253/31 103/252/31 85/201/31

v 2.31012e-14 10.65 -5.12
vt 646.457 537.402
f 104/254/31 103/252/31 84/253/31

vt 154.331 586.149
vn 0 0.909008 0.416778
vt 646.457 586.149
v 8.72792 6.01 5
vt 302.838 147.841
f 103/255/43 104/256/43 105/257/43

v 1.73259e-14 6.01 5
vt 646.457 147.841
f 106/258/43 105/257/43 104/256/43

vt 302.838 354.724
vt 646.457 354.724
vt 302.838 39.3701
f 105/259/31 106/260/31 102/261/31

v 1.73259e-14 -2 5
f 107/247/31 102/261/31 106/260/31

vt -646.457 0
f 107/262/34 101/207/34 102/248/34

vt 105.77 354.724
f 105/263/42 102/251/42 103/250/42

f 73/168/2 75/181/2 54/122/2

f 55/123/2 57/136/2 54/122/2

g Mesh2 half2 Group1 Model

v -16.42 5.53672 -45.12
v -5.77529e-15 12.41 -45.12
v -5.77529e-15 5.53672 -45.12
f 108/3/1 109/2/1 110/1/1

v -16.42 12.41 -45.12
f 109/2/1 108/3/1 111/4/1

vn -1 -2.83513e-16 -3.03845e-18
v -16.42 12.1061 -44.0626
f 108/7/44 112/6/44 111/5/44

v -16.42 11.8564 -42.9911
f 108/7/44 113/16/44 112/6/44

v -16.42 11.6615 -41.9082
f 108/7/44 114/17/44 113/16/44

v -16.42 11.5219 -40.8169
f 108/7/44 115/26/44 114/17/44

v -16.42 11.438 -39.7199
f 108/7/44 116/27/44 115/26/44

v -16.42 11.41 -38.62
f 108/7/44 117/36/44 116/27/44

v -16.42 11.438 -37.5201
f 108/7/44 118/37/44 117/36/44

v -16.42 3.43713 -37.2842
f 119/47/44 118/37/44 108/7/44

v -16.42 11.5219 -36.4231
f 119/47/44 120/46/44 118/37/44

v -16.42 3.43713 -36.2842
f 121/48/44 120/46/44 119/47/44

v -16.42 11.6615 -35.3318
f 120/46/44 121/48/44 122/49/44

v -16.42 1.43713 -36.2842
f 123/50/44 122/49/44 121/48/44

v -16.42 1.43713 -34.2842
f 124/51/44 122/49/44 123/50/44

v -16.42 11.8564 -34.2489
f 124/51/44 125/52/44 122/49/44

v -16.42 12.1061 -33.1774
f 124/51/44 126/65/44 125/52/44

v -16.42 12.41 -32.12
f 124/51/44 127/66/44 126/65/44

v -16.42 12.1061 -31.0626
f 124/51/44 128/75/44 127/66/44

v -16.42 11.8564 -29.9911
f 124/51/44 129/76/44 128/75/44

v -16.42 11.6615 -28.9082
f 124/51/44 130/85/44 129/76/44

v -16.42 11.5219 -27.8169
f 124/51/44 131/86/44 130/85/44

v -16.42 11.438 -26.7199
f 124/51/44 132/95/44 131/86/44

v -16.42 11.41 -25.62
f 124/51/44 133/96/44 132/95/44

v -16.42 11.438 -24.5201
f 124/51/44 134/105/44 133/96/44

v -16.42 11.5219 -23.4231
f 124/51/44 135/106/44 134/105/44

v -16.42 11.6615 -22.3318
f 124/51/44 136/119/44 135/106/44

v -16.42 -0.781437 -21.7021
f 137/121/44 136/119/44 124/51/44

v -16.42 11.8564 -21.2489
f 137/121/44 138/120/44 136/119/44

v -16.42 -0.781437 -20.7021
f 139/122/44 138/120/44 137/121/44

v -16.42 12.1061 -20.1774
f 139/122/44 140/123/44 138/120/44

v -16.42 12.41 -19.12
f 139/122/44 141/136/44 140/123/44

v -16.42 12.1061 -18.0626
f 139/122/44 142/137/44 141/136/44

v -16.42 11.8564 -16.9911
f 139/122/44 143/138/44 142/137/44

v -16.42 11.6615 -15.9082
f 139/122/44 144/147/44 143/138/44

v -16.42 11.5219 -14.8169
f 139/122/44 145/148/44 144/147/44

v -16.42 11.438 -13.7199
f 139/122/44 146/157/44 145/148/44

v -16.42 11.41 -12.62
f 139/122/44 147/158/44 146/157/44

v -16.42 11.438 -11.5201
f 139/122/44 148/167/44 147/158/44

v -16.42 11.5219 -10.4231
f 139/122/44 149/168/44 148/167/44

v -16.42 11.6615 -9.33176
f 139/122/44 150/181/44 149/168/44

v -16.42 11.8564 -8.24894
f 139/122/44 151/182/44 150/181/44

v -16.42 -3 -8.12
f 152/183/44 151/182/44 139/122/44

v -16.42 12.1061 -7.17742
f 152/183/44 153/184/44 151/182/44

v -16.42 12.41 -6.12
f 152/183/44 154/199/44 153/184/44

v -16.42 -3 -5.12
f 155/198/44 154/199/44 152/183/44

v -16.42 12.41 -5.12
f 154/199/44 155/198/44 156/197/44

v -12.5 -3 -5.12
f 157/202/31 156/201/31 155/200/31

v -12.5 -2 -5.12
f 156/201/31 157/202/31 158/203/31

v -5.77529e-15 -3 -5.12
f 158/203/31 157/202/31 159/204/31

vn 2.59888e-16 -1 1.20319e-15
v -5.77529e-15 -3 -8.12
f 159/207/45 157/206/45 160/205/45

vn 9.20805e-17 -1 5.03987e-16
f 160/205/46 157/206/46 155/208/46

f 160/205/34 155/208/34 152/209/34

vn -4.2865e-17 -0.984808 -0.173648
v -5.77529e-15 -0.781437 -20.7021
f 152/212/47 161/211/47 160/210/47

f 161/211/47 152/212/47 139/213/47

vn -7.69394e-17 -1 -3.60956e-16
v -5.77529e-15 -0.781437 -21.7021
f 139/216/48 162/215/48 161/214/48

f 162/215/48 139/216/48 137/217/48

vn -5.57245e-17 -0.984808 -0.173648
v -5.77529e-15 1.43713 -34.2842
f 137/220/49 163/219/49 162/218/49

f 163/219/49 137/220/49 124/221/49

vn -5.53818e-17 -1 3.50985e-16
v -12.315 1.43713 -35.2842
f 124/224/50 164/223/50 163/222/50

v -12.315 1.43713 -36.2842
f 124/224/50 165/245/50 164/223/50

f 165/245/50 124/224/50 123/244/50

f 121/242/1 165/228/1 123/243/1

v -8.21 3.43713 -36.2842
f 165/228/1 121/242/1 166/229/1

vn -3.88531e-17 -1 -1.00732e-16
v -5.77529e-15 3.43713 -37.2842
f 121/236/51 167/234/51 166/235/51

f 167/234/51 121/236/51 119/237/51

vn -6.33666e-17 -0.965926 -0.258819
f 119/240/52 110/239/52 167/238/52

f 110/239/52 119/240/52 108/241/52

v -8.21 3.43713 -35.2842
f 166/235/51 167/234/51 168/233/51

v -5.77529e-15 3.43713 -35.2842
f 168/233/51 167/234/51 169/225/51

f 169/227/1 164/228/1 168/229/1

v -5.77529e-15 1.43713 -35.2842
f 164/228/1 169/227/1 170/226/1

f 163/222/50 164/223/50 170/225/50

vn 0.437992 -0.898979 -0
f 164/232/53 166/231/53 168/230/53

f 166/231/53 164/232/53 165/246/53

v 5.77529e-15 -2 -5.12
f 158/203/31 159/204/31 171/247/31

v -8.72792 -2 5
f 171/207/34 172/248/34 158/206/34

v 5.77529e-15 -2 5
f 172/248/34 171/207/34 173/262/34

v 5.77529e-15 6.01 5
f 174/260/31 172/261/31 173/247/31

v -8.72792 6.01 5
f 172/261/31 174/260/31 175/259/31

v 0 10.65 -5.12
f 176/256/43 175/257/43 174/258/43

v -12.5 10.65 -5.12
f 175/257/43 176/256/43 177/255/43

v -5.77529e-15 12.41 -5.12
f 178/253/31 177/252/31 176/254/31

f 156/201/31 177/252/31 178/253/31

f 156/201/31 158/203/31 177/252/31

vn -0.937025 0 0.349262
f 172/251/54 177/250/54 158/249/54

f 177/250/54 172/251/54 175/263/54

f 178/194/30 154/195/30 156/196/30

v -5.77529e-15 12.41 -6.12
f 154/195/30 178/194/30 179/193/30

v -1.73259e-14 12.1061 -7.17742
vn -9.26942e-20 0.967811 -0.25168
vn -1.85328e-19 0.961095 -0.276218
f 180/190/55 154/191/56 179/192/56

f 154/191/56 180/190/55 153/189/55

vn -1.9283e-18 0.979359 -0.20213
f 180/187/55 151/186/57 153/185/55

v -1.73259e-14 11.8564 -8.24894
f 151/186/57 180/187/55 181/188/57

vn -4.68705e-18 0.988372 -0.152057
f 181/178/57 150/179/58 151/180/57

v -1.73259e-14 11.6615 -9.33176
f 150/179/58 181/178/57 182/177/58

v -1.73259e-14 11.5219 -10.4231
vn -4.50173e-18 0.994826 -0.101591
f 183/174/59 150/175/58 182/176/58

f 150/175/58 183/174/59 149/173/59

vn -1.99852e-18 0.998706 -0.0508612
f 183/171/59 148/170/60 149/169/59

v -1.73259e-14 11.438 -11.5201
f 148/170/60 183/171/59 184/172/60

vn -2.95847e-19 1 -2.63243e-15
f 184/164/60 147/165/61 148/166/60

v -1.73259e-14 11.41 -12.62
f 147/165/61 184/164/60 185/163/61

vn -4.03194e-20 0.998706 0.0508612
f 185/161/61 146/160/62 147/159/61

v -1.73259e-14 11.438 -13.7199
f 146/160/62 185/161/61 186/162/62

vn 1.41223e-19 0.994826 0.101591
f 186/154/62 145/155/63 146/156/62

v -1.73259e-14 11.5219 -14.8169
f 145/155/63 186/154/62 187/153/63

vn 1.41223e-19 0.988372 0.152057
f 187/151/63 144/150/64 145/149/63

v -1.73259e-14 11.6615 -15.9082
f 144/150/64 187/151/63 188/152/64

f 188/144/64 143/145/5 144/146/64

v -1.73259e-14 11.8564 -16.9911
f 143/145/5 188/144/64 189/143/5

vn -9.26942e-20 0.967811 0.25168
f 189/141/5 142/140/65 143/139/5

v -1.73259e-14 12.1061 -18.0626
f 142/140/65 189/141/5 190/142/65

vn -1.85328e-19 0.961095 0.276218
f 190/133/65 141/134/66 142/135/65

v -5.77529e-15 12.41 -19.12
f 141/134/66 190/133/65 191/132/66

v -1.73259e-14 12.1061 -20.1774
vn -5.35682e-20 0.967811 -0.25168
vn -1.07102e-19 0.961095 -0.276218
f 192/129/67 141/130/68 191/131/68

f 141/130/68 192/129/67 140/128/67

f 192/126/67 138/125/12 140/124/67

v -1.73259e-14 11.8564 -21.2489
f 138/125/12 192/126/67 193/127/12

vn 1.41223e-19 0.988372 -0.152057
f 193/116/12 136/117/69 138/118/12

v -1.73259e-14 11.6615 -22.3318
f 136/117/69 193/116/12 194/115/69

v -1.73259e-14 11.5219 -23.4231
vn 1.41223e-19 0.994826 -0.101591
f 195/112/70 136/113/69 194/114/69

f 136/113/69 195/112/70 135/111/70

vn -4.03194e-20 0.998706 -0.0508612
f 195/109/70 134/108/71 135/107/70

v -1.73259e-14 11.438 -24.5201
f 134/108/71 195/109/70 196/110/71

vn -8.06388e-20 1 1.73529e-18
f 196/102/71 133/103/72 134/104/71

v -1.73259e-14 11.41 -25.62
f 133/103/72 196/102/71 197/101/72

f 197/99/72 132/98/62 133/97/72

v -1.73259e-14 11.438 -26.7199
f 132/98/62 197/99/72 198/100/62

f 198/92/62 131/93/63 132/94/62

v -1.73259e-14 11.5219 -27.8169
f 131/93/63 198/92/62 199/91/63

f 199/89/63 130/88/64 131/87/63

v -1.73259e-14 11.6615 -28.9082
f 130/88/64 199/89/63 200/90/64

f 200/82/64 129/83/5 130/84/64

v -1.73259e-14 11.8564 -29.9911
f 129/83/5 200/82/64 201/81/5

vn -3.54234e-19 0.967811 0.25168
f 201/79/5 128/78/73 129/77/5

v -1.73259e-14 12.1061 -31.0626
f 128/78/73 201/79/5 202/80/73

vn -7.08239e-19 0.961095 0.276218
f 202/72/73 127/73/74 128/74/73

v -5.77529e-15 12.41 -32.12
f 127/73/74 202/72/73 203/71/74

v -1.73259e-14 12.1061 -33.1774
f 204/68/55 127/69/56 203/70/56

f 127/69/56 204/68/55 126/67/55

f 204/62/55 125/63/12 126/64/55

v -1.73259e-14 11.8564 -34.2489
f 125/63/12 204/62/55 205/61/12

f 205/55/12 122/54/69 125/53/12

v -1.73259e-14 11.6615 -35.3318
f 122/54/69 205/55/12 206/56/69

v -1.73259e-14 11.5219 -36.4231
vn 5.82236e-20 0.994826 -0.101591
f 207/59/75 122/58/69 206/57/69

f 122/58/69 207/59/75 120/60/75

vn -8.93139e-20 0.998706 -0.0508612
f 207/43/75 118/44/76 120/45/75

v -1.73259e-14 11.438 -37.5201
f 118/44/76 207/43/75 208/42/76

vn -4.66339e-20 1 -2.55955e-15
f 208/40/76 117/39/77 118/38/76

v -1.73259e-14 11.41 -38.62
f 117/39/77 208/40/76 209/41/77

vn 4.268e-20 0.998706 0.0508612
f 209/33/77 116/34/78 117/35/77

v -1.73259e-14 11.438 -39.7199
f 116/34/78 209/33/77 210/32/78

vn 2.24222e-19 0.994826 0.101591
f 210/30/78 115/29/79 116/28/78

v -1.73259e-14 11.5219 -40.8169
f 115/29/79 210/30/78 211/31/79

f 211/23/79 114/24/64 115/25/79

v -1.73259e-14 11.6615 -41.9082
f 114/24/64 211/23/79 212/22/64

f 212/20/64 113/19/5 114/18/64

v -1.73259e-14 11.8564 -42.9911
f 113/19/5 212/20/64 213/21/5

f 213/13/5 112/14/65 113/15/5

v -1.73259e-14 12.1061 -44.0626
f 112/14/65 213/13/5 214/12/65

f 214/10/65 111/9/66 112/8/65

f 111/9/66 214/10/65 109/11/66

