# Alias OBJ Model File
# Exported from SketchUp, (c) 2000-2012 Trimble Navigation Limited
# File units = meters

mtllib small_cuboid.mtl

g Mesh1 Model

usemtl FrontColor
v 0 0 -0
vt 0 0
vn 0 -1 -0
v 0 0 -3
vt 0 118.11
v 2 0 -3
vt -78.7402 118.11
v 2 0 -0
vt -78.7402 0
f 1/1/1 2/2/1 3/3/1 4/4/1 

vt -118.11 0
vn -1 0 -0
v 0 2.5 -0
vt 0 98.4252
v 0 2.5 -3
vt -118.11 98.4252
f 2/5/2 1/1/2 5/6/2 6/7/2 

vn 0 0 1
vt 78.7402 0
v 2 2.5 -0
vt 78.7402 98.4252
f 1/1/3 4/8/3 7/9/3 5/6/3 

vn 1 0 -0
vt 118.11 0
v 2 2.5 -3
vt 118.11 98.4252
f 4/1/4 3/10/4 8/11/4 7/6/4 

vn 0 0 -1
vt -78.7402 98.4252
f 3/4/5 2/1/5 6/6/5 8/12/5 

vn 0 1 -0
vt 78.7402 118.11
f 6/2/6 5/1/6 7/8/6 8/13/6 

